<svg width="340" height="218" viewBox="0 0 340 218" fill="none" xmlns="http://www.w3.org/2000/svg">
<path d="M78.0718 35.5724C76.582 36.5083 75.8371 36.3317 75.4647 35.749C75.0923 35.1663 75.2342 34.407 76.7239 33.4711C79.4374 31.7406 81.4237 31.9701 81.4237 31.9701C81.4237 31.9701 80.8207 33.8242 78.0718 35.5724Z" fill="#ACC9C5"/>
<path d="M78.4087 46.962C77.3091 48.3394 76.5465 48.3924 75.9967 47.9686C75.4646 47.5271 75.3405 46.7678 76.4578 45.4081C78.4619 42.9006 80.4127 42.4768 80.4127 42.4768C80.4127 42.4768 80.4482 44.4192 78.4087 46.962Z" fill="#ACC9C5"/>
<path d="M78.7812 76.6103L78.4442 76.5926C78.4442 76.5396 78.6748 71.3834 76.6707 63.914C74.8263 57.0272 70.6231 46.6972 61.1526 36.632L61.4009 36.4024C70.9246 46.5206 75.1278 56.9036 76.99 63.8433C79.0117 71.3657 78.7812 76.5573 78.7812 76.6103Z" fill="#ACC9C5"/>
<path d="M70.8181 49.187L70.5343 49.0281C76.7061 38.6274 72.3255 26.4255 72.2723 26.3019L72.5916 26.1783C72.6448 26.3019 77.0785 38.645 70.8181 49.187Z" fill="#ACC9C5"/>
<path d="M65.604 43.9778C62.2167 44.1015 59.5919 42.5122 59.5564 42.4769L59.7337 42.1944C59.7692 42.2297 63.1211 44.2604 67.1115 43.4658L67.1824 43.8013C66.6327 43.9072 66.1184 43.9602 65.604 43.9778Z" fill="#ACC9C5"/>
<path d="M60.8688 34.7779C62.6955 36.3141 62.8728 37.1794 62.4295 37.7091C61.9861 38.2389 61.0816 38.2212 59.2549 36.7026C55.9385 33.9126 55.1404 31.617 55.1404 31.617C55.1404 31.617 57.4991 31.9702 60.8688 34.7779Z" fill="#ACC9C5"/>
<path d="M60.4077 41.382C62.6069 42.2826 63.0503 43.0595 62.7842 43.7129C62.5182 44.3486 61.6492 44.5958 59.45 43.6776C55.4419 42.0354 53.9877 40.0929 53.9877 40.0929C53.9877 40.0929 56.3464 39.7045 60.4077 41.382Z" fill="#ACC9C5"/>
<path d="M68.8318 38.5568C69.2929 40.252 68.885 40.9054 68.2111 41.082C67.5549 41.2762 66.8632 40.9054 66.4021 39.2102C65.5686 36.12 66.3666 34.3012 66.3666 34.3012C66.3666 34.3012 67.9628 35.4313 68.8318 38.5568Z" fill="#ACC9C5"/>
<path d="M73.2478 24.801C73.8862 27.0965 73.5315 27.9265 72.8576 28.103C72.2014 28.2973 71.4743 27.7675 70.8358 25.472C69.6653 21.3223 70.3215 18.9737 70.3215 18.9737C70.3215 18.9737 72.0595 20.5806 73.2478 24.801Z" fill="#ACC9C5"/>
<path d="M262.605 58.8459C264.218 59.5699 264.928 59.2874 265.212 58.6517C265.495 58.0336 265.265 57.3096 263.651 56.568C260.725 55.2436 258.792 55.7204 258.792 55.7204C258.792 55.7204 259.643 57.4862 262.605 58.8459Z" fill="#ACC9C5"/>
<path d="M263.828 70.1649C265.105 71.3834 265.885 71.3304 266.364 70.836C266.825 70.3239 266.843 69.5646 265.566 68.3638C263.225 66.1565 261.239 65.9976 261.239 65.9976C261.239 65.9976 261.469 67.9223 263.828 70.1649Z" fill="#ACC9C5"/>
<path d="M267.517 99.5835L267.854 99.5305C267.836 99.4775 266.914 94.3919 267.872 86.7283C268.759 79.6473 271.507 68.8404 279.506 57.5921L279.24 57.3979C271.188 68.7168 268.439 79.5767 267.535 86.6929C266.577 94.4273 267.517 99.5482 267.517 99.5835Z" fill="#ACC9C5"/>
<path d="M271.649 71.3479L271.915 71.136C264.378 61.6712 267.056 48.9925 267.074 48.8689L266.755 48.7983C266.719 48.9219 264.006 61.7594 271.649 71.3479Z" fill="#ACC9C5"/>
<path d="M276.119 65.4856C279.488 65.1324 281.865 63.19 281.9 63.1723L281.687 62.9251C281.652 62.9428 278.602 65.4326 274.54 65.1854L274.522 65.5032C275.072 65.5385 275.604 65.5209 276.119 65.4856Z" fill="#ACC9C5"/>
<path d="M279.541 55.7203C277.945 57.4862 277.892 58.3691 278.406 58.8459C278.921 59.305 279.807 59.146 281.404 57.3979C284.312 54.2017 284.791 51.8179 284.791 51.8179C284.791 51.8179 282.503 52.4712 279.541 55.7203Z" fill="#ACC9C5"/>
<path d="M280.907 62.2009C278.85 63.384 278.513 64.2316 278.868 64.8143C279.204 65.4147 280.109 65.5383 282.166 64.3552C285.908 62.1656 287.079 60.0466 287.079 60.0466C287.079 60.0466 284.702 59.9936 280.907 62.2009Z" fill="#ACC9C5"/>
<path d="M272.181 60.541C271.951 62.2891 272.447 62.8719 273.121 62.9602C273.813 63.0484 274.434 62.607 274.664 60.8588C275.072 57.698 274.044 56.0028 274.044 56.0028C274.044 56.0028 272.607 57.3272 272.181 60.541Z" fill="#ACC9C5"/>
<path d="M265.921 47.5272C265.602 49.8757 266.063 50.635 266.737 50.741C267.428 50.8293 268.085 50.2112 268.404 47.8627C268.989 43.5717 268.014 41.3468 268.014 41.3468C268.014 41.3468 266.506 43.1833 265.921 47.5272Z" fill="#ACC9C5"/>
<path d="M339.468 195.291C339.468 207.829 266.187 218 175.792 218C85.3963 218 12.1152 207.829 12.1152 195.291C12.1152 182.754 85.3963 172.583 175.792 172.583C266.187 172.583 339.468 182.754 339.468 195.291Z" fill="#B8D5DC"/>
<g opacity="0.6">
<path d="M200.284 135.024C200.284 135.024 232.278 56.6567 253.311 66.1039C274.345 75.551 220.182 113.887 211.599 136.984L200.284 135.024Z" fill="#ACC9C5"/>
</g>
<path d="M208.642 140.016C208.642 140.016 267.363 62.5847 292.369 80.084C317.358 97.5657 239.004 122.835 222.777 145.932L208.642 140.016Z" fill="#CCD39C"/>
<path d="M216.516 143.407C227.441 127.232 244.786 113.546 257.413 104.912C271.105 95.5527 282.349 89.955 282.455 89.8843L282.118 89.1957C281.994 89.2487 270.715 94.8816 256.97 104.276C244.289 112.946 226.856 126.702 215.878 142.965L216.516 143.407Z" fill="#C2C68E"/>
<path d="M305.224 178.463C293.058 176.856 288.802 194.532 277.079 186.78C267.165 180.229 266.615 178.905 261.72 180.67C260.053 181.288 258.475 182.154 257.038 183.196C255.318 184.449 252.268 186.127 248.756 185.526C227.297 181.836 210.431 142.264 237.37 133.417C239.321 132.781 241.697 133.117 244.287 133.611C258.315 136.295 260.266 143.835 276.352 131.987C292.455 120.138 298.609 147.579 307.796 149.963C317 152.364 325.815 152.505 329.362 164.389C332.909 176.291 317.373 180.07 305.224 178.463Z" fill="#ACC9C5"/>
<g opacity="0.5">
<path d="M236.022 157.326L235.809 156.549C236.164 156.461 270.996 148.091 330 167.639L329.752 168.398C270.96 148.921 236.359 157.238 236.022 157.326Z" fill="#68A1BF"/>
<path d="M280.537 147.844C275.305 138.167 275.926 132.199 275.961 131.951L276.76 132.04C276.76 132.093 276.157 138.044 281.246 147.455L280.537 147.844Z" fill="#68A1BF"/>
<path d="M278.923 156.479C278.125 151.905 280.307 146.484 285.237 140.834C288.926 136.596 292.898 133.664 292.952 133.629L293.43 134.283C293.271 134.388 277.895 145.813 279.721 156.338L278.923 156.479Z" fill="#68A1BF"/>
<path d="M294.796 160.664C294.157 159.569 293.838 158.898 293.838 158.863L294.565 158.527C294.636 158.668 301.322 172.883 316.947 177.933L316.681 178.71C304.107 174.631 297.19 164.743 294.796 160.664Z" fill="#68A1BF"/>
<path d="M296.091 180.865C293.98 175.691 294.388 171.418 295.098 168.734C295.86 165.838 297.137 164.16 297.19 164.09L297.829 164.584C297.776 164.655 292.969 171.082 296.836 180.565L296.091 180.865Z" fill="#68A1BF"/>
</g>
<path d="M291.424 119.008C295.095 119.096 296.159 120.279 296.124 121.727C296.088 123.158 294.971 124.288 291.282 124.199C284.578 124.023 281.404 121.339 281.404 121.339C281.404 121.339 284.614 118.814 291.424 119.008Z" fill="#ACC9C5"/>
<path d="M285.27 109.72C288.054 107.689 289.544 107.954 290.342 109.049C291.158 110.126 290.98 111.627 288.196 113.658C283.106 117.383 279.204 117.225 279.204 117.225C279.204 117.225 280.127 113.499 285.27 109.72Z" fill="#ACC9C5"/>
<path d="M110.119 143.2C110.119 143.2 118.525 67.0396 97.6866 65.5563C76.848 64.0554 103.415 117.825 100.258 139.915L110.119 143.2Z" fill="#ACC9C5"/>
<path d="M118.986 128.437C118.986 128.437 69.5412 33.9832 39.2853 48.3923C9.02941 62.8015 89.2448 104.316 102.582 132.269L118.986 128.437Z" fill="#92BCB5"/>
<path d="M109.835 130.662C100.968 111.185 84.6869 93.2266 72.5916 81.6075C59.4855 68.9818 48.3302 60.8767 48.2238 60.8061L48.7203 60.1174C48.8267 60.188 60.0353 68.3285 73.1946 80.9895C85.3431 92.6792 101.695 110.708 110.615 130.309L109.835 130.662Z" fill="#68A1BF"/>
<path d="M109.374 181.359C98.733 179.717 106.873 183.249 94.051 181.871C91.0538 186.904 76.1386 180.67 71.7758 172.707C66.2425 162.571 66.1184 164.831 47.7094 165.573C34.4968 166.102 34.5146 154.589 30.1518 145.654C30.0808 145.489 30.004 145.33 29.9212 145.177C28.2186 141.858 25.8422 138.944 21.8873 137.196C17.6841 135.359 13.4631 132.852 9.88065 129.938C9.58507 129.691 9.28949 129.444 8.9939 129.197C1.91764 123.14 -2.37423 115.564 1.40332 108.819C1.49791 108.654 1.59249 108.495 1.68708 108.342C2.37875 107.23 3.30097 106.153 4.45374 105.111C16.549 94.198 26.5161 100.008 38.4517 103.557C45.0492 105.517 55.8321 98.2771 65.8346 95.487C65.9765 95.4517 66.1184 95.4105 66.2602 95.3634C74.1878 93.2621 81.5833 94.092 85.9461 104.705C86.0289 104.928 86.1175 105.146 86.2121 105.358C95.9841 128.755 103.362 121.798 120.76 128.243C123.988 129.444 126.878 130.68 128.617 132.711C144.88 151.676 129.361 172.777 109.374 181.359Z" fill="#CCD39C"/>
<path d="M113.808 160.399L114.57 159.675C114.233 159.339 80.9625 126.371 1.52743 108.307L1.29688 109.331C80.4305 127.325 113.489 160.081 113.808 160.399Z" fill="#C2C68E"/>
<path d="M70.4457 119.644C82.8956 112.333 86.283 105.235 86.4249 104.934L85.4672 104.493C85.4317 104.563 82.0444 111.627 69.8959 118.725L70.4457 119.644Z" fill="#C2C68E"/>
<path d="M66.3312 130.398C70.357 125.806 71.6162 118.266 69.9669 108.59C68.7254 101.35 66.278 95.3813 66.2425 95.3283L65.2671 95.7168C65.3735 95.9463 74.7908 119.149 65.5331 129.691L66.3312 130.398Z" fill="#C2C68E"/>
<path d="M45.7054 124.323C47.1596 123.546 47.9754 122.999 48.0286 122.981L47.4257 122.098C47.266 122.222 30.0631 133.594 9.11805 128.685L8.86975 129.709C25.7535 133.664 40.243 127.272 45.7054 124.323Z" fill="#C2C68E"/>
<path d="M30.4711 146.078C36.3769 141.716 38.842 136.648 39.8706 133.17C40.988 129.391 40.7042 126.671 40.6865 126.548L39.6401 126.671C39.6401 126.777 40.651 137.231 29.8326 145.23L30.4711 146.078Z" fill="#C2C68E"/>
<path d="M36.7669 90.0305C32.4573 88.4412 31.6769 86.6048 32.2976 84.9272C32.9361 83.2497 34.7273 82.3491 39.0369 83.9384C46.8936 86.8343 49.5538 91.2842 49.5538 91.2842C49.5538 91.2842 44.7476 92.9794 36.7669 90.0305Z" fill="#ACC9C5"/>
<g opacity="0.6">
<path d="M175.845 75.4801C175.845 75.4801 160.327 16.784 176.483 13.1994C192.64 9.5971 178.133 54.8199 183.187 71.7542L175.845 75.4801Z" fill="#ACC9C5"/>
</g>
<path d="M145.82 78.7117C144.684 80.2479 142.113 81.2368 142.113 81.2368C142.113 81.2368 122.64 22.9116 133.228 5.81837C143.798 -11.2572 167.172 11.469 173.38 45.161C178.079 70.6242 185.475 83.3205 185.475 83.3205L145.82 78.7117Z" fill="#FFB27D"/>
<path d="M150.413 13.3055C150.413 13.3055 140.499 19.3622 138.229 28.7035C135.977 38.0447 157.134 13.3231 150.413 13.3055Z" fill="#B39637"/>
<path d="M157.099 22.6465C157.099 22.6465 142.716 30.1336 139.453 41.6291C136.189 53.1423 166.835 22.6818 157.099 22.6465Z" fill="#B39637"/>
<path d="M162.898 33.4357C162.898 33.4357 145.979 41.9823 142.131 55.1201C138.282 68.2578 174.355 33.4887 162.898 33.4357Z" fill="#B39637"/>
<path d="M167.172 46.8914C167.172 46.8914 150.253 55.4204 146.405 68.5581C142.556 81.6959 178.629 46.9267 167.172 46.8914Z" fill="#B39637"/>
<path d="M173.521 75.0036C173.521 75.0036 189.235 0.344452 212.911 4.44117C236.569 8.53788 189.341 52.6482 185.581 74.4915L173.521 75.0036Z" fill="#C2C68E"/>
<path d="M180.279 74.7739C182.602 59.6407 190.317 44.1191 196.4 33.7537C202.997 22.5407 209.098 14.7887 209.169 14.7181L208.672 14.3473C208.619 14.4179 202.483 22.1876 195.868 33.4535C189.767 43.8542 181.999 59.4465 179.658 74.6856L180.279 74.7739Z" fill="#CCD39C"/>
<path d="M229.866 53.8665C223.747 58.6695 229.937 68.4522 221.193 70.324C213.798 71.9132 212.946 71.5777 211.581 74.5796C211.12 75.6038 210.818 76.6986 210.659 77.8111C210.464 79.1531 209.878 81.2897 208.052 82.6141C196.843 90.7016 171.251 80.7953 179.161 64.638C179.729 63.4726 180.953 62.5543 182.318 61.6008C189.767 56.4269 194.094 58.8814 195.814 46.3441C197.535 33.7714 212.805 43.1656 217.983 40.0577C223.162 36.9499 227.134 33.0297 234.158 36.685C241.163 40.3579 236.002 49.0811 229.866 53.8665Z" fill="#CCD39C"/>
<path d="M189.501 75.8691L189.057 75.6218C189.164 75.4276 200.798 55.9152 235.913 37.8332L236.162 38.2923C201.153 56.3037 189.607 75.6748 189.501 75.8691Z" fill="#C2C68E"/>
<path d="M204.913 51.4828C198.173 49.558 195.708 46.6268 195.619 46.5032L196.01 46.1677C196.027 46.203 198.492 49.1166 205.054 50.9884L204.913 51.4828Z" fill="#C2C68E"/>
<path d="M208.158 56.0386C205.71 54.3611 204.203 50.9707 203.795 46.2383C203.494 42.689 203.919 39.5811 203.919 39.5458L204.434 39.6164C204.416 39.7401 202.82 51.7653 208.442 55.6148L208.158 56.0386Z" fill="#C2C68E"/>
<path d="M217.114 50.706C216.334 50.5117 215.873 50.3528 215.855 50.3351L216.032 49.8584C216.121 49.8937 225.591 53.1605 234.831 48.3221L235.08 48.7812C227.631 52.6837 220.04 51.43 217.114 50.706Z" fill="#C2C68E"/>
<path d="M226.922 59.0761C223.605 57.7341 221.832 55.668 220.927 54.1494C219.952 52.5072 219.739 51.2005 219.739 51.1475L220.253 51.0592C220.253 51.1122 221.069 56.1625 227.117 58.5993L226.922 59.0761Z" fill="#C2C68E"/>
<path d="M188.916 12.352C189.483 10.0564 190.388 9.56199 191.292 9.79155C192.196 10.0211 192.746 10.8864 192.161 13.1643C191.115 17.3316 188.969 18.9385 188.969 18.9385C188.969 18.9385 187.834 16.5723 188.916 12.352Z" fill="#ACC9C5"/>
<path d="M224.421 30.5753C226.815 29.763 227.773 30.2575 228.11 31.1934C228.429 32.1292 227.986 33.1181 225.592 33.948C221.264 35.449 218.586 34.4778 218.586 34.4778C218.586 34.4778 220.023 32.0939 224.421 30.5753Z" fill="#ACC9C5"/>
<path d="M217.699 25.984C218.71 23.8474 219.686 23.5295 220.519 23.918C221.37 24.3065 221.761 25.26 220.75 27.3967C218.923 31.2992 216.529 32.4646 216.529 32.4646C216.529 32.4646 215.855 29.9395 217.699 25.984Z" fill="#ACC9C5"/>
<path d="M119.483 52.6654C119.483 52.6654 96.6934 20.2978 88.1806 26.7254C79.6856 33.1531 108.239 45.0724 114.57 54.6961L119.483 52.6654Z" fill="#ACC9C5"/>
<path d="M118.472 52.33C118.472 52.33 93.2174 28.8798 85.6623 36.4728C78.1072 44.0659 106.856 48.1626 113.95 55.2436L118.472 52.33Z" fill="#92BCB5"/>
<path d="M115.954 53.9898C111.148 49.0102 104.266 45.2843 99.336 43.0241C94.0155 40.5872 89.7591 39.2982 89.7059 39.2982L89.7946 39.0333C89.8301 39.051 94.1042 40.3223 99.4602 42.7768C104.408 45.0371 111.307 48.7807 116.149 53.7956L115.954 53.9898Z" fill="#68A1BF"/>
<path d="M120.849 52.1888C120.849 52.1888 104.107 22.1168 113.329 16.6604C122.551 11.1864 119.589 39.9517 124.768 48.5159L120.849 52.1888Z" fill="#92BCB5"/>
<path d="M123.065 50.158C119.376 44.3131 117.408 36.7554 116.397 31.4579C115.315 25.7189 115.102 21.3044 115.102 21.2514L114.819 21.2691C114.819 21.3044 115.031 25.7366 116.131 31.5109C117.142 36.826 119.11 44.419 122.835 50.2992L123.065 50.158Z" fill="#68A1BF"/>
<path d="M143.638 93.9154C143.638 93.9154 111.272 66.1213 110.474 59.2346C109.676 52.3478 122.303 45.4258 127.233 46.3087C132.164 47.2093 148.302 82.1197 151.175 87.788C154.315 93.9507 146.866 96.4758 143.638 93.9154Z" fill="#B39637"/>
<path d="M117.426 62.9073C117.337 62.9073 117.231 62.8543 117.195 62.7484C117.142 62.6248 117.213 62.4835 117.337 62.4305C117.373 62.4129 121.115 60.8943 122.764 58.74C122.853 58.634 123.012 58.6163 123.119 58.7046C123.225 58.7929 123.243 58.9342 123.172 59.0578C121.416 61.3004 117.674 62.8367 117.514 62.8896C117.491 62.9014 117.461 62.9073 117.426 62.9073Z" fill="#D86A54"/>
<path d="M126.222 62.7483C126.116 62.7483 126.027 62.6953 125.992 62.607C125.938 62.4658 126.009 62.3245 126.134 62.2715C126.169 62.2539 129.893 60.7353 131.56 58.581C131.649 58.475 131.809 58.4573 131.915 58.5456C132.022 58.6339 132.039 58.7929 131.951 58.8988C130.213 61.1591 126.47 62.6777 126.311 62.7306C126.287 62.7424 126.258 62.7483 126.222 62.7483Z" fill="#D86A54"/>
<path d="M122.09 54.2548C121.984 54.2548 121.895 54.1842 121.859 54.0959C121.806 53.9723 121.859 53.8133 122.001 53.778C122.037 53.7604 125.761 52.2418 127.428 50.0874C127.517 49.9815 127.677 49.9638 127.783 50.0345C127.889 50.1228 127.907 50.2817 127.818 50.3876C126.08 52.6479 122.338 54.1665 122.179 54.2371C122.155 54.2489 122.125 54.2548 122.09 54.2548Z" fill="#D86A54"/>
<path d="M124.271 72.3546C124.183 72.3546 124.076 72.3016 124.041 72.2134C123.988 72.0721 124.059 71.9308 124.183 71.8778C124.218 71.8602 127.96 70.3416 129.61 68.2049C129.698 68.0813 129.858 68.0637 129.964 68.152C130.071 68.2402 130.106 68.3992 130.018 68.5051C128.262 70.7654 124.537 72.284 124.378 72.337C124.342 72.3487 124.307 72.3546 124.271 72.3546Z" fill="#D86A54"/>
<path d="M133.033 71.2245C132.926 71.2245 132.838 71.1539 132.802 71.0656C132.749 70.9243 132.82 70.783 132.944 70.73C132.979 70.73 135.498 69.8118 136.526 68.3109C136.597 68.2049 136.757 68.1696 136.881 68.2579C136.988 68.3285 137.023 68.4875 136.934 68.5934C135.817 70.218 133.228 71.1715 133.121 71.2068C133.086 71.2186 133.056 71.2245 133.033 71.2245Z" fill="#D86A54"/>
<path d="M130.071 76.8927C129.964 76.8927 129.876 76.8221 129.84 76.7161C129.787 76.5925 129.858 76.4513 129.982 76.3983C130.018 76.3983 132.536 75.4801 133.565 73.9791C133.636 73.8732 133.795 73.8378 133.919 73.9261C134.026 73.9968 134.061 74.1557 133.973 74.2616C132.855 75.8862 130.266 76.8398 130.159 76.8751C130.124 76.8868 130.094 76.8927 130.071 76.8927Z" fill="#D86A54"/>
<path d="M136.083 77.7401C135.977 77.7401 135.888 77.6872 135.852 77.5812C135.799 77.4576 135.87 77.3163 135.994 77.2634C136.03 77.2457 138.548 76.3275 139.577 74.8442C139.648 74.7206 139.807 74.7029 139.932 74.7735C140.038 74.8618 140.073 75.0031 139.985 75.1267C138.867 76.7513 136.278 77.6872 136.172 77.7225C136.136 77.7343 136.107 77.7401 136.083 77.7401Z" fill="#D86A54"/>
<path d="M134.895 83.9206C134.788 83.9206 134.7 83.8676 134.664 83.7616C134.611 83.638 134.682 83.4791 134.806 83.4438C134.841 83.4261 137.36 82.5079 138.388 81.0246C138.459 80.901 138.619 80.8833 138.743 80.954C138.85 81.0423 138.885 81.1835 138.796 81.3071C137.679 82.9317 135.09 83.8676 134.983 83.9029C134.948 83.9147 134.918 83.9206 134.895 83.9206Z" fill="#D86A54"/>
<path d="M140.8 83.5498C140.694 83.5498 140.605 83.4792 140.57 83.3732C140.517 83.2496 140.588 83.1084 140.712 83.0554C140.747 83.0554 143.266 82.1371 144.294 80.6362C144.365 80.5302 144.525 80.4949 144.649 80.5656C144.755 80.6538 144.791 80.8128 144.702 80.9187C143.585 82.5433 140.996 83.4792 140.889 83.5321C140.854 83.5439 140.824 83.5498 140.8 83.5498Z" fill="#D86A54"/>
<path d="M115.368 77.3872L95.8953 179.576C95.0973 183.69 99.2473 187.38 104.639 187.38H228.464C233.927 187.38 238.077 183.619 237.19 179.452L215.482 77.2636C214.791 73.9615 211.084 71.5423 206.757 71.5423H124.112C119.731 71.5423 116.007 74.0321 115.368 77.3872Z" fill="#6DA49A"/>
<path d="M128.617 85.3866C128.617 83.25 129.716 81.0251 132.767 81.0251C134.913 81.0251 136.42 82.7732 136.651 84.8922C136.899 87.2408 134.788 89.1479 132.642 89.1479C130.496 89.1479 128.617 87.5233 128.617 85.3866Z" fill="#1A0B07"/>
<path d="M130.284 85.263C130.284 84.0093 130.94 82.7202 132.713 82.7202C133.972 82.7202 134.859 83.7267 134.983 84.9805C135.125 86.3402 133.901 87.4526 132.642 87.4526C131.383 87.4526 130.284 86.4991 130.284 85.263Z" fill="#8FB3E3"/>
<path d="M190.423 85.3866C190.423 83.25 191.523 81.0251 194.591 81.0251C196.737 81.0251 198.244 82.7732 198.475 84.8922C198.723 87.2408 196.595 89.1479 194.467 89.1479C192.321 89.1479 190.423 87.5233 190.423 85.3866Z" fill="#1A0B07"/>
<path d="M192.108 85.263C192.108 84.0093 192.746 82.7202 194.537 82.7202C195.779 82.7202 196.666 83.7267 196.808 84.9805C196.949 86.3402 195.708 87.4526 194.467 87.4526C193.207 87.4526 192.108 86.4991 192.108 85.263Z" fill="#8FB3E3"/>
<path d="M194.857 87.4524C194.691 87.4524 194.532 87.4348 194.378 87.3995C193.083 87.1346 192.268 85.8985 192.516 84.6095C192.587 84.3269 198.351 55.2791 184.837 45.9909C179.126 42.0707 170.578 40.2519 161.994 41.1702C152.949 42.1237 145.004 45.9732 140.215 51.7298C137.289 55.2438 133.831 61.7067 133.937 72.5489C134.008 79.2237 135.427 84.4152 135.427 84.4682C135.782 85.722 135.037 87.011 133.777 87.3642C132.518 87.7173 131.206 86.9757 130.851 85.7219C130.798 85.4924 129.291 79.983 129.202 72.7255C129.078 62.9605 131.614 54.6434 136.562 48.7102C139.488 45.2139 143.266 42.3533 147.788 40.2166C151.974 38.2565 156.585 36.9851 161.497 36.4731C171.181 35.4489 180.917 37.5502 187.532 42.106C191.381 44.7548 194.254 48.7632 196.098 54.043C197.517 58.0868 198.333 62.9075 198.51 68.3639C198.794 77.4932 197.233 85.2452 197.162 85.563C196.95 86.6755 195.956 87.4524 194.857 87.4524Z" fill="#E9F9F6"/>
<path d="M152.523 174.543C155.609 170.005 161.178 170.287 165.736 173.342C170.276 176.397 172.936 181.642 169.85 186.18C166.055 191.795 159.156 192.802 154.598 189.747C150.058 186.692 148.728 180.158 152.523 174.543Z" fill="#EE7162"/>
<path d="M165.222 173.201C165.222 173.201 165.47 168.292 163.058 167.921C160.646 167.55 163.359 172.601 165.186 174.137C167.03 175.655 169.212 175.391 169.23 174.366C169.265 173.342 166.8 173.819 166.8 173.819C166.8 173.819 169.212 171.894 167.953 171.029C166.711 170.164 165.222 173.201 165.222 173.201Z" fill="#4C857C"/>
<path d="M169.478 181.748C169.478 181.748 169.673 177.757 167.917 177.298C166.144 176.856 169.638 183.99 169.478 181.748Z" fill="#FF998A"/>
<path d="M120.068 172.777C123.154 168.239 128.723 168.522 133.281 171.576C137.821 174.631 140.481 179.876 137.395 184.414C133.6 190.029 126.701 191.036 122.143 187.981C117.603 184.926 116.273 178.393 120.068 172.777Z" fill="#EE7162"/>
<path d="M132.766 171.435C132.766 171.435 133.015 166.526 130.603 166.155C128.191 165.785 130.904 170.835 132.731 172.371C134.575 173.89 136.757 173.625 136.775 172.601C136.81 171.576 134.345 172.053 134.345 172.053C134.345 172.053 136.757 170.129 135.498 169.263C134.256 168.398 132.766 171.435 132.766 171.435Z" fill="#4C857C"/>
<path d="M133.76 182.012C131.649 175.797 135.977 170.711 142.202 168.61C148.427 166.509 155.379 167.798 157.489 174.013C160.114 181.695 156.07 188.987 149.845 191.089C143.62 193.19 136.384 189.694 133.76 182.012Z" fill="#FD8772"/>
<path d="M141.705 168.98C141.705 168.98 137.182 165.202 135.072 167.215C132.979 169.228 139.772 170.323 142.574 169.687C145.376 169.051 146.688 166.791 145.731 166.014C144.773 165.255 143.443 167.939 143.443 167.939C143.443 167.939 143.337 164.248 141.598 164.795C139.86 165.361 141.705 168.98 141.705 168.98Z" fill="#4C857C"/>
<path d="M152.967 171.152C152.967 171.152 149.295 168.062 147.575 169.404C145.873 170.764 155.237 172.636 152.967 171.152Z" fill="#FF998A"/>
<path d="M206.808 188.381C206.808 188.381 206.891 190.365 205.583 191.006C204.296 191.667 200.415 192.453 201.971 193.631C202.864 194.292 206.766 193.548 207.887 193.465C208.987 193.383 210.066 193.796 210.855 192.99C211.706 192.101 210.502 188.113 210.502 188.113C210.502 188.113 209.568 188.671 208.696 188.712C207.451 188.774 206.808 188.381 206.808 188.381Z" fill="#1A0B07"/>
<path d="M213.782 188.443C213.782 188.443 213.885 190.427 212.578 191.089C211.27 191.729 207.409 192.515 208.945 193.693C209.838 194.354 213.74 193.61 214.861 193.527C215.961 193.445 217.061 193.858 217.829 193.052C218.68 192.163 217.476 188.175 217.476 188.175C217.476 188.175 216.542 188.753 215.691 188.795C214.425 188.836 213.782 188.443 213.782 188.443Z" fill="#4A254B"/>
<path d="M195.931 139.36C196.388 133.056 209.049 140.166 209.049 140.166L206.641 161.762L209.34 165.276C209.34 165.276 213.968 183.462 211.478 189.518C210.98 190.716 208.904 190.675 207.928 190.551C201.058 189.683 199.563 168.045 197.861 158.538C197.01 153.764 195.64 143.162 195.931 139.36Z" fill="#E9F9F6"/>
<path d="M220.424 139.484C220.05 141.034 214.259 142.584 207.389 140.889C200.497 139.174 195.142 137.376 195.516 135.846C195.889 134.296 201.867 133.594 208.738 135.288C215.629 137.004 220.797 137.934 220.424 139.484Z" fill="#1A0B07"/>
<path d="M201.348 137.769L210.979 186.893C211.27 188.981 212.827 190.634 214.861 191.006L215.753 191.171C217.85 191.543 219.78 189.869 219.739 187.699L218.348 140.352C218.306 139.815 216.48 139.257 215.961 139.133C211.602 138.037 201.411 135.764 201.348 137.769Z" fill="#E9F9F6"/>
<path d="M198.463 115.345C196.782 114.539 195.246 113.403 195.246 113.403C195.246 113.403 198.941 106.975 206.579 107.471C207.638 107.533 212.391 108.463 213.429 108.649C226.547 111.171 220.465 138.885 220.424 139.484C207.181 133.387 195.516 135.847 195.516 135.847C195.516 125.265 198.256 115.862 198.463 115.345Z" fill="#B39637"/>
<path d="M210.917 186.893L207.845 165.11C207.825 164.986 206.496 153.516 206.392 151.429C206.289 149.342 204.794 147.068 204.773 147.048L204.877 146.986C204.898 147.006 206.413 149.3 206.517 151.408C206.621 153.516 207.949 164.966 207.97 165.09L211.042 186.872L210.917 186.893Z" fill="#1A0B07"/>
<path d="M215.691 139.07C215.691 139.07 206.496 135.95 196.907 136.446C196.471 136.487 196.097 136.818 196.076 137.252L195.827 140.765L205.915 139.959L215.691 139.07Z" fill="#366F90"/>
<path d="M211.062 116.254C210.855 117.122 212.702 118.259 215.152 118.796C217.622 119.334 219.759 119.086 219.946 118.218C220.133 117.37 218.306 116.234 215.857 115.696C213.387 115.159 211.249 115.407 211.062 116.254Z" fill="#1A0B07"/>
<path d="M194.893 113.278C194.893 113.278 188.459 130.184 197.156 140.269L200.892 137.086C200.892 137.086 195.786 129.936 198.463 115.345L194.893 113.278Z" fill="#FFB27D"/>
<path d="M199.231 115.696C199.231 115.696 195.163 114.498 193.897 113.258C193.897 113.258 197.986 107.326 206.579 107.471L199.231 115.696Z" fill="#B39637"/>
<path d="M201.473 139.918C200.954 139.98 196.346 145.539 193.565 143.204C192.153 142.005 192.195 140.331 192.174 140.29C192.146 140.193 192.119 140.111 192.091 140.042C191.655 138.74 191.178 138.905 187.878 137.769C187.006 137.459 186.487 137.025 186.196 136.508C186.155 136.439 186.113 136.37 186.072 136.301C186.044 136.219 186.016 136.136 185.989 136.053C185.989 136.053 185.982 136.053 185.968 136.053C185.574 134.917 185.885 133.47 185.802 132.085L185.781 132.065C185.795 132.051 185.795 132.037 185.781 132.023V132.003C185.767 131.768 185.74 131.534 185.698 131.3C185.657 131.093 185.601 130.893 185.532 130.701C185.366 130.246 185.117 129.791 184.723 129.399C184.038 128.717 183.394 127.911 182.896 127.063C182.813 126.939 182.737 126.815 182.668 126.691C181.402 124.377 181.194 121.876 183.664 120.925C184.432 120.636 185.117 120.512 185.74 120.512C185.989 120.512 186.224 120.526 186.445 120.553C188.272 120.863 189.559 122.248 191.136 123.488C193.316 125.203 200.601 121.938 201.224 127.146C201.252 127.339 201.265 127.552 201.265 127.787C201.279 127.842 201.286 127.897 201.286 127.952C201.286 128.021 201.286 128.083 201.286 128.138C201.286 128.345 201.293 128.537 201.307 128.717C201.618 133.801 203.736 133.119 206.787 135.867C207.389 136.405 207.825 136.963 208.115 137.5C208.115 137.514 208.115 137.521 208.115 137.521C208.8 138.781 208.115 140.373 206.745 140.745C204.587 141.344 201.639 139.897 201.473 139.918Z" fill="#C2C68E"/>
<path d="M199.086 136.508C200.124 137.831 200.892 138.988 201.473 139.918C201.39 139.932 201.3 139.939 201.203 139.939C200.982 139.58 200.726 139.195 200.435 138.781C200.131 138.327 199.785 137.837 199.397 137.314C199.342 137.245 199.294 137.176 199.252 137.107C198.712 136.405 198.104 135.647 197.425 134.834C197.384 134.779 197.336 134.724 197.28 134.669C196.491 133.718 195.578 132.726 194.561 131.672C194.45 131.562 194.333 131.445 194.208 131.321C193.835 130.935 193.447 130.549 193.046 130.163C192.548 129.695 192.036 129.219 191.51 128.737C191.427 128.668 191.351 128.599 191.282 128.531V128.51C188.874 126.361 186.03 124.087 182.647 121.773L182.792 121.566C187.109 124.542 190.576 127.435 193.336 130.101C193.696 130.459 194.049 130.811 194.395 131.155C194.506 131.265 194.616 131.383 194.727 131.507C194.769 131.548 194.81 131.589 194.852 131.631C194.907 131.686 194.969 131.748 195.038 131.817C195.454 132.257 195.855 132.691 196.242 133.119C196.242 133.119 196.249 133.119 196.263 133.119C196.637 133.546 196.99 133.952 197.322 134.338L197.342 134.359C197.986 135.103 198.567 135.826 199.086 136.487C199.086 136.501 199.086 136.508 199.086 136.508Z" fill="#CCD39C"/>
<path d="M196.699 129.895C199.999 129.378 201.328 128.117 201.39 128.055L201.224 127.89C201.203 127.89 199.875 129.13 196.658 129.647L196.699 129.895Z" fill="#CCD39C"/>
<path d="M194.893 131.879C196.159 131.238 197.052 129.688 197.529 127.456C197.861 125.782 197.841 124.273 197.841 124.253H197.592C197.592 124.315 197.675 130.163 194.789 131.672L194.893 131.879Z" fill="#CCD39C"/>
<path d="M190.97 128.82C191.344 128.758 191.572 128.717 191.572 128.717L191.531 128.469C191.468 128.489 186.798 129.502 182.709 126.65L182.564 126.857C185.864 129.151 189.538 128.985 190.97 128.82Z" fill="#CCD39C"/>
<path d="M185.843 132.25C187.483 131.796 188.438 130.907 188.957 130.246C189.517 129.502 189.683 128.902 189.683 128.861L189.455 128.799C189.455 128.82 188.77 131.196 185.781 132.002L185.843 132.25Z" fill="#CCD39C"/>
<path d="M193.523 140.228C197.135 139.773 199.48 137.231 199.501 137.19L199.335 137.025C199.294 137.066 196.388 140.228 192.091 140.042L192.07 140.29C192.568 140.304 193.053 140.283 193.523 140.228Z" fill="#CCD39C"/>
<path d="M197.01 138.967L197.197 138.802C196.325 137.727 194.457 136.384 190.431 136.033C188.044 135.805 185.989 136.053 185.968 136.053L186.009 136.301C186.072 136.301 194.104 135.351 197.01 138.967Z" fill="#CCD39C"/>
<path d="M205.002 140.558C204.503 140.434 198.235 144.072 196.45 140.93C195.516 139.318 196.139 137.768 196.139 137.706C196.152 137.624 196.159 137.541 196.159 137.458C196.18 136.074 195.682 136.094 192.984 133.883C192.278 133.304 191.946 132.705 191.842 132.106C191.828 132.023 191.814 131.947 191.8 131.878C191.8 131.796 191.8 131.713 191.8 131.63C191.8 131.617 191.8 131.61 191.8 131.61C191.821 130.411 192.589 129.15 193.004 127.828V127.807C193.004 127.793 193.004 127.78 193.004 127.766L193.025 127.745C193.08 127.525 193.129 127.297 193.17 127.063C193.212 126.856 193.233 126.65 193.233 126.443C193.233 125.947 193.15 125.451 192.921 124.934C192.506 124.066 192.195 123.095 192.008 122.124C191.98 121.972 191.96 121.828 191.946 121.69C191.551 119.086 192.216 116.668 194.872 116.626C195.682 116.626 196.367 116.73 196.948 116.936C197.183 117.033 197.405 117.136 197.612 117.246C199.211 118.135 199.937 119.892 200.975 121.586C202.449 123.963 210.419 123.405 209.194 128.489C209.153 128.696 209.091 128.902 209.008 129.109C208.994 129.164 208.98 129.219 208.966 129.274C208.938 129.33 208.918 129.392 208.904 129.46C208.835 129.64 208.772 129.819 208.717 129.998C207.243 134.875 209.485 134.958 211.395 138.595C211.768 139.298 211.976 139.959 212.059 140.579C212.059 140.593 212.059 140.6 212.059 140.6C212.266 142.005 211.062 143.266 209.651 143.162C207.409 142.976 205.147 140.6 205.002 140.558Z" fill="#D8DDA4"/>
<path d="M203.943 136.549C204.441 138.141 204.773 139.505 205.002 140.559C204.905 140.545 204.815 140.524 204.732 140.497C204.649 140.083 204.545 139.635 204.42 139.153C204.296 138.616 204.137 138.03 203.943 137.397C203.929 137.328 203.908 137.252 203.881 137.169C203.632 136.315 203.327 135.392 202.967 134.4C202.94 134.331 202.912 134.262 202.884 134.193C202.469 133.036 201.95 131.796 201.369 130.453C201.3 130.301 201.231 130.149 201.162 129.998C200.94 129.516 200.705 129.02 200.456 128.51C200.165 127.904 199.854 127.284 199.522 126.65C199.466 126.553 199.418 126.457 199.377 126.361C197.882 123.529 195.993 120.409 193.627 117.061L193.814 116.916C196.844 121.194 199.086 125.121 200.746 128.551C200.968 129.006 201.182 129.461 201.39 129.915C201.459 130.067 201.521 130.211 201.577 130.349C201.604 130.404 201.632 130.459 201.66 130.515C201.687 130.597 201.722 130.673 201.764 130.742C201.999 131.307 202.227 131.851 202.448 132.375C202.448 132.388 202.448 132.395 202.448 132.395C202.656 132.919 202.85 133.429 203.03 133.925C203.383 134.855 203.673 135.723 203.943 136.529C203.943 136.529 203.943 136.535 203.943 136.549Z" fill="#C2C68E"/>
<path d="M203.985 129.523C207.264 130.163 208.945 129.44 209.028 129.399L208.925 129.171C208.904 129.192 207.223 129.895 204.026 129.275L203.985 129.523Z" fill="#C2C68E"/>
<path d="M201.618 130.763C203.009 130.577 204.4 129.461 205.604 127.518C206.517 126.051 207.015 124.625 207.015 124.625L206.787 124.542C206.766 124.583 204.815 130.101 201.577 130.535L201.618 130.763Z" fill="#C2C68E"/>
<path d="M198.982 126.526C199.356 126.609 199.584 126.65 199.584 126.65L199.626 126.402C199.584 126.402 194.831 125.741 191.987 121.669L191.78 121.793C194.084 125.1 197.571 126.195 198.982 126.526Z" fill="#C2C68E"/>
<path d="M192.984 127.993C194.686 128.138 195.89 127.621 196.595 127.187C197.384 126.691 197.758 126.175 197.758 126.154L197.571 126.009C197.55 126.03 196.097 128.014 193.004 127.745L192.984 127.993Z" fill="#C2C68E"/>
<path d="M197.425 138.12C200.975 138.947 204.068 137.355 204.088 137.335L203.985 137.128C203.943 137.149 200.124 139.112 196.139 137.459L196.056 137.686C196.512 137.865 196.969 138.01 197.425 138.12Z" fill="#C2C68E"/>
<path d="M201.141 138.141L201.369 138.058C200.933 136.756 199.626 134.834 195.993 133.119C193.814 132.106 191.801 131.631 191.78 131.61L191.718 131.858C191.801 131.879 199.647 133.759 201.141 138.141Z" fill="#C2C68E"/>
<path d="M206.496 138.285C206.434 138.761 205.998 139.091 205.541 139.029L201.66 138.513C201.183 138.451 199.481 137.872 199.522 137.397C199.584 136.942 201.162 136.818 201.618 136.818C202.22 136.818 203.134 136.673 204.026 136.549C204.732 136.446 205.438 136.363 205.915 136.363C206.372 136.384 206.558 137.831 206.496 138.285Z" fill="#FFB27D"/>
<path d="M208.572 140.435C208.572 140.435 207.555 142.109 205.417 143.948C204.773 144.506 200.788 140.455 201.307 139.649C201.847 138.843 204.711 137.479 204.711 137.479L208.572 140.435Z" fill="#FFB27D"/>
<path d="M204.171 138.781C204.171 138.781 203.86 137.107 202.262 137.934C199.688 139.256 198.152 141.819 201.639 140.558C201.784 140.496 199.439 142.48 200.331 143.038C201.224 143.576 203.009 141.736 203.009 141.736C203.009 141.736 200.705 143.865 201.701 144.134C202.718 144.382 203.901 143.162 203.901 143.162C203.901 143.162 202.241 144.526 203.362 144.96C204.13 145.27 205.147 144.175 205.956 143.493C206.724 142.873 206.558 142.17 205.894 141.488C205.894 141.488 205.624 140.414 205.064 140.083C204.856 139.959 204.877 139.628 204.794 139.484C204.607 139.215 204.171 138.781 204.171 138.781Z" fill="#FFB27D"/>
<path d="M204.026 136.549C209.319 133.346 210.398 129.626 211.498 117.06C211.623 115.49 219.324 116.42 218.971 118.569C217.04 131.01 215.504 132.767 208.24 140.91L204.026 136.549Z" fill="#FFB27D"/>
<g opacity="0.5">
<path fill-rule="evenodd" clip-rule="evenodd" d="M213.449 132.127C213.311 132.127 213.18 132.099 213.055 132.044C212.495 131.755 212.391 130.866 212.806 130.06C213.034 129.564 213.429 129.192 213.844 129.068C214.093 128.985 214.321 129.006 214.529 129.109C215.089 129.399 215.214 130.267 214.799 131.093C214.55 131.569 214.155 131.941 213.761 132.085C213.65 132.113 213.546 132.127 213.449 132.127ZM214.155 129.316C214.072 129.316 213.989 129.337 213.927 129.357C213.595 129.461 213.283 129.771 213.076 130.184C212.744 130.845 212.806 131.569 213.2 131.775C213.366 131.858 213.553 131.837 213.657 131.796C213.989 131.693 214.321 131.383 214.529 130.949C214.84 130.308 214.778 129.585 214.384 129.378C214.3 129.337 214.217 129.316 214.155 129.316Z" fill="#EC865C"/>
</g>
<path d="M190.036 142.419C190.036 142.419 191.115 144.299 192.838 143.287C195.018 142.005 197.924 136.446 192.631 140.207C192.506 140.311 195.786 137.5 194.748 136.983C193.71 136.446 191.012 139.05 191.012 139.05C191.012 139.05 194.229 135.805 193.087 135.619C191.946 135.433 189.663 137.273 189.663 137.273C189.663 137.273 192.485 134.669 191.157 134.483C189.829 134.317 188.417 136.57 187.587 137.376C186.819 138.161 187.068 138.905 187.877 139.587C187.877 139.587 188.272 140.745 188.895 141.075C189.144 141.199 189.164 141.551 189.268 141.695C189.496 141.985 190.036 142.419 190.036 142.419Z" fill="#FFB27D"/>
<path d="M204.317 95.6292C204.317 95.6292 203.715 92.5706 206.434 92.0746C209.153 91.5786 208.696 93.7072 209.236 94.1826C209.776 94.6786 208.634 96.3319 207.326 96.6419C206.04 96.9519 204.317 95.6292 204.317 95.6292Z" fill="#B39637"/>
<path d="M211.27 108.277C210.212 109.476 207.659 110.241 206.289 109.538C205.106 108.939 206.102 107.451 206.102 107.451C206.683 107.43 207.14 107.141 207.181 106.562L207.243 105.859L207.285 105.529L207.389 104.413L207.472 103.4L207.866 99.3079L208.904 103.503L209.07 104.206L209.693 106.665C209.88 107.451 210.481 108.05 211.27 108.277Z" fill="#FFB27D"/>
<path d="M209.07 104.206C209.07 104.206 208.364 105.404 207.285 105.528L207.389 104.412C208.074 104.288 209.07 104.206 209.07 104.206Z" fill="#1A0B07"/>
<path d="M212.557 99.4112C212.557 99.4112 212.287 100.052 212.453 101.457C212.682 103.545 210.253 103.999 209.776 103.338C209.713 103.255 210.357 99.8865 210.357 99.8865L211.166 99.5765L212.557 99.4112Z" fill="#B39637"/>
<path d="M203.735 99.3077C204.171 96.7037 206.226 94.8851 208.343 95.2364C210.461 95.5877 211.81 97.9644 211.374 100.568C210.959 103.152 208.904 104.97 206.787 104.619C204.669 104.268 203.32 101.891 203.735 99.3077Z" fill="#FFB27D"/>
<path d="M206.641 96.0839C206.724 96.2493 205.728 98.5639 210.129 99.8659C214.529 101.189 212.723 95.3193 209.423 94.6579C204.67 93.6866 203.445 96.7659 203.715 98.0059C203.985 99.2253 206.641 96.0839 206.641 96.0839Z" fill="#B39637"/>
<path d="M209.755 99.0186C209.755 99.0186 211.27 101.251 210.315 103.111C210.315 103.111 211.561 102.139 211.664 101.705C211.747 101.271 211.727 99.6592 211.727 99.6592L209.755 99.0186Z" fill="#B39637"/>
<path d="M210.751 101.188C210.253 101.519 209.651 101.457 209.381 101.064C209.132 100.651 209.34 100.031 209.838 99.7004C210.336 99.3491 210.938 99.4111 211.208 99.8244C211.457 100.238 211.249 100.837 210.751 101.188Z" fill="#FFB27D"/>
<path d="M207.181 99.907C207.153 99.907 207.14 99.8864 207.14 99.845C207.119 99.8037 207.16 99.7624 207.202 99.7417C207.223 99.7417 207.866 99.535 208.281 100.176C208.323 100.217 208.302 100.279 208.26 100.3C208.219 100.341 208.177 100.32 208.136 100.279C207.783 99.9484 207.264 99.907 207.243 99.9277C207.229 99.9277 207.209 99.9208 207.181 99.907Z" fill="#080435"/>
<path d="M207.721 100.982C207.679 101.189 207.555 101.333 207.389 101.313C207.243 101.292 207.14 101.106 207.16 100.899C207.202 100.693 207.347 100.548 207.492 100.569C207.638 100.589 207.742 100.775 207.721 100.982Z" fill="#080435"/>
<path d="M204.005 99.8655C203.978 99.8517 203.957 99.838 203.943 99.8242C203.922 99.7829 203.922 99.7209 203.964 99.7002C203.985 99.6795 204.504 99.2455 205.126 99.6795C205.168 99.7209 205.188 99.7622 205.168 99.8035C205.126 99.8449 205.085 99.8449 205.043 99.8242C204.587 99.6589 204.088 99.8242 204.068 99.8449C204.054 99.8586 204.033 99.8655 204.005 99.8655Z" fill="#080435"/>
<path d="M204.919 100.631C204.96 100.837 204.877 101.044 204.732 101.085C204.587 101.106 204.421 100.982 204.379 100.775C204.317 100.569 204.4 100.383 204.545 100.341C204.69 100.3 204.856 100.445 204.919 100.631Z" fill="#080435"/>
<g opacity="0.3">
<path d="M209.361 100.072C209.527 101.23 209.008 102.428 208.198 102.738C207.389 103.048 206.579 102.346 206.434 101.168C206.268 100.01 206.787 98.8118 207.596 98.5018C208.406 98.1918 209.194 98.8944 209.361 100.072Z" fill="white"/>
</g>
<g opacity="0.3">
<path d="M205.438 100.134C205.479 101.292 204.898 102.428 204.171 102.676C203.445 102.924 202.822 102.18 202.802 101.023C202.76 99.8657 203.32 98.729 204.068 98.481C204.794 98.233 205.417 98.977 205.438 100.134Z" fill="white"/>
</g>
<path d="M205.292 100.465C205.251 100.465 205.216 100.445 205.188 100.403C205.147 100.341 205.168 100.259 205.251 100.217C205.271 100.217 205.77 99.9485 206.475 100.238C206.538 100.259 206.579 100.341 206.538 100.403C206.517 100.465 206.434 100.507 206.372 100.486C205.79 100.238 205.375 100.465 205.375 100.465C205.348 100.479 205.32 100.479 205.292 100.465Z" fill="#1A0B07"/>
<path d="M210.336 95.6703C210.336 95.6703 211.208 92.6943 213.865 93.4797C216.501 94.265 215.691 95.7117 215.38 96.621C215.152 97.3237 213.885 98.2537 212.578 97.9437C211.27 97.6337 210.336 95.6703 210.336 95.6703Z" fill="#B39637"/>
<path d="M211.499 105.26C211.471 105.26 211.45 105.246 211.436 105.218C211.415 105.218 210.897 104.412 209.9 103.999C209.859 103.999 209.838 103.937 209.859 103.896C209.88 103.854 209.921 103.834 209.963 103.854C211 104.288 211.54 105.094 211.582 105.136C211.602 105.177 211.582 105.218 211.54 105.26C211.526 105.26 211.512 105.26 211.499 105.26Z" fill="#B39637"/>
<path d="M206.081 103.338C205.811 103.338 205.521 103.255 205.334 103.028C205.313 103.007 205.313 102.987 205.334 102.966C205.355 102.945 205.375 102.945 205.396 102.966C205.874 103.524 206.974 103.048 206.974 103.048C206.994 103.028 207.036 103.049 207.036 103.069C207.057 103.09 207.036 103.11 207.015 103.131C206.994 103.131 206.538 103.338 206.081 103.338Z" fill="#1A0B07"/>
<path d="M138.111 196.432C138.111 196.432 141.62 198.769 143.169 199.495C144.719 200.244 149.276 201.106 147.476 202.512C146.45 203.306 141.825 202.512 140.526 202.422C139.204 202.354 137.951 202.853 137.017 201.945C135.991 200.924 134.556 196.455 134.556 196.455L138.111 196.432Z" fill="#1A0B07"/>
<path d="M110.425 177.556C110.425 177.556 120.041 181.072 130.386 187.697C134.761 190.51 137.678 192.439 139.592 193.732C141.164 194.821 141.073 197.158 139.41 198.111L136.584 199.722C135.559 200.312 134.351 200.448 133.235 200.13L109.286 193.188L110.425 177.556Z" fill="#275F7A"/>
<path d="M125.373 143.638C125.168 143.819 124.986 143.978 124.872 144.114C124.75 144.205 124.636 144.281 124.53 144.341C122.867 145.748 121.545 146.361 121.545 146.361C121.545 146.361 117.717 143.797 117.763 143.343C117.854 142.277 118.515 140.258 118.628 139.191C118.674 138.737 118.947 137.217 119.426 137.217C119.836 137.195 120.178 138.511 120.292 139.146C122.297 136.877 125.783 133.202 122.411 139.509C122.411 139.524 122.411 139.531 122.411 139.531C122.844 139.055 125.647 135.652 126.057 136.469C126.421 137.217 124.416 139.917 123.687 140.711C123.702 140.726 123.71 140.734 123.71 140.734C124.507 139.985 126.649 137.739 126.763 138.556C126.923 139.554 124.986 142.277 124.986 142.277C124.986 142.277 126.991 140.28 127.151 141.006C127.31 141.641 126.307 142.73 125.373 143.638Z" fill="#FFB27D"/>
<path d="M117.99 142.753C113.16 148.13 105.481 155.504 97.8473 159.996C96.0927 161.039 95.4091 161.425 94.2926 161.879C93.3811 162.242 93.0165 164.238 93.6318 165.781C94.2242 167.211 95.7281 168.073 96.8674 167.846C97.7561 167.664 98.5764 167.279 100.582 166.144C107.486 162.219 114.618 155.095 122.479 145.839L117.99 142.753Z" fill="#FFB27D"/>
<path d="M120.451 144.477C120.421 144.477 120.398 144.47 120.383 144.454C120.36 144.409 120.36 144.364 120.383 144.318C120.406 144.296 120.93 143.683 120.543 143.002C120.132 142.276 119.95 141.165 119.927 141.119C119.927 141.074 119.95 141.029 120.018 141.029C120.064 141.006 120.087 141.051 120.11 141.097C120.11 141.097 120.292 142.208 120.702 142.934C121.158 143.706 120.52 144.432 120.52 144.432C120.489 144.462 120.467 144.477 120.451 144.477Z" fill="#EC865C"/>
<path d="M125.487 202.444C125.487 202.444 125.419 205.008 127.128 205.825C128.837 206.664 133.85 207.595 131.867 209.137C130.728 210.022 125.647 209.137 124.211 209.047C122.753 208.979 121.363 209.523 120.337 208.502C119.221 207.39 120.702 202.172 120.702 202.172C120.702 202.172 121.91 202.898 123.026 202.921C124.644 202.966 125.487 202.444 125.487 202.444Z" fill="#1A0B07"/>
<path d="M81.8968 197.634C82.0563 198.792 88.7099 198.655 96.8675 197.634C105.002 196.591 111.36 194.844 111.223 193.664C111.063 192.507 104.501 192.348 96.3434 193.392C88.1859 194.413 81.7601 196.455 81.8968 197.634Z" fill="#1A0B07"/>
<path d="M84.6312 165.576C84.6312 165.576 86.9554 159.859 95.1813 159.383C107.759 158.657 109.673 170.477 111.223 193.664C111.223 193.664 96.6852 193.619 80.8487 200.516C80.8487 200.516 70.4125 186.608 84.6312 165.576Z" fill="#68A1BF"/>
<path d="M79.6411 163.671L84.6768 168.912C84.6768 168.912 101.63 168.685 104.82 166.189C109.97 162.196 102.792 155.662 102.792 155.662C102.792 155.662 99.8981 157.137 92.2647 158.476C84.13 159.928 79.6411 163.671 79.6411 163.671Z" fill="#68A1BF"/>
<path d="M87.7985 170.273C87.206 170.999 84.9046 170.092 82.6488 168.277C80.3929 166.462 79.0485 164.397 79.641 163.671C80.2106 162.945 82.5349 163.853 84.7679 165.668C87.0238 167.483 88.3681 169.547 87.7985 170.273Z" fill="#1A0B07"/>
<path d="M80.1194 196.999C79.8688 191.849 83.4462 188.582 88.0719 186.268C95.5686 182.524 105.321 177.987 111.223 177.556C119.266 176.966 126.353 194.549 126.831 202.422C126.945 204.237 119.859 206.21 118.013 204.577C116.167 202.921 109.628 194.504 109.628 194.504C109.628 194.504 100.695 205.802 92.7886 205.802C86.6363 205.802 80.5296 204.577 80.1194 196.999Z" fill="#366F90"/>
<path d="M79.527 184.09C76.9294 182.978 75.5622 180.188 75.4483 177.533C75.2888 174.13 75.6989 171.544 77.7497 167.959C79.0713 165.645 79.7777 164.624 79.9827 164.533C81.1676 163.966 83.0133 165.01 83.6969 165.464C84.6539 166.121 86.8186 167.891 86.0211 169.388C86.0211 169.388 85.6565 170.319 84.6767 172.043C83.5146 174.085 83.4007 175.65 83.8108 176.081C84.3577 176.649 87.0009 176.376 89.5074 174.675C92.1734 172.837 94.2242 170.568 94.247 170.546L98.6447 175.491C98.5536 175.605 97.1409 178.055 94.1786 180.982C91.9456 183.205 84.9502 186.45 79.527 184.09Z" fill="#FFB27D"/>
<path d="M90.5784 157.75L90.4873 155.186L90.4645 154.369L90.2822 149.491L91.9684 153.825L92.9938 156.434L93.2672 157.182C93.5178 157.772 94.1786 158.113 94.7939 157.931H94.8167C95.3635 158.294 95.2952 159.61 94.4976 160.086C92.9937 160.971 90.9658 160.109 89.4391 159.111C89.4391 159.111 90.6012 158.68 90.5784 157.75Z" fill="#FFB27D"/>
<path d="M90.4418 155.118C90.4569 155.148 90.4721 155.171 90.4873 155.186C91.2393 156.502 92.9938 156.434 92.9938 156.434L91.9684 153.824C91.4444 153.87 90.738 154.006 90.4646 154.369C90.305 154.55 90.2823 154.8 90.4418 155.118Z" fill="#1A0B07"/>
<path d="M94.7483 148.198C93.4722 145.521 90.6695 144.182 88.482 145.203C86.2946 146.224 85.5654 149.241 86.8414 151.941C88.1175 154.618 90.9202 155.957 93.1077 154.936C95.2952 153.892 96.0243 150.898 94.7483 148.198Z" fill="#FFB27D"/>
<path d="M87.9579 147.2C88.5048 148.017 88.5959 148.788 91.6265 148.175C91.6265 148.175 92.219 148.266 92.0139 147.767C91.8088 147.268 90.7834 146.859 90.8973 146.133C90.8973 146.133 94.7482 149.242 94.9989 148.085C95.2495 146.928 94.7938 143.774 92.4924 142.798C90.191 141.823 85.2919 143.683 85.1552 145.43C84.9501 147.994 87.4566 146.496 87.9579 147.2Z" fill="#1A0B07"/>
<path d="M85.5198 146.383C85.5198 146.383 86.8641 146.111 87.0692 146.678C87.2515 147.223 88.5731 147.835 87.9579 148.561C87.3199 149.265 87.2287 149.559 87.5022 150.149C87.7072 150.558 87.411 151.806 87.5477 152.736C87.6161 153.167 88.1858 153.825 88.1858 153.825C88.1858 153.825 84.6767 154.233 83.5829 150.535C82.8765 148.13 84.6083 146.429 85.5198 146.383Z" fill="#1A0B07"/>
<path d="M87.2517 152.622C87.9125 152.849 88.5505 152.6 88.71 152.078C88.8467 151.533 88.4366 150.944 87.7986 150.739C87.1378 150.513 86.4997 150.762 86.3402 151.284C86.2035 151.828 86.6137 152.418 87.2517 152.622Z" fill="#FFB27D"/>
<path d="M83.1043 147.2C83.074 147.215 83.0436 147.215 83.0132 147.2C82.9676 147.155 82.9448 147.087 82.9904 147.041C83.6512 146.066 84.6538 146.224 84.6994 146.224C84.7677 146.247 84.8133 146.292 84.7905 146.361C84.7905 146.429 84.7222 146.474 84.6766 146.451C84.631 146.451 83.7652 146.315 83.1727 147.155C83.1575 147.185 83.1347 147.2 83.1043 147.2Z" fill="#1A0B07"/>
<path d="M84.7907 145.975C84.7223 145.975 84.6768 145.952 84.654 145.907C84.6312 145.884 84.3122 145.181 84.4945 144.772C84.54 144.727 84.5856 144.682 84.654 144.727C84.6995 144.75 84.7223 144.818 84.6995 144.863C84.5856 145.135 84.7679 145.634 84.859 145.816C84.8818 145.861 84.859 145.929 84.8135 145.952C84.7983 145.967 84.7907 145.975 84.7907 145.975Z" fill="#1A0B07"/>
<path d="M93.928 152.758C93.928 152.758 92.6292 153.28 91.148 153.325C91.148 153.325 91.5354 154.641 92.9937 154.188C93.8368 153.938 93.928 152.758 93.928 152.758Z" fill="#E9633E"/>
<path d="M93.928 152.758C93.928 152.758 93.7229 153.144 92.9709 153.416C92.2418 153.688 91.148 153.325 91.148 153.325C91.148 153.325 92.9026 153.167 93.928 152.758Z" fill="white"/>
<path d="M90.6925 150.512C90.7229 150.497 90.738 150.475 90.738 150.444C90.738 150.399 90.6925 150.354 90.6469 150.354C90.6241 150.354 89.9177 150.263 89.6215 151.034C89.5987 151.08 89.6215 151.125 89.6671 151.148C89.7127 151.17 89.7582 151.148 89.781 151.102C90.0772 150.671 90.6241 150.535 90.6469 150.535C90.6621 150.535 90.6773 150.527 90.6925 150.512Z" fill="#080435"/>
<path d="M94.3382 149.65C94.3686 149.65 94.3914 149.635 94.4066 149.605C94.4294 149.559 94.4066 149.491 94.361 149.469C94.3382 149.469 93.7458 149.083 93.1533 149.627C93.1078 149.65 93.1077 149.718 93.1305 149.741C93.1761 149.786 93.2217 149.786 93.2673 149.764C93.723 149.514 94.2699 149.627 94.2926 149.65C94.3078 149.65 94.323 149.65 94.3382 149.65Z" fill="#080435"/>
<path fill-rule="evenodd" clip-rule="evenodd" d="M95.2953 152.872C95.0826 152.947 94.8623 152.962 94.6345 152.917C93.6091 152.713 92.7204 151.283 92.6293 149.741C92.5837 148.811 92.8571 147.971 93.3584 147.54C93.6546 147.29 93.9964 147.2 94.3838 147.268C95.3864 147.472 96.2979 148.879 96.3662 150.444C96.4346 151.397 96.1612 152.214 95.6599 152.645C95.5535 152.736 95.432 152.811 95.2953 152.872ZM92.8116 149.741C92.9027 151.215 93.723 152.554 94.68 152.736C94.9991 152.804 95.2953 152.713 95.5459 152.509C96.0017 152.1 96.2295 151.329 96.1839 150.444C96.1156 148.969 95.2725 147.631 94.3383 147.449C94.0192 147.381 93.723 147.472 93.4724 147.676C93.0166 148.085 92.766 148.856 92.8116 149.741Z" fill="#764678"/>
<g opacity="0.3">
<path d="M87.8669 150.512C88.072 151.987 89.1202 153.235 90.1911 153.325C91.2621 153.416 91.9684 152.305 91.7862 150.853C91.5811 149.401 90.5329 148.13 89.4619 148.039C88.3682 147.948 87.6618 149.06 87.8669 150.512Z" fill="white"/>
</g>
<g opacity="0.3">
<path d="M92.6519 149.877C92.857 151.329 93.814 152.645 94.7938 152.804C95.7964 152.94 96.4116 151.873 96.2066 150.421C96.0015 148.947 95.0445 147.631 94.0646 147.495C93.0848 147.336 92.4468 148.402 92.6519 149.877Z" fill="white"/>
</g>
<path fill-rule="evenodd" clip-rule="evenodd" d="M90.8974 153.258C90.7 153.333 90.4797 153.363 90.2366 153.348C89.0518 153.258 87.9124 151.896 87.7074 150.354C87.5934 149.446 87.7985 148.629 88.277 148.13C88.596 147.767 89.029 147.608 89.5075 147.654C90.6924 147.745 91.8317 149.083 92.0368 150.649C92.1507 151.556 91.9456 152.35 91.4671 152.872C91.3 153.038 91.1101 153.167 90.8974 153.258ZM88.915 147.903C88.7175 147.979 88.5429 148.092 88.3909 148.244C87.958 148.697 87.7757 149.491 87.8896 150.331C88.0947 151.806 89.1429 153.076 90.2594 153.167C90.6696 153.19 91.057 153.031 91.3304 152.736C91.7861 152.282 91.9684 151.511 91.8545 150.671C91.6494 149.174 90.6012 147.903 89.4847 147.813C89.2872 147.813 89.0973 147.843 88.915 147.903Z" fill="#764678"/>
<path d="M93.0166 150.308C92.9862 150.323 92.9482 150.323 92.9027 150.308C92.8799 150.308 92.3558 150.127 91.695 150.535C91.6039 150.58 91.4899 150.558 91.4444 150.49C91.3988 150.399 91.4216 150.308 91.5127 150.263C92.2874 149.741 92.971 149.99 93.0166 149.99C93.1078 150.013 93.1533 150.127 93.1078 150.195C93.1078 150.263 93.0622 150.285 93.0166 150.308Z" fill="#764678"/>
<path d="M93.4496 151.057C93.4344 151.072 93.4116 151.072 93.3812 151.057C93.3356 151.034 93.3128 150.966 93.3356 150.92C93.3584 150.898 93.6319 150.285 94.4066 150.399C94.4522 150.421 94.4749 150.467 94.4749 150.512C94.4749 150.557 94.4294 150.58 94.3838 150.58C93.8825 150.625 93.5179 150.988 93.4951 151.011C93.4799 151.026 93.4648 151.041 93.4496 151.057Z" fill="#080435"/>
<path d="M91.2619 151.647C91.2923 151.647 91.3151 151.632 91.3303 151.601C91.3303 151.556 91.3075 151.511 91.2619 151.488C91.2392 151.488 90.6239 151.193 90.1226 151.805C90.0998 151.828 90.0998 151.896 90.1226 151.919C90.1682 151.964 90.2138 151.942 90.2593 151.919C90.6467 151.624 91.1936 151.647 91.2164 151.647C91.2316 151.662 91.2467 151.662 91.2619 151.647Z" fill="#080435"/>
<path d="M109.628 194.64C109.582 194.64 109.544 194.625 109.514 194.595C107.873 192.507 107.577 189.081 107.577 188.945C107.577 188.855 107.623 188.786 107.691 188.786C107.782 188.786 107.85 188.832 107.85 188.923C107.85 188.945 108.147 192.394 109.742 194.413C109.787 194.481 109.765 194.572 109.719 194.617C109.689 194.632 109.658 194.64 109.628 194.64Z" fill="#1A0B07"/>
<path d="M98.4854 155.39L98.964 157.137L103.476 173.721L104.911 173.381L100.901 154.8L98.4854 155.39Z" fill="#B39637"/>
<path d="M98.9638 157.137L101.448 157.341L101.584 158.022L99.2373 158.181L98.9638 157.137Z" fill="#DB634A"/>
<path d="M99.5335 159.27L101.903 159.428L102.177 160.767H99.9436L99.5335 159.27Z" fill="#DB634A"/>
<path d="M100.308 162.083L102.564 162.559L102.883 163.988L100.764 163.739L100.308 162.083Z" fill="#DB634A"/>
<path d="M101.083 164.918H103.088L103.339 166.166H101.425L101.083 164.918Z" fill="#DB634A"/>
<path d="M101.744 167.347L103.635 167.528L104.045 169.366H102.222L101.744 167.347Z" fill="#DB634A"/>
<path d="M95.0673 169.094L97.1637 184.294C97.3004 185.293 98.1435 186.019 99.1233 186.019H105.071C106.073 186.019 106.916 185.293 107.053 184.317L109.286 168.662L95.0673 169.094Z" fill="#1A0B07"/>
<path d="M94.3837 168.073L94.2697 169.252C94.2242 169.593 94.4976 169.865 94.8394 169.865L109.218 169.32C109.559 169.298 109.81 169.003 109.742 168.662L109.605 168.004C109.559 167.755 109.332 167.573 109.058 167.573H94.9306C94.6343 167.573 94.4065 167.8 94.3837 168.073Z" fill="#B39637"/>
<path d="M108.944 167.574H95.0674C95.0674 167.574 94.5889 163.217 99.7386 161.97C99.8982 161.947 100.058 161.992 100.149 162.128C100.422 162.446 100.878 162.673 101.402 162.65C102.04 162.605 102.45 162.401 102.678 162.106C102.838 161.902 103.088 161.788 103.316 161.834C106.962 162.491 108.808 165.69 108.944 167.574Z" fill="#1A0B07"/>
<path d="M94.338 170.523C94.338 170.523 97.1408 167.256 99.67 167.21C102.199 167.165 105.458 169.003 103.886 169.366C102.336 169.729 100.217 169.638 100.217 169.638C100.217 169.638 104.729 170.046 104.182 171.045C103.635 172.065 99.7156 171.68 99.7156 171.68C99.7156 171.68 105.048 172.587 104.204 173.359C103.384 174.153 99.3282 173.449 99.3282 173.449C99.3282 173.449 104.273 174.47 103.27 175.378C102.29 176.263 99.1915 174.493 98.6446 175.491C98.0978 176.512 95.5685 180.346 92.5379 179.167L94.338 170.523Z" fill="#FFB27D"/>
<path d="M98.3712 170.046C98.3105 170.046 98.2649 170.024 98.2345 169.978C98.1662 169.91 98.1662 169.797 98.2345 169.729C98.8953 169.139 100.194 169.457 100.263 169.457C100.354 169.479 100.422 169.593 100.399 169.683C100.376 169.774 100.263 169.842 100.171 169.82C100.171 169.797 98.9865 169.525 98.4852 170.001C98.4548 170.031 98.4168 170.046 98.3712 170.046Z" fill="#EC865C"/>
<path d="M97.4827 172.111C97.4371 172.111 97.3688 172.088 97.346 172.043C97.2776 171.952 97.3232 171.839 97.3916 171.793C98.4397 171.158 99.693 171.498 99.7613 171.498C99.8525 171.521 99.898 171.634 99.8753 171.725C99.8525 171.816 99.7613 171.861 99.6702 171.839C99.6474 171.839 98.4853 171.544 97.5738 172.088C97.5435 172.103 97.5131 172.111 97.4827 172.111Z" fill="#EC865C"/>
<path fill-rule="evenodd" clip-rule="evenodd" d="M80.2789 182.729C80.0967 182.729 79.8916 182.706 79.7093 182.638C79.0941 182.434 78.7295 182.003 78.8434 181.685C78.889 181.504 79.0713 181.39 79.3219 181.345C79.5498 181.299 79.8232 181.345 80.0967 181.436C80.6891 181.64 81.0765 182.048 80.9625 182.388C80.8942 182.615 80.6207 182.729 80.2789 182.729ZM79.527 181.504C79.4662 181.504 79.4055 181.504 79.3447 181.504C79.1624 181.549 79.0257 181.617 79.0029 181.73C78.9118 181.957 79.2536 182.298 79.7549 182.456C80.2334 182.638 80.7119 182.57 80.803 182.32C80.8714 182.093 80.5296 181.753 80.0511 181.594C79.8688 181.526 79.6865 181.504 79.527 181.504Z" fill="#EC865C"/>
</svg>
