<svg width="340" height="290" viewBox="0 0 340 290" fill="none" xmlns="http://www.w3.org/2000/svg">
<path d="M272.253 69.7812C272.253 69.7812 279.207 53.7071 274.984 52.1035C270.762 50.4999 272.596 63.8416 270.431 68.4609L272.253 69.7812Z" fill="#68A1BF"/>
<path d="M272.26 69.9499C272.26 69.9499 275.312 54.7346 270.628 53.655C265.943 52.5756 271.129 64.5262 270.082 68.9136L272.26 69.9499Z" fill="#92BCB5"/>
<path d="M273.141 70.3035C273.141 70.3035 280.727 56.7609 284.989 58.982C289.251 61.203 277.531 66.9168 275.47 70.93L273.141 70.3035Z" fill="#92BCB5"/>
<path d="M262.512 88.9258C262.512 88.9258 265.545 69.9626 268.002 68.0209C270.458 66.0792 276.076 69.2522 276.893 71.3463C277.71 73.4404 268.121 87.9024 266.63 90.3441C265.002 93.01 262.282 90.7674 262.512 88.9258Z" fill="#EF8062"/>
<g opacity="0.6">
<path d="M183.811 254.992C178.037 254.153 174.733 247.207 177.1 240.886C188.643 210.061 219.901 133.521 242.161 143.855C268.969 156.301 203.579 215.177 188.903 251.659C187.988 253.932 185.912 255.298 183.811 254.992Z" fill="#ACC9C5"/>
</g>
<path d="M183.99 226.901C183.99 226.901 250 136.734 278.843 156.453C307.686 176.173 212.402 205.85 192.697 241.544L183.99 226.901Z" fill="#CCD39C"/>
<path d="M193.052 230.658C205.294 211.86 224.927 195.804 239.242 185.644C254.761 174.63 267.538 167.986 267.665 167.92L267.257 167.124C267.129 167.19 254.296 173.863 238.726 184.913C224.348 195.118 204.623 211.253 192.304 230.168L193.052 230.658Z" fill="#C2C68E"/>
<path d="M264.64 226.598C254.682 229.476 257.366 244.696 245.667 242.633C235.773 240.883 234.894 240.038 231.708 243.079C230.616 244.121 229.695 245.328 228.936 246.635C228.026 248.2 226.224 250.538 223.302 251.259C205.445 255.664 178.989 230.554 196.868 214.512C198.159 213.353 200.113 212.808 202.284 212.315C214.059 209.646 218.125 214.87 226.575 200.175C235.028 185.477 249.071 204.773 257.002 203.522C264.934 202.271 271.808 199.394 278.581 207.449C285.354 215.511 274.6 223.727 264.64 226.598Z" fill="#ACC9C5"/>
<g opacity="0.5">
<path d="M203.901 233.61L203.484 233.07C203.722 232.885 227.862 214.54 280.17 209.759L280.231 210.44C228.119 215.203 204.137 233.426 203.901 233.61Z" fill="#68A1BF"/>
<path d="M235.168 211.113C227.849 205.346 226.309 200.478 226.247 200.274L226.899 200.073C226.914 200.121 228.458 204.956 235.59 210.576L235.168 211.113Z" fill="#68A1BF"/>
<path d="M236.846 218.386C234.68 215.087 234.54 210.131 236.441 204.053C237.865 199.501 239.953 195.866 239.974 195.83L240.563 196.171C240.481 196.313 232.436 210.424 237.416 218.01L236.846 218.386Z" fill="#68A1BF"/>
<path d="M250.556 216.266C249.689 215.632 249.215 215.213 249.193 215.194L249.648 214.684C249.747 214.774 259.737 223.574 273.54 222.218L273.605 222.898C262.482 223.991 253.788 218.629 250.556 216.266Z" fill="#68A1BF"/>
<path d="M258.382 231.568C254.995 228.251 253.863 224.784 253.51 222.459C253.126 219.929 253.546 218.201 253.564 218.128L254.225 218.292C254.208 218.359 252.656 225.006 258.859 231.079L258.382 231.568Z" fill="#68A1BF"/>
</g>
<path d="M258.159 145.548C260.243 143.631 261.469 143.724 262.217 144.542C262.964 145.359 262.95 146.592 260.866 148.509C257.069 152 253.88 152.207 253.88 152.207C253.88 152.207 254.307 149.09 258.159 145.548Z" fill="#ACC9C5"/>
<path d="M275.237 190.868C278.02 190.466 279.03 191.62 279.256 193.191C279.481 194.762 278.836 196.156 276.053 196.559C270.984 197.293 268.126 194.802 268.126 194.802C268.126 194.802 270.094 191.613 275.237 190.868Z" fill="#ACC9C5"/>
<path d="M133.217 121.43C131.289 122.883 130.253 122.697 129.684 121.936C129.114 121.174 129.226 120.124 131.154 118.671C134.667 116.024 137.396 116.124 137.396 116.124C137.396 116.124 136.781 118.744 133.217 121.43Z" fill="#ACC9C5"/>
<path d="M138.624 177.85L138.167 177.861C138.165 177.791 137.925 170.666 134.377 160.588C131.103 151.289 124.263 137.502 110.267 124.627L110.575 124.289C124.648 137.235 131.524 151.102 134.815 160.456C138.382 170.597 138.622 177.779 138.624 177.85Z" fill="#ACC9C5"/>
<path d="M124.811 140.929L124.401 140.726C131.689 125.769 124.384 109.42 124.31 109.257L124.725 109.067C124.8 109.232 132.197 125.774 124.811 140.929Z" fill="#ACC9C5"/>
<path d="M117.124 134.29C112.512 134.807 108.76 132.877 108.717 132.854L108.928 132.447C108.975 132.472 113.783 134.939 119.131 133.433L119.256 133.875C118.533 134.079 117.818 134.212 117.124 134.29Z" fill="#ACC9C5"/>
<path d="M109.671 122.116C112.324 124.025 112.667 125.219 112.118 125.992C111.569 126.764 110.335 126.823 107.683 124.914C102.851 121.436 101.51 118.357 101.51 118.357C101.51 118.357 104.769 118.588 109.671 122.116Z" fill="#ACC9C5"/>
<path d="M109.766 131.242C112.864 132.261 113.55 133.297 113.259 134.201C112.967 135.104 111.81 135.534 108.711 134.515C103.067 132.66 100.866 130.126 100.866 130.126C100.866 130.126 104.039 129.359 109.766 131.242Z" fill="#ACC9C5"/>
<path d="M120.932 126.498C121.749 128.785 121.27 129.723 120.379 130.041C119.488 130.36 118.523 129.937 117.707 127.651C116.219 123.485 117.112 120.895 117.112 120.895C117.112 120.895 119.422 122.271 120.932 126.498Z" fill="#ACC9C5"/>
<path d="M125.469 107.11C126.587 110.189 126.198 111.366 125.309 111.689C124.42 112.012 123.367 111.358 122.25 108.28C120.215 102.672 120.841 99.3772 120.841 99.3772C120.841 99.3772 123.405 101.421 125.469 107.11Z" fill="#ACC9C5"/>
<path d="M165.928 212.512C165.928 212.512 124.338 131.748 102.919 143.821C81.5002 155.894 142.74 191.784 154.105 215.678L165.928 212.512Z" fill="#ACC9C5"/>
<path d="M147.119 204.088C147.119 204.088 89.7133 133.883 67.1877 151.094C44.6619 168.306 118.3 189.112 134.226 210.109L147.119 204.088Z" fill="#92BCB5"/>
<path d="M139.936 207.52C129.201 192.819 112.592 180.655 100.549 173.04C87.4937 164.784 76.8498 159.951 76.7438 159.903L77.0405 159.24C77.1469 159.288 87.8373 164.143 100.935 172.425C113.031 180.074 129.718 192.298 140.521 207.091L139.936 207.52Z" fill="#68A1BF"/>
<path d="M140.288 247.319C131.17 247.295 140.917 256.398 130.018 256.874C116.373 255.899 110.664 249.621 108.663 246.543C107.623 244.944 106.408 243.465 105.008 242.177C100.757 238.268 99.6228 239.395 86.6882 241.918C75.7148 244.053 74.2387 234.357 69.4311 227.4C69.3446 227.273 69.2551 227.147 69.1656 227.021C67.3127 224.447 64.9556 222.296 61.4166 221.342C57.6626 220.331 53.8151 218.752 50.4349 216.758C50.1542 216.594 49.8765 216.425 49.6015 216.252C42.8967 212.067 38.3201 206.23 40.6091 200.076C40.6624 199.931 40.7202 199.785 40.7825 199.64C41.2148 198.621 41.8373 197.593 42.6711 196.565C51.3629 185.85 60.4483 189.461 70.8832 190.918C76.6528 191.722 84.7199 184.253 92.7155 180.633C92.8296 180.581 92.9453 180.53 93.0596 180.48C99.4089 177.695 105.691 177.449 110.716 185.823C110.716 185.825 110.718 185.825 110.718 185.826C110.82 185.996 110.922 186.165 111.023 186.33C122.247 204.768 127.5 197.978 142.872 201.175C145.731 201.771 148.308 202.44 150.03 203.929C166.082 217.809 155.86 237.545 140.288 247.319Z" fill="#CCD39C"/>
<path d="M141.261 229.124L141.795 228.407C141.479 228.171 109.373 204.684 40.6405 199.63L40.5774 200.523C109.052 205.559 140.947 228.889 141.261 229.124Z" fill="#C2C68E"/>
<path d="M99.7067 200.362C109.169 192.633 111.073 186.216 111.149 185.947L110.289 185.7C110.271 185.763 108.361 192.136 99.1401 199.667L99.7067 200.362Z" fill="#C2C68E"/>
<path d="M97.6794 209.934C100.442 205.559 100.506 199.059 97.8672 191.137C95.891 185.204 93.0649 180.487 93.0365 180.44L92.272 180.902C92.3827 181.086 103.275 199.395 96.9233 209.454L97.6794 209.934Z" fill="#C2C68E"/>
<path d="M79.6435 207.472C80.7663 206.621 81.378 206.061 81.4057 206.035L80.7969 205.378C80.6691 205.498 67.7761 217.264 49.6361 215.807L49.5673 216.699C64.1841 217.873 75.4602 210.645 79.6435 207.472Z" fill="#C2C68E"/>
<path d="M69.7442 227.71C74.1084 223.284 75.5099 218.713 75.917 215.658C76.3602 212.332 75.7682 210.077 75.743 209.982L74.8795 210.213C74.9026 210.3 77.0978 218.976 69.107 227.08L69.7442 227.71Z" fill="#C2C68E"/>
<path d="M60.7844 175.465C57.9209 174.319 57.4301 173.068 57.8753 171.944C58.3206 170.821 59.5333 170.251 62.3969 171.397C67.6133 173.485 69.3282 176.528 69.3282 176.528C69.3282 176.528 66.0768 177.583 60.7844 175.465Z" fill="#ACC9C5"/>
<path d="M168.955 267.244C220.363 267.244 262.038 260.111 262.038 251.312C262.038 242.513 220.363 235.38 168.955 235.38C117.548 235.38 75.8731 242.513 75.8731 251.312C75.8731 260.111 117.548 267.244 168.955 267.244Z" fill="#B8D5DC"/>
<path d="M196.405 73.3196C190.49 73.3196 184.676 71.0512 180.209 66.9469C175.25 62.3905 172.518 56.2438 172.518 49.6393C172.518 43.0347 175.293 36.6033 180.329 31.5306C185.185 26.6409 191.735 23.5481 198.3 23.0433C204.964 22.5308 210.945 24.5381 215.597 28.8393C221.095 33.9258 224.377 41.9316 224.377 50.2532C224.377 63.4781 214.882 71.8562 198.327 73.2399C197.686 73.2923 197.044 73.3196 196.405 73.3196ZM200.316 23.2925C199.66 23.2925 198.996 23.3179 198.325 23.3704C184.514 24.4306 172.846 36.4609 172.846 49.6389C172.846 56.1521 175.54 62.2128 180.432 66.7069C185.313 71.1912 191.816 73.4461 198.299 72.912C214.663 71.5439 224.048 63.2847 224.048 50.2527C224.048 42.0208 220.806 34.1046 215.373 29.0804C211.259 25.2745 206.086 23.2925 200.316 23.2925Z" fill="#331832"/>
<path d="M123.832 71.7507C117.915 71.7507 112.103 69.4823 107.635 65.378C102.675 60.8215 99.9437 54.675 99.9437 48.0703C99.9437 41.4656 102.718 35.0364 107.755 29.9635C112.611 25.072 119.161 21.9791 125.727 21.4744C132.396 20.958 138.371 22.9672 143.022 27.2703C148.52 32.3568 151.802 40.3626 151.802 48.6843C151.802 61.9092 142.308 70.2872 125.753 71.671C125.113 71.7233 124.471 71.7507 123.832 71.7507ZM127.742 21.7238C127.086 21.7238 126.423 21.7491 125.752 21.8016C111.94 22.8618 100.271 34.8921 100.271 48.0702C100.271 54.5813 102.966 60.6441 107.857 65.1361C112.739 69.6244 119.239 71.8773 125.725 71.3432C142.089 69.9752 151.474 61.7159 151.474 48.6839C151.474 40.452 148.23 32.5358 142.798 27.5097C138.685 23.7038 133.512 21.7238 127.742 21.7238Z" fill="#331832"/>
<path d="M270.282 98.1906C264.366 98.1906 258.554 95.9222 254.086 91.8179C249.126 87.2614 246.394 81.1149 246.394 74.5102C246.394 61.1664 258.202 48.9881 272.176 47.9163C278.841 47.3979 284.822 49.4091 289.472 53.7102C294.97 58.7967 298.253 66.8025 298.253 75.1262C298.253 88.3491 288.758 96.7273 272.203 98.1108C271.562 98.1634 270.921 98.1906 270.282 98.1906ZM274.195 48.1656C273.538 48.1656 272.874 48.191 272.201 48.2435C258.391 49.3017 246.722 61.33 246.722 74.51C246.722 81.0232 249.417 87.0839 254.308 91.578C259.19 96.0623 265.689 98.323 272.175 97.7831C288.539 96.415 297.925 88.1578 297.925 75.1258C297.925 66.8919 294.681 58.9757 289.249 53.9515C285.135 50.1456 279.963 48.1656 274.195 48.1656Z" fill="#331832"/>
<path d="M58.0433 111.63C52.1275 111.63 46.3152 109.361 41.8471 105.257C36.8865 100.701 34.1549 94.552 34.1549 87.9473C34.1549 74.6035 45.962 62.4252 59.9378 61.3534C66.6057 60.8388 72.5828 62.8462 77.2334 67.1473C82.7316 72.2339 86.0144 80.2396 86.0144 88.5633C86.0144 101.784 76.5194 110.164 59.9643 111.55C59.3241 111.602 58.6822 111.63 58.0433 111.63ZM61.9571 61.6029C61.2996 61.6029 60.6353 61.6283 59.9632 61.6808C46.1514 62.739 34.4827 74.7693 34.4827 87.9473C34.4827 94.4604 37.1772 100.521 42.0696 105.015C46.9533 109.504 53.46 111.758 59.9368 111.222C76.3006 109.852 85.6864 101.593 85.6864 88.5631C85.6864 80.3292 82.4427 72.413 77.0108 67.3888C72.8969 63.5829 67.7247 61.6029 61.9571 61.6029Z" fill="#331832"/>
<path d="M52.2069 78.7961C52.2069 78.7961 52.013 75.9155 54.2483 75.977C56.4835 76.0385 53.9541 78.0026 53.9541 78.0026C53.9541 78.0026 55.987 77.2095 56.3521 78.3482C56.7172 79.487 52.931 79.4291 52.931 79.4291L52.2069 78.7961Z" fill="#C2C68E"/>
<path d="M51.4528 78.2043C49.5014 78.7809 46.7094 86.876 52.1713 91.9676C59.9049 99.1771 69.2117 99.4174 71.3648 92.9797C73.9605 85.2188 65.6704 81.9297 59.367 83.5698C56.4687 84.3239 54.6498 77.2582 51.4528 78.2043Z" fill="#764678"/>
<path d="M52.0833 78.3826C51.9649 78.3826 51.8572 78.3025 51.8273 78.1829C51.3267 76.1745 53.4983 73.4109 53.591 73.2943C53.6813 73.1805 53.8473 73.1611 53.9617 73.2512C54.076 73.3414 54.0954 73.5067 54.0051 73.6207C53.9838 73.6473 51.9015 76.2984 52.3398 78.0563C52.3748 78.1972 52.2886 78.34 52.1473 78.3749C52.1259 78.3801 52.1043 78.3826 52.0833 78.3826Z" fill="#764678"/>
<path d="M69.5594 89.0133C69.5594 89.0133 69.3934 86.3001 67.0334 85.3149C64.6733 84.3297 64.1497 85.4532 64.931 86.6821C65.7121 87.911 70.116 90.8724 69.5594 89.0133Z" fill="#995D9E"/>
<path d="M194.325 151.391C194.325 151.391 200.619 151.124 201.622 142.214C202.652 133.055 191.267 142.214 191.267 142.214L194.325 151.391Z" fill="#FFB27D"/>
<path d="M187.904 122.179C188.287 122.318 194.658 123.911 197.479 132.776C200.3 141.641 190.83 134.651 190.83 134.651L187.904 122.179Z" fill="#FFB27D"/>
<path d="M179.514 244.316C179.514 244.316 179.6 247.502 181.937 248.401C184.273 249.3 191.044 250.111 188.514 252.159C187.062 253.334 180.221 252.575 178.29 252.575C176.358 252.575 174.544 253.352 173.109 252.159C171.53 250.847 173.109 244.316 173.109 244.316C173.109 244.316 174.776 245.117 176.275 245.081C178.435 245.029 179.514 244.316 179.514 244.316Z" fill="#331832"/>
<path d="M152.679 244.315C152.679 244.315 152.766 247.501 155.102 248.4C157.439 249.299 164.209 250.11 161.679 252.158C160.228 253.334 153.386 252.574 151.455 252.574C149.523 252.574 147.71 253.351 146.275 252.158C144.696 250.846 146.275 244.315 146.275 244.315C146.275 244.315 147.942 245.116 149.441 245.08C151.601 245.029 152.679 244.315 152.679 244.315Z" fill="#331832"/>
<path d="M196.881 156.974C196.881 156.974 197.313 170.31 192.699 195.894C189.368 214.364 185.436 232.976 183.507 241.899C182.817 245.09 179.908 247.424 176.46 247.551L174.606 247.62C170.878 247.758 167.852 244.803 168.125 241.29L172.805 180.924L173.959 161.055L196.881 156.974Z" fill="#EF8062"/>
<path d="M154.678 168.71C154.891 170.333 164.839 170.136 177.018 168.713C189.198 167.291 198.679 164.856 198.466 163.233C198.253 161.61 188.428 161.413 176.248 162.835C164.068 164.258 154.465 167.086 154.678 168.71Z" fill="#331832"/>
<path d="M182.897 166.499L156.894 243.569C155.805 246.795 152.657 249.005 149.071 249.062L147.508 249.086C143.818 249.145 140.997 245.996 141.67 242.571L155.895 170.154C156.101 169.293 156.79 168.609 157.69 168.369C162.567 167.071 183.376 163.312 182.897 166.499Z" fill="#EF8062"/>
<path d="M158.745 124.338C158.745 124.338 162.205 115.357 174.529 115.765C186.854 116.174 196.16 131.117 198.466 163.233C198.466 163.233 178.284 159.15 154.642 168.676C154.642 168.676 153.331 137.428 158.745 124.338Z" fill="#366F90"/>
<path d="M150.089 123.797L158.821 128.954C158.821 128.954 181.265 131.025 187.223 130.028C193.181 129.031 194.108 124.989 194.108 124.989C194.108 124.989 188.44 117.816 177.654 116.035C176.641 115.866 175.62 115.838 174.53 115.766C172.701 115.646 170.871 115.698 169.078 115.876C158.422 116.937 150.089 123.797 150.089 123.797Z" fill="#366F90"/>
<path d="M171.276 200.947L170.859 200.819L176.452 185.133C177.744 181.512 180.401 178.489 183.933 176.621L184.151 176.971C180.712 178.79 178.125 181.734 176.869 185.261L171.276 200.947Z" fill="#020202"/>
<path d="M149.965 123.975C149.662 124.787 151.945 126.305 155.065 127.366C158.185 128.428 160.959 128.631 161.262 127.821C161.565 127.009 159.282 125.491 156.162 124.429C153.042 123.368 150.268 123.164 149.965 123.975Z" fill="#331832"/>
<path d="M171.381 152.035L171.485 146.148C171.5 145.344 170.829 144.67 169.959 144.612C165.536 144.32 162.44 143.055 160.743 140.841C158.388 137.768 158.637 132.995 159.293 129.684C159.629 127.99 159.023 126.857 156.805 125.772C156.805 125.772 154.896 124.803 152.544 124.433C151.601 124.285 150.666 124.635 150.423 125.488C150.042 126.823 149.55 128.9 149.315 131.344C148.756 137.149 149.97 142.199 152.824 145.947C156.327 150.548 161.974 153.093 169.625 153.525C170.564 153.578 171.366 152.903 171.381 152.035Z" fill="#FFB27D"/>
<g opacity="0.5">
<path d="M155.119 144.41C154.492 144.41 153.772 144.069 153.241 143.46C152.441 142.541 152.367 141.41 153.073 140.883C153.422 140.623 153.903 140.559 154.422 140.708C154.915 140.845 155.392 141.157 155.764 141.585C156.563 142.503 156.636 143.634 155.933 144.162C155.705 144.331 155.424 144.41 155.119 144.41ZM153.576 143.215C154.204 143.935 155.162 144.22 155.664 143.853C156.173 143.474 156.069 142.565 155.43 141.83C155.111 141.466 154.71 141.2 154.298 141.087C153.914 140.979 153.576 141.017 153.342 141.192C152.832 141.571 152.936 142.48 153.576 143.215Z" fill="#EC865C"/>
</g>
<path d="M164.471 166.951C164.471 166.951 188.779 162.666 196.661 164.687L192.882 169.855L178.831 170.588L164.471 166.951Z" fill="#EF8062"/>
<path d="M174.287 145.176L195.24 145.184C195.679 145.184 196.069 144.927 196.207 144.545L200.567 132.549C200.786 131.944 200.295 131.321 199.601 131.32L179.45 131.313C178.532 131.313 177.716 131.851 177.426 132.65L173.321 143.948C173.101 144.552 173.592 145.176 174.287 145.176Z" fill="#331832"/>
<path d="M175.602 145.177L196.556 145.184C196.994 145.184 197.384 144.927 197.522 144.545L201.882 132.549C202.101 131.945 201.611 131.321 200.916 131.321L180.765 131.313C179.847 131.313 179.032 131.852 178.742 132.65L174.636 143.948C174.416 144.553 174.907 145.176 175.602 145.177Z" fill="#331832"/>
<path d="M190.287 137.857C190.287 137.401 189.717 137.215 189.22 137.215C188.723 137.215 187.911 137.715 187.916 138.353C187.921 139.042 188.505 139.132 189.002 139.132C189.499 139.132 190.286 138.436 190.287 137.857Z" fill="#DAEBE8"/>
<path d="M177.096 137.379L176.963 137.344C177.006 137.198 178.007 133.738 178.682 132.622C179.366 131.485 180.202 131.26 180.238 131.252L180.274 131.374C180.265 131.374 179.454 131.596 178.802 132.68C178.134 133.788 177.106 137.341 177.096 137.379Z" fill="#366F90"/>
<path d="M174.979 143.203L174.85 143.162L176.485 138.664L176.614 138.705L174.979 143.203Z" fill="#366F90"/>
<path d="M201.748 140.892C201.748 140.892 202.095 143.41 199.786 143.649C196.843 143.954 192.81 141.523 194.671 141.305C196.321 141.111 198.746 141.395 198.746 141.395C198.746 141.395 192.589 140.587 193.162 139.379C193.735 138.171 199.021 138.937 199.021 138.937C199.021 138.937 193.087 137.59 194.005 136.633C194.923 135.675 199.727 136.341 199.727 136.341C199.727 136.341 193.864 135.334 194.957 134.247C196.051 133.159 198.992 134.288 200.341 134.486C201.615 134.673 201.928 135.547 201.69 136.751C201.69 136.751 202.158 138.104 201.801 138.846C201.665 139.131 201.915 139.47 201.915 139.695C201.913 140.123 201.748 140.892 201.748 140.892Z" fill="#FFB27D"/>
<path d="M168.335 144.239C168.335 144.239 169.888 139.901 172.548 138.839C175.208 137.777 179.476 138.276 177.978 139.257C176.481 140.239 174.193 141.005 174.193 141.005C174.193 141.005 179.165 139.58 179.023 140.797C178.881 142.014 174.543 143.215 174.543 143.215C174.543 143.215 180.607 141.955 180.068 143.064C179.53 144.174 174.917 145.102 174.917 145.102C174.917 145.102 180.609 144.137 179.951 145.412C179.294 146.688 175.242 146.182 175.099 147.399C174.957 148.616 173.945 153.407 170.229 153.455L168.335 144.239Z" fill="#FFB27D"/>
<path d="M172.42 142.014L172.227 141.926C172.635 141.133 174.114 140.918 174.177 140.909L174.208 141.102C174.194 141.104 172.78 141.314 172.42 142.014Z" fill="#E9845C"/>
<path d="M172.396 144.428L172.226 144.311C173.031 143.314 174.467 143.125 174.529 143.116L174.557 143.314C174.543 143.314 173.148 143.501 172.396 144.428Z" fill="#E9845C"/>
<path d="M172.919 146.22L172.72 146.15C173.079 145.27 174.826 145.014 174.9 145.005L174.932 145.197C174.916 145.2 173.235 145.448 172.919 146.22Z" fill="#E9845C"/>
<path d="M199.447 143.789C198.561 143.789 197.568 143.565 197.504 143.55L197.555 143.357C198.188 143.506 199.948 143.792 200.485 143.378L200.621 143.53C200.367 143.725 199.923 143.789 199.447 143.789Z" fill="#E9845C"/>
<path d="M181.459 99.3677C181.459 99.3677 183.128 95.1421 179.058 93.8221C174.987 92.5021 175.171 95.6225 174.221 96.1959C173.272 96.7693 174.616 99.3887 176.547 100.128C178.477 100.867 181.459 99.3677 181.459 99.3677Z" fill="#EF8062"/>
<path d="M174.985 118.773C176.942 118.189 175.801 115.842 175.801 115.842C174.916 115.7 174.267 115.158 174.325 114.331L174.4 113.315L174.437 112.811L174.552 111.201L174.656 109.755L175.085 103.825L172.449 109.559L172.001 110.533L170.456 113.894C169.963 114.966 168.957 115.751 167.662 116.052C168.54 116.955 172.687 119.461 174.985 118.773Z" fill="#FFB27D"/>
<path d="M172.001 110.533C172.001 110.533 172.788 112.411 174.437 112.811L174.552 111.201C173.537 110.865 172.001 110.533 172.001 110.533Z" fill="#331832"/>
<path d="M167.817 102.885C167.817 102.885 168.071 103.857 167.477 105.854C166.607 108.776 170.228 109.976 171.147 109.139C171.261 109.035 171.081 104.074 171.081 104.074L169.922 103.446L167.817 102.885Z" fill="#EF8062"/>
<path d="M175.454 111.642C178.789 111.613 181.465 108.513 181.432 104.717C181.399 100.922 178.669 97.8688 175.335 97.8978C172.001 97.9268 169.324 101.027 169.357 104.822C169.39 108.618 172.12 111.671 175.454 111.642Z" fill="#FFB27D"/>
<path d="M177.743 99.4851C177.576 99.6969 178.547 103.227 171.454 104.107C164.36 104.986 168.578 97.0191 173.815 96.8136C181.376 96.5167 182.504 101.203 181.787 102.895C181.07 104.587 177.743 99.4851 177.743 99.4851Z" fill="#EF8062"/>
<path d="M172.229 102.977C172.229 102.977 169.345 105.813 170.368 108.693C170.368 108.693 168.676 107.005 168.635 106.372C168.594 105.739 169.028 103.451 169.028 103.451L172.229 102.977Z" fill="#EF8062"/>
<path d="M170.159 105.834C170.846 106.433 171.802 106.49 172.295 105.961C172.788 105.433 172.63 104.518 171.943 103.919C171.255 103.32 170.299 103.263 169.806 103.792C169.313 104.321 169.471 105.235 170.159 105.834Z" fill="#FFB27D"/>
<path d="M175.967 104.836C176.007 104.825 176.041 104.798 176.058 104.76C176.085 104.695 176.051 104.621 175.981 104.595C175.939 104.58 175.012 104.146 174.205 104.97C174.154 105.022 174.156 105.102 174.211 105.15C174.266 105.198 174.342 105.184 174.405 105.144C175.034 104.749 175.845 104.819 175.88 104.831C175.909 104.842 175.939 104.843 175.967 104.836Z" fill="#080435"/>
<path d="M174.888 106.233C174.88 106.535 175.065 106.785 175.303 106.791C175.541 106.796 175.741 106.556 175.749 106.254C175.758 105.952 175.572 105.702 175.334 105.696C175.097 105.69 174.897 105.931 174.888 106.233Z" fill="#080435"/>
<path d="M180.872 105.472C180.913 105.477 180.956 105.464 180.988 105.434C181.04 105.384 181.038 105.303 180.984 105.255C180.952 105.226 180.274 104.498 179.188 104.977C179.119 105.007 179.088 105.081 179.119 105.145C179.15 105.208 179.227 105.222 179.301 105.208C180.045 105.064 180.766 105.414 180.793 105.437C180.816 105.458 180.843 105.469 180.872 105.472Z" fill="#080435"/>
<path d="M179.298 106.385C179.165 106.661 179.234 106.957 179.451 107.046C179.668 107.135 179.952 106.983 180.085 106.707C180.218 106.43 180.149 106.134 179.932 106.045C179.715 105.956 179.431 106.108 179.298 106.385Z" fill="#080435"/>
<g opacity="0.3">
<path d="M172.572 104.559C172.03 106.192 172.543 108.02 173.719 108.641C174.894 109.262 176.287 108.442 176.829 106.809C177.371 105.176 176.857 103.348 175.682 102.727C174.506 102.105 173.113 102.926 172.572 104.559Z" fill="white"/>
</g>
<g opacity="0.3">
<path d="M178.601 105.543C178.267 107.191 178.86 108.946 179.927 109.463C180.993 109.981 182.128 109.064 182.463 107.416C182.797 105.768 182.203 104.013 181.137 103.495C180.071 102.978 178.935 103.894 178.601 105.543Z" fill="white"/>
</g>
<path d="M172.246 105.733C172.247 105.821 172.25 105.91 172.258 105.995C172.312 106.836 172.608 107.613 173.095 108.154C173.287 108.37 173.51 108.548 173.761 108.677C174.002 108.802 174.253 108.877 174.509 108.9C174.578 108.907 174.648 108.909 174.718 108.908C174.95 108.905 175.188 108.861 175.419 108.776C175.994 108.566 176.492 108.128 176.855 107.528C177.006 107.282 177.134 107.007 177.235 106.711C177.339 106.403 177.407 106.091 177.439 105.776C177.457 105.643 177.463 105.512 177.465 105.378C177.487 104.206 177.039 103.103 176.258 102.521C176.162 102.448 176.059 102.384 175.953 102.327C175.429 102.056 174.856 102.021 174.294 102.228C173.583 102.489 172.987 103.097 172.621 103.925C172.567 104.045 172.521 104.167 172.478 104.293C172.453 104.367 172.43 104.443 172.41 104.52C172.346 104.739 172.304 104.963 172.277 105.185C172.255 105.369 172.245 105.552 172.246 105.733ZM175.979 108.209C175.779 108.372 175.562 108.499 175.336 108.582C175.135 108.656 174.934 108.695 174.732 108.699C174.438 108.703 174.148 108.635 173.874 108.493C173.615 108.359 173.386 108.17 173.197 107.935C172.726 107.37 172.468 106.559 172.474 105.696V105.694C172.475 105.563 172.482 105.429 172.494 105.296C172.507 105.17 172.524 105.043 172.549 104.917C172.584 104.728 172.632 104.542 172.695 104.356C172.754 104.187 172.82 104.022 172.899 103.869C172.94 103.781 172.986 103.697 173.037 103.616C173.04 103.611 173.042 103.607 173.047 103.602C173.052 103.592 173.057 103.585 173.063 103.576C173.16 103.415 173.265 103.27 173.38 103.138C173.667 102.805 174.009 102.558 174.378 102.423C174.646 102.324 174.917 102.287 175.183 102.314C175.408 102.335 175.628 102.4 175.84 102.511C175.92 102.554 175.998 102.599 176.071 102.653C176.835 103.188 177.268 104.258 177.238 105.399C177.236 105.532 177.227 105.666 177.21 105.802C177.175 106.085 177.112 106.369 177.018 106.648C176.924 106.927 176.802 107.19 176.656 107.424C176.469 107.733 176.241 107.996 175.989 108.202C175.984 108.204 175.982 108.207 175.979 108.209Z" fill="#331832"/>
<path d="M178.507 106.505C178.508 106.598 178.511 106.689 178.517 106.779C178.522 106.87 178.533 106.96 178.544 107.048C178.55 107.108 178.558 107.17 178.568 107.227C178.568 107.234 178.571 107.243 178.571 107.251C178.579 107.301 178.587 107.348 178.598 107.398C178.6 107.4 178.6 107.403 178.6 107.405C178.536 106.967 178.536 106.493 178.61 106.016C178.597 106.007 178.571 105.993 178.535 105.974C178.525 106.064 178.518 106.153 178.513 106.243C178.509 106.331 178.507 106.419 178.507 106.505ZM178.507 106.505C178.508 106.598 178.511 106.689 178.517 106.779C178.522 106.87 178.533 106.96 178.544 107.048C178.55 107.108 178.558 107.17 178.568 107.227C178.568 107.234 178.571 107.243 178.571 107.251C178.579 107.301 178.587 107.348 178.598 107.398C178.6 107.4 178.6 107.403 178.6 107.405C178.536 106.967 178.536 106.493 178.61 106.016C178.597 106.007 178.571 105.993 178.535 105.974C178.525 106.064 178.518 106.153 178.513 106.243C178.509 106.331 178.507 106.419 178.507 106.505ZM178.507 106.505C178.508 106.598 178.511 106.689 178.517 106.779C178.522 106.87 178.533 106.96 178.544 107.048C178.55 107.108 178.558 107.17 178.568 107.227C178.568 107.234 178.571 107.243 178.571 107.251C178.579 107.301 178.587 107.348 178.598 107.398C178.6 107.4 178.6 107.403 178.6 107.405C178.536 106.967 178.536 106.493 178.61 106.016C178.597 106.007 178.571 105.993 178.535 105.974C178.525 106.064 178.518 106.153 178.513 106.243C178.509 106.331 178.507 106.419 178.507 106.505ZM178.507 106.505C178.508 106.598 178.511 106.689 178.517 106.779C178.522 106.87 178.533 106.96 178.544 107.048C178.55 107.108 178.558 107.17 178.568 107.227C178.568 107.234 178.571 107.243 178.571 107.251C178.579 107.301 178.587 107.348 178.598 107.398C178.6 107.4 178.6 107.403 178.6 107.405C178.536 106.967 178.536 106.493 178.61 106.016C178.597 106.007 178.571 105.993 178.535 105.974C178.525 106.064 178.518 106.153 178.513 106.243C178.509 106.331 178.507 106.419 178.507 106.505ZM178.507 106.505C178.508 106.598 178.511 106.689 178.517 106.779C178.522 106.87 178.533 106.96 178.544 107.048C178.55 107.108 178.558 107.17 178.568 107.227C178.568 107.234 178.571 107.243 178.571 107.251C178.579 107.301 178.587 107.348 178.598 107.398C178.6 107.4 178.6 107.403 178.6 107.405C178.536 106.967 178.536 106.493 178.61 106.016C178.597 106.007 178.571 105.993 178.535 105.974C178.525 106.064 178.518 106.153 178.513 106.243C178.509 106.331 178.507 106.419 178.507 106.505ZM178.507 106.505C178.508 106.598 178.511 106.689 178.517 106.779C178.522 106.87 178.533 106.96 178.544 107.048C178.55 107.108 178.558 107.17 178.568 107.227C178.568 107.234 178.571 107.243 178.571 107.251C178.579 107.301 178.587 107.348 178.598 107.398C178.6 107.4 178.6 107.403 178.6 107.405C178.536 106.967 178.536 106.493 178.61 106.016C178.597 106.007 178.571 105.993 178.535 105.974C178.525 106.064 178.518 106.153 178.513 106.243C178.509 106.331 178.507 106.419 178.507 106.505ZM178.507 106.505C178.508 106.598 178.511 106.689 178.517 106.779C178.522 106.87 178.533 106.96 178.544 107.048C178.55 107.108 178.558 107.17 178.568 107.227C178.568 107.234 178.571 107.243 178.571 107.251C178.579 107.301 178.587 107.348 178.598 107.398C178.6 107.4 178.6 107.403 178.6 107.405C178.536 106.967 178.536 106.493 178.61 106.016C178.597 106.007 178.571 105.993 178.535 105.974C178.525 106.064 178.518 106.153 178.513 106.243C178.509 106.331 178.507 106.419 178.507 106.505ZM178.507 106.505C178.508 106.598 178.511 106.689 178.517 106.779C178.522 106.87 178.533 106.96 178.544 107.048C178.55 107.108 178.558 107.17 178.568 107.227C178.568 107.234 178.571 107.243 178.571 107.251C178.579 107.301 178.587 107.348 178.598 107.398C178.6 107.4 178.6 107.403 178.6 107.405C178.536 106.967 178.536 106.493 178.61 106.016C178.597 106.007 178.571 105.993 178.535 105.974C178.525 106.064 178.518 106.153 178.513 106.243C178.509 106.331 178.507 106.419 178.507 106.505ZM178.328 106.763C178.332 107.376 178.451 107.956 178.671 108.439H178.673V108.441C178.893 108.928 179.218 109.313 179.627 109.53C179.653 109.544 179.679 109.556 179.705 109.568C179.708 109.57 179.71 109.57 179.713 109.572C179.925 109.671 180.15 109.72 180.377 109.719C180.571 109.718 180.767 109.681 180.96 109.607C181.72 109.319 182.366 108.513 182.69 107.452C183.217 105.722 182.726 103.83 181.602 103.233C181.579 103.221 181.553 103.207 181.53 103.198H181.527C181.429 103.151 181.333 103.115 181.232 103.09C181.09 103.055 180.948 103.041 180.803 103.046C180.625 103.052 180.447 103.091 180.267 103.156C179.509 103.444 178.861 104.25 178.539 105.311C178.519 105.381 178.498 105.45 178.481 105.519C178.448 105.648 178.42 105.779 178.4 105.91C178.348 106.196 178.326 106.485 178.328 106.763ZM178.6 107.405C178.536 106.967 178.536 106.493 178.61 106.016C178.633 105.878 178.661 105.74 178.693 105.604C178.713 105.525 178.736 105.446 178.759 105.368C178.911 104.867 179.136 104.429 179.41 104.083C179.674 103.75 179.985 103.503 180.317 103.368C180.33 103.361 180.343 103.356 180.356 103.351C180.521 103.289 180.688 103.257 180.854 103.256C180.998 103.255 181.143 103.278 181.283 103.328C181.352 103.351 181.42 103.379 181.487 103.415C182.528 103.967 182.97 105.752 182.471 107.396C182.468 107.403 182.466 107.41 182.463 107.417C182.463 107.419 182.463 107.419 182.463 107.422C182.463 107.424 182.46 107.429 182.46 107.431C182.46 107.434 182.458 107.436 182.458 107.439C182.149 108.419 181.559 109.151 180.874 109.412C180.529 109.545 180.177 109.539 179.854 109.4C179.815 109.386 179.779 109.367 179.742 109.348C179.711 109.332 179.68 109.315 179.652 109.294C179.644 109.292 179.634 109.285 179.626 109.278C179.626 109.278 179.623 109.278 179.623 109.275C179.621 109.275 179.621 109.273 179.618 109.271C179.38 109.119 179.177 108.896 179.015 108.621C178.82 108.295 178.683 107.898 178.611 107.465C178.608 107.446 178.605 107.424 178.6 107.405ZM178.507 106.505C178.508 106.598 178.511 106.689 178.517 106.779C178.522 106.87 178.533 106.96 178.544 107.048C178.55 107.108 178.558 107.17 178.568 107.227C178.568 107.234 178.571 107.243 178.571 107.251C178.579 107.301 178.587 107.348 178.598 107.398C178.6 107.4 178.6 107.403 178.6 107.405C178.536 106.967 178.536 106.493 178.61 106.016C178.597 106.007 178.571 105.993 178.535 105.974C178.525 106.064 178.518 106.153 178.513 106.243C178.509 106.331 178.507 106.419 178.507 106.505ZM178.507 106.505C178.508 106.598 178.511 106.689 178.517 106.779C178.522 106.87 178.533 106.96 178.544 107.048C178.55 107.108 178.558 107.17 178.568 107.227C178.568 107.234 178.571 107.243 178.571 107.251C178.579 107.301 178.587 107.348 178.598 107.398C178.6 107.4 178.6 107.403 178.6 107.405C178.536 106.967 178.536 106.493 178.61 106.016C178.597 106.007 178.571 105.993 178.535 105.974C178.525 106.064 178.518 106.153 178.513 106.243C178.509 106.331 178.507 106.419 178.507 106.505ZM178.507 106.505C178.508 106.598 178.511 106.689 178.517 106.779C178.522 106.87 178.533 106.96 178.544 107.048C178.55 107.108 178.558 107.17 178.568 107.227C178.568 107.234 178.571 107.243 178.571 107.251C178.579 107.301 178.587 107.348 178.598 107.398C178.6 107.4 178.6 107.403 178.6 107.405C178.536 106.967 178.536 106.493 178.61 106.016C178.597 106.007 178.571 105.993 178.535 105.974C178.525 106.064 178.518 106.153 178.513 106.243C178.509 106.331 178.507 106.419 178.507 106.505ZM178.507 106.505C178.508 106.598 178.511 106.689 178.517 106.779C178.522 106.87 178.533 106.96 178.544 107.048C178.55 107.108 178.558 107.17 178.568 107.227C178.568 107.234 178.571 107.243 178.571 107.251C178.579 107.301 178.587 107.348 178.598 107.398C178.6 107.4 178.6 107.403 178.6 107.405C178.536 106.967 178.536 106.493 178.61 106.016C178.597 106.007 178.571 105.993 178.535 105.974C178.525 106.064 178.518 106.153 178.513 106.243C178.509 106.331 178.507 106.419 178.507 106.505ZM178.507 106.505C178.508 106.598 178.511 106.689 178.517 106.779C178.522 106.87 178.533 106.96 178.544 107.048C178.55 107.108 178.558 107.17 178.568 107.227C178.568 107.234 178.571 107.243 178.571 107.251C178.579 107.301 178.587 107.348 178.598 107.398C178.6 107.4 178.6 107.403 178.6 107.405C178.536 106.967 178.536 106.493 178.61 106.016C178.597 106.007 178.571 105.993 178.535 105.974C178.525 106.064 178.518 106.153 178.513 106.243C178.509 106.331 178.507 106.419 178.507 106.505ZM178.507 106.505C178.508 106.598 178.511 106.689 178.517 106.779C178.522 106.87 178.533 106.96 178.544 107.048C178.55 107.108 178.558 107.17 178.568 107.227C178.568 107.234 178.571 107.243 178.571 107.251C178.579 107.301 178.587 107.348 178.598 107.398C178.6 107.4 178.6 107.403 178.6 107.405C178.536 106.967 178.536 106.493 178.61 106.016C178.597 106.007 178.571 105.993 178.535 105.974C178.525 106.064 178.518 106.153 178.513 106.243C178.509 106.331 178.507 106.419 178.507 106.505ZM178.507 106.505C178.508 106.598 178.511 106.689 178.517 106.779C178.522 106.87 178.533 106.96 178.544 107.048C178.55 107.108 178.558 107.17 178.568 107.227C178.568 107.234 178.571 107.243 178.571 107.251C178.579 107.301 178.587 107.348 178.598 107.398C178.6 107.4 178.6 107.403 178.6 107.405C178.536 106.967 178.536 106.493 178.61 106.016C178.597 106.007 178.571 105.993 178.535 105.974C178.525 106.064 178.518 106.153 178.513 106.243C178.509 106.331 178.507 106.419 178.507 106.505Z" fill="#331832"/>
<path d="M178.755 106.066C178.818 106.066 178.881 106.039 178.923 105.99C178.995 105.904 178.977 105.78 178.884 105.714C178.855 105.692 178.142 105.195 176.992 105.444C176.877 105.469 176.806 105.574 176.833 105.68C176.86 105.786 176.975 105.852 177.089 105.827C178.043 105.62 178.618 106.021 178.624 106.025C178.663 106.053 178.709 106.066 178.755 106.066Z" fill="#331832"/>
<path d="M172.155 98.0716C172.155 98.0716 171.56 93.6079 167.284 94.1388C163.008 94.6695 163.895 96.8946 164.146 98.2811C164.332 99.3142 166.07 100.959 168.154 100.809C170.238 100.658 172.155 98.0716 172.155 98.0716Z" fill="#EF8062"/>
<path d="M168.024 111.496C167.992 111.496 167.96 111.485 167.935 111.464C167.881 111.42 167.877 111.342 167.926 111.292C167.968 111.249 169.003 110.208 170.72 109.82C170.799 109.808 170.862 109.846 170.88 109.911C170.897 109.978 170.855 110.042 170.783 110.059C169.147 110.426 168.131 111.447 168.122 111.455C168.096 111.482 168.06 111.496 168.024 111.496Z" fill="#EF8062"/>
<path d="M177.158 109.987C176.333 109.987 175.486 109.482 175.436 109.453C175.404 109.433 175.395 109.392 175.417 109.363C175.437 109.331 175.477 109.322 175.515 109.342C175.531 109.354 177.113 110.297 177.976 109.596C178.003 109.567 178.049 109.573 178.075 109.602C178.101 109.631 178.097 109.672 178.068 109.695C177.801 109.908 177.481 109.987 177.158 109.987Z" fill="#020202"/>
<path d="M145.2 53.9015C145.2 53.9015 138.558 52.0008 137.469 54.6088C136.38 57.2171 139.757 62.1196 140.972 62.1118C142.187 62.1039 140.426 57.7416 141.306 57.0711C142.186 56.4006 146.482 54.2052 145.2 53.9015Z" fill="#366F90"/>
<path d="M132.811 56.3804C127.572 54.5717 111.788 45.981 111.788 45.981L116.21 35.4106L116.352 35.0651C123.477 37.6443 137.265 52.4537 137.265 52.4537C137.3 52.4947 137.335 52.5357 137.366 52.5857C141.15 57.3162 137.988 58.1655 132.811 56.3804Z" fill="#68A1BF"/>
<path d="M137.367 52.5859C136.366 52.2395 134.688 50.0742 134.05 50.3406C133.202 50.6869 128.913 44.1996 129.136 45.5291C129.364 46.8497 125.371 43.6442 124.911 42.054C124.46 40.4684 122.249 39.0728 122.439 41.2963C122.625 43.5284 119.202 39.6925 118.97 38.2063C118.729 36.7154 117.841 37.3112 117.164 37.7733C116.732 38.0671 116.396 36.5559 116.211 35.4108L116.352 35.0653C123.478 37.6444 137.265 52.4538 137.265 52.4538C137.3 52.4948 137.335 52.5359 137.367 52.5859Z" fill="#366F90"/>
<path d="M119.585 36.8512C119.585 36.8512 123.462 34.9881 124.521 36.0482C125.579 37.1083 122.772 38.9822 122.772 38.9822L119.585 36.8512Z" fill="#366F90"/>
<path d="M116.228 41.7183C114.988 44.7455 113 46.6563 111.787 45.986C110.574 45.3159 110.596 42.3186 111.836 39.2914C113.075 36.2643 115.064 34.3534 116.277 35.0236C117.489 35.6938 117.468 38.6911 116.228 41.7183Z" fill="#EF8062"/>
<path d="M115.512 38.3178C115.243 38.9744 114.812 39.3887 114.549 39.2434C114.286 39.098 114.291 38.448 114.559 37.7915C114.828 37.135 115.259 36.7207 115.522 36.866C115.785 37.0113 115.781 37.6614 115.512 38.3178Z" fill="#DAEBE8"/>
<path d="M186.28 45.1208C187.598 38.9799 193.648 36.9273 199.792 38.2573C205.936 39.5872 211.013 44.0586 209.695 50.1995C208.08 57.7966 201.179 61.8012 195.035 60.4713C188.891 59.1413 184.665 52.7179 186.28 45.1208Z" fill="#FD8772"/>
<path d="M199.202 38.318C199.202 38.318 197.343 32.9944 194.622 33.6117C191.915 34.2377 196.956 38.4712 199.569 39.3246C202.183 40.1781 204.37 38.966 203.965 37.8578C203.551 36.764 201.141 38.3155 201.141 38.3155C201.141 38.3155 202.865 35.2322 201.169 34.8286C199.464 34.4395 199.202 38.318 199.202 38.318Z" fill="#4C857C"/>
<path d="M207.385 45.6298C207.385 45.6298 205.887 41.2897 203.816 41.5475C201.75 41.8284 208.522 47.9624 207.385 45.6298Z" fill="#FF998A"/>
</svg>
