<svg width="380" height="235" viewBox="0 0 380 235" fill="none" xmlns="http://www.w3.org/2000/svg">
<path d="M366.261 214.324C366.261 225.743 291.227 235 198.669 235C106.111 235 31.0784 225.743 31.0784 214.324C31.0784 202.905 106.111 193.648 198.669 193.648C291.227 193.648 366.261 202.905 366.261 214.324Z" fill="#BED5DC"/>
<path d="M303.016 222.426L302.827 222.14C302.846 222.127 304.789 220.832 305.057 219.324C305.15 218.8 305.026 218.304 304.69 217.85C304.456 217.534 304.172 217.379 303.825 217.379C303.82 217.379 303.814 217.379 303.809 217.38C302.124 217.403 299.681 220.875 299.657 220.91L299.213 221.546L299.348 220.783C299.353 220.752 299.88 217.683 298.808 216.767C298.474 216.481 297.998 216.441 297.393 216.647C296.757 216.863 296.315 217.26 296.079 217.826C295.375 219.512 296.662 222.181 296.675 222.208L296.366 222.358C296.31 222.243 294.999 219.525 295.762 217.695C296.037 217.034 296.549 216.573 297.282 216.323C298.01 216.076 298.598 216.137 299.031 216.507C299.924 217.27 299.873 219.166 299.772 220.18C300.56 219.163 302.363 217.058 303.804 217.037C304.266 217.028 304.661 217.236 304.966 217.646C305.36 218.179 305.505 218.764 305.394 219.384C305.1 221.038 303.101 222.37 303.016 222.426Z" fill="#42428E"/>
<path d="M183.68 230.556L183.136 230.498C183.174 230.134 183.072 229.835 182.821 229.583C182.318 229.077 181.229 228.766 179.673 228.685C178.462 228.622 177.397 228.724 177.386 228.725L177.294 228.188C178.728 227.836 182.563 226.609 183.079 225.183C183.19 224.876 183.132 224.574 182.9 224.261C181.515 222.391 176.551 225.022 174.756 226.194L174.456 225.737C174.737 225.553 181.365 221.271 183.339 223.937C183.683 224.401 183.769 224.883 183.593 225.369C183.152 226.589 181.019 227.551 179.382 228.125C180.742 228.169 182.416 228.4 183.21 229.199C183.578 229.57 183.736 230.026 183.68 230.556Z" fill="#42428E"/>
<path d="M66.4934 38.8043C69.8654 37.8869 70.5764 36.545 70.2159 35.2262C69.8558 33.9076 68.5607 33.1112 65.1887 34.0282C59.0461 35.6992 56.7299 38.8947 56.7299 38.8947C56.7299 38.8947 60.2611 40.4993 66.4934 38.8043Z" fill="#B2C9C6"/>
<path d="M82.7973 54.4903C86.2853 54.7111 87.3933 53.671 87.48 52.3068C87.5667 50.9424 86.5993 49.7709 83.1116 49.55C76.7579 49.1477 73.5297 51.4233 73.5297 51.4233C73.5297 51.4233 76.351 54.0819 82.7973 54.4903Z" fill="#B2C9C6"/>
<path d="M125.928 94.6007L126.347 94.0899C126.269 94.0253 118.369 87.4833 110.052 74.5771C102.379 62.6681 92.7698 42.7498 90.5718 15.4867L89.9127 15.5396C92.1221 42.953 101.791 62.983 109.512 74.9588C117.883 87.9434 125.848 94.5354 125.928 94.6007Z" fill="#B2C9C6"/>
<path d="M96.1846 46.39L96.3188 45.7435C72.7954 40.8824 60.6835 18.1807 60.5637 17.9522L59.9772 18.2573C60.0983 18.4887 72.3484 41.4642 96.1846 46.39Z" fill="#B2C9C6"/>
<path d="M95.4695 31.7954C100.165 26.9997 101.308 21.0298 101.321 20.9611L100.67 20.8425C100.656 20.9187 99.1843 28.5626 92.7052 33.3267L93.0977 33.8583C93.974 33.2139 94.7627 32.5175 95.4695 31.7954Z" fill="#B2C9C6"/>
<path d="M116.048 83.411C124.439 72.6356 127.396 60.1567 124.837 46.3207C124.749 45.8414 124.665 45.3886 124.672 45.285C124.672 45.2863 124.67 45.3167 124.649 45.3578L124.055 45.0696C123.97 45.2447 124.002 45.4387 124.187 46.4404C126.709 60.0837 123.796 72.3858 115.526 83.0059L116.048 83.411Z" fill="#B2C9C6"/>
<path d="M124.38 64.7313L124.703 64.155C116.865 59.7867 111.789 46.7758 111.738 46.6449L111.121 46.8809C111.134 46.9143 112.426 50.2513 114.687 54.0904C116.782 57.6477 120.164 62.3814 124.38 64.7313Z" fill="#B2C9C6"/>
<path d="M88.2427 12.5996C88.0549 17.2991 89.1085 18.7412 90.4773 18.7958C91.8461 18.8502 93.0117 17.4965 93.1997 12.797C93.5422 4.2362 91.2291 0 91.2291 0C91.2291 0 88.5902 3.914 88.2427 12.5996Z" fill="#B2C9C6"/>
<path d="M98.551 20.7362C96.9518 25.1602 97.5207 26.8523 98.8096 27.3159C100.098 27.7798 101.618 26.8397 103.217 22.4157C106.13 14.3563 105.205 9.62131 105.205 9.62131C105.205 9.62131 101.507 12.5592 98.551 20.7362Z" fill="#B2C9C6"/>
<path d="M108.822 46.551C109.925 49.8602 111.307 50.4948 112.607 50.0632C113.907 49.6318 114.632 48.2976 113.529 44.9886C111.519 38.96 108.194 36.8277 108.194 36.8277C108.194 36.8277 106.783 40.4347 108.822 46.551Z" fill="#B2C9C6"/>
<path d="M83.2051 29.2759C85.0817 32.2178 86.5769 32.498 87.7324 31.7639C88.888 31.0298 89.2665 29.5598 87.3896 26.6176C83.9707 21.2581 80.226 19.9971 80.226 19.9971C80.226 19.9971 79.7362 23.8385 83.2051 29.2759Z" fill="#B2C9C6"/>
<path d="M115.759 68.5321C118.389 70.8291 119.903 70.6788 120.805 69.6501C121.707 68.6216 121.656 67.1045 119.027 64.8075C114.236 60.6229 110.287 60.4628 110.287 60.4628C110.287 60.4628 110.899 64.2869 115.759 68.5321Z" fill="#B2C9C6"/>
<path d="M122.326 48.0408C122.694 51.5089 123.908 52.4241 125.27 52.2804C126.632 52.1366 127.627 50.9884 127.26 47.5202C126.59 41.2024 123.8 38.4093 123.8 38.4093C123.8 38.4093 121.647 41.6308 122.326 48.0408Z" fill="#B2C9C6"/>
<path d="M57.0861 17.3837C59.597 21.3644 61.2832 21.9579 62.4426 21.2296C63.6019 20.5015 63.795 18.7273 61.2842 14.7469C56.7108 7.49609 52.4012 5.30997 52.4012 5.30997C52.4012 5.30997 52.4458 10.0273 57.0861 17.3837Z" fill="#B2C9C6"/>
<path d="M157.746 170.366C157.746 170.366 93.6355 40.5356 58.9846 59.2182C24.3339 77.9012 121.262 136.718 138.725 175.102L157.746 170.366Z" fill="#B2C9C6"/>
<path d="M124.801 145.322C124.801 145.322 46.5643 46.4527 14.6762 69.8543C-17.212 93.256 84.9863 123.852 106.651 153.395L124.801 145.322Z" fill="#9BBCB6"/>
<path d="M114.688 149.927C100.098 129.253 77.2458 111.97 60.6445 101.113C42.6466 89.3424 27.923 82.3822 27.7764 82.313L28.2079 81.3993C28.3552 81.4684 43.1431 88.4589 61.1995 100.268C77.8747 111.174 100.834 128.541 115.515 149.345L114.688 149.927Z" fill="#74A1BD"/>
<path d="M27.5349 161.597C44.615 166.489 39.9904 192.474 60.0624 188.929C80.1356 185.372 78.5821 184.002 87.5104 193.193C87.5104 193.193 90.6574 201.711 98.4197 203.608C129.047 211.09 174.466 168.172 143.815 140.825C141.602 138.851 138.25 137.925 134.527 137.087C114.331 132.555 107.349 141.481 92.8713 116.414C78.389 91.341 54.274 124.309 40.6682 122.19C27.0627 120.07 15.2742 115.174 3.64522 128.938C-7.98588 142.714 10.4528 156.716 27.5349 161.597Z" fill="#CFD3A3"/>
<path d="M131.725 173.441L132.44 172.519C132.033 172.204 90.6445 140.938 0.914988 132.885L0.810059 134.047C90.2031 142.07 131.32 173.128 131.725 173.441Z" fill="#C4C695"/>
<path d="M78.1158 135.104C90.6781 125.244 93.3268 116.931 93.4332 116.582L92.3154 116.241C92.2902 116.324 89.6342 124.579 77.3923 134.187L78.1158 135.104Z" fill="#C4C695"/>
<path d="M75.2269 147.522C78.9466 141.886 79.1931 133.424 75.94 123.053C73.5038 115.287 69.9268 109.086 69.8908 109.024L68.8801 109.608C69.0202 109.85 82.8037 133.921 74.2504 146.881L75.2269 147.522Z" fill="#C4C695"/>
<path d="M51.7093 143.931C53.1983 142.846 54.0118 142.131 54.0487 142.098L53.2692 141.229C53.099 141.381 35.9509 156.424 12.2722 154.138L12.1599 155.299C31.2401 157.141 46.1613 147.972 51.7093 143.931Z" fill="#C4C695"/>
<path d="M38.2642 170.067C44.0798 164.398 46.0257 158.477 46.6341 154.508C47.2962 150.188 46.5782 147.239 46.5478 147.115L45.4134 147.397C45.4413 147.511 48.0956 158.854 37.4473 169.234L38.2642 170.067Z" fill="#C4C695"/>
<g opacity="0.6">
<path d="M230.862 169.501C230.862 169.501 296.294 70.4136 322.571 89.1409C348.849 107.868 263.983 145.844 245.851 175.291L230.862 169.501Z" fill="#B2C9C6"/>
</g>
<path d="M339.067 190.716C325.124 190.329 322.399 210.866 308.225 203.457C294.053 196.038 291.12 195.649 286.674 200.141C286.674 200.141 282.292 205.769 276.033 205.348C251.337 203.688 227.571 160.812 257.012 147.616C259.138 146.663 261.866 146.764 264.851 147.02C281.041 148.416 284.14 156.749 300.938 141.426C317.741 126.099 327.937 156.481 338.621 158.12C349.305 159.759 359.29 158.89 364.715 171.944C370.138 185.008 353.01 191.113 339.067 190.716Z" fill="#B2C9C6"/>
<g opacity="0.5">
<path d="M258.295 174.883L257.979 174.024C258.358 173.885 296.767 160.302 365.818 175.543L365.62 176.438C296.828 161.254 258.672 174.746 258.295 174.883Z" fill="#74A1BD"/>
<path d="M307.53 158.906C300.477 148.552 300.475 141.704 300.478 141.418L301.395 141.428C301.395 141.496 301.417 148.302 308.289 158.392L307.53 158.906Z" fill="#74A1BD"/>
<path d="M306.735 168.882C305.294 163.784 307.123 157.394 312.026 150.406C315.697 145.172 319.85 141.381 319.891 141.343L320.508 142.02C320.346 142.167 304.303 156.91 307.618 168.634L306.735 168.882Z" fill="#74A1BD"/>
<path d="M325.185 171.769C324.329 170.605 323.891 169.877 323.871 169.843L324.661 169.378C324.752 169.532 334.002 184.852 352.262 188.754L352.07 189.648C337.356 186.504 328.375 176.108 325.185 171.769Z" fill="#74A1BD"/>
<path d="M329.024 194.511C326.022 188.891 325.976 183.999 326.465 180.886C326.998 177.497 328.237 175.461 328.289 175.375L329.071 175.855C329.023 175.934 324.337 183.791 329.834 194.081L329.024 194.511Z" fill="#74A1BD"/>
</g>
<path d="M199.117 78.7025C199.117 78.7025 214.413 86.753 222.014 103.568C229.075 119.187 199.859 112.003 199.859 112.003L192.165 101.458L199.117 78.7025Z" fill="#F7B686"/>
<path d="M261.655 193.17C261.655 193.17 261.383 202.373 267.473 205.304C273.563 208.236 291.491 211.558 284.421 217.099C280.364 220.278 262.239 217.095 257.089 216.814C251.937 216.533 246.978 218.51 243.339 214.861C239.335 210.847 244.576 192.24 244.576 192.24C244.576 192.24 248.895 194.793 252.898 194.907C258.667 195.071 261.655 193.17 261.655 193.17Z" fill="#2F1A31"/>
<path d="M156.94 157.381C156.94 157.381 179.36 100.711 230.582 100.25C255.108 100.03 269.701 158.711 269.383 190.05C269.327 195.6 266.046 200.065 260.484 200.065H242.037C238.659 200.065 235.367 200.094 231.284 195.694C228.27 192.447 226.928 190.631 226.928 190.631C226.928 190.631 227.129 216.318 194.482 216.345C164.633 216.37 140.222 203.838 156.94 157.381Z" fill="#EF8062"/>
<path d="M233.011 193.17C233.011 193.17 232.739 202.373 238.829 205.304C244.919 208.236 262.847 211.558 255.777 217.099C251.72 220.278 233.595 217.095 228.444 216.814C223.293 216.533 218.334 218.51 214.695 214.861C210.69 210.847 215.932 192.24 215.932 192.24C215.932 192.24 220.251 194.793 224.254 194.907C230.022 195.071 233.011 193.17 233.011 193.17Z" fill="#2F1A31"/>
<path d="M128.303 188.11C128.736 191.683 148.981 191.249 173.768 188.118C198.555 184.987 217.849 179.629 217.416 176.057C216.983 172.484 196.987 172.05 172.2 175.18C147.413 178.311 127.87 184.538 128.303 188.11Z" fill="#2F1A31"/>
<path d="M136.579 90.4467C136.579 90.4467 143.62 70.6788 168.703 71.5778C193.785 72.4772 212.724 105.367 217.416 176.056C217.416 176.056 173.243 175.931 125.129 196.897C125.129 196.897 93.3475 154.554 136.579 90.4467Z" fill="#366F90"/>
<path d="M121.404 84.6554L136.734 100.606C136.734 100.606 194.429 110.001 201.938 100.25C209.129 90.9124 208.109 81.9396 208.109 81.9396C208.109 81.9396 187.345 68.8345 157.959 71.5479C132.923 73.8599 121.404 84.6554 121.404 84.6554Z" fill="#366F90"/>
<path d="M186.492 52.8523C186.492 52.8523 184.758 55.7797 188.377 62.2273C191.422 67.6526 185.8 72.3026 181.597 69.6963C177.394 67.0899 174.917 72.5518 169.624 68.6333C164.331 64.7152 186.492 52.8523 186.492 52.8523Z" fill="#B39637"/>
<path d="M156.645 71.6786C159.033 71.1783 161.94 70.0916 163.231 67.9462L167.28 61.2235L168.454 59.2721L175.361 47.7992L172.739 60.3011L171.164 67.8049C171.164 67.8049 170.45 70.5988 173.847 71.5299C173.847 71.5299 173.776 81.4455 167.745 80.9363C159.004 80.1986 156.632 71.6814 156.645 71.6786Z" fill="#F7B686"/>
<path d="M167.295 61.0128C167.287 61.0826 167.283 61.1528 167.28 61.2235C167.029 65.3338 171.134 67.8241 171.134 67.8241L171.164 67.805L172.739 60.3012C171.471 59.6334 169.64 58.876 168.454 59.2723C167.834 59.4789 167.392 60.0008 167.295 61.0128Z" fill="#DD9666"/>
<path d="M187.549 51.5003C188.644 43.4182 184.211 36.1481 177.645 35.262C171.081 34.3757 164.87 40.2094 163.775 48.2918C162.679 56.3739 167.113 63.6441 173.679 64.5303C180.243 65.4162 186.454 59.5824 187.549 51.5003Z" fill="#F7B686"/>
<path d="M175.603 49.9257C175.685 49.9148 175.761 49.867 175.805 49.7896C175.88 49.659 175.834 49.4933 175.703 49.4188C175.626 49.3751 173.932 48.1956 172.097 49.7253C171.981 49.8217 171.96 49.9908 172.055 50.1083C172.149 50.2254 172.303 50.2167 172.439 50.1501C173.793 49.4849 175.369 49.857 175.434 49.8929C175.487 49.9231 175.547 49.933 175.603 49.9257Z" fill="#060633"/>
<path d="M172.984 52.9308C172.902 52.9394 172.824 52.9848 172.778 53.0608C172.7 53.1896 172.741 53.3564 172.87 53.4342C172.946 53.48 174.605 54.7071 176.483 53.2301C176.601 53.1372 176.627 52.9687 176.536 52.8486C176.445 52.7287 176.291 52.733 176.154 52.7957C174.781 53.4224 173.216 53.0058 173.153 52.9681C173.1 52.9366 173.041 52.9248 172.984 52.9308Z" fill="#060633"/>
<path d="M182.115 53.4103C182.049 53.36 181.961 53.3403 181.875 53.3645C181.731 53.4048 181.646 53.5544 181.686 53.6991C181.71 53.7843 182.075 55.8124 184.457 56.0211C184.608 56.0342 184.742 55.9291 184.758 55.7796C184.774 55.63 184.659 55.5277 184.516 55.4795C183.086 54.9971 182.232 53.6235 182.212 53.5527C182.195 53.494 182.16 53.4452 182.115 53.4103Z" fill="#060633"/>
<path d="M186.209 52.7604C186.288 52.7874 186.378 52.7788 186.451 52.7289C186.576 52.645 186.61 52.4763 186.526 52.3517C186.476 52.2781 185.49 50.4677 183.163 51.0173C183.016 51.052 182.922 51.1939 182.954 51.3412C182.986 51.4879 183.127 51.5489 183.278 51.5499C184.788 51.5591 186.031 52.5945 186.072 52.6555C186.107 52.7062 186.156 52.7416 186.209 52.7604Z" fill="#060633"/>
<path d="M182.334 38.5957C182.334 38.5957 181.389 43.6386 174.917 43.6464C168.446 43.6545 163.699 45.7461 163.934 50.4292C164.168 55.1124 173.126 65.971 165.101 68.6256C157.075 71.2805 159.605 64.6522 151.229 65.1374C142.852 65.6231 142.855 54.5495 149.329 48.9967C155.804 43.4438 155.792 26.4361 176.764 30.0206C197.737 33.6051 187.742 49.3401 187.742 49.3401C187.742 49.3401 181.561 44.2011 182.334 38.5957Z" fill="#B39637"/>
<path d="M163.106 50.8801C164.278 52.3449 166.143 52.7303 167.271 51.7412C168.399 50.7521 168.363 48.7632 167.19 47.2984C166.018 45.8336 164.153 45.4483 163.025 46.4373C161.897 47.4264 161.933 49.4155 163.106 50.8801Z" fill="#F7B686"/>
<path d="M179.312 61.0084C179.245 61.0084 179.179 60.9825 179.129 60.9313C176.904 58.6557 173.859 59.6718 173.829 59.6823C173.695 59.7288 173.549 59.6581 173.503 59.5245C173.457 59.3913 173.528 59.2458 173.661 59.1999C173.695 59.188 177.046 58.0696 179.495 60.5748C179.594 60.6757 179.592 60.8373 179.491 60.936C179.441 60.984 179.377 61.0084 179.312 61.0084Z" fill="#2F1A31"/>
<path d="M146.196 104.751C144.41 106.946 137.411 104.227 130.565 98.6778C123.718 93.1286 119.616 86.8508 121.403 84.6556C123.19 82.4605 130.189 85.1799 137.035 90.7291C143.882 96.2783 147.983 102.556 146.196 104.751Z" fill="#060633"/>
<path d="M128.296 157.381C128.296 157.381 150.716 100.711 201.938 100.25C226.463 100.03 241.056 158.711 240.739 190.05C240.683 195.6 237.402 200.065 231.84 200.065H213.393C210.015 200.065 206.723 200.094 202.64 195.694C199.626 192.447 198.284 190.631 198.284 190.631C198.284 190.631 198.485 216.318 165.838 216.345C135.989 216.37 111.577 203.838 128.296 157.381Z" fill="#EF8062"/>
<path d="M201.203 194.746C201.086 194.746 200.969 194.697 200.886 194.601C196.02 188.948 192.262 182.263 189.715 174.732C187.681 168.713 186.412 162.145 185.943 155.208C185.146 143.402 186.976 134.489 186.994 134.4C187.041 134.175 187.263 134.031 187.488 134.078C187.713 134.125 187.858 134.345 187.811 134.57C187.793 134.658 185.985 143.48 186.778 155.177C187.243 162.038 188.498 168.532 190.511 174.479C193.022 181.903 196.726 188.49 201.52 194.058C201.67 194.233 201.65 194.495 201.475 194.645C201.396 194.713 201.3 194.746 201.203 194.746Z" fill="#2F1A31"/>
<path d="M186.157 150.253C186.113 150.253 186.068 150.246 186.024 150.231C182.226 148.948 176.966 146.554 173.478 142.434C171.365 139.938 170.907 137.999 170.889 137.917C170.838 137.693 170.979 137.47 171.203 137.42C171.428 137.369 171.651 137.509 171.702 137.733C171.708 137.758 172.156 139.601 174.158 141.947C177.523 145.891 182.614 148.2 186.291 149.442C186.509 149.516 186.626 149.752 186.552 149.97C186.494 150.143 186.331 150.253 186.157 150.253Z" fill="#2F1A31"/>
<path d="M235.294 199.281C235.126 199.281 234.967 199.178 234.904 199.011C234.823 198.796 234.932 198.556 235.148 198.475C241.654 196.03 240.956 191.054 240.447 187.42C240.388 186.996 240.332 186.596 240.292 186.227C238.491 169.44 235.868 154.666 232.496 142.318C229.798 132.439 226.619 124.082 223.046 117.479C216.969 106.251 211.797 103.974 211.745 103.952C211.534 103.863 211.433 103.62 211.522 103.408C211.61 103.197 211.853 103.096 212.066 103.184C212.284 103.274 217.489 105.526 223.696 116.929C227.315 123.579 230.533 131.996 233.26 141.948C236.663 154.371 239.308 169.239 241.121 186.138C241.16 186.494 241.215 186.888 241.273 187.305C241.759 190.772 242.572 196.575 235.442 199.254C235.393 199.272 235.344 199.281 235.294 199.281Z" fill="#2F1A31"/>
<path d="M166.096 105.502C166.096 105.502 174.641 95.5695 182.319 95.4308C189.996 95.2919 199.908 100.907 195.168 102.001C190.427 103.096 183.982 102.824 183.982 102.824C183.982 102.824 197.724 104.05 196.045 107.133C194.366 110.216 182.425 109.035 182.425 109.035C182.425 109.035 198.66 111.793 196.129 114.193C193.598 116.593 181.28 114.41 181.28 114.41C181.28 114.41 196.282 117.579 193.277 120.297C190.271 123.016 180.896 117.598 179.217 120.681C177.537 123.764 169.823 135.442 160.667 131.831L166.096 105.502Z" fill="#F7B686"/>
<path d="M178.347 104.047C178.198 104.047 178.05 103.987 177.943 103.868C177.741 103.646 177.758 103.302 177.98 103.1C179.953 101.315 183.942 102.255 184.111 102.296C184.403 102.367 184.583 102.661 184.512 102.953C184.441 103.244 184.147 103.423 183.854 103.353C183.819 103.344 180.257 102.508 178.713 103.906C178.608 104 178.477 104.047 178.347 104.047Z" fill="#E08B65"/>
<path d="M175.696 110.388C175.511 110.388 175.33 110.294 175.228 110.124C175.074 109.866 175.158 109.532 175.416 109.378C178.575 107.495 182.402 108.466 182.563 108.509C182.854 108.585 183.029 108.882 182.952 109.172C182.876 109.463 182.579 109.636 182.287 109.56C182.234 109.547 178.727 108.671 175.975 110.311C175.887 110.364 175.791 110.388 175.696 110.388Z" fill="#E08B65"/>
<path d="M121.065 146.876C113.21 143.463 109.054 134.955 108.677 126.903C108.192 116.536 109.432 108.606 115.665 97.7216C119.691 90.6907 121.811 87.5521 122.473 87.2404C126.087 85.5396 131.692 88.7268 133.776 90.1377C136.7 92.1178 143.266 97.4803 140.818 102.047C140.793 102.093 139.702 104.891 136.733 110.154C133.236 116.35 132.834 121.128 134.089 122.433C135.757 124.167 143.801 123.383 151.431 118.143C159.498 112.604 165.776 105.679 165.838 105.61L179.217 120.681C178.895 121.04 174.656 128.494 165.643 137.418C158.854 144.14 137.565 154.045 121.065 146.876Z" fill="#F7B686"/>
<path d="M188.236 55.5896C188.236 55.5896 190.655 52.97 192.912 54.0627C195.17 55.1554 194.358 57.6368 192.995 57.5989C191.632 57.561 191.9 55.0604 188.236 55.5896Z" fill="#9CCBED"/>
<path d="M171.229 53.7145C171.596 53.4396 171.402 52.8553 170.943 52.8527C168.155 52.8369 162.099 53.3751 160.077 58.1361C157.415 64.3991 163.521 68.0271 166.242 65.5171C168.83 63.1302 164.409 58.8212 171.229 53.7145Z" fill="#9CCBED"/>
<path d="M170.603 51.8583C170.705 51.9151 170.821 51.8087 170.774 51.702C170.487 51.0519 169.731 49.7003 168.409 49.7258C166.669 49.7592 166.458 51.5567 167.328 51.9279C168.154 52.2809 168.7 50.8044 170.603 51.8583Z" fill="#9CCBED"/>
<path d="M185.607 56.2804C185.451 55.9136 185.846 55.5565 186.194 55.7533C188.08 56.8227 191.669 59.378 191.247 63.1614C190.677 68.2655 185.314 68.4 184.453 65.744C183.642 63.2394 188.067 62.0338 185.607 56.2804Z" fill="#9CCBED"/>
<path d="M157.746 56.1088C157.701 56.1088 157.664 56.0746 157.66 56.0294C157.656 55.9819 157.691 55.9401 157.739 55.936C157.761 55.9341 159.985 55.7256 160.605 53.9277C161.25 52.0595 160.188 50.6919 159.412 49.6934C159.279 49.5215 159.153 49.359 159.045 49.2072C157.027 46.3463 157.039 43.0711 159.08 40.446C161.17 37.7572 165.5 35.8843 170.462 37.7613C174.428 39.2614 177.354 38.7883 179.111 38.1274C181.009 37.413 181.982 36.3363 181.991 36.3254C182.023 36.2896 182.078 36.2866 182.113 36.3181C182.149 36.3498 182.153 36.4044 182.121 36.4401C182.091 36.4733 179.843 38.9244 175.479 38.9248C174.021 38.9248 172.327 38.6512 170.401 37.9227C165.521 36.0772 161.268 37.9131 159.216 40.5517C157.225 43.1135 157.214 46.312 159.187 49.1078C159.292 49.2562 159.417 49.417 159.549 49.5874C160.348 50.617 161.444 52.0274 160.769 53.984C160.111 55.8896 157.777 56.1064 157.753 56.1084C157.751 56.1086 157.749 56.1088 157.746 56.1088Z" fill="white"/>
<path d="M178.211 215.249C178.034 215.249 177.869 215.135 177.813 214.957C177.744 214.738 177.866 214.504 178.085 214.435C178.181 214.405 187.748 211.316 194.228 202.804C194.368 202.621 194.63 202.585 194.813 202.724C194.996 202.863 195.032 203.124 194.893 203.307C188.247 212.037 178.435 215.198 178.336 215.229C178.294 215.242 178.252 215.249 178.211 215.249Z" fill="#2F1A31"/>
<path d="M373.71 148.256C379.227 149.638 380.428 151.798 379.885 153.955C379.342 156.113 377.261 157.451 371.745 156.07C361.695 153.552 357.82 148.429 357.82 148.429C357.82 148.429 363.514 145.702 373.71 148.256Z" fill="#B2C9C6"/>
<path d="M361.919 133.491C366.466 130.678 368.715 131.283 369.82 133.061C370.925 134.839 370.468 137.118 365.921 139.931C357.638 145.056 351.634 144.313 351.634 144.313C351.634 144.313 353.515 138.691 361.919 133.491Z" fill="#B2C9C6"/>
<path d="M259.537 97.1402C260.399 92.2519 262.782 91.1712 265.406 91.6315C268.03 92.0922 269.901 93.9196 269.039 98.8078C267.47 107.713 261.96 111.183 261.96 111.183C261.96 111.183 257.945 106.175 259.537 97.1402Z" fill="#B2C9C6"/>
<path d="M65.3258 210.024C65.3258 210.024 55.3304 199.855 58.7695 194.064C62.2091 188.272 68.0127 206.505 68.0127 206.505C68.0127 206.505 65.0033 184.945 71.2374 184.571C77.471 184.196 71.2374 206.505 71.2374 206.505C71.2374 206.505 73.5479 201.303 75.8053 200.981C78.0623 200.659 77.4173 205.392 73.387 210.024" fill="#BED5DC"/>
<path d="M66.0415 210.279C66.0131 210.25 63.153 207.325 60.8124 203.631C57.6185 198.589 56.8579 194.586 58.5514 191.735C59.1837 190.67 59.9426 190.18 60.808 190.279C62.5323 190.475 64.5574 193.192 66.8272 198.353C67.5226 199.935 68.1379 201.515 68.6189 202.82C68.4433 201.001 68.2571 198.596 68.1885 196.064C67.9961 188.941 68.7855 184.248 70.5342 182.117C71.2104 181.293 72.0352 180.847 72.9858 180.789C73.912 180.732 74.6726 181.065 75.2464 181.774C78.046 185.232 75.5155 197.449 74.1252 203.165C75.1621 201.489 76.6338 199.62 78.1371 199.406C78.8473 199.304 79.4149 199.569 79.7327 200.152C80.6398 201.814 79.3878 206.05 75.7219 210.263L75.1696 209.785C78.7736 205.643 79.7624 201.732 79.0905 200.501C78.9197 200.188 78.6497 200.07 78.2407 200.128C76.3049 200.405 74.0483 204.59 73.342 206.18L72.6554 205.934C72.6693 205.885 74.0355 200.97 74.9524 195.59C76.1514 188.554 76.0563 183.935 74.6775 182.232C74.2551 181.71 73.7171 181.476 73.0298 181.518C72.2808 181.563 71.6497 181.91 71.1002 182.579C67.1681 187.371 69.6868 205.796 69.7128 205.981L69.002 206.142C67.6978 202.045 63.6679 191.339 60.7249 191.004C60.1642 190.939 59.6594 191.301 59.181 192.106C55.4661 198.362 66.4524 209.655 66.5639 209.768L66.0415 210.279Z" fill="#42428E"/>
<path d="M115.929 223.331C115.929 223.331 111.092 218.411 112.757 215.609C114.421 212.806 117.229 221.628 117.229 221.628C117.229 221.628 115.773 211.197 118.789 211.015C121.805 210.834 118.789 221.628 118.789 221.628C118.789 221.628 119.907 219.111 120.999 218.956C122.091 218.8 121.779 221.09 119.829 223.331" fill="#BED5DC"/>
<path d="M116.275 223.455C116.262 223.441 114.877 222.025 113.745 220.238C112.2 217.798 111.832 215.862 112.651 214.482C112.957 213.967 113.326 213.732 113.743 213.777C115.16 213.939 116.713 217.619 117.516 219.811C117.25 217.072 116.947 211.659 118.449 209.828C118.777 209.43 119.176 209.214 119.636 209.186C120.084 209.158 120.451 209.319 120.729 209.662C122.084 211.335 120.859 217.247 120.187 220.013C120.688 219.201 121.4 218.297 122.128 218.193C122.472 218.145 122.746 218.273 122.9 218.554C123.339 219.358 122.733 221.408 120.959 223.447L120.692 223.215C122.436 221.211 122.914 219.319 122.589 218.723C122.507 218.572 122.377 218.514 122.178 218.543C121.242 218.676 120.15 220.702 119.808 221.471L119.476 221.352C119.482 221.328 120.143 218.95 120.587 216.347C121.167 212.943 121.121 210.708 120.454 209.884C120.249 209.632 119.988 209.521 119.657 209.538C119.294 209.56 118.989 209.728 118.723 210.052C116.821 212.37 118.039 221.285 118.052 221.375L117.708 221.453C117.077 219.471 115.127 214.291 113.703 214.128C113.432 214.097 113.188 214.272 112.956 214.662C111.159 217.689 116.474 223.152 116.528 223.207L116.275 223.455Z" fill="#42428E"/>
<path d="M343.365 210.823C343.365 210.823 337.596 204.954 339.581 201.611C341.567 198.269 344.916 208.792 344.916 208.792C344.916 208.792 343.179 196.349 346.777 196.132C350.375 195.916 346.777 208.792 346.777 208.792C346.777 208.792 348.111 205.79 349.414 205.604C350.717 205.418 350.344 208.15 348.018 210.823" fill="#BED5DC"/>
<path d="M343.778 210.971C343.507 210.694 337.148 204.153 339.455 200.267C339.82 199.653 340.258 199.369 340.758 199.427C341.753 199.54 342.922 201.108 344.232 204.087C344.631 204.995 344.984 205.902 345.261 206.652C344.944 203.395 344.575 196.906 346.372 194.716C346.762 194.241 347.238 193.983 347.786 193.95C348.321 193.916 348.76 194.109 349.091 194.518C350.707 196.514 349.246 203.566 348.444 206.865C349.043 205.897 349.892 204.819 350.759 204.695C351.17 204.637 351.497 204.789 351.681 205.126C352.204 206.085 351.481 208.53 349.365 210.961L349.047 210.685C351.127 208.295 351.698 206.037 351.31 205.327C351.211 205.147 351.055 205.078 350.819 205.112C349.702 205.271 348.4 207.687 347.992 208.605L347.596 208.463C347.604 208.435 348.392 205.598 348.921 202.493C349.613 198.432 349.559 195.766 348.763 194.783C348.519 194.482 348.205 194.347 347.812 194.371C347.379 194.397 347.015 194.597 346.698 194.983C344.429 197.749 345.882 208.383 345.897 208.49L345.487 208.583C344.734 206.218 342.408 200.039 340.71 199.846C340.383 199.809 340.095 200.017 339.818 200.482C337.674 204.092 344.015 210.611 344.08 210.676L343.778 210.971Z" fill="#42428E"/>
</svg>
