<svg width="380" height="220" viewBox="0 0 380 220" fill="none" xmlns="http://www.w3.org/2000/svg">
<path d="M190 220C294.934 220 380 210.425 380 198.612C380 186.8 294.934 177.224 190 177.224C85.0659 177.224 0 186.8 0 198.612C0 210.425 85.0659 220 190 220Z" fill="#BED5DC"/>
<path d="M68.3281 207.819L68.0604 207.414C68.0882 207.395 70.8462 205.559 71.2267 203.419C71.3588 202.676 71.1835 201.973 70.7059 201.329C70.3733 200.88 69.9712 200.662 69.4781 200.662C69.4703 200.662 69.4624 200.662 69.4544 200.662C67.0611 200.696 63.5946 205.619 63.5598 205.669L62.9288 206.572L63.1204 205.488C63.128 205.444 63.8763 201.092 62.3533 199.793C61.8795 199.388 61.2037 199.331 60.3447 199.623C59.4413 199.929 58.8134 200.492 58.4785 201.294C57.4796 203.686 59.3058 207.472 59.3245 207.51L58.8869 207.722C58.8075 207.56 56.9461 203.704 58.0289 201.109C58.4197 200.172 59.146 199.517 60.1874 199.163C61.2213 198.812 62.0565 198.9 62.6704 199.424C63.938 200.507 63.8664 203.195 63.7231 204.634C64.8425 203.191 67.4022 200.205 69.4474 200.177C70.1177 200.167 70.6654 200.458 71.097 201.04C71.6577 201.796 71.8625 202.625 71.7056 203.505C71.2878 205.851 68.4489 207.739 68.3281 207.819Z" fill="#42428E"/>
<path d="M228.866 214.316L228.598 213.911C228.626 213.893 231.384 212.056 231.764 209.917C231.896 209.174 231.721 208.47 231.243 207.826C230.905 207.371 230.503 207.154 229.992 207.159C227.599 207.193 224.132 212.116 224.098 212.166L223.467 213.069L223.658 211.985C223.666 211.942 224.414 207.59 222.891 206.29C222.417 205.885 221.742 205.828 220.882 206.12C219.979 206.427 219.351 206.989 219.016 207.792C218.017 210.184 219.844 213.969 219.862 214.007L219.425 214.22C219.345 214.057 217.484 210.201 218.566 207.606C218.957 206.669 219.684 206.015 220.725 205.661C221.759 205.31 222.594 205.397 223.208 205.922C224.476 207.004 224.404 209.692 224.261 211.131C225.38 209.688 227.94 206.703 229.985 206.674C230.643 206.665 231.203 206.955 231.635 207.537C232.195 208.293 232.4 209.123 232.243 210.002C231.826 212.348 228.986 214.237 228.866 214.316Z" fill="#42428E"/>
<path d="M11.9814 200.047C11.9534 199.784 12.0318 199.558 12.215 199.374C12.6094 198.977 13.441 198.863 14.1166 198.841C13.3035 198.556 12.244 198.079 12.0246 197.473C11.9373 197.232 11.9797 196.993 12.1507 196.762C13.1309 195.44 16.4238 197.565 16.5635 197.655L16.4149 197.882C15.5229 197.301 13.0578 195.995 12.3693 196.923C12.254 197.079 12.2247 197.228 12.28 197.381C12.5363 198.089 14.4414 198.697 15.1538 198.872L15.1081 199.139C15.0873 199.137 13.0264 198.943 12.4079 199.565C12.2836 199.689 12.2328 199.838 12.2523 200.018L11.9814 200.047Z" fill="#42428E"/>
<path d="M73.2069 191.204L72.9369 191.175C72.9562 190.995 72.9053 190.847 72.7808 190.722C72.1625 190.101 70.1016 190.294 70.0809 190.296L70.0353 190.029C70.7473 189.855 72.6524 189.246 72.9087 188.538C72.964 188.386 72.9349 188.236 72.8196 188.081C72.1313 187.153 69.666 188.458 68.774 189.04L68.6256 188.813C68.7651 188.722 72.058 186.598 73.0382 187.92C73.2092 188.15 73.2514 188.39 73.1643 188.63C72.9449 189.236 71.8852 189.713 71.0723 189.998C71.7479 190.02 72.5792 190.134 72.974 190.531C73.1565 190.715 73.2349 190.941 73.2069 191.204Z" fill="#42428E"/>
<path d="M311.863 204.777L311.398 204.727C311.432 204.417 311.344 204.162 311.13 203.947C310.247 203.06 307.479 203.118 306.487 203.215L306.409 202.757C307.634 202.456 310.909 201.41 311.35 200.193C311.445 199.931 311.395 199.673 311.197 199.406C310.012 197.81 305.774 200.055 304.24 201.055L303.984 200.665C304.225 200.508 309.887 196.856 311.573 199.129C311.867 199.526 311.939 199.937 311.789 200.351C311.412 201.392 309.59 202.213 308.192 202.703C309.354 202.741 310.783 202.937 311.462 203.619C311.776 203.935 311.911 204.325 311.863 204.777Z" fill="#42428E"/>
<path d="M349.3 202.805C349.233 202.023 348.945 201.465 348.444 201.147C347.345 200.451 345.564 201.09 345.546 201.097L344.926 201.324L345.369 200.836C345.382 200.822 346.648 199.413 346.388 198.392C346.289 198.004 345.969 197.713 345.436 197.527C343.191 196.741 341.352 201.299 341.262 201.528C341.26 201.533 341.258 201.537 341.258 201.539L340.955 201.42C340.956 201.418 340.957 201.415 340.958 201.412C340.989 201.331 341.324 200.408 340.914 199.774C340.663 199.385 340.172 199.17 339.455 199.136C338.783 199.105 338.321 199.261 338.078 199.601C337.608 200.256 338.057 201.407 338.062 201.418L337.76 201.538C337.738 201.484 337.24 200.213 337.812 199.414C338.125 198.978 338.683 198.776 339.471 198.813C340.299 198.852 340.877 199.117 341.188 199.6C341.343 199.841 341.414 200.107 341.435 200.363C342.171 198.915 343.685 196.572 345.543 197.221C346.186 197.445 346.576 197.813 346.703 198.312C346.913 199.139 346.332 200.109 345.938 200.646C346.596 200.489 347.762 200.33 348.619 200.874C349.21 201.248 349.548 201.889 349.624 202.778L349.3 202.805Z" fill="#42428E"/>
<path d="M357.302 192.85C357.302 192.85 351.815 187.274 353.703 184.099C355.591 180.923 358.777 190.92 358.777 190.92C358.777 190.92 357.125 179.099 360.547 178.894C363.969 178.689 360.547 190.92 360.547 190.92C360.547 190.92 361.816 188.068 363.055 187.892C364.294 187.716 363.94 190.31 361.727 192.85H357.302Z" fill="#BED5DC"/>
<path d="M357.695 192.99C357.68 192.974 356.11 191.371 354.825 189.345C353.072 186.58 352.654 184.386 353.584 182.822C353.931 182.238 354.348 181.97 354.823 182.024C356.431 182.207 358.192 186.377 359.103 188.861C358.801 185.758 358.457 179.623 360.162 177.549C360.533 177.097 360.986 176.852 361.508 176.821C362.016 176.789 362.433 176.972 362.749 177.361C364.285 179.257 362.896 185.956 362.133 189.09C362.702 188.17 363.51 187.146 364.335 187.028C364.726 186.974 365.037 187.119 365.211 187.438C365.709 188.349 365.022 190.672 363.01 192.982L362.706 192.719C364.685 190.448 365.228 188.304 364.859 187.629C364.765 187.458 364.617 187.392 364.392 187.425C363.33 187.576 362.091 189.871 361.703 190.743L361.326 190.608C361.334 190.581 362.084 187.886 362.587 184.936C363.245 181.078 363.193 178.546 362.436 177.612C362.204 177.326 361.909 177.198 361.531 177.22C361.121 177.245 360.774 177.435 360.472 177.802C358.314 180.429 359.696 190.532 359.71 190.634L359.32 190.722C358.604 188.475 356.392 182.605 354.777 182.422C354.468 182.386 354.192 182.584 353.929 183.026C351.89 186.456 357.921 192.647 357.982 192.71L357.695 192.99Z" fill="#42428E"/>
<path d="M313.425 186.017C313.425 186.017 301.204 173.6 305.409 166.527C309.614 159.455 316.71 181.719 316.71 181.719C316.71 181.719 313.03 155.393 320.652 154.935C328.273 154.478 320.652 181.719 320.652 181.719C320.652 181.719 323.477 175.368 326.236 174.974C328.996 174.582 328.208 180.361 323.28 186.017H313.425Z" fill="#BED5DC"/>
<path d="M314.3 186.329C314.265 186.293 310.768 182.722 307.906 178.21C304.002 172.054 303.072 167.166 305.142 163.684C305.915 162.384 306.843 161.786 307.901 161.906C310.009 162.146 312.485 165.463 315.26 171.766C316.11 173.697 316.863 175.627 317.451 177.22C317.236 174.999 317.008 172.062 316.924 168.97C316.689 160.272 317.654 154.542 319.792 151.94C320.619 150.934 321.627 150.388 322.789 150.319C323.922 150.251 324.852 150.655 325.553 151.52C328.976 155.743 325.882 170.662 324.182 177.642C325.45 175.595 327.249 173.313 329.087 173.051C329.956 172.928 330.649 173.251 331.038 173.963C332.147 175.992 330.616 181.165 326.134 186.309L325.459 185.725C329.865 180.667 331.074 175.892 330.252 174.389C330.044 174.007 329.714 173.863 329.213 173.934C326.849 174.271 324.089 179.382 323.225 181.324L322.385 181.023C322.402 180.963 324.072 174.962 325.193 168.392C326.659 159.801 326.543 154.16 324.857 152.081C324.341 151.443 323.679 151.16 322.843 151.208C321.927 151.264 321.156 151.688 320.484 152.505C315.677 158.356 318.756 180.855 318.787 181.081L317.918 181.278C316.324 176.275 311.397 163.202 307.799 162.792C307.114 162.717 306.497 163.155 305.912 164.139C301.372 171.774 314.802 185.567 314.938 185.705L314.3 186.329Z" fill="#42428E"/>
<path d="M27.4028 190.877C27.4028 190.877 18.5617 181.893 21.6037 176.777C24.6458 171.66 29.7793 187.768 29.7793 187.768C29.7793 187.768 27.1173 168.721 32.6313 168.391C38.1451 168.06 32.6313 187.768 32.6313 187.768C32.6313 187.768 34.6752 183.172 36.6716 182.888C38.6678 182.604 38.0976 186.785 34.5325 190.877H27.4028Z" fill="#BED5DC"/>
<path d="M28.0361 191.103C27.6193 190.68 17.8748 180.668 21.4113 174.72C21.9705 173.779 22.6423 173.347 23.4071 173.434C24.9321 173.607 26.7233 176.008 28.731 180.567C29.3423 181.956 29.8837 183.345 30.3083 184.493C29.8214 179.507 29.256 169.575 32.0099 166.223C32.6079 165.495 33.3375 165.101 34.1778 165.05C34.9971 165.001 35.6699 165.294 36.1774 165.92C38.6535 168.975 36.4154 179.768 35.1855 184.818C36.1028 183.337 37.4046 181.686 38.7341 181.497C39.3628 181.407 39.8641 181.641 40.1454 182.156C40.948 183.624 39.8402 187.367 36.5982 191.088L36.1094 190.665C39.2971 187.007 40.1717 183.551 39.5771 182.464C39.4262 182.188 39.1869 182.084 38.8254 182.135C37.1133 182.379 35.1175 186.077 34.4928 187.481L33.8857 187.264C33.8978 187.221 35.1063 182.879 35.9171 178.126C36.9774 171.91 36.8935 167.83 35.6739 166.325C35.3002 165.864 34.8245 165.658 34.2166 165.694C33.5541 165.734 32.996 166.041 32.5101 166.632C29.0328 170.864 31.2597 187.142 31.2828 187.306L30.654 187.448C29.5002 183.829 25.936 174.371 23.3331 174.074C22.8383 174.017 22.3909 174.336 21.9675 175.048C18.6833 180.572 28.3992 190.551 28.4976 190.651L28.0361 191.103Z" fill="#42428E"/>
<path d="M121.429 214.238C121.415 214.224 120.019 212.798 118.876 210.996C117.317 208.537 116.946 206.585 117.772 205.195C118.081 204.676 118.452 204.438 118.874 204.485C120.304 204.648 121.87 208.356 122.681 210.565C122.413 207.806 122.107 202.35 123.622 200.505C123.953 200.103 124.355 199.885 124.819 199.857C125.271 199.83 125.643 199.992 125.923 200.337C127.29 202.023 126.055 207.981 125.376 210.769C125.882 209.951 126.6 209.04 127.334 208.935C127.681 208.886 127.958 209.015 128.114 209.299C128.557 210.11 127.945 212.176 126.156 214.23L125.886 213.997C127.645 211.977 128.128 210.07 127.8 209.47C127.717 209.317 127.585 209.26 127.385 209.288C126.441 209.422 125.339 211.464 124.994 212.239L124.658 212.119C124.665 212.095 125.332 209.699 125.78 207.075C126.365 203.644 126.319 201.392 125.646 200.561C125.439 200.307 125.176 200.193 124.841 200.213C124.475 200.235 124.167 200.404 123.899 200.731C121.98 203.067 123.209 212.052 123.222 212.143L122.875 212.221C122.238 210.223 120.27 205.002 118.834 204.839C118.561 204.808 118.313 204.984 118.08 205.377C116.267 208.426 121.63 213.934 121.684 213.989L121.429 214.238Z" fill="#42428E"/>
<path d="M122.817 28.9677C125.135 30.8741 126.432 30.7069 127.182 29.8018C127.931 28.8963 127.849 27.5952 125.532 25.6886C121.31 22.2161 117.912 22.177 117.912 22.177C117.912 22.177 118.533 25.4442 122.817 28.9677Z" fill="#B2C9C6"/>
<path d="M119.86 48.1507C121.434 50.7019 122.716 50.9624 123.719 50.3476C124.722 49.7327 125.067 48.4754 123.493 45.9238C120.626 41.2763 117.424 40.1437 117.424 40.1437C117.424 40.1437 116.951 43.4356 119.86 48.1507Z" fill="#B2C9C6"/>
<path d="M113.013 98.2116L113.581 98.2521C113.587 98.1655 114.275 89.3947 119.236 77.1801C123.813 65.9099 133.069 49.3176 151.17 34.2763L150.805 33.8406C132.605 48.965 123.3 65.654 118.699 76.9912C113.71 89.2827 113.02 98.1235 113.013 98.2116Z" fill="#B2C9C6"/>
<path d="M132.2 53.511L132.721 53.2852C124.479 34.4094 134.452 14.6863 134.554 14.4892L134.048 14.2298C133.945 14.4288 123.848 34.3842 132.2 53.511Z" fill="#B2C9C6"/>
<path d="M142.119 45.7823C147.823 46.6944 152.592 44.5377 152.646 44.5123L152.407 43.9983C152.346 44.0262 146.236 46.7817 139.67 44.6055L139.49 45.1432C140.378 45.4377 141.26 45.645 142.119 45.7823Z" fill="#B2C9C6"/>
<path d="M115.991 85.7526C127.736 86.2901 137.987 82.1795 146.457 73.5357C146.751 73.2365 147.028 72.9534 147.104 72.9069C147.103 72.9078 147.081 72.9211 147.042 72.9272L146.95 72.3682C146.784 72.395 146.664 72.5139 146.051 73.1395C137.698 81.6627 127.593 85.7157 116.017 85.1864L115.991 85.7526Z" fill="#B2C9C6"/>
<path d="M133.271 82.3343L133.837 82.275C133.025 74.6237 139.666 64.6263 139.733 64.5261L139.261 64.2107C139.244 64.236 137.535 66.7934 135.954 70.278C134.49 73.5063 132.834 78.2184 133.271 82.3343Z" fill="#B2C9C6"/>
<path d="M152.047 31.2155C148.646 33.4114 148.153 34.8633 148.794 35.8487C149.434 36.8341 150.965 36.9796 154.366 34.7834C160.562 30.7831 162.397 27.066 162.397 27.066C162.397 27.066 158.333 27.1569 152.047 31.2155Z" fill="#B2C9C6"/>
<path d="M151.431 42.4622C147.524 43.5338 146.615 44.7702 146.928 45.9018C147.241 47.0338 148.656 47.6326 152.563 46.561C159.681 44.6083 162.555 41.6158 162.555 41.6158C162.555 41.6158 158.653 40.4814 151.431 42.4622Z" fill="#B2C9C6"/>
<path d="M138.353 62.4374C136.571 64.8487 136.809 66.1305 137.758 66.8265C138.706 67.5229 140.005 67.3701 141.787 64.9588C145.034 60.5661 144.886 57.1823 144.886 57.1823C144.886 57.1823 141.647 57.9807 138.353 62.4374Z" fill="#B2C9C6"/>
<path d="M137.81 35.948C136.67 38.7192 137.215 39.9047 138.304 40.35C139.394 40.7954 140.616 40.3325 141.757 37.5612C143.834 32.5135 142.865 29.2672 142.865 29.2672C142.865 29.2672 139.918 30.8267 137.81 35.948Z" fill="#B2C9C6"/>
<path d="M126.321 78.1813C126.007 81.1603 126.864 82.1453 128.036 82.2674C129.207 82.3896 130.25 81.6025 130.562 78.6239C131.133 73.1975 129.287 70.3541 129.287 70.3541C129.287 70.3541 126.899 72.6761 126.321 78.1813Z" fill="#B2C9C6"/>
<path d="M144.001 72.6294C141.742 74.6045 141.699 75.9074 142.477 76.7895C143.253 77.6722 144.555 77.8 146.814 75.825C150.929 72.2272 151.512 68.8904 151.512 68.8904C151.512 68.8904 148.176 68.979 144.001 72.6294Z" fill="#B2C9C6"/>
<path d="M133.23 11.7731C131.673 15.5019 132.091 16.9771 133.179 17.4282C134.266 17.8792 135.611 17.1353 137.168 13.4065C140.004 6.61346 139.405 2.5134 139.405 2.5134C139.405 2.5134 136.107 4.88099 133.23 11.7731Z" fill="#B2C9C6"/>
<path d="M168.312 159.475C168.312 159.475 113.19 47.9794 83.3973 64.0239C53.6047 80.0683 136.943 130.579 151.958 163.543L168.312 159.475Z" fill="#B2C9C6"/>
<path d="M139.986 137.967C139.986 137.967 72.7182 53.0607 45.3007 73.1574C17.8834 93.2544 105.753 119.53 124.38 144.9L139.986 137.967Z" fill="#9BBCB6"/>
<path d="M131.29 141.923C118.746 124.168 99.0978 109.326 84.8244 100.002C69.3496 89.8938 56.6904 83.9164 56.5645 83.8572L56.9354 83.0725C57.062 83.1319 69.7767 89.1351 85.3015 99.2765C99.6386 108.642 119.379 123.557 132.002 141.423L131.29 141.923Z" fill="#74A1BD"/>
<path d="M56.3567 151.944C71.0419 156.146 67.0662 178.461 84.3237 175.416C101.583 172.362 100.247 171.185 107.923 179.078C107.923 179.078 110.629 186.393 117.303 188.022C143.637 194.448 182.687 157.591 156.334 134.106C154.431 132.41 151.55 131.615 148.349 130.895C130.983 127.003 124.98 134.669 112.533 113.142C100.081 91.61 79.3468 119.922 67.6487 118.103C55.9506 116.282 45.815 112.078 35.8163 123.898C25.8161 135.728 41.6695 147.752 56.3567 151.944Z" fill="#CFD3A3"/>
<path d="M145.939 162.115L146.554 161.323C146.204 161.053 110.618 134.203 33.4686 127.287L33.3783 128.284C110.238 135.175 145.59 161.847 145.939 162.115Z" fill="#C4C695"/>
<path d="M99.8455 129.192C110.647 120.725 112.924 113.586 113.015 113.286L112.054 112.994C112.033 113.064 109.749 120.154 99.2238 128.405L99.8455 129.192Z" fill="#C4C695"/>
<path d="M97.3622 139.857C100.56 135.017 100.772 127.75 97.9755 118.844C95.8809 112.174 92.8051 106.849 92.7743 106.796L91.905 107.298C92.0256 107.505 103.877 128.177 96.5224 139.307L97.3622 139.857Z" fill="#C4C695"/>
<path d="M77.1418 136.773C78.4219 135.841 79.1217 135.227 79.1533 135.199L78.483 134.453C78.3367 134.584 63.5929 147.503 43.2339 145.539L43.1375 146.536C59.5422 148.118 72.3716 140.243 77.1418 136.773Z" fill="#C4C695"/>
<path d="M65.5816 159.219C70.582 154.35 72.2549 149.265 72.7779 145.857C73.3473 142.146 72.7298 139.614 72.7035 139.508L71.7282 139.75C71.7523 139.847 74.0343 149.588 64.8787 158.503L65.5816 159.219Z" fill="#C4C695"/>
<g opacity="0.6">
<path d="M219.534 144.868C219.534 144.868 248.648 42.1212 276.324 51.0424C304 59.9637 241.51 115.584 233.985 145.762L219.534 144.868Z" fill="#B2C9C6"/>
</g>
<path d="M244.762 119.833C244.762 119.833 295.018 33.0251 322.851 47.7885C350.683 62.552 273.665 98.3634 259.998 124.105L244.762 119.833Z" fill="#CFD3A3"/>
<path d="M253.265 122.297C262.378 104.349 278.396 88.1217 290.227 77.6698C303.054 66.3385 313.856 59.1701 313.964 59.0991L313.518 58.4294C313.41 58.5006 302.561 65.7003 289.692 77.0683C277.808 87.5667 261.716 103.873 252.545 121.934L253.265 122.297Z" fill="#C4C695"/>
<path d="M318.231 133.667C306.153 137.122 309.423 155.474 295.231 152.971C281.037 150.458 282.135 149.491 275.822 155.982C275.822 155.982 273.597 161.998 268.108 163.338C246.451 168.622 214.336 138.311 236.008 118.996C237.574 117.602 239.943 116.948 242.576 116.356C256.857 113.155 261.794 119.459 272.031 101.756C282.271 84.0476 299.323 107.332 308.944 105.835C318.565 104.338 326.9 100.88 335.123 110.601C343.348 120.331 330.31 130.22 318.231 133.667Z" fill="#B2C9C6"/>
<g opacity="0.5">
<path d="M244.557 142.032L244.052 141.381C244.34 141.158 273.606 119.076 337.054 113.389L337.128 114.209C273.918 119.876 244.844 141.811 244.557 142.032Z" fill="#74A1BD"/>
<path d="M282.465 114.956C273.582 107.992 271.709 102.121 271.634 101.875L272.425 101.634C272.442 101.692 274.32 107.522 282.977 114.308L282.465 114.956Z" fill="#74A1BD"/>
<path d="M284.508 123.726C281.877 119.746 281.703 113.77 284.003 106.445C285.726 100.96 288.256 96.5804 288.281 96.5369L288.996 96.9495C288.896 97.1204 279.15 114.121 285.198 123.274L284.508 123.726Z" fill="#74A1BD"/>
<path d="M301.137 121.19C300.084 120.424 299.509 119.919 299.483 119.896L300.034 119.283C300.154 119.39 312.28 130.014 329.023 128.4L329.102 129.219C315.611 130.52 305.06 124.044 301.137 121.19Z" fill="#74A1BD"/>
<path d="M310.644 139.65C306.532 135.646 305.156 131.464 304.726 128.661C304.257 125.61 304.765 123.527 304.787 123.439L305.589 123.638C305.569 123.719 303.693 131.73 311.222 139.061L310.644 139.65Z" fill="#74A1BD"/>
</g>
<path d="M249.842 194.572L166.865 197.807C161.86 198.002 157.572 193.574 157.021 187.643L152.261 136.378C151.193 124.87 158.753 114.808 168.468 114.808H250.872C256.273 114.808 260.608 120.122 260.456 126.556L259.112 183.474C258.97 189.512 254.908 194.375 249.842 194.572Z" fill="#332B10"/>
<path d="M185.478 176.185C185.353 176.185 185.252 176.058 185.251 175.901C185.251 175.743 185.352 175.615 185.477 175.614C186.222 175.61 186.977 175.602 187.741 175.588C187.869 175.598 187.969 175.711 187.971 175.869C187.973 176.027 187.873 176.157 187.748 176.159C186.982 176.173 186.225 176.182 185.479 176.185C185.479 176.185 185.478 176.185 185.478 176.185ZM183.211 176.183C183.21 176.183 183.21 176.183 183.21 176.183C182.439 176.177 181.683 176.167 180.94 176.153C180.815 176.15 180.715 176.021 180.717 175.863C180.719 175.706 180.82 175.582 180.944 175.582C180.945 175.582 180.946 175.582 180.947 175.582C181.688 175.596 182.444 175.606 183.212 175.612C183.338 175.613 183.439 175.741 183.438 175.899C183.437 176.056 183.336 176.183 183.211 176.183ZM190.011 176.103C189.888 176.103 189.787 175.98 189.784 175.825C189.781 175.667 189.88 175.536 190.005 175.532C190.752 175.509 191.507 175.48 192.268 175.445C192.39 175.431 192.498 175.563 192.502 175.721C192.507 175.878 192.409 176.011 192.284 176.016C191.522 176.051 190.766 176.08 190.017 176.103C190.015 176.103 190.012 176.103 190.011 176.103ZM178.677 176.096C178.675 176.096 178.673 176.096 178.671 176.096C177.894 176.071 177.138 176.043 176.403 176.011C176.278 176.006 176.18 175.874 176.184 175.716C176.188 175.559 176.29 175.424 176.418 175.441C177.152 175.472 177.907 175.5 178.683 175.524C178.808 175.529 178.907 175.66 178.904 175.817C178.901 175.972 178.799 176.096 178.677 176.096ZM174.145 175.901C174.142 175.901 174.138 175.901 174.135 175.901C173.346 175.858 172.59 175.812 171.868 175.764C171.743 175.755 171.647 175.621 171.653 175.463C171.66 175.306 171.77 175.187 171.892 175.193C172.612 175.241 173.367 175.287 174.154 175.33C174.28 175.336 174.376 175.47 174.371 175.627C174.366 175.781 174.266 175.901 174.145 175.901ZM194.54 175.897C194.419 175.897 194.319 175.778 194.313 175.625C194.307 175.468 194.404 175.334 194.529 175.327C195.278 175.282 196.032 175.231 196.789 175.174C196.911 175.165 197.021 175.284 197.029 175.442C197.036 175.599 196.941 175.735 196.816 175.744C196.057 175.801 195.301 175.853 194.551 175.897C194.547 175.897 194.543 175.897 194.54 175.897ZM169.616 175.6C169.612 175.6 169.607 175.599 169.602 175.599C168.782 175.535 168.025 175.47 167.337 175.406C167.212 175.395 167.118 175.259 167.127 175.101C167.136 174.944 167.244 174.824 167.37 174.837C168.056 174.9 168.812 174.965 169.63 175.029C169.755 175.039 169.85 175.175 169.842 175.332C169.835 175.484 169.735 175.6 169.616 175.6ZM199.064 175.556C198.946 175.556 198.847 175.442 198.838 175.291C198.829 175.134 198.923 174.997 199.048 174.986C199.812 174.916 200.571 174.84 201.304 174.76C201.427 174.745 201.538 174.863 201.549 175.02C201.56 175.177 201.467 175.316 201.343 175.329C200.608 175.409 199.847 175.485 199.08 175.556C199.075 175.556 199.069 175.556 199.064 175.556ZM165.092 175.184C165.086 175.184 165.079 175.183 165.073 175.182C163.633 175.029 162.815 174.918 162.807 174.917C162.683 174.9 162.592 174.759 162.606 174.602C162.62 174.445 162.73 174.332 162.856 174.349C162.864 174.35 163.677 174.46 165.111 174.613C165.236 174.627 165.328 174.765 165.318 174.922C165.308 175.071 165.209 175.184 165.092 175.184ZM203.58 175.065C203.465 175.065 203.366 174.955 203.354 174.808C203.342 174.651 203.433 174.511 203.557 174.495C203.928 174.448 204.298 174.4 204.669 174.349C205.047 174.297 205.428 174.246 205.812 174.197C205.936 174.184 206.048 174.296 206.06 174.452C206.073 174.61 205.982 174.75 205.858 174.766C205.475 174.815 205.095 174.865 204.718 174.917C204.346 174.967 203.974 175.017 203.603 175.064C203.595 175.065 203.587 175.065 203.58 175.065ZM208.092 174.494C207.976 174.494 207.877 174.382 207.866 174.234C207.855 174.077 207.947 173.938 208.072 173.924C208.819 173.839 209.573 173.758 210.333 173.68C210.46 173.668 210.567 173.785 210.578 173.942C210.587 174.099 210.494 174.237 210.37 174.249C209.611 174.327 208.858 174.408 208.113 174.493C208.105 174.493 208.099 174.494 208.092 174.494ZM212.612 174.034C212.494 174.034 212.395 173.919 212.386 173.768C212.377 173.611 212.471 173.474 212.596 173.463C213.347 173.395 214.102 173.331 214.859 173.27C214.982 173.262 215.092 173.379 215.1 173.537C215.108 173.694 215.013 173.83 214.888 173.84C214.132 173.901 213.378 173.965 212.629 174.033C212.623 174.033 212.618 174.034 212.612 174.034ZM217.136 173.668C217.016 173.668 216.917 173.551 216.91 173.399C216.903 173.241 216.998 173.107 217.123 173.098C217.878 173.044 218.633 172.993 219.389 172.945C219.519 172.932 219.62 173.058 219.627 173.215C219.633 173.373 219.536 173.507 219.412 173.515C218.657 173.563 217.902 173.614 217.149 173.668C217.144 173.668 217.14 173.668 217.136 173.668ZM221.666 173.382C221.545 173.382 221.445 173.262 221.44 173.109C221.434 172.951 221.531 172.817 221.656 172.81C222.414 172.768 223.171 172.729 223.924 172.693C224.041 172.683 224.155 172.809 224.159 172.967C224.164 173.125 224.067 173.257 223.942 173.263C223.189 173.3 222.433 173.339 221.676 173.381C221.673 173.382 221.669 173.382 221.666 173.382ZM226.199 173.161C226.077 173.161 225.976 173.039 225.973 172.885C225.968 172.727 226.066 172.595 226.192 172.59C226.953 172.558 227.709 172.528 228.459 172.501C228.583 172.505 228.689 172.62 228.692 172.779C228.696 172.936 228.598 173.067 228.472 173.072C227.722 173.099 226.967 173.128 226.207 173.161C226.204 173.161 226.201 173.161 226.199 173.161ZM230.733 172.998C230.61 172.998 230.509 172.874 230.506 172.719C230.503 172.561 230.602 172.43 230.727 172.426C231.492 172.403 232.248 172.383 232.995 172.364C232.997 172.364 232.999 172.364 233 172.364C233.123 172.364 233.224 172.488 233.227 172.644C233.229 172.802 233.129 172.932 233.004 172.935C232.258 172.954 231.502 172.974 230.738 172.998C230.736 172.998 230.734 172.998 230.733 172.998ZM254.608 172.918C254.597 172.918 254.585 172.918 254.572 172.917C254.436 172.914 254.034 172.903 253.402 172.889C253.277 172.886 253.177 172.756 253.179 172.598C253.181 172.441 253.291 172.323 253.41 172.318C254.043 172.331 254.446 172.342 254.582 172.346L254.632 172.348L254.628 172.632L254.788 172.838C254.73 172.908 254.673 172.918 254.608 172.918ZM235.267 172.885C235.143 172.885 235.042 172.76 235.04 172.604C235.038 172.446 235.138 172.317 235.263 172.314C236.034 172.299 236.79 172.286 237.532 172.275C237.533 172.275 237.534 172.275 237.535 172.275C237.659 172.275 237.76 172.401 237.761 172.558C237.763 172.716 237.662 172.845 237.537 172.847C236.796 172.857 236.039 172.87 235.27 172.885C235.27 172.885 235.268 172.885 235.267 172.885ZM251.139 172.848C251.138 172.848 251.137 172.848 251.136 172.848C250.464 172.838 249.705 172.828 248.87 172.82C248.745 172.819 248.644 172.69 248.645 172.532C248.646 172.375 248.747 172.249 248.871 172.249C248.872 172.249 248.873 172.249 248.873 172.249C249.709 172.257 250.469 172.267 251.141 172.277C251.267 172.279 251.367 172.408 251.365 172.566C251.364 172.722 251.263 172.848 251.139 172.848ZM239.802 172.82C239.678 172.82 239.577 172.694 239.576 172.537C239.575 172.379 239.676 172.25 239.801 172.249C240.578 172.241 241.335 172.236 242.069 172.233C242.069 172.233 242.07 172.233 242.07 172.233C242.195 172.233 242.296 172.36 242.297 172.517C242.297 172.675 242.196 172.803 242.071 172.804C241.337 172.807 240.581 172.813 239.804 172.82C239.803 172.82 239.803 172.82 239.802 172.82ZM246.605 172.804C246.605 172.804 246.604 172.804 246.604 172.804C245.888 172.8 245.134 172.799 244.346 172.799C244.221 172.799 244.115 172.671 244.115 172.513C244.115 172.348 244.227 172.215 244.364 172.228C245.135 172.228 245.89 172.229 246.606 172.232C246.731 172.233 246.832 172.361 246.831 172.519C246.831 172.676 246.73 172.804 246.605 172.804Z" fill="#DEEBE9"/>
<path d="M164.793 61.2726L180.306 53.2707C180.306 53.2707 210.301 62.1124 218.698 62.1822C227.095 62.2521 230.571 56.1309 230.571 56.1309C230.571 56.1309 223.798 44.6731 209.604 39.2674C208.27 38.7575 206.874 38.3037 205.409 37.9165C202.95 37.268 200.45 36.5886 197.95 36.6712C160.128 37.9241 164.793 61.2726 164.793 61.2726Z" fill="#FF7043"/>
<path d="M248.311 189.854C248.311 189.854 248.18 194.285 251.115 195.696C254.051 197.108 262.694 198.707 259.286 201.375C257.33 202.906 248.592 201.373 246.109 201.238C243.626 201.103 241.236 202.055 239.481 200.298C237.551 198.365 240.077 189.406 240.077 189.406C240.077 189.406 242.159 190.635 244.089 190.69C246.87 190.769 248.311 189.854 248.311 189.854Z" fill="#2F1A31"/>
<path d="M275.361 189.825C275.361 189.825 275.23 194.256 278.166 195.668C281.102 197.079 289.744 198.679 286.336 201.347C284.38 202.878 275.643 201.344 273.16 201.209C270.676 201.074 268.286 202.026 266.531 200.269C264.601 198.337 267.128 189.377 267.128 189.377C267.128 189.377 269.209 190.606 271.139 190.661C273.92 190.74 275.361 189.825 275.361 189.825Z" fill="#2F1A31"/>
<path d="M278.581 182.506C276.383 153.477 275.864 133.89 266.648 121.306C256.561 107.533 229.518 97.792 219.091 97.1842C202.086 96.1933 194.073 98.7164 194.073 98.7164C181.309 125.171 201.302 128.681 216.091 129.404C216.579 129.428 217.07 129.455 217.562 129.486C226.516 130.048 242.436 132.315 248.461 141.182C253.233 148.204 256.544 158.062 257.94 183.49C258.208 188.369 262.315 192.153 267.216 192.019C267.216 192.019 279.372 192.946 278.581 182.506Z" fill="#881E21"/>
<path d="M254.446 184C254.735 154.891 255.642 140.029 246.876 127.129C241.244 118.841 232.775 112.585 221.703 108.535C213.802 105.644 204.508 103.871 194.08 103.263C177.076 102.272 169.435 100.225 169.435 100.225C155.672 134.089 206.014 126.9 219.119 141.328C224.83 147.615 231.905 159.571 233.302 184.998C233.57 189.878 237.676 193.662 242.577 193.528C242.577 193.528 254.34 194.644 254.446 184Z" fill="#881E21"/>
<path d="M254.362 155.409C254.353 155.235 253.489 137.967 250.586 131.935C246.913 124.303 236.25 116.334 225.233 112.986L225.29 112.8C236.355 116.162 247.067 124.175 250.762 131.851C253.682 137.918 254.548 155.226 254.556 155.4L254.362 155.409Z" fill="#020202"/>
<path d="M181.497 46.4579C181.497 46.4579 188.732 34.1332 205.408 37.9153C222.085 41.6974 228.88 58.674 230.074 99.4424C230.074 99.4424 214.634 98.8768 174.071 112.287C169.266 113.875 162.218 112.616 164.686 104.457C169.271 89.2934 173.713 59.046 181.497 46.4579Z" fill="#FF7043"/>
<path d="M164.871 61.6772C165.502 62.925 169.683 62.191 174.208 60.037C178.734 57.8834 181.891 55.1256 181.26 53.8778C180.629 52.63 176.448 53.3642 171.922 55.518C167.396 57.6715 164.239 60.4291 164.871 61.6772Z" fill="#2F1A31"/>
<path d="M198.954 36.6765C200.44 36.4555 202.648 36.5199 204.001 35.2789L208.564 31.4062L209.467 30.2596L216.697 23.621L212.268 31.8638L209.608 36.8109L208.85 38.2211C208.232 39.3718 208.595 40.7949 209.677 41.5293L209.696 41.5424C209.869 42.8473 209.811 45.3002 206.833 44.9835C199.99 44.2561 198.944 36.6782 198.954 36.6765Z" fill="#EAA678"/>
<path d="M207.667 17.9224C207.667 17.9224 207.372 19.4675 205.283 21.9732C202.227 25.6395 206.249 29.527 208.014 28.8778C208.233 28.7977 211.223 21.5792 211.223 21.5792L210.095 19.9862L207.667 17.9224Z" fill="#4D4018"/>
<path d="M224.504 28.7274C226.945 23.2751 225.33 17.2565 220.896 15.2838C216.463 13.3113 210.889 16.132 208.447 21.5839C206.005 27.0359 207.62 33.0548 212.054 35.0273C216.488 37 222.062 34.1794 224.504 28.7274Z" fill="#EAA678"/>
<path d="M223.675 20.3098C223.271 20.467 221.354 26.177 211.434 21.549C201.515 16.9211 214.09 9.32187 221.015 13.355C231.014 19.1784 229.297 30.7155 226.857 32.4769C224.416 34.2387 223.675 20.3098 223.675 20.3098Z" fill="#4D4018"/>
<path d="M209.387 7.21372C209.387 7.21372 212.73 12.513 207.723 13.8732C202.717 15.2334 192.047 12.056 192.536 18.3278C193.025 24.5994 192.059 33.1386 186.691 31.8711C181.321 30.6035 178.372 28.8431 174.597 31.872C170.821 34.9013 162.926 28.4738 165.753 24.1257C168.58 19.7778 162.721 12.2387 167.948 9.40656C173.174 6.57459 182.915 6.42417 187.444 1.71225C191.973 -2.99968 206.625 3.07013 209.387 7.21372Z" fill="#4D4018"/>
<path d="M213.461 20.6963C213.461 20.6963 207.788 23.0337 207.27 27.7726C207.27 27.7726 206.124 24.3406 206.482 23.4091C206.84 22.4776 208.905 19.4576 208.905 19.4576L213.461 20.6963Z" fill="#6F4975"/>
<path d="M208.854 23.5505C209.376 24.8205 210.608 25.4749 211.605 25.0122C212.603 24.5495 212.989 23.1447 212.467 21.8749C211.945 20.6047 210.714 19.9506 209.716 20.4133C208.718 20.8762 208.332 22.2808 208.854 23.5505Z" fill="#EAA678"/>
<path d="M174.776 31.9673L174.418 31.7765C177.195 26.6095 180.49 27.1248 183.978 27.6705C185.28 27.8742 186.626 28.0847 187.96 27.9809C188.511 27.938 188.913 27.7551 189.189 27.421C189.942 26.5098 189.716 24.5683 189.456 22.3206C189.069 18.9885 188.588 14.8415 191.327 12.3928C196.478 7.7859 202.382 8.92236 202.441 8.93441C206.522 10.1691 207.298 9.57205 207.443 9.2583C207.729 8.63926 206.72 7.38531 206.219 7.06607C202.096 4.44094 197.045 2.58762 188.077 6.76099C181.078 10.0183 180.865 12.707 180.596 16.1113C180.533 16.9 180.468 17.716 180.321 18.5926C180.188 19.3789 179.862 19.9462 179.353 20.2788C178.277 20.9823 176.537 20.5509 174.854 20.1338C172.837 19.6342 170.933 19.162 170.124 20.4229C169.443 21.4839 169.589 23.0609 169.729 24.5859C169.888 26.3133 170.039 27.9446 169.081 28.9384C168.453 29.59 167.423 29.8697 165.934 29.7943L165.954 29.3899C167.319 29.4594 168.247 29.2201 168.788 28.6581C169.617 27.7977 169.475 26.2556 169.324 24.6231C169.178 23.03 169.026 21.3825 169.781 20.2048C170.748 18.6988 172.885 19.2287 174.952 19.7411C176.549 20.137 178.202 20.5467 179.13 19.9403C179.547 19.6682 179.805 19.2053 179.92 18.5254C180.065 17.6667 180.129 16.8597 180.19 16.0794C180.47 12.5439 180.691 9.7512 187.905 6.39441C197.051 2.13822 202.217 4.03783 206.438 6.72528C206.959 7.05699 208.24 8.5015 207.812 9.42795C207.388 10.346 205.598 10.3128 202.341 9.32675C202.302 9.31999 196.592 8.22832 191.598 12.6943C189.016 15.0034 189.464 18.8662 189.859 22.2741C190.13 24.614 190.365 26.6349 189.502 27.6788C189.158 28.0961 188.649 28.3337 187.992 28.3849C186.611 28.4933 185.24 28.2782 183.915 28.0709C180.573 27.5472 177.417 27.054 174.776 31.9673Z" fill="white"/>
<path d="M215.744 19.3425C214.892 19.3425 213.955 19.1927 212.984 18.7851L213.112 18.4823C216.585 19.9397 219.601 17.943 219.631 17.9229L219.816 18.1942C219.793 18.21 218.088 19.3425 215.744 19.3425Z" fill="white"/>
<path d="M218.325 24.7506C218.384 24.7644 218.448 24.7513 218.498 24.7094C218.583 24.6391 218.594 24.5136 218.524 24.4291C218.482 24.3794 217.625 23.136 215.971 23.7122C215.866 23.7487 215.808 23.859 215.843 23.9638C215.877 24.0684 215.985 24.102 216.095 24.0912C217.196 23.9835 218.182 24.6433 218.216 24.6843C218.246 24.7189 218.284 24.7411 218.325 24.7506Z" fill="#060633"/>
<path d="M228.204 74.4139C226.954 65.3006 225.094 58.1482 222.503 52.6582C221.759 46.8079 219.624 40.5752 217.818 37.4764L214.11 35.0583C213.438 30.9804 218.423 31.0047 219.845 30.5904C221.267 30.1736 219.869 25.8457 221.259 24.8529C222.587 23.9062 222.617 29.743 222.617 30.265C222.639 29.7918 222.876 25.0118 224.031 24.2263C225.248 23.4006 224.938 30.3107 224.938 30.3107C224.938 30.3107 225.515 25.3051 226.938 24.8907C228.301 24.4927 227.696 29.7596 227.645 30.1953C227.699 29.894 228.157 27.4409 228.978 25.7086C229.852 23.858 231.285 28.4282 230.54 31.5671C230.387 32.2261 229.909 32.9821 229.253 33.7649C228.257 34.9537 228.066 36.6241 228.732 38.0255C229.839 40.3548 231.218 43.6043 232.281 47.2302C234.394 54.4281 237.722 69.0236 228.204 74.4139Z" fill="#F7B686"/>
<path d="M226.857 32.5962C226.828 32.5962 226.798 32.5856 226.776 32.5645C226.727 32.5199 226.724 32.4449 226.769 32.3963C227.695 31.3968 227.523 30.255 227.521 30.2438C227.511 30.1787 227.555 30.1177 227.62 30.1073C227.686 30.097 227.747 30.1409 227.757 30.206C227.766 30.2571 227.948 31.4743 226.945 32.5581C226.921 32.5835 226.889 32.5962 226.857 32.5962Z" fill="#DD8964"/>
<path d="M224.357 32.6549C224.328 32.6549 224.299 32.6443 224.276 32.623C224.228 32.578 224.225 32.5028 224.27 32.4546C225.21 31.4527 224.842 30.3957 224.826 30.3509C224.803 30.2894 224.835 30.2212 224.897 30.1986C224.958 30.1764 225.027 30.2076 225.05 30.2693C225.068 30.3192 225.488 31.5051 224.445 32.6173C224.421 32.6424 224.389 32.6549 224.357 32.6549Z" fill="#DD8964"/>
<path d="M221.8 32.9295L221.679 32.725C222.537 32.2162 222.499 30.3234 222.498 30.3042L222.737 30.298C222.739 30.3815 222.779 32.35 221.8 32.9295Z" fill="#DD8964"/>
<path d="M214.011 40.1604C214.011 40.1604 222.062 34.7045 222.805 31.566C223.547 28.4275 222.114 23.859 221.239 25.707C220.365 27.5553 219.902 30.2246 219.902 30.2246C219.902 30.2246 220.622 24.4755 219.2 24.89C217.778 25.3043 217.2 30.3101 217.2 30.3101C217.2 30.3101 217.51 23.4012 216.294 24.2262C215.078 25.0512 214.88 30.3013 214.88 30.3013C214.88 30.3013 214.911 23.8617 213.521 24.8528C212.131 25.8442 212.645 29.6077 211.223 30.0222C209.801 30.4363 205.625 31.3894 206.272 35.5763L214.011 40.1604Z" fill="#F7B686"/>
<path d="M219.119 32.5961C219.092 32.5961 219.065 32.5871 219.043 32.5689C218.993 32.5271 218.985 32.4518 219.027 32.4013C219.912 31.3319 219.785 30.2507 219.784 30.2398C219.775 30.1747 219.821 30.1151 219.887 30.1064C219.953 30.0974 220.012 30.1441 220.02 30.2087C220.027 30.2567 220.166 31.3997 219.211 32.5526C219.188 32.5814 219.154 32.5961 219.119 32.5961Z" fill="#DD8964"/>
<path d="M216.266 33.1189C216.236 33.1189 216.207 33.1082 216.184 33.0868C216.136 33.0418 216.133 32.9668 216.179 32.9186C217.137 31.8975 217.082 30.3313 217.081 30.3153C217.078 30.25 217.13 30.1942 217.195 30.1917C217.256 30.1917 217.317 30.2394 217.32 30.3054C217.323 30.3734 217.381 31.9859 216.353 33.0813C216.33 33.1063 216.298 33.1189 216.266 33.1189Z" fill="#DD8964"/>
<path d="M214.002 32.9466C213.974 32.9466 213.945 32.9364 213.922 32.9157C213.874 32.8718 213.87 32.7966 213.914 32.7475C215.006 31.5437 214.766 30.3381 214.764 30.3261C214.75 30.2616 214.791 30.1985 214.856 30.185C214.92 30.1716 214.984 30.2124 214.997 30.2769C215.009 30.3309 215.265 31.614 214.091 32.9075C214.067 32.9333 214.035 32.9466 214.002 32.9466Z" fill="#DD8964"/>
<path d="M179.179 75.7033C169.356 70.7666 166.58 62.1482 166.48 61.8976C166.48 61.8976 167.362 58.2127 172.193 56.6076C179.108 54.31 180.784 55.3076 180.784 55.3076C180.784 55.3076 186.79 64.4667 192.188 64.0822C196.903 63.7463 204.681 60.6422 206.205 35.2408L216.734 37.9239C215.92 51.4955 214.661 61.1068 210.846 68.0287C205.293 78.1073 191.952 82.1224 179.179 75.7033Z" fill="#F7B686"/>
<path d="M216.734 38.0421C216.687 38.0421 216.643 38.0151 216.624 37.9697C216.598 37.9092 216.626 37.8393 216.687 37.8135C216.759 37.7829 223.91 34.6695 222.814 28.3383C222.803 28.2739 222.846 28.2122 222.911 28.201C222.976 28.1909 223.038 28.2331 223.049 28.2982C224.178 34.8161 216.854 38.0014 216.78 38.0326C216.765 38.039 216.749 38.0421 216.734 38.0421Z" fill="#DD8964"/>
<path d="M209.031 27.108L206.719 32.4767C206.719 32.4767 209.179 33.2025 209.937 32.1055C210.695 31.0084 211.775 25.0457 209.031 27.108Z" fill="#F7B686"/>
<path d="M206.167 38.0422C206.103 38.0422 206.05 37.9925 206.047 37.9285C206.04 37.7732 205.887 34.1065 206.609 32.4302L208.396 28.2809C208.435 28.1233 208.848 26.5634 209.937 26.559C209.938 26.559 209.94 26.559 209.941 26.559C210.204 26.559 210.417 26.6473 210.572 26.8216C211.023 27.3274 210.888 28.4318 210.779 29.3191C210.649 30.3852 211.126 31.5063 211.131 31.5175C211.157 31.5777 211.129 31.6478 211.069 31.6738C211.008 31.6996 210.938 31.6721 210.912 31.6115C210.891 31.5633 210.404 30.4193 210.542 29.2902C210.64 28.4947 210.773 27.405 210.394 26.9797C210.284 26.8558 210.14 26.795 209.938 26.7967C209.002 26.8009 208.63 28.3301 208.626 28.3456C208.625 28.3523 208.622 28.3591 208.62 28.3654L206.829 32.524C206.128 34.15 206.285 37.8805 206.286 37.9179C206.289 37.9836 206.238 38.039 206.172 38.0422C206.17 38.0422 206.168 38.0422 206.167 38.0422Z" fill="#DD8964"/>
<path d="M206.124 30.0074C206.124 30.0074 203.328 29.1477 202.179 30.8489C201.031 32.5501 202.632 33.9727 203.582 33.3853C204.533 32.798 203.309 31.139 206.124 30.0074Z" fill="#9CCBED"/>
<path d="M233.471 32.5885C233.471 32.5885 241.275 30.1888 244.479 34.9369C247.684 39.6853 243.217 43.6555 240.564 42.0164C237.912 40.3775 241.327 35.7469 233.471 32.5885Z" fill="#9CCBED"/>
<path d="M233.004 25.4175C233.004 25.4175 234.318 22.3331 236.667 22.5885C239.017 22.8437 239.084 25.2986 237.863 25.6951C236.642 26.0919 236.086 23.7921 233.004 25.4175Z" fill="#9CCBED"/>
<g opacity="0.5">
<path d="M196.101 76.1036C194.891 76.1036 193.876 75.5558 193.61 74.6507C193.259 73.4538 194.347 72.0784 196.037 71.5848C196.836 71.3513 197.654 71.3446 198.339 71.5656C199.066 71.7995 199.563 72.2594 199.739 72.8605C199.916 73.4616 199.746 74.1159 199.262 74.7041C198.804 75.2589 198.112 75.6931 197.313 75.9262C196.901 76.0468 196.491 76.1036 196.101 76.1036ZM197.264 72.0019C196.921 72.0019 196.562 72.0543 196.205 72.1584C194.856 72.5523 193.931 73.6169 194.186 74.4827C194.44 75.3481 195.795 75.747 197.145 75.3525C197.829 75.1529 198.417 74.7876 198.799 74.3247C199.154 73.8943 199.283 73.4339 199.164 73.0287C199.045 72.6232 198.687 72.3055 198.155 72.1346C197.881 72.046 197.579 72.0019 197.264 72.0019Z" fill="#E08B65"/>
</g>
<path d="M196.089 202.52C196.089 202.52 188.294 194.6 190.976 190.089C193.658 185.577 198.184 199.779 198.184 199.779C198.184 199.779 195.837 182.987 200.698 182.695C205.56 182.403 200.698 199.779 200.698 199.779C200.698 199.779 202.501 195.727 204.261 195.477C206.021 195.226 205.518 198.912 202.375 202.52H196.089Z" fill="#BED5DC"/>
<path d="M196.647 202.719C196.625 202.696 194.394 200.418 192.569 197.54C190.079 193.613 189.486 190.496 190.807 188.275C191.3 187.445 191.893 187.065 192.566 187.141C194.854 187.401 197.36 193.344 198.654 196.871C198.518 195.459 198.375 193.602 198.322 191.647C198.172 186.099 198.787 182.444 200.151 180.784C200.678 180.142 201.321 179.794 202.063 179.75C202.788 179.708 203.378 179.964 203.825 180.516C206.008 183.21 204.035 192.725 202.951 197.178C203.759 195.872 204.907 194.417 206.08 194.25C206.635 194.171 207.076 194.377 207.324 194.831C208.031 196.125 207.055 199.425 204.196 202.706L203.766 202.333C206.576 199.107 207.347 196.061 206.823 195.103C206.69 194.859 206.48 194.767 206.16 194.812C204.652 195.027 202.892 198.288 202.34 199.526L201.805 199.334C201.816 199.296 202.881 195.468 203.596 191.278C204.531 185.797 204.457 182.2 203.382 180.873C203.052 180.467 202.63 180.285 202.097 180.317C201.512 180.352 201.02 180.622 200.592 181.144C197.526 184.876 199.49 199.227 199.51 199.371L198.956 199.497C197.939 196.306 194.796 187.967 192.501 187.706C192.065 187.655 191.67 187.937 191.297 188.564C188.402 193.434 196.968 202.232 197.054 202.32L196.647 202.719Z" fill="#42428E"/>
</svg>
