<svg width="352" height="305" viewBox="0 0 352 305" fill="none" xmlns="http://www.w3.org/2000/svg">
<path d="M319.186 141.136C318.036 141.136 316.86 141.087 315.66 140.99C306.518 140.246 298.84 137.002 293.455 131.607C287.91 126.052 284.979 118.357 284.979 109.355C284.979 100.53 287.992 93.5201 293.934 88.5197C299.23 84.0632 306.837 81.1991 316.544 80.0066C324.808 78.9915 332.016 80.9721 337.389 85.7347C343.775 91.3962 347.438 100.944 347.438 111.931C347.438 121.346 344.476 129.06 338.871 134.238C333.953 138.78 327.198 141.136 319.186 141.136ZM320.673 79.9641C319.338 79.9641 317.97 80.0494 316.57 80.2214C306.906 81.4086 299.337 84.2564 294.073 88.6856C288.182 93.6429 285.195 100.597 285.195 109.355C285.195 118.299 288.104 125.94 293.608 131.454C298.956 136.812 306.587 140.035 315.677 140.774C325.178 141.547 333.146 139.231 338.724 134.079C344.284 128.943 347.222 121.284 347.222 111.931C347.222 101.006 343.586 91.5172 337.245 85.8968C332.829 81.9819 327.158 79.9641 320.673 79.9641Z" fill="#331832"/>
<path d="M289.756 105.615C289.756 87.0306 303.045 78.6083 321.227 76.3747C341.605 73.8714 352 89.6069 352 108.191C352 126.776 340.296 138.766 320.338 137.143C302.081 135.658 289.756 124.2 289.756 105.615Z" fill="#92C3D6"/>
<path d="M124.138 86.3845C122.982 86.3845 121.802 86.3359 120.596 86.2377C111.413 85.491 103.701 82.2326 98.2929 76.814C92.7236 71.2345 89.7799 63.5059 89.7799 54.4639C89.7799 45.601 92.8059 38.5612 98.7735 33.5396C104.093 29.0633 111.734 26.1864 121.485 24.9886C129.784 23.9693 137.023 25.958 142.419 30.7408C148.834 36.427 152.513 46.0173 152.513 57.0526C152.513 66.5095 149.537 74.2567 143.908 79.4566C138.97 84.0184 132.185 86.3845 124.138 86.3845ZM125.632 24.9198C124.291 24.9198 122.915 25.0057 121.508 25.1785C111.795 26.3717 104.187 29.234 98.8964 33.686C92.9738 38.6697 89.9708 45.6604 89.9708 54.4641C89.9708 63.4543 92.8953 71.136 98.4279 76.6789C103.804 82.0648 111.475 85.3043 120.611 86.0473C130.16 86.8233 138.171 84.496 143.779 79.3163C149.368 74.1534 152.322 66.4549 152.322 57.0528C152.322 46.0723 148.666 36.5342 142.293 30.8841C137.853 26.9485 132.151 24.9198 125.632 24.9198Z" fill="#331832"/>
<path d="M85.7174 54.464C85.7174 35.7905 99.0691 27.3279 117.338 25.0836C137.814 22.5683 148.259 38.3792 148.259 57.0526C148.259 75.726 136.499 87.773 116.445 86.1425C98.1012 84.6511 85.7174 73.1376 85.7174 54.464Z" fill="#92C3D6"/>
<path d="M40.8208 143.424C39.5363 143.424 38.2241 143.37 36.8835 143.261C26.678 142.431 18.1067 138.81 12.0963 132.788C5.90725 126.588 2.63599 117.999 2.63599 107.95C2.63599 98.1007 5.99825 90.2776 12.6295 84.6976C18.5417 79.7227 27.0348 76.5252 37.8732 75.1938C47.0965 74.0609 55.1404 76.2709 61.1355 81.5851C64.7759 84.812 67.6033 89.073 69.5396 94.2496C71.4062 99.2403 72.3527 104.818 72.3527 110.828C72.3527 121.338 69.0464 129.948 62.7912 135.726C57.3035 140.795 49.7635 143.424 40.8208 143.424ZM42.5397 75.0731C41.0298 75.0731 39.48 75.1704 37.8943 75.3652C27.0895 76.6924 18.6265 79.8768 12.7403 84.8299C6.14991 90.3755 2.80834 98.1541 2.80834 107.95C2.80834 117.952 6.06224 126.499 12.2181 132.666C18.1994 138.658 26.7334 142.263 36.8975 143.089C47.5208 143.952 56.4349 141.363 62.6743 135.599C68.8931 129.854 72.1804 121.289 72.1804 110.828C72.1804 104.839 71.2376 99.2814 69.3781 94.3102C67.452 89.1603 64.6403 84.9225 61.0214 81.7144C58.1327 79.1536 54.7699 77.306 51.0265 76.2227C48.3808 75.4571 45.5395 75.0731 42.5397 75.0731Z" fill="#331832"/>
<path d="M0 105.188C0 84.4233 14.8468 75.0131 35.1617 72.5175C57.9302 69.7206 69.5444 87.3017 69.5444 108.066C69.5444 128.83 56.4679 142.226 34.1684 140.413C13.7706 138.754 0 125.952 0 105.188Z" fill="#92C3D6"/>
<path d="M234.878 86.1405C233.601 86.1405 232.297 86.0866 230.965 85.9782C220.822 85.1535 212.303 81.5541 206.329 75.5693C200.178 69.4066 196.926 60.8701 196.926 50.8825C196.926 41.0938 200.268 33.3183 206.859 27.7726C212.735 22.8282 221.176 19.6502 231.948 18.3269C241.115 17.2013 249.11 19.3975 255.068 24.679C258.687 27.8864 261.497 32.1213 263.421 37.2662C265.277 42.2264 266.217 47.7702 266.217 53.7435C266.217 64.1893 262.931 72.7462 256.714 78.4892C251.26 83.5274 243.766 86.1405 234.878 86.1405ZM236.586 18.2069C235.086 18.2069 233.545 18.3037 231.969 18.4973C221.23 19.8164 212.819 22.9812 206.969 27.904C200.419 33.4156 197.098 41.1468 197.098 50.8825C197.098 60.8237 200.331 69.3181 206.45 75.4479C212.395 81.4036 220.876 84.986 230.979 85.8073C241.538 86.6652 250.397 84.0916 256.598 78.3631C262.779 72.6535 266.046 64.1401 266.046 53.7435C266.046 47.7909 265.109 42.2673 263.261 37.3265C261.346 32.2081 258.552 27.996 254.955 24.8076C252.084 22.2625 248.742 20.4262 245.021 19.3495C242.392 18.5886 239.568 18.2069 236.586 18.2069Z" fill="#331832"/>
<path d="M193.85 47.6739C193.85 27.0364 208.606 17.6836 228.797 15.2033C251.426 12.4235 262.969 29.8972 262.969 50.5347C262.969 71.1722 249.973 84.4862 227.81 82.6841C207.536 81.0356 193.85 68.3114 193.85 47.6739Z" fill="#92C3D6"/>
<path d="M84.9114 171.065C83.6663 173.221 82.6104 173.457 81.7646 172.955C80.9188 172.454 80.6035 171.406 81.8486 169.25C84.1166 165.322 86.7442 164.332 86.7442 164.332C86.7442 164.332 87.2127 167.08 84.9114 171.065Z" fill="#ACC9C5"/>
<path d="M92.7918 185.338C92.3121 187.792 91.3927 188.359 90.4344 188.158C89.4762 187.957 88.8422 187.065 89.3221 184.611C90.1962 180.14 92.3535 178.343 92.3535 178.343C92.3535 178.343 93.6787 180.802 92.7918 185.338Z" fill="#ACC9C5"/>
<path d="M112.681 222.829L112.252 223.022C112.222 222.955 109.135 216.242 101.727 208.024C94.8909 200.441 82.873 189.989 64.4374 183.257L64.5934 182.811C83.1307 189.58 95.2149 200.095 102.088 207.723C109.54 215.994 112.65 222.762 112.681 222.829Z" fill="#ACC9C5"/>
<path d="M84.7686 193.045L84.2978 193.014C85.2048 175.82 71.7181 163.104 71.5817 162.978L71.8988 162.631C72.0367 162.759 85.6877 175.622 84.7686 193.045Z" fill="#ACC9C5"/>
<path d="M74.8157 189.761C70.6515 192.091 66.3199 191.739 66.2701 191.735L66.3061 191.262C66.3613 191.267 71.9088 191.711 76.3748 188.142L76.6708 188.515C76.0669 188.998 75.4429 189.41 74.8157 189.761Z" fill="#ACC9C5"/>
<path d="M62.8652 181.093C66.1457 181.862 66.9509 182.866 66.7405 183.823C66.5299 184.78 65.3836 185.327 62.1028 184.559C56.1266 183.159 53.6195 180.749 53.6195 180.749C53.6195 180.749 56.802 179.673 62.8652 181.093Z" fill="#ACC9C5"/>
<path d="M66.6169 189.777C69.9632 189.517 71.0289 190.234 71.1157 191.214C71.2025 192.194 70.2774 193.065 66.9311 193.325C60.8353 193.798 57.7321 192.253 57.7321 192.253C57.7321 192.253 60.4322 190.258 66.6169 189.777Z" fill="#ACC9C5"/>
<path d="M75.299 180.798C76.9912 182.659 76.9135 183.746 76.1969 184.405C75.4803 185.063 74.396 185.044 72.7038 183.184C69.6214 179.795 69.4291 176.965 69.4291 176.965C69.4291 176.965 72.1717 177.36 75.299 180.798Z" fill="#ACC9C5"/>
<path d="M71.8195 160.465C74.1142 162.962 74.2185 164.242 73.5052 164.904C72.7919 165.567 71.5313 165.361 69.2368 162.864C65.0569 158.315 64.3282 154.917 64.3282 154.917C64.3282 154.917 67.5788 155.85 71.8195 160.465Z" fill="#ACC9C5"/>
<path d="M166.07 265.739C166.07 265.739 137.319 184.506 115.906 193.174C94.4928 201.841 147.048 243.317 154.68 267.231L166.07 265.739Z" fill="#ACC9C5"/>
<path d="M151.84 259.41C151.84 259.41 105.043 193.323 84.1321 207.493C63.2209 221.663 127.193 244.392 140.089 264.089L151.84 259.41Z" fill="#92BCB5"/>
<path d="M145.289 262.086C136.627 248.319 122.624 236.499 112.402 229.008C101.32 220.886 92.1774 215.965 92.0862 215.916L92.3864 215.339C92.4777 215.388 101.66 220.331 112.778 228.479C123.046 236.003 137.114 247.881 145.831 261.735L145.289 262.086Z" fill="#68A1BF"/>
<path d="M71.1554 278.312C84.4389 280.932 82.6648 301.289 97.6547 297.198C112.645 293.098 111.375 292.146 118.762 298.633C118.762 298.633 125.282 303.988 131.333 304.656C169.41 308.863 183.057 273.456 157.981 254.431C156.17 253.057 153.565 252.569 150.685 252.175C135.061 250.043 130.36 257.401 117.705 239.042C105.046 220.679 88.9515 247.74 78.4888 247.025C68.0261 246.309 58.7566 243.329 50.8533 254.732C42.949 266.145 57.8712 275.701 71.1554 278.312Z" fill="#CCD39C"/>
<path d="M150.985 280.408L151.466 279.648C151.136 279.433 117.652 258.11 49.0454 257.961L49.0435 258.864C117.393 259.013 150.657 280.194 150.985 280.408Z" fill="#C2C68E"/>
<path d="M107.758 254.456C116.63 246.001 118.085 239.41 118.142 239.133L117.272 238.946C117.258 239.011 115.794 245.559 107.148 253.798L107.758 254.456Z" fill="#C2C68E"/>
<path d="M106.395 264.231C108.841 259.632 108.464 253.088 105.304 245.308C102.937 239.481 99.8098 234.939 99.7786 234.894L99.0508 235.413C99.1732 235.59 111.236 253.227 105.612 263.803L106.395 264.231Z" fill="#C2C68E"/>
<path d="M88.3152 263.05C89.3725 262.113 89.942 261.506 89.9676 261.478L89.3184 260.861C89.1995 260.99 77.1947 273.753 59.0792 273.589L59.0715 274.492C73.6687 274.624 84.3763 266.542 88.3152 263.05Z" fill="#C2C68E"/>
<path d="M79.8599 284.121C83.8933 279.355 84.9743 274.655 85.171 271.553C85.3849 268.175 84.6438 265.949 84.6122 265.855L83.7704 266.15C83.7994 266.235 86.5695 274.806 79.1843 283.533L79.8599 284.121Z" fill="#C2C68E"/>
<g opacity="0.6">
<path d="M191.75 242.398C194.563 206.885 202.086 161.415 222.169 162.184C246.369 163.112 225.491 207.206 213.317 244.664C208.949 258.101 189.957 265.031 191.75 242.398Z" fill="#ACC9C5"/>
</g>
<path d="M204.354 262.874C204.354 262.874 242.688 155.77 276.194 166.855C309.701 177.94 231.96 233.156 221.952 264.675L204.354 262.874Z" fill="#CCD39C"/>
<path d="M214.19 263.969C220.71 242.074 235.163 220.755 246.138 206.727C258.038 191.518 268.521 181.37 268.626 181.269L268.005 180.606C267.9 180.707 257.37 190.9 245.432 206.158C234.408 220.249 219.889 241.671 213.327 263.703L214.19 263.969Z" fill="#C2C68E"/>
<path d="M318.894 264.916C304.086 268.343 306.802 291.116 289.84 287.077C275.494 283.653 274.275 282.328 269.369 286.566C267.687 288.019 266.165 289.681 265.027 291.601C262.52 295.829 258.423 298.876 236.423 298.443C209.464 297.911 193.185 263.581 220.638 241.316C222.62 239.709 225.525 239.066 228.742 238.517C246.193 235.552 251.73 243.633 265.272 222.572C278.818 201.506 297.839 231.274 309.551 230.087C321.263 228.899 331.555 225.215 340.829 237.718C350.103 250.23 333.704 261.499 318.894 264.916Z" fill="#ACC9C5"/>
<g opacity="0.5">
<path d="M229.413 270.201L228.846 269.367C229.209 269.113 266.012 243.962 342.972 241.273L343.007 242.287C266.335 244.966 229.774 269.949 229.413 270.201Z" fill="#68A1BF"/>
<path d="M276.98 239.499C266.726 230.34 264.859 222.999 264.784 222.691L265.754 222.449C265.772 222.522 267.648 229.813 277.641 238.739L276.98 239.499Z" fill="#68A1BF"/>
<path d="M278.858 250.415C275.95 245.345 276.14 237.99 279.407 229.145C281.854 222.522 285.201 217.311 285.234 217.26L286.069 217.815C285.938 218.018 273.035 238.248 279.722 249.906L278.858 250.415Z" fill="#68A1BF"/>
<path d="M299.099 248.426C297.879 247.413 297.219 246.753 297.189 246.723L297.895 246.007C298.033 246.147 311.956 260.024 332.273 259.175L332.314 260.187C315.943 260.871 303.642 252.199 299.099 248.426Z" fill="#68A1BF"/>
<path d="M309.337 271.753C304.642 266.554 303.261 261.322 302.93 257.848C302.569 254.067 303.321 251.543 303.353 251.437L304.308 251.736C304.279 251.833 301.477 261.55 310.073 271.069L309.337 271.753Z" fill="#68A1BF"/>
</g>
<g opacity="0.6">
<path d="M194.761 159.561C193.98 155.979 195.287 154.572 197.185 154.152C199.084 153.732 200.855 154.457 201.636 158.04C203.059 164.566 200.309 168.482 200.309 168.482C200.309 168.482 196.205 166.183 194.761 159.561Z" fill="#ACC9C5"/>
</g>
<g opacity="0.6">
<path d="M295.326 206.254C297.756 204.475 299.035 204.73 299.722 205.696C300.409 206.662 300.243 207.975 297.813 209.753C293.388 212.992 290.005 212.808 290.005 212.808C290.005 212.808 290.836 209.54 295.326 206.254Z" fill="#ACC9C5"/>
</g>
<path d="M118.165 164.284C118.576 172.247 122.444 179.624 128.74 184.503C130.87 186.153 132.703 187.702 133.668 188.807C136.399 191.938 137.562 190.512 138.866 191.57C142.071 194.173 150.561 226.956 152.638 229.314C155.465 232.523 157.803 217.643 157.803 217.643L184.234 202.917C184.234 202.917 175.256 185.333 171.21 178.495C169.731 175.995 167.394 173.265 167.612 168.634C167.916 162.176 163.385 155.47 159.806 148.936C158.128 145.872 154.588 140.308 153.001 138.449C151.329 136.49 148.115 127.784 144.871 129.008C139.139 131.171 149.436 151.986 145.291 150.719C139.99 149.098 134.388 146.806 127.888 143.874C113.405 137.343 117.543 152.212 118.165 164.284Z" fill="#FFB27D"/>
<path d="M141.873 191.16C141.856 191.168 141.839 191.174 141.821 191.178C139.225 191.84 137.388 191.423 136.304 190.956C135.11 190.441 134.541 189.761 134.517 189.733C134.411 189.604 134.429 189.413 134.558 189.307C134.686 189.2 134.876 189.218 134.983 189.347C134.988 189.353 135.503 189.96 136.577 190.414C137.57 190.834 139.26 191.206 141.672 190.592C141.834 190.55 141.999 190.648 142.04 190.81C142.076 190.955 142.003 191.101 141.873 191.16Z" fill="#F59A6D"/>
<g opacity="0.4">
<path d="M148.364 96.5156C166.1 78.7476 166.1 49.9399 148.364 32.1719C130.627 14.4039 101.871 14.4039 84.1343 32.1719C66.3978 49.9399 66.3978 78.7476 84.1343 96.5156C101.871 114.284 130.627 114.284 148.364 96.5156Z" fill="#89CDE4"/>
</g>
<path d="M152.325 61.1856C152.25 61.0895 152.2 60.9715 152.187 60.841C151.528 53.9785 148.923 47.4706 144.655 42.0205C144.43 41.733 144.48 41.3169 144.767 41.0914C145.054 40.8656 145.469 40.9161 145.694 41.2036C150.119 46.853 152.819 53.5997 153.503 60.7141C153.537 61.0779 153.271 61.4015 152.908 61.4364C152.675 61.4587 152.459 61.3572 152.325 61.1856Z" fill="#DAEBE8"/>
<path d="M79.5358 71.2373C79.4711 71.1547 79.4252 71.0555 79.4057 70.9452C76.9734 57.2547 82.2409 43.4227 93.1525 34.8474C93.4395 34.6217 93.8548 34.6719 94.08 34.9596C94.3053 35.2473 94.2551 35.6633 93.9679 35.8888C83.4414 44.1617 78.3602 57.5056 80.7065 70.7133C80.7705 71.0732 80.5312 71.4168 80.1717 71.4809C79.9228 71.5252 79.6817 71.4236 79.5358 71.2373Z" fill="#366F90"/>
<path d="M134.405 196.661L127.812 197.395L117.815 108.517L124.408 107.783L134.405 196.661Z" fill="#2F1A31"/>
<path d="M133.144 197.889L128.996 198.35C127.347 198.534 125.885 197.554 125.731 196.161L119.869 143.316C119.714 141.923 120.926 140.645 122.575 140.462L126.723 140C128.372 139.816 129.834 140.797 129.988 142.189L135.85 195.034C136.005 196.427 134.793 197.705 133.144 197.889Z" fill="#5C305D"/>
<path d="M111 17.0021C84.9008 19.9075 66.0956 43.4592 68.9958 69.6046C71.8961 95.7499 95.4038 114.589 121.503 111.683C147.601 108.778 166.407 85.2283 163.507 59.0832C160.606 32.9379 137.098 14.0967 111 17.0021ZM121.042 107.533C97.2305 110.183 75.785 92.9952 73.1392 69.1433C70.493 45.2893 87.6485 23.8036 111.46 21.1529C135.272 18.502 156.719 35.6903 159.365 59.5443C162.011 83.396 144.854 104.882 121.042 107.533Z" fill="#5C305D"/>
<path d="M153 185.673C152.914 185.712 152.811 185.711 152.723 185.66C152.646 185.615 150.82 184.541 149.338 182.217C148.468 180.852 147.9 179.339 147.65 177.72C147.34 175.704 147.525 173.518 148.201 171.225C148.248 171.065 148.417 170.973 148.577 171.02C148.737 171.068 148.828 171.236 148.781 171.397C148.13 173.604 147.951 175.7 148.248 177.627C148.484 179.163 149.022 180.597 149.847 181.89C151.25 184.091 153.008 185.125 153.026 185.135C153.17 185.219 153.22 185.404 153.136 185.549C153.104 185.606 153.055 185.648 153 185.673Z" fill="#F59A6D"/>
<path d="M177.535 185.112C177.431 185.028 173.023 186.462 171.499 186.882C166.81 188.176 156.752 192.303 150.338 201.411C148.51 204.003 146.979 207.002 145.951 210.454C145.513 211.917 145.17 213.459 144.93 215.089C144.868 215.52 145.877 221.794 147.814 231.093C151.194 247.32 159.85 278.19 166.316 295.971C191.316 299.586 236.325 304.861 236.325 304.861C234.813 302.23 185.112 191.223 177.535 185.112Z" fill="#EE7162"/>
<path d="M148.874 135.36C148.611 135.414 148.297 135.428 147.939 135.353C147.748 135.313 146.748 134.9 145.716 130.667C145.685 130.541 145.762 130.413 145.889 130.382C146.015 130.355 146.142 130.429 146.173 130.555C146.594 132.282 147.45 134.769 148.035 134.892C148.901 135.073 149.43 134.606 149.435 134.602C149.531 134.514 149.679 134.522 149.767 134.618C149.854 134.715 149.847 134.864 149.75 134.951C149.731 134.969 149.414 135.249 148.874 135.36Z" fill="#F59A6D"/>
<path d="M122.549 184.52L130.791 183.545C133.089 183.732 135.104 182.017 135.291 179.714C135.478 177.411 133.766 175.393 131.467 175.206L125.51 174.721C121.454 174.449 118.339 175.079 118.04 178.787C117.62 184.021 120.327 184.339 122.549 184.52Z" fill="#FFB27D"/>
<path d="M132.719 180.807C132.719 180.807 130.476 181.608 129.212 181.48C127.949 181.353 128.271 177.05 129.298 176.665C130.325 176.28 132.347 176.314 132.845 177.243C133.344 178.173 133.415 180.584 132.719 180.807Z" fill="#EF8062"/>
<path d="M131.534 184.033C128.785 184.598 122.132 184.756 121.821 184.763C121.648 184.767 121.504 184.63 121.501 184.457C121.497 184.283 121.632 184.138 121.807 184.136C121.89 184.134 130.165 183.94 132.056 183.247C133.873 182.583 134.425 181.4 134.43 181.388C134.502 181.23 134.687 181.16 134.845 181.231C135.003 181.303 135.073 181.489 135.002 181.647C134.975 181.705 134.333 183.084 132.27 183.837C132.078 183.907 131.828 183.972 131.534 184.033Z" fill="#F59A6D"/>
<path d="M114.345 174.527L124.202 175.001C126.861 175.671 129.56 174.055 130.229 171.391C130.899 168.727 129.286 166.024 126.626 165.353L119.733 163.615C115.03 162.501 111.253 162.628 110.178 166.918C108.661 172.975 111.774 173.878 114.345 174.527Z" fill="#FFB27D"/>
<path d="M126.998 172.169C126.998 172.169 124.211 172.668 122.754 172.27C121.297 171.872 122.517 166.889 123.796 166.639C125.076 166.389 127.441 166.825 127.843 168.014C128.246 169.202 127.859 172.043 126.998 172.169Z" fill="#EF8062"/>
<path d="M126.511 175.41C124.447 175.834 121.251 175.196 121.087 175.162C120.918 175.128 120.808 174.962 120.843 174.792C120.877 174.623 121.043 174.512 121.212 174.547C122.505 174.81 126.12 175.303 127.307 174.44C127.447 174.338 127.644 174.37 127.745 174.511C127.846 174.651 127.815 174.848 127.675 174.949C127.374 175.168 126.97 175.315 126.511 175.41Z" fill="#F59A6D"/>
<path d="M113.579 162.573L123.267 164.457C125.802 165.502 128.704 164.29 129.748 161.75C130.791 159.209 129.582 156.303 127.045 155.257L120.473 152.547C115.977 150.769 112.221 150.353 110.544 154.444C108.175 160.221 111.127 161.562 113.579 162.573Z" fill="#FFB27D"/>
<path d="M126.439 162.056C126.439 162.056 123.609 162.15 122.224 161.547C120.839 160.944 122.759 156.187 124.061 156.124C125.363 156.06 127.641 156.831 127.87 158.065C128.098 159.299 127.308 162.055 126.439 162.056Z" fill="#EF8062"/>
<path d="M126.271 165.064C122.791 165.779 116.21 163.452 115.896 163.34C115.733 163.282 115.648 163.102 115.706 162.939C115.764 162.775 115.943 162.69 116.107 162.749C116.191 162.779 124.556 165.739 127.125 164.082C127.27 163.988 127.465 164.03 127.558 164.176C127.652 164.322 127.61 164.516 127.464 164.61C127.135 164.822 126.73 164.97 126.271 165.064Z" fill="#F59A6D"/>
<path d="M116.032 151.574L124.078 152.672C126.209 153.412 128.537 152.281 129.277 150.146C130.016 148.01 128.888 145.679 126.756 144.937L121.231 143.017C117.455 141.765 114.35 141.598 113.161 145.037C111.483 149.893 113.971 150.857 116.032 151.574Z" fill="#FFB27D"/>
<path d="M126.573 150.551C126.573 150.551 124.252 150.76 123.086 150.329C121.921 149.898 123.277 145.901 124.344 145.788C125.411 145.676 127.318 146.203 127.563 147.206C127.808 148.209 127.287 150.51 126.573 150.551Z" fill="#EF8062"/>
<path d="M126.314 153.092C123.424 153.686 118.226 152.172 117.971 152.097C117.834 152.056 117.756 151.913 117.796 151.776C117.836 151.639 117.98 151.561 118.116 151.601C118.187 151.621 125.196 153.664 127.23 152.184C127.345 152.099 127.507 152.125 127.59 152.241C127.674 152.356 127.649 152.518 127.533 152.602C127.213 152.835 126.795 152.993 126.314 153.092Z" fill="#F59A6D"/>
<path d="M235.359 33.4382C238.523 34.3765 240.814 36.0295 242.233 38.3973C243.652 40.765 243.916 43.4509 243.025 46.4549C242.03 49.8105 240.252 51.9951 237.691 53.0089C235.14 53.9907 232.091 53.9557 228.544 52.9036L227.049 57.4149L223.262 56.2918L225.317 48.661L226.707 49.0733C229.871 50.0116 232.49 50.2668 234.563 49.8388C236.637 49.4108 238.068 47.8706 238.854 45.2181C239.423 43.3006 239.298 41.612 238.479 40.1523C237.66 38.6926 236.276 37.6737 234.327 37.0956C232.346 36.508 230.619 36.5868 229.146 37.3322C227.715 38.0551 226.724 39.3433 226.174 41.1968L222.052 39.9742C222.62 38.0568 223.549 36.5069 224.839 35.3247C226.138 34.1106 227.689 33.3363 229.491 33.0017C231.326 32.6767 233.282 32.8221 235.359 33.4382ZM222.217 66.6732C221.386 66.4268 220.769 65.9307 220.364 65.1849C219.959 64.439 219.88 63.6507 220.127 62.8198C220.373 61.9889 220.869 61.3711 221.615 60.9665C222.361 60.5618 223.149 60.4827 223.98 60.7291C224.779 60.9661 225.365 61.4527 225.738 62.1891C226.142 62.9349 226.221 63.7233 225.975 64.5542C225.729 65.3851 225.232 66.0028 224.487 66.4075C223.773 66.8216 223.016 66.9102 222.217 66.6732Z" fill="white"/>
<path d="M120.931 35.509L123.322 60.4004L119.549 60.847L116.065 36.0848L120.931 35.509ZM122.827 70.6799C121.966 70.7817 121.203 70.57 120.536 70.0447C119.87 69.5193 119.486 68.8263 119.384 67.9657C119.282 67.105 119.494 66.3415 120.019 65.6751C120.545 65.0088 121.238 64.6247 122.098 64.5228C122.926 64.4249 123.656 64.6406 124.29 65.1698C124.956 65.6952 125.34 66.3882 125.442 67.2488C125.544 68.1095 125.332 68.873 124.807 69.5394C124.314 70.2018 123.655 70.582 122.827 70.6799Z" fill="white"/>
<path d="M331.21 93.9124L318.616 115.515L315.291 113.674L326.923 91.5383L331.21 93.9124ZM312.211 123.571C311.452 123.151 310.956 122.533 310.722 121.717C310.488 120.902 310.581 120.115 311.001 119.357C311.421 118.599 312.038 118.103 312.854 117.868C313.67 117.634 314.456 117.727 315.215 118.147C315.944 118.551 316.411 119.152 316.616 119.952C316.85 120.767 316.757 121.554 316.337 122.312C315.917 123.071 315.299 123.567 314.484 123.801C313.697 124.051 312.94 123.974 312.211 123.571Z" fill="white"/>
<path d="M23.2527 95.2117C25.606 92.8983 28.162 91.6945 30.9206 91.6002C33.6792 91.5059 36.1568 92.5761 38.3534 94.8105C40.807 97.3065 41.8572 99.9201 41.5038 102.651C41.1271 105.359 39.6194 108.009 36.9809 110.603L40.2038 114.096L37.387 116.865L31.7062 111.371L32.7402 110.355C35.0935 108.041 36.5853 105.874 37.2154 103.852C37.8455 101.83 37.1908 99.833 35.2513 97.86C33.8492 96.4338 32.3114 95.7253 30.6378 95.7345C28.9641 95.7438 27.4023 96.4611 25.9523 97.8866C24.4785 99.3354 23.711 100.884 23.6497 102.534C23.5889 104.136 24.2361 105.627 25.5914 107.005L22.525 110.02C21.1229 108.594 20.217 107.03 19.8073 105.33C19.3742 103.605 19.4479 101.873 20.0285 100.134C20.6329 98.3714 21.7076 96.7306 23.2527 95.2117ZM45.9632 122.807C45.3451 123.415 44.6118 123.715 43.7634 123.708C42.9149 123.701 42.1868 123.388 41.5793 122.77C40.9717 122.152 40.6715 121.419 40.6788 120.57C40.6861 119.722 40.9987 118.994 41.6168 118.386C42.211 117.802 42.9205 117.525 43.7452 117.556C44.5937 117.563 45.3218 117.875 45.9293 118.494C46.5369 119.112 46.8371 119.845 46.8298 120.693C46.8463 121.518 46.5574 122.223 45.9632 122.807Z" fill="white"/>
</svg>
