<svg width="181" height="101" viewBox="0 0 181 101" fill="none" xmlns="http://www.w3.org/2000/svg">
<path d="M154.436 100.25C161.991 91.3047 171.82 67.4051 157.288 40.7836C141.585 12.0141 86.937 -7.03619 51.1264 12.7884C15.3159 32.6129 22.6605 84.826 27.5875 100.25H154.436V100.25Z" fill="url(#paint0_linear_1208_13411)"/>
<path d="M6.66524 17.1356C11.7608 17.2792 29.6784 17.3243 34.5658 17.0513C39.4533 16.7784 38.943 14.4466 36.2886 14.1706C33.6344 13.8947 34.6706 11.5575 31.3715 12.2362C28.0725 12.915 27.2762 12.9136 24.2195 9.61556C21.1628 6.3175 15.8122 5.96761 13.8433 9.61556C12.4695 12.1607 11.8774 13.3397 9.07541 12.4684C6.27344 11.5972 4.57916 13.5033 3.75662 14.4598C3.02552 15.3102 0.379113 15.023 0.252014 16.1223C0.124639 17.2217 5.90044 17.1142 6.66524 17.1356Z" fill="url(#paint1_linear_1208_13411)"/>
<path d="M128.772 100.25C128.772 100.25 129.712 96.6837 119.296 90.7102C108.881 84.7369 106.326 71.7201 89.72 71.8983C73.1137 72.0765 67.9129 94.1872 72.11 100.25H128.772V100.25Z" fill="url(#paint2_linear_1208_13411)"/>
<path d="M52.5714 100.25C52.5714 100.25 53.4964 86.3423 47.9917 77.2918C41.2466 66.2018 43.1479 55.8327 51.9884 57.8589C58.7793 59.4154 58.7442 87.2143 58.6942 100.25H52.5714Z" fill="url(#paint3_linear_1208_13411)"/>
<path d="M48.5892 66.2015C48.5892 66.2015 57.7859 78.5744 55.7211 100.25" stroke="#F9F9F9" stroke-width="0.5" stroke-miterlimit="10" stroke-linecap="round"/>
<path d="M37.4386 100.25C39.4299 93.9268 38.0359 85.6579 30.5689 79.9181C23.1018 74.1786 32.5599 67.4661 40.7238 71.3573C48.8876 75.2485 55.3589 86.7278 53.1687 100.25H37.4386V100.25Z" fill="url(#paint4_linear_1208_13411)"/>
<path d="M38.9318 78.9459C38.9318 78.9459 47.9917 87.4092 46.1996 100.251" stroke="#F9F9F9" stroke-width="0.5" stroke-miterlimit="10" stroke-linecap="round"/>
<path d="M61.3328 52.3878H56.4047V100.25H61.3328V52.3878Z" fill="#423F63"/>
<path d="M45.3318 34.0746C42.3626 34.0746 39.9555 36.4266 39.9555 39.3278V52.3878H45.3318H73.034V34.0746H45.3318Z" fill="#F05757"/>
<path d="M78.4102 52.3873H67.6579V39.3273C67.6579 36.4262 70.065 34.0741 73.0342 34.0741C76.0033 34.0741 78.4104 36.4262 78.4104 39.3273L78.4102 52.3873Z" fill="#EE3A4C"/>
<path d="M79.4802 52.3873H68.7279V39.3273C68.7279 36.4262 71.1348 34.0741 74.1042 34.0741C77.0733 34.0741 79.4805 36.4262 79.4805 39.3273V52.3873H79.4802Z" fill="#D2373A"/>
<path d="M67.6577 52.3878H39.9555V53.701H67.6577V52.3878Z" fill="#EE3A4C"/>
<path d="M78.4101 52.3878H67.6578V53.701H78.4101V52.3878Z" fill="#D2373A"/>
<path d="M62.2318 44.4588C63.3865 44.4588 64.3225 43.5441 64.3225 42.4159C64.3225 41.2876 63.3865 40.3729 62.2318 40.3729C61.0771 40.3729 60.141 41.2876 60.141 42.4159C60.141 43.5441 61.0771 44.4588 62.2318 44.4588Z" fill="#F58A28"/>
<path d="M63.5528 32.0542C63.5528 31.4767 63.0737 31.0083 62.4824 31.0083H58.4733C57.8823 31.0083 57.4032 31.4764 57.4032 32.0542V33.71C57.4032 34.2875 57.8823 34.7556 58.4733 34.7556H60.9103V42.4165C60.9103 43.1295 61.5018 43.7076 62.2316 43.7076C62.9613 43.7076 63.5528 43.1295 63.5528 42.4165V32.0542Z" fill="#FAB217"/>
<path d="M76.867 100.249C83.5375 94.3152 79.0573 82.447 85.7277 77.6802C92.3982 72.9135 96.6792 67.3684 92.199 62.5044C87.7188 57.6405 59.5435 69.8006 60.7385 100.249H76.867Z" fill="url(#paint5_linear_1208_13411)"/>
<path d="M83.2885 70.7734C83.2885 70.7734 68.1597 80.8906 68.4313 100.249" stroke="#F9F9F9" stroke-width="0.5" stroke-miterlimit="10" stroke-linecap="round"/>
<path d="M65.8166 100.25C64.9206 87.7006 68.1066 74.4703 74.4781 65.3258C80.8499 56.1814 74.2789 52.3874 67.1108 59.3917C60.0673 66.274 56.4332 83.2254 58.6856 100.25H65.8166Z" fill="url(#paint6_linear_1208_13411)"/>
<path d="M68.8033 66.2012C68.8033 66.2012 59.0465 80.9879 60.7389 100.25" stroke="#F9F9F9" stroke-width="0.5" stroke-miterlimit="10" stroke-linecap="round"/>
<path d="M136.522 36.2797H121.067V44.966V89.6996H138.95V100.25H141.702V89.6996H151.654V100.25H154.405V53.7538C154.405 44.1031 146.399 36.2797 136.522 36.2797Z" fill="#FAB217"/>
<path d="M151.653 89.699H148.902V100.249H151.653V89.699Z" fill="#F58A28"/>
<path d="M151.654 62.8647H141.702V88.3472H151.654V62.8647Z" stroke="#FBC942" stroke-width="0.5" stroke-miterlimit="10"/>
<path d="M123.495 89.699H120.743V100.249H123.495V89.699Z" fill="#FAB217"/>
<path d="M120.743 89.699H117.991V100.249H120.743V89.699Z" fill="#F58A28"/>
<path d="M121.067 36.2797C111.19 36.2797 103.183 44.1034 103.183 53.754V100.25H108.04V89.6998H134.094V100.25H138.95V53.754C138.95 44.1031 130.943 36.2797 121.067 36.2797Z" fill="#F58A28"/>
<path d="M110.791 89.699H108.039V100.249H110.791V89.699Z" fill="#FAB217"/>
<path d="M134.093 58.3466H108.039V61.5126H134.093V58.3466Z" fill="#BC5000"/>
<path d="M134.093 58.3466H108.039V61.5126H134.093V58.3466Z" stroke="#FBC942" stroke-width="0.5" stroke-miterlimit="10"/>
<path d="M134.093 88.3473V62.8647L108.039 62.8647V88.3473H134.093Z" stroke="#FBC942" stroke-width="0.5" stroke-miterlimit="10"/>
<path d="M102.261 14.1986C104.31 7.20509 111.883 0.154595 124.749 0.250977C140.298 0.367608 141.811 24.6795 134.968 25.2146C128.125 25.7494 131.081 4.26313 148.718 6.67027C166.356 9.0774 169.549 35.4973 166.173 45.6906C162.797 55.8839 151.483 70.3272 151.483 70.3272" stroke="#4B57B5" stroke-width="0.5" stroke-miterlimit="10" stroke-linecap="round" stroke-linejoin="round" stroke-dasharray="5.01 10.02 5.01 10.02 5.01 10.02"/>
<path d="M96.2106 12.1324L90.2251 28.851L101.134 32.5799L107.12 15.8613L96.2106 12.1324Z" fill="#EDF2FE"/>
<path d="M90.2239 28.8488L99.7187 22.8316L96.2091 12.1301L90.2239 28.8488Z" fill="#DDE7FF"/>
<path d="M90.2239 28.8488L98.6712 22.354L96.2091 12.1301L90.2239 28.8488Z" fill="#EDF2FE"/>
<path d="M154.267 73.9126C158.565 77.384 167.077 83.4302 180.25 82.1626" stroke="#4B57B5" stroke-width="0.5" stroke-miterlimit="10" stroke-linecap="round" stroke-linejoin="round" stroke-dasharray="5.01 10.02 5.01 10.02 5.01 10.02"/>
<path d="M157.561 69.192L142.586 59.2112L136.073 68.5403L151.048 78.5211L157.561 69.192Z" fill="#EDF2FE"/>
<path d="M142.587 59.213L146.074 69.733L157.562 69.1939L142.587 59.213Z" fill="#DDE7FF"/>
<path d="M142.587 59.213L146.818 68.868L157.562 69.1939L142.587 59.213Z" fill="#EDF2FE"/>
<path d="M48.8744 28.0038L33.5535 37.4692L39.7298 47.014L55.0507 37.5486L48.8744 28.0038Z" fill="#EDF2FE"/>
<path d="M33.555 37.4718L44.8209 38.5225L48.8767 28.0068L33.555 37.4718Z" fill="#DDE7FF"/>
<path d="M33.555 37.4718L44.3039 37.512L48.8767 28.0068L33.555 37.4718Z" fill="#EDF2FE"/>
<path d="M36.7627 42.4305C36.5652 42.5474 36.3707 42.6684 36.1786 42.7929" stroke="#4B57B5" stroke-width="0.5" stroke-linecap="round" stroke-linejoin="round"/>
<path d="M33.6978 44.7001C31.7615 46.4144 30.0551 48.4212 28.2715 50.3035" stroke="#4B57B5" stroke-width="0.5" stroke-linecap="round" stroke-linejoin="round" stroke-dasharray="5.72 11.43 5.72 11.43"/>
<path d="M27.183 51.4219C23.3722 55.2081 18.9572 58.0855 11.152 56.265C7.65842 55.4502 4.84981 54.532 2.40289 53.7256" stroke="#4B57B5" stroke-width="0.5" stroke-linecap="round" stroke-linejoin="round" stroke-dasharray="5.72 11.43 5.72 11.43 5.72 11.43"/>
<path d="M0.906552 53.2341C0.685235 53.1623 0.466405 53.0915 0.250061 53.0227" stroke="#4B57B5" stroke-width="0.5" stroke-linecap="round" stroke-linejoin="round"/>
<defs>
<linearGradient id="paint0_linear_1208_13411" x1="23.4225" y1="52.4432" x2="164.764" y2="52.4432" gradientUnits="userSpaceOnUse">
<stop offset="0.004" stop-color="#D8E3FF"/>
<stop offset="1" stop-color="#D2DFFF"/>
</linearGradient>
<linearGradient id="paint1_linear_1208_13411" x1="0.249859" y1="12.1298" x2="38.2738" y2="12.1298" gradientUnits="userSpaceOnUse">
<stop offset="0.004" stop-color="#D8E3FF"/>
<stop offset="1" stop-color="#D2DFFF"/>
</linearGradient>
<linearGradient id="paint2_linear_1208_13411" x1="87.538" y1="109.886" x2="109.086" y2="79.0888" gradientUnits="userSpaceOnUse">
<stop stop-color="#B6CCBD"/>
<stop offset="1" stop-color="#D1E7D9"/>
</linearGradient>
<linearGradient id="paint3_linear_1208_13411" x1="49.9641" y1="63.7718" x2="55.512" y2="100.551" gradientUnits="userSpaceOnUse">
<stop stop-color="#60BEC8"/>
<stop offset="1" stop-color="#4BA5AA"/>
</linearGradient>
<linearGradient id="paint4_linear_1208_13411" x1="46.8073" y1="100.193" x2="38.639" y2="75.8666" gradientUnits="userSpaceOnUse">
<stop stop-color="#B6CCBD"/>
<stop offset="1" stop-color="#D1E7D9"/>
</linearGradient>
<linearGradient id="paint5_linear_1208_13411" x1="83.7608" y1="68.0353" x2="66.8333" y2="99.151" gradientUnits="userSpaceOnUse">
<stop stop-color="#60BEC8"/>
<stop offset="1" stop-color="#4BA5AA"/>
</linearGradient>
<linearGradient id="paint6_linear_1208_13411" x1="60.2151" y1="101.421" x2="68.2818" y2="65.9804" gradientUnits="userSpaceOnUse">
<stop stop-color="#B6CCBD"/>
<stop offset="1" stop-color="#D1E7D9"/>
</linearGradient>
</defs>
</svg>
