<svg width="400" height="156" viewBox="0 0 400 156" fill="none" xmlns="http://www.w3.org/2000/svg">
<rect x="0.5" y="0.5" width="399" height="155" rx="4.5" stroke="#9747FF" stroke-dasharray="10 5"/>
<g clip-path="url(#clip0_1208_14900)">
<path d="M20 32C20 25.3726 25.3726 20 32 20H368C374.627 20 380 25.3726 380 32V56C380 62.6274 374.627 68 368 68H32C25.3726 68 20 62.6274 20 56V32Z" fill="#F2F2F2"/>
</g>
<g clip-path="url(#clip1_1208_14900)">
<path d="M20 100C20 93.3726 25.3726 88 32 88H368C374.627 88 380 93.3726 380 100V124C380 130.627 374.627 136 368 136H32C25.3726 136 20 130.627 20 124V100Z" fill="#F2F2F2"/>
</g>
<defs>
<clipPath id="clip0_1208_14900">
<path d="M20 32C20 25.3726 25.3726 20 32 20H368C374.627 20 380 25.3726 380 32V56C380 62.6274 374.627 68 368 68H32C25.3726 68 20 62.6274 20 56V32Z" fill="white"/>
</clipPath>
<clipPath id="clip1_1208_14900">
<path d="M20 100C20 93.3726 25.3726 88 32 88H368C374.627 88 380 93.3726 380 100V124C380 130.627 374.627 136 368 136H32C25.3726 136 20 130.627 20 124V100Z" fill="white"/>
</clipPath>
</defs>
</svg>
