<svg width="608" height="704" viewBox="0 0 608 704" fill="none" xmlns="http://www.w3.org/2000/svg">
<rect width="608" height="704" rx="32" fill="white"/>
<path d="M102.451 132.107C102.451 128.231 103.325 124.754 105.073 121.676C106.821 118.56 109.196 116.128 112.198 114.38C115.238 112.632 118.601 111.758 122.287 111.758C126.619 111.758 130.4 112.803 133.63 114.893C136.86 116.983 139.216 119.947 140.698 123.785H134.485C133.383 121.391 131.787 119.548 129.697 118.256C127.645 116.964 125.175 116.318 122.287 116.318C119.513 116.318 117.024 116.964 114.82 118.256C112.616 119.548 110.887 121.391 109.633 123.785C108.379 126.141 107.752 128.915 107.752 132.107C107.752 135.261 108.379 138.035 109.633 140.429C110.887 142.785 112.616 144.609 114.82 145.901C117.024 147.193 119.513 147.839 122.287 147.839C125.175 147.839 127.645 147.212 129.697 145.958C131.787 144.666 133.383 142.823 134.485 140.429H140.698C139.216 144.229 136.86 147.174 133.63 149.264C130.4 151.316 126.619 152.342 122.287 152.342C118.601 152.342 115.238 151.487 112.198 149.777C109.196 148.029 106.821 145.616 105.073 142.538C103.325 139.46 102.451 135.983 102.451 132.107ZM163.673 120.194C166.029 120.194 168.157 120.707 170.057 121.733C171.957 122.721 173.439 124.222 174.503 126.236C175.605 128.25 176.156 130.701 176.156 133.589V152H171.026V134.33C171.026 131.214 170.247 128.839 168.689 127.205C167.131 125.533 165.003 124.697 162.305 124.697C159.569 124.697 157.384 125.552 155.75 127.262C154.154 128.972 153.356 131.461 153.356 134.729V152H148.169V109.82H153.356V125.21C154.382 123.614 155.788 122.379 157.574 121.505C159.398 120.631 161.431 120.194 163.673 120.194ZM212.879 135.185C212.879 136.173 212.822 137.218 212.708 138.32H187.742C187.932 141.398 188.977 143.811 190.877 145.559C192.815 147.269 195.152 148.124 197.888 148.124C200.13 148.124 201.992 147.611 203.474 146.585C204.994 145.521 206.058 144.115 206.666 142.367H212.252C211.416 145.369 209.744 147.82 207.236 149.72C204.728 151.582 201.612 152.513 197.888 152.513C194.924 152.513 192.264 151.848 189.908 150.518C187.59 149.188 185.766 147.307 184.436 144.875C183.106 142.405 182.441 139.555 182.441 136.325C182.441 133.095 183.087 130.264 184.379 127.832C185.671 125.4 187.476 123.538 189.794 122.246C192.15 120.916 194.848 120.251 197.888 120.251C200.852 120.251 203.474 120.897 205.754 122.189C208.034 123.481 209.782 125.267 210.998 127.547C212.252 129.789 212.879 132.335 212.879 135.185ZM207.521 134.102C207.521 132.126 207.084 130.435 206.21 129.029C205.336 127.585 204.139 126.502 202.619 125.78C201.137 125.02 199.484 124.64 197.66 124.64C195.038 124.64 192.796 125.476 190.934 127.148C189.11 128.82 188.065 131.138 187.799 134.102H207.521ZM217.538 136.325C217.538 133.095 218.184 130.283 219.476 127.889C220.768 125.457 222.554 123.576 224.834 122.246C227.152 120.916 229.793 120.251 232.757 120.251C236.595 120.251 239.749 121.182 242.219 123.044C244.727 124.906 246.38 127.49 247.178 130.796H241.592C241.06 128.896 240.015 127.395 238.457 126.293C236.937 125.191 235.037 124.64 232.757 124.64C229.793 124.64 227.399 125.666 225.575 127.718C223.751 129.732 222.839 132.601 222.839 136.325C222.839 140.087 223.751 142.994 225.575 145.046C227.399 147.098 229.793 148.124 232.757 148.124C235.037 148.124 236.937 147.592 238.457 146.528C239.977 145.464 241.022 143.944 241.592 141.968H247.178C246.342 145.16 244.67 147.725 242.162 149.663C239.654 151.563 236.519 152.513 232.757 152.513C229.793 152.513 227.152 151.848 224.834 150.518C222.554 149.188 220.768 147.307 219.476 144.875C218.184 142.443 217.538 139.593 217.538 136.325ZM271.291 152L259.036 138.206V152H253.849V109.82H259.036V134.615L271.063 120.764H278.302L263.596 136.325L278.359 152H271.291ZM288.121 126.578C289.185 124.716 290.743 123.196 292.795 122.018C294.847 120.84 297.184 120.251 299.806 120.251C302.618 120.251 305.145 120.916 307.387 122.246C309.629 123.576 311.396 125.457 312.688 127.889C313.98 130.283 314.626 133.076 314.626 136.268C314.626 139.422 313.98 142.234 312.688 144.704C311.396 147.174 309.61 149.093 307.33 150.461C305.088 151.829 302.58 152.513 299.806 152.513C297.108 152.513 294.733 151.924 292.681 150.746C290.667 149.568 289.147 148.067 288.121 146.243V152H282.934V109.82H288.121V126.578ZM309.325 136.268C309.325 133.912 308.85 131.86 307.9 130.112C306.95 128.364 305.658 127.034 304.024 126.122C302.428 125.21 300.661 124.754 298.723 124.754C296.823 124.754 295.056 125.229 293.422 126.179C291.826 127.091 290.534 128.44 289.546 130.226C288.596 131.974 288.121 134.007 288.121 136.325C288.121 138.681 288.596 140.752 289.546 142.538C290.534 144.286 291.826 145.635 293.422 146.585C295.056 147.497 296.823 147.953 298.723 147.953C300.661 147.953 302.428 147.497 304.024 146.585C305.658 145.635 306.95 144.286 307.9 142.538C308.85 140.752 309.325 138.662 309.325 136.268ZM334.826 152.513C331.9 152.513 329.24 151.848 326.846 150.518C324.49 149.188 322.628 147.307 321.26 144.875C319.93 142.405 319.265 139.555 319.265 136.325C319.265 133.133 319.949 130.321 321.317 127.889C322.723 125.419 324.623 123.538 327.017 122.246C329.411 120.916 332.09 120.251 335.054 120.251C338.018 120.251 340.697 120.916 343.091 122.246C345.485 123.538 347.366 125.4 348.734 127.832C350.14 130.264 350.843 133.095 350.843 136.325C350.843 139.555 350.121 142.405 348.677 144.875C347.271 147.307 345.352 149.188 342.92 150.518C340.488 151.848 337.79 152.513 334.826 152.513ZM334.826 147.953C336.688 147.953 338.436 147.516 340.07 146.642C341.704 145.768 343.015 144.457 344.003 142.709C345.029 140.961 345.542 138.833 345.542 136.325C345.542 133.817 345.048 131.689 344.06 129.941C343.072 128.193 341.78 126.901 340.184 126.065C338.588 125.191 336.859 124.754 334.997 124.754C333.097 124.754 331.349 125.191 329.753 126.065C328.195 126.901 326.941 128.193 325.991 129.941C325.041 131.689 324.566 133.817 324.566 136.325C324.566 138.871 325.022 141.018 325.934 142.766C326.884 144.514 328.138 145.825 329.696 146.699C331.254 147.535 332.964 147.953 334.826 147.953ZM373.715 152L366.305 140.372L359.18 152H353.765L363.854 136.496L353.765 120.764H359.636L367.046 132.335L374.114 120.764H379.529L369.497 136.211L379.586 152H373.715ZM412.939 135.185C412.939 136.173 412.882 137.218 412.768 138.32H387.802C387.992 141.398 389.037 143.811 390.937 145.559C392.875 147.269 395.212 148.124 397.948 148.124C400.19 148.124 402.052 147.611 403.534 146.585C405.054 145.521 406.118 144.115 406.726 142.367H412.312C411.476 145.369 409.804 147.82 407.296 149.72C404.788 151.582 401.672 152.513 397.948 152.513C394.984 152.513 392.324 151.848 389.968 150.518C387.65 149.188 385.826 147.307 384.496 144.875C383.166 142.405 382.501 139.555 382.501 136.325C382.501 133.095 383.147 130.264 384.439 127.832C385.731 125.4 387.536 123.538 389.854 122.246C392.21 120.916 394.908 120.251 397.948 120.251C400.912 120.251 403.534 120.897 405.814 122.189C408.094 123.481 409.842 125.267 411.058 127.547C412.312 129.789 412.939 132.335 412.939 135.185ZM407.581 134.102C407.581 132.126 407.144 130.435 406.27 129.029C405.396 127.585 404.199 126.502 402.679 125.78C401.197 125.02 399.544 124.64 397.72 124.64C395.098 124.64 392.856 125.476 390.994 127.148C389.17 128.82 388.125 131.138 387.859 134.102H407.581ZM430.593 152.513C428.199 152.513 426.052 152.114 424.152 151.316C422.252 150.48 420.751 149.34 419.649 147.896C418.547 146.414 417.939 144.723 417.825 142.823H423.183C423.335 144.381 424.057 145.654 425.349 146.642C426.679 147.63 428.408 148.124 430.536 148.124C432.512 148.124 434.07 147.687 435.21 146.813C436.35 145.939 436.92 144.837 436.92 143.507C436.92 142.139 436.312 141.132 435.096 140.486C433.88 139.802 431.999 139.137 429.453 138.491C427.135 137.883 425.235 137.275 423.753 136.667C422.309 136.021 421.055 135.09 419.991 133.874C418.965 132.62 418.452 130.986 418.452 128.972C418.452 127.376 418.927 125.913 419.877 124.583C420.827 123.253 422.176 122.208 423.924 121.448C425.672 120.65 427.667 120.251 429.909 120.251C433.367 120.251 436.16 121.125 438.288 122.873C440.416 124.621 441.556 127.015 441.708 130.055H436.521C436.407 128.421 435.742 127.11 434.526 126.122C433.348 125.134 431.752 124.64 429.738 124.64C427.876 124.64 426.394 125.039 425.292 125.837C424.19 126.635 423.639 127.68 423.639 128.972C423.639 129.998 423.962 130.853 424.608 131.537C425.292 132.183 426.128 132.715 427.116 133.133C428.142 133.513 429.548 133.95 431.334 134.444C433.576 135.052 435.4 135.66 436.806 136.268C438.212 136.838 439.409 137.712 440.397 138.89C441.423 140.068 441.955 141.607 441.993 143.507C441.993 145.217 441.518 146.756 440.568 148.124C439.618 149.492 438.269 150.575 436.521 151.373C434.811 152.133 432.835 152.513 430.593 152.513Z" fill="#282828"/>
<path d="M505.857 203.999C506.55 205.196 507.092 206.49 507.457 207.857L506.976 207.986C507.318 209.266 507.5 210.611 507.5 212V217.014H508V222.026H507.5V232.054H508V237.066H507.5V247.093H508V252.106H507.5V262.133H508V267.146H507.5V277.173H508V282.187H507.5V292.213H508V297.227H507.5V307.253H508V312.267H507.5V322.293H508V327.307H507.5V337.333H508V342.347H507.5V352.373H508V357.387H507.5V367.413H508V372.427H507.5V382.453H508V387.467H507.5V397.493H508V402.507H507.5V412.533H508V417.547H507.5V427.573H508V432.587H507.5V442.613H508V447.627H507.5V457.653H508V462.667H507.5V472.693H508V477.707H507.5V487.733H508V492.747H507.5V502.773H508V507.787H507.5V517.813H508V522.827H507.5V532.854H508V537.866H507.5V547.894H508V552.906H507.5V562.934H508V567.946H507.5V577.974H508V582.986H507.5V588C507.5 589.389 507.318 590.734 506.976 592.014L507.457 592.142C507.092 593.509 506.55 594.803 505.857 596L505.426 595.751C504.065 598.103 502.103 600.065 499.751 601.426L500 601.857C498.803 602.55 497.509 603.092 496.142 603.457L496.014 602.976C494.734 603.318 493.389 603.5 492 603.5H486.986V604H481.974V603.5H471.946V604H466.934V603.5H456.907V604H451.894V603.5H441.867V604H436.854V603.5H426.827V604H421.813V603.5H411.787V604H406.773V603.5H396.747V604H391.733V603.5H381.707V604H376.693V603.5H366.667V604H361.653V603.5H351.627V604H346.613V603.5H336.587V604H331.573V603.5H321.547V604H316.533V603.5H306.507V604H301.493V603.5H291.467V604H286.453V603.5H276.427V604H271.413V603.5H261.387V604H256.373V603.5H246.347V604H241.333V603.5H231.307V604H226.293V603.5H216.267V604H211.253V603.5H201.227V604H196.213V603.5H186.187V604H181.173V603.5H171.146V604H166.134V603.5H156.106V604H151.094V603.5H141.066V604H136.054V603.5H126.026V604H121.014V603.5H116C114.611 603.5 113.266 603.318 111.986 602.976L111.857 603.457C110.49 603.092 109.196 602.55 107.999 601.857L108.249 601.426C105.897 600.065 103.935 598.103 102.574 595.751L102.142 596C101.449 594.803 100.907 593.509 100.542 592.142L101.024 592.014C100.682 590.734 100.5 589.389 100.5 588V582.986H100V577.974H100.5V567.946H100V562.934H100.5V552.907H100V547.894H100.5V537.867H100V532.854H100.5V522.827H100V517.813H100.5V507.787H100V502.773H100.5V492.747H100V487.733H100.5V477.707H100V472.693H100.5V462.667H100V457.653H100.5V447.627H100V442.613H100.5V432.587H100V427.573H100.5V417.547H100V412.533H100.5V402.507H100V397.493H100.5V387.467H100V382.453H100.5V372.427H100V367.413H100.5V357.387H100V352.373H100.5V342.347H100V337.333H100.5V327.307H100V322.293H100.5V312.267H100V307.253H100.5V297.227H100V292.213H100.5V282.187H100V277.173H100.5V267.146H100V262.134H100.5V252.106H100V247.094H100.5V237.066H100V232.054H100.5V222.026H100V217.014H100.5V212C100.5 210.611 100.682 209.266 101.024 207.986L100.542 207.857C100.904 206.505 101.438 205.223 102.12 204.036L102.142 203.999L102.574 204.249C103.935 201.897 105.897 199.935 108.249 198.574L107.999 198.142C109.196 197.449 110.491 196.907 111.857 196.542L111.986 197.024C113.266 196.682 114.611 196.5 116 196.5H121.014V196H126.026V196.5H136.054V196H141.066V196.5H151.093V196H156.106V196.5H166.133V196H171.146V196.5H181.173V196H186.187V196.5H196.213V196H201.227V196.5H211.253V196H216.267V196.5H226.293V196H231.307V196.5H241.333V196H246.347V196.5H256.373V196H261.387V196.5H271.413V196H276.427V196.5H286.453V196H291.467V196.5H301.493V196H306.507V196.5H316.533V196H321.547V196.5H331.573V196H336.587V196.5H346.613V196H351.627V196.5H361.653V196H366.667V196.5H376.693V196H381.707V196.5H391.733V196H396.747V196.5H406.773V196H411.787V196.5H421.813V196H426.827V196.5H436.854V196H441.866V196.5H451.894V196H456.906V196.5H466.934V196H471.946V196.5H481.974V196H486.986V196.5H492C493.389 196.5 494.734 196.682 496.014 197.024L496.142 196.542C497.509 196.907 498.803 197.449 500 198.142L499.751 198.574C502.103 199.935 504.065 201.897 505.426 204.249L505.857 203.999Z" stroke="#FF7043" stroke-dasharray="10 5"/>
<path d="M135 233C135 231.895 135.895 231 137 231H151C152.105 231 153 231.895 153 233V247C153 248.105 152.105 249 151 249H137C135.895 249 135 248.105 135 247V233Z" fill="#FF7043"/>
<path d="M139.75 240L142.58 242.83L148.25 237.17" stroke="white" stroke-width="1.5" stroke-linecap="round" stroke-linejoin="round"/>
<g opacity="0.38">
<path d="M215 233C215 231.895 215.895 231 217 231H231C232.105 231 233 231.895 233 233V247C233 248.105 232.105 249 231 249H217C215.895 249 215 248.105 215 247V233Z" fill="#282828"/>
<path d="M219.75 240L222.58 242.83L228.25 237.17" stroke="#FAFAFA" stroke-width="1.5" stroke-linecap="round" stroke-linejoin="round"/>
</g>
<path d="M284 240C284 228.954 292.954 220 304 220C315.046 220 324 228.954 324 240C324 251.046 315.046 260 304 260C292.954 260 284 251.046 284 240Z" fill="#FF7043" fill-opacity="0.08"/>
<path d="M295 233C295 231.895 295.895 231 297 231H311C312.105 231 313 231.895 313 233V247C313 248.105 312.105 249 311 249H297C295.895 249 295 248.105 295 247V233Z" fill="#FF7043"/>
<path d="M299.75 240L302.58 242.83L308.25 237.17" stroke="white" stroke-width="1.5" stroke-linecap="round" stroke-linejoin="round"/>
<path d="M364 240C364 228.954 372.954 220 384 220C395.046 220 404 228.954 404 240C404 251.046 395.046 260 384 260C372.954 260 364 251.046 364 240Z" fill="#FF7043" fill-opacity="0.12"/>
<path d="M375 233C375 231.895 375.895 231 377 231H391C392.105 231 393 231.895 393 233V247C393 248.105 392.105 249 391 249H377C375.895 249 375 248.105 375 247V233Z" fill="#FF7043"/>
<path d="M379.75 240L382.58 242.83L388.25 237.17" stroke="white" stroke-width="1.5" stroke-linecap="round" stroke-linejoin="round"/>
<g clip-path="url(#clip0_427_4235)">
<path d="M444 240C444 228.954 452.954 220 464 220C475.046 220 484 228.954 484 240C484 251.046 475.046 260 464 260C452.954 260 444 251.046 444 240Z" fill="#FF7043" fill-opacity="0.12"/>
<path d="M455 233C455 231.895 455.895 231 457 231H471C472.105 231 473 231.895 473 233V247C473 248.105 472.105 249 471 249H457C455.895 249 455 248.105 455 247V233Z" fill="#FF7043"/>
<path d="M459.75 240L462.58 242.83L468.25 237.17" stroke="white" stroke-width="1.5" stroke-linecap="round" stroke-linejoin="round"/>
<path opacity="0.2" d="M484 228.905V256.216C484 258.306 482.342 260 480.296 260H434C434 240.67 449.338 225 468.259 225C473.934 225 479.287 226.41 484 228.905Z" fill="#282828"/>
</g>
<path d="M135 297C135 295.895 135.895 295 137 295H151C152.105 295 153 295.895 153 297V311C153 312.105 152.105 313 151 313H137C135.895 313 135 312.105 135 311V297Z" fill="#FF7043"/>
<path d="M138.75 304H149.25" stroke="white" stroke-width="1.5" stroke-linecap="round" stroke-linejoin="round"/>
<g opacity="0.38">
<path d="M215 297C215 295.895 215.895 295 217 295H231C232.105 295 233 295.895 233 297V311C233 312.105 232.105 313 231 313H217C215.895 313 215 312.105 215 311V297Z" fill="#282828"/>
<path d="M219.5 304H228.5" stroke="#FAFAFA" stroke-width="1.5" stroke-linecap="round" stroke-linejoin="round"/>
</g>
<path d="M284 304C284 292.954 292.954 284 304 284C315.046 284 324 292.954 324 304C324 315.046 315.046 324 304 324C292.954 324 284 315.046 284 304Z" fill="#FF7043" fill-opacity="0.08"/>
<path d="M295 297C295 295.895 295.895 295 297 295H311C312.105 295 313 295.895 313 297V311C313 312.105 312.105 313 311 313H297C295.895 313 295 312.105 295 311V297Z" fill="#FF7043"/>
<path d="M299.5 304H308.5" stroke="white" stroke-width="1.5" stroke-linecap="round" stroke-linejoin="round"/>
<path d="M364 304C364 292.954 372.954 284 384 284C395.046 284 404 292.954 404 304C404 315.046 395.046 324 384 324C372.954 324 364 315.046 364 304Z" fill="#FF7043" fill-opacity="0.12"/>
<path d="M375 297C375 295.895 375.895 295 377 295H391C392.105 295 393 295.895 393 297V311C393 312.105 392.105 313 391 313H377C375.895 313 375 312.105 375 311V297Z" fill="#FF7043"/>
<path d="M379.5 304H388.5" stroke="white" stroke-width="1.5" stroke-linecap="round" stroke-linejoin="round"/>
<g clip-path="url(#clip1_427_4235)">
<path d="M444 304C444 292.954 452.954 284 464 284C475.046 284 484 292.954 484 304C484 315.046 475.046 324 464 324C452.954 324 444 315.046 444 304Z" fill="#FF7043" fill-opacity="0.12"/>
<path d="M455 297C455 295.895 455.895 295 457 295H471C472.105 295 473 295.895 473 297V311C473 312.105 472.105 313 471 313H457C455.895 313 455 312.105 455 311V297Z" fill="#FF7043"/>
<path d="M459.5 304H468.5" stroke="white" stroke-width="1.5" stroke-linecap="round" stroke-linejoin="round"/>
<path opacity="0.2" d="M484 292.905V320.216C484 322.306 482.342 324 480.296 324H434C434 304.67 449.338 289 468.259 289C473.934 289 479.287 290.41 484 292.905Z" fill="#282828"/>
</g>
<path d="M137 360H151C151.552 360 152 360.448 152 361V375C152 375.552 151.552 376 151 376H137C136.448 376 136 375.552 136 375V361C136 360.448 136.448 360 137 360Z" stroke="#434343" stroke-width="2"/>
<g opacity="0.38">
<path d="M217 360H231C231.552 360 232 360.448 232 361V375C232 375.552 231.552 376 231 376H217C216.448 376 216 375.552 216 375V361C216 360.448 216.448 360 217 360Z" stroke="#282828" stroke-width="2"/>
</g>
<path d="M284 368C284 356.954 292.954 348 304 348C315.046 348 324 356.954 324 368C324 379.046 315.046 388 304 388C292.954 388 284 379.046 284 368Z" fill="#282828" fill-opacity="0.08"/>
<path d="M297 360H311C311.552 360 312 360.448 312 361V375C312 375.552 311.552 376 311 376H297C296.448 376 296 375.552 296 375V361C296 360.448 296.448 360 297 360Z" stroke="#282828" stroke-width="2"/>
<path d="M364 368C364 356.954 372.954 348 384 348C395.046 348 404 356.954 404 368C404 379.046 395.046 388 384 388C372.954 388 364 379.046 364 368Z" fill="#282828" fill-opacity="0.12"/>
<path d="M377 360H391C391.552 360 392 360.448 392 361V375C392 375.552 391.552 376 391 376H377C376.448 376 376 375.552 376 375V361C376 360.448 376.448 360 377 360Z" stroke="#282828" stroke-width="2"/>
<g clip-path="url(#clip2_427_4235)">
<path d="M444 368C444 356.954 452.954 348 464 348C475.046 348 484 356.954 484 368C484 379.046 475.046 388 464 388C452.954 388 444 379.046 444 368Z" fill="#282828" fill-opacity="0.12"/>
<path d="M457 360H471C471.552 360 472 360.448 472 361V375C472 375.552 471.552 376 471 376H457C456.448 376 456 375.552 456 375V361C456 360.448 456.448 360 457 360Z" stroke="#282828" stroke-width="2"/>
<path opacity="0.2" d="M484 356.905V384.216C484 386.306 482.342 388 480.296 388H434C434 368.67 449.338 353 468.259 353C473.934 353 479.287 354.41 484 356.905Z" fill="#FF7043"/>
</g>
<path d="M135 425C135 423.895 135.895 423 137 423H151C152.105 423 153 423.895 153 425V439C153 440.105 152.105 441 151 441H137C135.895 441 135 440.105 135 439V425Z" fill="#E33338"/>
<path d="M139.75 432L142.58 434.83L148.25 429.17" stroke="white" stroke-width="1.5" stroke-linecap="round" stroke-linejoin="round"/>
<g opacity="0.38">
<path d="M215 425C215 423.895 215.895 423 217 423H231C232.105 423 233 423.895 233 425V439C233 440.105 232.105 441 231 441H217C215.895 441 215 440.105 215 439V425Z" fill="#282828"/>
<path d="M219.75 432L222.58 434.83L228.25 429.17" stroke="#FAFAFA" stroke-width="1.5" stroke-linecap="round" stroke-linejoin="round"/>
</g>
<path d="M284 432C284 420.954 292.954 412 304 412C315.046 412 324 420.954 324 432C324 443.046 315.046 452 304 452C292.954 452 284 443.046 284 432Z" fill="#E33338" fill-opacity="0.08"/>
<path d="M295 425C295 423.895 295.895 423 297 423H311C312.105 423 313 423.895 313 425V439C313 440.105 312.105 441 311 441H297C295.895 441 295 440.105 295 439V425Z" fill="#E33338"/>
<path d="M299.75 432L302.58 434.83L308.25 429.17" stroke="white" stroke-width="1.5" stroke-linecap="round" stroke-linejoin="round"/>
<path d="M364 432C364 420.954 372.954 412 384 412C395.046 412 404 420.954 404 432C404 443.046 395.046 452 384 452C372.954 452 364 443.046 364 432Z" fill="#E33338" fill-opacity="0.12"/>
<path d="M375 425C375 423.895 375.895 423 377 423H391C392.105 423 393 423.895 393 425V439C393 440.105 392.105 441 391 441H377C375.895 441 375 440.105 375 439V425Z" fill="#E33338"/>
<path d="M379.75 432L382.58 434.83L388.25 429.17" stroke="white" stroke-width="1.5" stroke-linecap="round" stroke-linejoin="round"/>
<g clip-path="url(#clip3_427_4235)">
<path d="M444 432C444 420.954 452.954 412 464 412C475.046 412 484 420.954 484 432C484 443.046 475.046 452 464 452C452.954 452 444 443.046 444 432Z" fill="#E33338" fill-opacity="0.12"/>
<path d="M455 425C455 423.895 455.895 423 457 423H471C472.105 423 473 423.895 473 425V439C473 440.105 472.105 441 471 441H457C455.895 441 455 440.105 455 439V425Z" fill="#E33338"/>
<path d="M459.75 432L462.58 434.83L468.25 429.17" stroke="white" stroke-width="1.5" stroke-linecap="round" stroke-linejoin="round"/>
<path opacity="0.2" d="M484 420.905V448.216C484 450.306 482.342 452 480.296 452H434C434 432.67 449.338 417 468.259 417C473.934 417 479.287 418.41 484 420.905Z" fill="#E33338"/>
</g>
<path d="M135 489C135 487.895 135.895 487 137 487H151C152.105 487 153 487.895 153 489V503C153 504.105 152.105 505 151 505H137C135.895 505 135 504.105 135 503V489Z" fill="#E33338"/>
<path d="M139.5 496H148.5" stroke="white" stroke-width="1.5" stroke-linecap="round" stroke-linejoin="round"/>
<g opacity="0.38">
<path d="M215 489C215 487.895 215.895 487 217 487H231C232.105 487 233 487.895 233 489V503C233 504.105 232.105 505 231 505H217C215.895 505 215 504.105 215 503V489Z" fill="#282828"/>
<path d="M219.5 496H228.5" stroke="#FAFAFA" stroke-width="1.5" stroke-linecap="round" stroke-linejoin="round"/>
</g>
<path d="M284 496C284 484.954 292.954 476 304 476C315.046 476 324 484.954 324 496C324 507.046 315.046 516 304 516C292.954 516 284 507.046 284 496Z" fill="#E33338" fill-opacity="0.08"/>
<path d="M295 489C295 487.895 295.895 487 297 487H311C312.105 487 313 487.895 313 489V503C313 504.105 312.105 505 311 505H297C295.895 505 295 504.105 295 503V489Z" fill="#E33338"/>
<path d="M299.5 496H308.5" stroke="white" stroke-width="1.5" stroke-linecap="round" stroke-linejoin="round"/>
<path d="M364 496C364 484.954 372.954 476 384 476C395.046 476 404 484.954 404 496C404 507.046 395.046 516 384 516C372.954 516 364 507.046 364 496Z" fill="#E33338" fill-opacity="0.12"/>
<path d="M375 489C375 487.895 375.895 487 377 487H391C392.105 487 393 487.895 393 489V503C393 504.105 392.105 505 391 505H377C375.895 505 375 504.105 375 503V489Z" fill="#E33338"/>
<path d="M379.5 496H388.5" stroke="white" stroke-width="1.5" stroke-linecap="round" stroke-linejoin="round"/>
<g clip-path="url(#clip4_427_4235)">
<path d="M444 496C444 484.954 452.954 476 464 476C475.046 476 484 484.954 484 496C484 507.046 475.046 516 464 516C452.954 516 444 507.046 444 496Z" fill="#E33338" fill-opacity="0.12"/>
<path d="M455 489C455 487.895 455.895 487 457 487H471C472.105 487 473 487.895 473 489V503C473 504.105 472.105 505 471 505H457C455.895 505 455 504.105 455 503V489Z" fill="#E33338"/>
<path d="M459.5 496H468.5" stroke="white" stroke-width="1.5" stroke-linecap="round" stroke-linejoin="round"/>
<path opacity="0.2" d="M484 484.905V512.216C484 514.306 482.342 516 480.296 516H434C434 496.67 449.338 481 468.259 481C473.934 481 479.287 482.41 484 484.905Z" fill="#E33338"/>
</g>
<path d="M137 552H151C151.552 552 152 552.448 152 553V567C152 567.552 151.552 568 151 568H137C136.448 568 136 567.552 136 567V553C136 552.448 136.448 552 137 552Z" stroke="#E33338" stroke-width="2"/>
<g opacity="0.38">
<path d="M217 552H231C231.552 552 232 552.448 232 553V567C232 567.552 231.552 568 231 568H217C216.448 568 216 567.552 216 567V553C216 552.448 216.448 552 217 552Z" stroke="#282828" stroke-width="2"/>
</g>
<path d="M284 560C284 548.954 292.954 540 304 540C315.046 540 324 548.954 324 560C324 571.046 315.046 580 304 580C292.954 580 284 571.046 284 560Z" fill="#E33338" fill-opacity="0.08"/>
<path d="M297 552H311C311.552 552 312 552.448 312 553V567C312 567.552 311.552 568 311 568H297C296.448 568 296 567.552 296 567V553C296 552.448 296.448 552 297 552Z" stroke="#E33338" stroke-width="2"/>
<path d="M364 560C364 548.954 372.954 540 384 540C395.046 540 404 548.954 404 560C404 571.046 395.046 580 384 580C372.954 580 364 571.046 364 560Z" fill="#E33338" fill-opacity="0.12"/>
<path d="M377 552H391C391.552 552 392 552.448 392 553V567C392 567.552 391.552 568 391 568H377C376.448 568 376 567.552 376 567V553C376 552.448 376.448 552 377 552Z" stroke="#E33338" stroke-width="2"/>
<g clip-path="url(#clip5_427_4235)">
<path d="M444 560C444 548.954 452.954 540 464 540C475.046 540 484 548.954 484 560C484 571.046 475.046 580 464 580C452.954 580 444 571.046 444 560Z" fill="#E33338" fill-opacity="0.12"/>
<path d="M457 552H471C471.552 552 472 552.448 472 553V567C472 567.552 471.552 568 471 568H457C456.448 568 456 567.552 456 567V553C456 552.448 456.448 552 457 552Z" stroke="#E33338" stroke-width="2"/>
<path opacity="0.2" d="M484 548.905V576.216C484 578.306 482.342 580 480.296 580H434C434 560.67 449.338 545 468.259 545C473.934 545 479.287 546.41 484 548.905Z" fill="#E33338"/>
</g>
<defs>
<clipPath id="clip0_427_4235">
<path d="M444 240C444 228.954 452.954 220 464 220C475.046 220 484 228.954 484 240C484 251.046 475.046 260 464 260C452.954 260 444 251.046 444 240Z" fill="white"/>
</clipPath>
<clipPath id="clip1_427_4235">
<path d="M444 304C444 292.954 452.954 284 464 284C475.046 284 484 292.954 484 304C484 315.046 475.046 324 464 324C452.954 324 444 315.046 444 304Z" fill="white"/>
</clipPath>
<clipPath id="clip2_427_4235">
<path d="M444 368C444 356.954 452.954 348 464 348C475.046 348 484 356.954 484 368C484 379.046 475.046 388 464 388C452.954 388 444 379.046 444 368Z" fill="white"/>
</clipPath>
<clipPath id="clip3_427_4235">
<path d="M444 432C444 420.954 452.954 412 464 412C475.046 412 484 420.954 484 432C484 443.046 475.046 452 464 452C452.954 452 444 443.046 444 432Z" fill="white"/>
</clipPath>
<clipPath id="clip4_427_4235">
<path d="M444 496C444 484.954 452.954 476 464 476C475.046 476 484 484.954 484 496C484 507.046 475.046 516 464 516C452.954 516 444 507.046 444 496Z" fill="white"/>
</clipPath>
<clipPath id="clip5_427_4235">
<path d="M444 560C444 548.954 452.954 540 464 540C475.046 540 484 548.954 484 560C484 571.046 475.046 580 464 580C452.954 580 444 571.046 444 560Z" fill="white"/>
</clipPath>
</defs>
</svg>
