<svg width="560" height="658" viewBox="0 0 560 658" fill="none" xmlns="http://www.w3.org/2000/svg">
<rect width="560" height="658" rx="32" fill="white"/>
<path d="M116.758 112.271C121.09 112.271 124.833 113.088 127.987 114.722C131.179 116.318 133.611 118.617 135.283 121.619C136.993 124.621 137.848 128.155 137.848 132.221C137.848 136.287 136.993 139.821 135.283 142.823C133.611 145.787 131.179 148.067 127.987 149.663C124.833 151.221 121.09 152 116.758 152H104.389V112.271H116.758ZM116.758 147.725C121.888 147.725 125.802 146.376 128.5 143.678C131.198 140.942 132.547 137.123 132.547 132.221C132.547 127.281 131.179 123.424 128.443 120.65C125.745 117.876 121.85 116.489 116.758 116.489H109.576V147.725H116.758ZM147.119 115.691C146.131 115.691 145.295 115.349 144.611 114.665C143.927 113.981 143.585 113.145 143.585 112.157C143.585 111.169 143.927 110.333 144.611 109.649C145.295 108.965 146.131 108.623 147.119 108.623C148.069 108.623 148.867 108.965 149.513 109.649C150.197 110.333 150.539 111.169 150.539 112.157C150.539 113.145 150.197 113.981 149.513 114.665C148.867 115.349 148.069 115.691 147.119 115.691ZM149.627 120.764V152H144.44V120.764H149.627ZM169.845 147.212L179.535 120.764H185.064L172.809 152H166.767L154.512 120.764H160.098L169.845 147.212ZM192.597 115.691C191.609 115.691 190.773 115.349 190.089 114.665C189.405 113.981 189.063 113.145 189.063 112.157C189.063 111.169 189.405 110.333 190.089 109.649C190.773 108.965 191.609 108.623 192.597 108.623C193.547 108.623 194.345 108.965 194.991 109.649C195.675 110.333 196.017 111.169 196.017 112.157C196.017 113.145 195.675 113.981 194.991 114.665C194.345 115.349 193.547 115.691 192.597 115.691ZM195.105 120.764V152H189.918V120.764H195.105ZM201.758 136.268C201.758 133.076 202.404 130.283 203.696 127.889C204.988 125.457 206.755 123.576 208.997 122.246C211.277 120.916 213.823 120.251 216.635 120.251C219.067 120.251 221.328 120.821 223.418 121.961C225.508 123.063 227.104 124.526 228.206 126.35V109.82H233.45V152H228.206V146.129C227.18 147.991 225.66 149.53 223.646 150.746C221.632 151.924 219.276 152.513 216.578 152.513C213.804 152.513 211.277 151.829 208.997 150.461C206.755 149.093 204.988 147.174 203.696 144.704C202.404 142.234 201.758 139.422 201.758 136.268ZM228.206 136.325C228.206 133.969 227.731 131.917 226.781 130.169C225.831 128.421 224.539 127.091 222.905 126.179C221.309 125.229 219.542 124.754 217.604 124.754C215.666 124.754 213.899 125.21 212.303 126.122C210.707 127.034 209.434 128.364 208.484 130.112C207.534 131.86 207.059 133.912 207.059 136.268C207.059 138.662 207.534 140.752 208.484 142.538C209.434 144.286 210.707 145.635 212.303 146.585C213.899 147.497 215.666 147.953 217.604 147.953C219.542 147.953 221.309 147.497 222.905 146.585C224.539 145.635 225.831 144.286 226.781 142.538C227.731 140.752 228.206 138.681 228.206 136.325ZM270.465 135.185C270.465 136.173 270.408 137.218 270.294 138.32H245.328C245.518 141.398 246.563 143.811 248.463 145.559C250.401 147.269 252.738 148.124 255.474 148.124C257.716 148.124 259.578 147.611 261.06 146.585C262.58 145.521 263.644 144.115 264.252 142.367H269.838C269.002 145.369 267.33 147.82 264.822 149.72C262.314 151.582 259.198 152.513 255.474 152.513C252.51 152.513 249.85 151.848 247.494 150.518C245.176 149.188 243.352 147.307 242.022 144.875C240.692 142.405 240.027 139.555 240.027 136.325C240.027 133.095 240.673 130.264 241.965 127.832C243.257 125.4 245.062 123.538 247.38 122.246C249.736 120.916 252.434 120.251 255.474 120.251C258.438 120.251 261.06 120.897 263.34 122.189C265.62 123.481 267.368 125.267 268.584 127.547C269.838 129.789 270.465 132.335 270.465 135.185ZM265.107 134.102C265.107 132.126 264.67 130.435 263.796 129.029C262.922 127.585 261.725 126.502 260.205 125.78C258.723 125.02 257.07 124.64 255.246 124.64C252.624 124.64 250.382 125.476 248.52 127.148C246.696 128.82 245.651 131.138 245.385 134.102H265.107ZM282.249 125.837C283.161 124.051 284.453 122.664 286.125 121.676C287.835 120.688 289.906 120.194 292.338 120.194V125.552H290.97C285.156 125.552 282.249 128.706 282.249 135.014V152H277.062V120.764H282.249V125.837ZM309.134 152.513C306.74 152.513 304.593 152.114 302.693 151.316C300.793 150.48 299.292 149.34 298.19 147.896C297.088 146.414 296.48 144.723 296.366 142.823H301.724C301.876 144.381 302.598 145.654 303.89 146.642C305.22 147.63 306.949 148.124 309.077 148.124C311.053 148.124 312.611 147.687 313.751 146.813C314.891 145.939 315.461 144.837 315.461 143.507C315.461 142.139 314.853 141.132 313.637 140.486C312.421 139.802 310.54 139.137 307.994 138.491C305.676 137.883 303.776 137.275 302.294 136.667C300.85 136.021 299.596 135.09 298.532 133.874C297.506 132.62 296.993 130.986 296.993 128.972C296.993 127.376 297.468 125.913 298.418 124.583C299.368 123.253 300.717 122.208 302.465 121.448C304.213 120.65 306.208 120.251 308.45 120.251C311.908 120.251 314.701 121.125 316.829 122.873C318.957 124.621 320.097 127.015 320.249 130.055H315.062C314.948 128.421 314.283 127.11 313.067 126.122C311.889 125.134 310.293 124.64 308.279 124.64C306.417 124.64 304.935 125.039 303.833 125.837C302.731 126.635 302.18 127.68 302.18 128.972C302.18 129.998 302.503 130.853 303.149 131.537C303.833 132.183 304.669 132.715 305.657 133.133C306.683 133.513 308.089 133.95 309.875 134.444C312.117 135.052 313.941 135.66 315.347 136.268C316.753 136.838 317.95 137.712 318.938 138.89C319.964 140.068 320.496 141.607 320.534 143.507C320.534 145.217 320.059 146.756 319.109 148.124C318.159 149.492 316.81 150.575 315.062 151.373C313.352 152.133 311.376 152.513 309.134 152.513Z" fill="#282828"/>
<path d="M457.857 203.999C458.55 205.196 459.092 206.49 459.457 207.857L458.976 207.986C459.318 209.266 459.5 210.611 459.5 212V217H460V222H459.5V232H460V237H459.5V247H460V252H459.5V262H460V267H459.5V277H460V282H459.5V292H460V297H459.5V307H460V312H459.5V322H460V327H459.5V337H460V342H459.5V352H460V357H459.5V367H460V372H459.5V382H460V387H459.5V397H460V402H459.5V412H460V417H459.5V427H460V432H459.5V442H460V447H459.5V457H460V462H459.5V472H460V477H459.5V487H460V492H459.5V502H460V507H459.5V517H460V522H459.5V532H460V537H459.5V542C459.5 543.389 459.318 544.734 458.976 546.014L459.457 546.142C459.092 547.509 458.55 548.803 457.857 550L457.426 549.751C456.065 552.103 454.103 554.065 451.751 555.426L452 555.857C450.803 556.55 449.509 557.092 448.142 557.457L448.014 556.976C446.734 557.318 445.389 557.5 444 557.5H439.03V558H434.061V557.5H424.121V558H419.151V557.5H409.212V558H404.242V557.5H394.303V558H389.333V557.5H379.394V558H374.424V557.5H364.484V558H359.515V557.5H349.576V558H344.606V557.5H334.667V558H329.697V557.5H319.758V558H314.788V557.5H304.849V558H299.879V557.5H289.939V558H284.97V557.5H275.03V558H270.061V557.5H260.121V558H255.151V557.5H245.212V558H240.242V557.5H230.303V558H225.333V557.5H215.394V558H210.424V557.5H200.484V558H195.516V557.5H185.576V558H180.606V557.5H170.667V558H165.697V557.5H155.758V558H150.788V557.5H140.849V558H135.879V557.5H125.939V558H120.97V557.5H116C114.611 557.5 113.266 557.318 111.986 556.976L111.857 557.457C110.49 557.092 109.196 556.55 107.999 555.857L108.249 555.426C105.897 554.065 103.935 552.103 102.574 549.751L102.142 550C101.449 548.803 100.907 547.509 100.542 546.142L101.024 546.014C100.682 544.734 100.5 543.389 100.5 542V537H100V532H100.5V522H100V517H100.5V507H100V502H100.5V492H100V487H100.5V477H100V472H100.5V462H100V457H100.5V447H100V442H100.5V432H100V427H100.5V417H100V412H100.5V402H100V397H100.5V387H100V382H100.5V372H100V367H100.5V357H100V352H100.5V342H100V337H100.5V327H100V322H100.5V312H100V307H100.5V297H100V292H100.5V282H100V277H100.5V267H100V262H100.5V252H100V247H100.5V237H100V232H100.5V222H100V217H100.5V212C100.5 210.611 100.682 209.266 101.024 207.986L100.542 207.857C100.904 206.505 101.438 205.223 102.12 204.036L102.142 203.999L102.574 204.249C103.935 201.897 105.897 199.935 108.249 198.574L107.999 198.142C109.196 197.449 110.491 196.907 111.857 196.542L111.986 197.024C113.266 196.682 114.611 196.5 116 196.5H120.97V196H125.939V196.5H135.879V196H140.849V196.5H150.788V196H155.758V196.5H165.697V196H170.667V196.5H180.606V196H185.576V196.5H195.516V196H200.485V196.5H210.424V196H215.394V196.5H225.333V196H230.303V196.5H240.242V196H245.212V196.5H255.151V196H260.121V196.5H270.061V196H275.03V196.5H284.97V196H289.939V196.5H299.879V196H304.849V196.5H314.788V196H319.758V196.5H329.697V196H334.667V196.5H344.606V196H349.576V196.5H359.516V196H364.484V196.5H374.424V196H379.394V196.5H389.333V196H394.303V196.5H404.242V196H409.212V196.5H419.151V196H424.121V196.5H434.061V196H439.03V196.5H444C445.389 196.5 446.734 196.682 448.014 197.024L448.142 196.542C449.509 196.907 450.803 197.449 452 198.142L451.751 198.574C454.103 199.935 456.065 201.897 457.426 204.249L457.857 203.999Z" stroke="#FF7043" stroke-dasharray="10 5"/>
<line x1="120" y1="215.5" x2="440" y2="215.5" stroke="#C8C8C8"/>
<line x1="440" y1="249.5" x2="136" y2="249.5" stroke="#C8C8C8"/>
<line x1="136" y1="285.5" x2="424" y2="285.5" stroke="#C8C8C8"/>
<line x1="424" y1="323.5" x2="136" y2="323.5" stroke="#C8C8C8"/>
<path d="M138.646 340.712H141.936V342H137.05V332.27H138.646V340.712ZM142.753 338.108C142.753 337.333 142.911 336.647 143.229 336.05C143.555 335.453 143.994 334.991 144.545 334.664C145.105 334.328 145.721 334.16 146.393 334.16C146.999 334.16 147.527 334.281 147.975 334.524C148.432 334.757 148.796 335.051 149.067 335.406V334.286H150.677V342H149.067V340.852C148.796 341.216 148.427 341.519 147.961 341.762C147.494 342.005 146.962 342.126 146.365 342.126C145.702 342.126 145.095 341.958 144.545 341.622C143.994 341.277 143.555 340.801 143.229 340.194C142.911 339.578 142.753 338.883 142.753 338.108ZM149.067 338.136C149.067 337.604 148.955 337.142 148.731 336.75C148.516 336.358 148.231 336.059 147.877 335.854C147.522 335.649 147.139 335.546 146.729 335.546C146.318 335.546 145.935 335.649 145.581 335.854C145.226 336.05 144.937 336.344 144.713 336.736C144.498 337.119 144.391 337.576 144.391 338.108C144.391 338.64 144.498 339.107 144.713 339.508C144.937 339.909 145.226 340.217 145.581 340.432C145.945 340.637 146.327 340.74 146.729 340.74C147.139 340.74 147.522 340.637 147.877 340.432C148.231 340.227 148.516 339.928 148.731 339.536C148.955 339.135 149.067 338.668 149.067 338.136ZM154.383 335.434C154.654 335.061 155.022 334.757 155.489 334.524C155.965 334.281 156.492 334.16 157.071 334.16C157.752 334.16 158.368 334.323 158.919 334.65C159.47 334.977 159.904 335.443 160.221 336.05C160.538 336.647 160.697 337.333 160.697 338.108C160.697 338.883 160.538 339.578 160.221 340.194C159.904 340.801 159.465 341.277 158.905 341.622C158.354 341.958 157.743 342.126 157.071 342.126C156.474 342.126 155.942 342.009 155.475 341.776C155.018 341.543 154.654 341.244 154.383 340.88V342H152.787V331.64H154.383V335.434ZM159.073 338.108C159.073 337.576 158.961 337.119 158.737 336.736C158.522 336.344 158.233 336.05 157.869 335.854C157.514 335.649 157.132 335.546 156.721 335.546C156.32 335.546 155.937 335.649 155.573 335.854C155.218 336.059 154.929 336.358 154.705 336.75C154.49 337.142 154.383 337.604 154.383 338.136C154.383 338.668 154.49 339.135 154.705 339.536C154.929 339.928 155.218 340.227 155.573 340.432C155.937 340.637 156.32 340.74 156.721 340.74C157.132 340.74 157.514 340.637 157.869 340.432C158.233 340.217 158.522 339.909 158.737 339.508C158.961 339.107 159.073 338.64 159.073 338.108ZM169.359 337.954C169.359 338.243 169.341 338.505 169.303 338.738H163.409C163.456 339.354 163.685 339.849 164.095 340.222C164.506 340.595 165.01 340.782 165.607 340.782C166.466 340.782 167.073 340.423 167.427 339.704H169.149C168.916 340.413 168.491 340.997 167.875 341.454C167.269 341.902 166.513 342.126 165.607 342.126C164.87 342.126 164.207 341.963 163.619 341.636C163.041 341.3 162.583 340.833 162.247 340.236C161.921 339.629 161.757 338.929 161.757 338.136C161.757 337.343 161.916 336.647 162.233 336.05C162.56 335.443 163.013 334.977 163.591 334.65C164.179 334.323 164.851 334.16 165.607 334.16C166.335 334.16 166.984 334.319 167.553 334.636C168.123 334.953 168.566 335.401 168.883 335.98C169.201 336.549 169.359 337.207 169.359 337.954ZM167.693 337.45C167.684 336.862 167.474 336.391 167.063 336.036C166.653 335.681 166.144 335.504 165.537 335.504C164.987 335.504 164.515 335.681 164.123 336.036C163.731 336.381 163.498 336.853 163.423 337.45H167.693ZM172.54 331.64V342H170.944V331.64H172.54Z" fill="#434343"/>
<path d="M138.646 378.712H141.936V380H137.05V370.27H138.646V378.712ZM142.753 376.108C142.753 375.333 142.911 374.647 143.229 374.05C143.555 373.453 143.994 372.991 144.545 372.664C145.105 372.328 145.721 372.16 146.393 372.16C146.999 372.16 147.527 372.281 147.975 372.524C148.432 372.757 148.796 373.051 149.067 373.406V372.286H150.677V380H149.067V378.852C148.796 379.216 148.427 379.519 147.961 379.762C147.494 380.005 146.962 380.126 146.365 380.126C145.702 380.126 145.095 379.958 144.545 379.622C143.994 379.277 143.555 378.801 143.229 378.194C142.911 377.578 142.753 376.883 142.753 376.108ZM149.067 376.136C149.067 375.604 148.955 375.142 148.731 374.75C148.516 374.358 148.231 374.059 147.877 373.854C147.522 373.649 147.139 373.546 146.729 373.546C146.318 373.546 145.935 373.649 145.581 373.854C145.226 374.05 144.937 374.344 144.713 374.736C144.498 375.119 144.391 375.576 144.391 376.108C144.391 376.64 144.498 377.107 144.713 377.508C144.937 377.909 145.226 378.217 145.581 378.432C145.945 378.637 146.327 378.74 146.729 378.74C147.139 378.74 147.522 378.637 147.877 378.432C148.231 378.227 148.516 377.928 148.731 377.536C148.955 377.135 149.067 376.668 149.067 376.136ZM154.383 373.434C154.654 373.061 155.022 372.757 155.489 372.524C155.965 372.281 156.492 372.16 157.071 372.16C157.752 372.16 158.368 372.323 158.919 372.65C159.47 372.977 159.904 373.443 160.221 374.05C160.538 374.647 160.697 375.333 160.697 376.108C160.697 376.883 160.538 377.578 160.221 378.194C159.904 378.801 159.465 379.277 158.905 379.622C158.354 379.958 157.743 380.126 157.071 380.126C156.474 380.126 155.942 380.009 155.475 379.776C155.018 379.543 154.654 379.244 154.383 378.88V380H152.787V369.64H154.383V373.434ZM159.073 376.108C159.073 375.576 158.961 375.119 158.737 374.736C158.522 374.344 158.233 374.05 157.869 373.854C157.514 373.649 157.132 373.546 156.721 373.546C156.32 373.546 155.937 373.649 155.573 373.854C155.218 374.059 154.929 374.358 154.705 374.75C154.49 375.142 154.383 375.604 154.383 376.136C154.383 376.668 154.49 377.135 154.705 377.536C154.929 377.928 155.218 378.227 155.573 378.432C155.937 378.637 156.32 378.74 156.721 378.74C157.132 378.74 157.514 378.637 157.869 378.432C158.233 378.217 158.522 377.909 158.737 377.508C158.961 377.107 159.073 376.64 159.073 376.108ZM169.359 375.954C169.359 376.243 169.341 376.505 169.303 376.738H163.409C163.456 377.354 163.685 377.849 164.095 378.222C164.506 378.595 165.01 378.782 165.607 378.782C166.466 378.782 167.073 378.423 167.427 377.704H169.149C168.916 378.413 168.491 378.997 167.875 379.454C167.269 379.902 166.513 380.126 165.607 380.126C164.87 380.126 164.207 379.963 163.619 379.636C163.041 379.3 162.583 378.833 162.247 378.236C161.921 377.629 161.757 376.929 161.757 376.136C161.757 375.343 161.916 374.647 162.233 374.05C162.56 373.443 163.013 372.977 163.591 372.65C164.179 372.323 164.851 372.16 165.607 372.16C166.335 372.16 166.984 372.319 167.553 372.636C168.123 372.953 168.566 373.401 168.883 373.98C169.201 374.549 169.359 375.207 169.359 375.954ZM167.693 375.45C167.684 374.862 167.474 374.391 167.063 374.036C166.653 373.681 166.144 373.504 165.537 373.504C164.987 373.504 164.515 373.681 164.123 374.036C163.731 374.381 163.498 374.853 163.423 375.45H167.693ZM172.54 369.64V380H170.944V369.64H172.54Z" fill="#434343"/>
<line x1="424" y1="389.5" x2="136" y2="389.5" stroke="#C8C8C8"/>
<line x1="313.5" y1="418" x2="313.5" y2="538" stroke="#C8C8C8"/>
<line x1="344.5" y1="538" x2="344.5" y2="434" stroke="#C8C8C8"/>
<line x1="375.5" y1="522" x2="375.5" y2="434" stroke="#C8C8C8"/>
</svg>
