<svg width="712" height="1568" viewBox="0 0 712 1568" fill="none" xmlns="http://www.w3.org/2000/svg">
<rect width="712" height="1568" rx="32" fill="white"/>
<path d="M129.576 132.271V172H124.389V132.271H129.576ZM136.228 156.325C136.228 153.095 136.874 150.283 138.166 147.889C139.458 145.457 141.244 143.576 143.524 142.246C145.842 140.916 148.483 140.251 151.447 140.251C155.285 140.251 158.439 141.182 160.909 143.044C163.417 144.906 165.07 147.49 165.868 150.796H160.282C159.75 148.896 158.705 147.395 157.147 146.293C155.627 145.191 153.727 144.64 151.447 144.64C148.483 144.64 146.089 145.666 144.265 147.718C142.441 149.732 141.529 152.601 141.529 156.325C141.529 160.087 142.441 162.994 144.265 165.046C146.089 167.098 148.483 168.124 151.447 168.124C153.727 168.124 155.627 167.592 157.147 166.528C158.667 165.464 159.712 163.944 160.282 161.968H165.868C165.032 165.16 163.36 167.725 160.852 169.663C158.344 171.563 155.209 172.513 151.447 172.513C148.483 172.513 145.842 171.848 143.524 170.518C141.244 169.188 139.458 167.307 138.166 164.875C136.874 162.443 136.228 159.593 136.228 156.325ZM186.162 172.513C183.236 172.513 180.576 171.848 178.182 170.518C175.826 169.188 173.964 167.307 172.596 164.875C171.266 162.405 170.601 159.555 170.601 156.325C170.601 153.133 171.285 150.321 172.653 147.889C174.059 145.419 175.959 143.538 178.353 142.246C180.747 140.916 183.426 140.251 186.39 140.251C189.354 140.251 192.033 140.916 194.427 142.246C196.821 143.538 198.702 145.4 200.07 147.832C201.476 150.264 202.179 153.095 202.179 156.325C202.179 159.555 201.457 162.405 200.013 164.875C198.607 167.307 196.688 169.188 194.256 170.518C191.824 171.848 189.126 172.513 186.162 172.513ZM186.162 167.953C188.024 167.953 189.772 167.516 191.406 166.642C193.04 165.768 194.351 164.457 195.339 162.709C196.365 160.961 196.878 158.833 196.878 156.325C196.878 153.817 196.384 151.689 195.396 149.941C194.408 148.193 193.116 146.901 191.52 146.065C189.924 145.191 188.195 144.754 186.333 144.754C184.433 144.754 182.685 145.191 181.089 146.065C179.531 146.901 178.277 148.193 177.327 149.941C176.377 151.689 175.902 153.817 175.902 156.325C175.902 158.871 176.358 161.018 177.27 162.766C178.22 164.514 179.474 165.825 181.032 166.699C182.59 167.535 184.3 167.953 186.162 167.953ZM223.968 140.194C227.768 140.194 230.846 141.353 233.202 143.671C235.558 145.951 236.736 149.257 236.736 153.589V172H231.606V154.33C231.606 151.214 230.827 148.839 229.269 147.205C227.711 145.533 225.583 144.697 222.885 144.697C220.149 144.697 217.964 145.552 216.33 147.262C214.734 148.972 213.936 151.461 213.936 154.729V172H208.749V140.764H213.936V145.21C214.962 143.614 216.349 142.379 218.097 141.505C219.883 140.631 221.84 140.194 223.968 140.194ZM279.799 151.537C281.243 151.765 282.554 152.354 283.732 153.304C284.948 154.254 285.898 155.432 286.582 156.838C287.304 158.244 287.665 159.745 287.665 161.341C287.665 163.355 287.152 165.179 286.126 166.813C285.1 168.409 283.599 169.682 281.623 170.632C279.685 171.544 277.386 172 274.726 172H259.906V132.271H274.156C276.854 132.271 279.153 132.727 281.053 133.639C282.953 134.513 284.378 135.71 285.328 137.23C286.278 138.75 286.753 140.46 286.753 142.36C286.753 144.716 286.107 146.673 284.815 148.231C283.561 149.751 281.889 150.853 279.799 151.537ZM265.093 149.428H273.814C276.246 149.428 278.127 148.858 279.457 147.718C280.787 146.578 281.452 145.001 281.452 142.987C281.452 140.973 280.787 139.396 279.457 138.256C278.127 137.116 276.208 136.546 273.7 136.546H265.093V149.428ZM274.27 167.725C276.854 167.725 278.868 167.117 280.312 165.901C281.756 164.685 282.478 162.994 282.478 160.828C282.478 158.624 281.718 156.895 280.198 155.641C278.678 154.349 276.645 153.703 274.099 153.703H265.093V167.725H274.27ZM322.315 140.764V172H317.128V167.383C316.14 168.979 314.753 170.233 312.967 171.145C311.219 172.019 309.281 172.456 307.153 172.456C304.721 172.456 302.536 171.962 300.598 170.974C298.66 169.948 297.121 168.428 295.981 166.414C294.879 164.4 294.328 161.949 294.328 159.061V140.764H299.458V158.377C299.458 161.455 300.237 163.83 301.795 165.502C303.353 167.136 305.481 167.953 308.179 167.953C310.953 167.953 313.138 167.098 314.734 165.388C316.33 163.678 317.128 161.189 317.128 157.921V140.764H322.315ZM337.15 145.039V163.45C337.15 164.97 337.473 166.053 338.119 166.699C338.765 167.307 339.886 167.611 341.482 167.611H345.301V172H340.627C337.739 172 335.573 171.335 334.129 170.005C332.685 168.675 331.963 166.49 331.963 163.45V145.039H327.916V140.764H331.963V132.898H337.15V140.764H345.301V145.039H337.15ZM357.662 145.039V163.45C357.662 164.97 357.985 166.053 358.631 166.699C359.277 167.307 360.398 167.611 361.994 167.611H365.813V172H361.139C358.251 172 356.085 171.335 354.641 170.005C353.197 168.675 352.475 166.49 352.475 163.45V145.039H348.428V140.764H352.475V132.898H357.662V140.764H365.813V145.039H357.662ZM385.471 172.513C382.545 172.513 379.885 171.848 377.491 170.518C375.135 169.188 373.273 167.307 371.905 164.875C370.575 162.405 369.91 159.555 369.91 156.325C369.91 153.133 370.594 150.321 371.962 147.889C373.368 145.419 375.268 143.538 377.662 142.246C380.056 140.916 382.735 140.251 385.699 140.251C388.663 140.251 391.342 140.916 393.736 142.246C396.13 143.538 398.011 145.4 399.379 147.832C400.785 150.264 401.488 153.095 401.488 156.325C401.488 159.555 400.766 162.405 399.322 164.875C397.916 167.307 395.997 169.188 393.565 170.518C391.133 171.848 388.435 172.513 385.471 172.513ZM385.471 167.953C387.333 167.953 389.081 167.516 390.715 166.642C392.349 165.768 393.66 164.457 394.648 162.709C395.674 160.961 396.187 158.833 396.187 156.325C396.187 153.817 395.693 151.689 394.705 149.941C393.717 148.193 392.425 146.901 390.829 146.065C389.233 145.191 387.504 144.754 385.642 144.754C383.742 144.754 381.994 145.191 380.398 146.065C378.84 146.901 377.586 148.193 376.636 149.941C375.686 151.689 375.211 153.817 375.211 156.325C375.211 158.871 375.667 161.018 376.579 162.766C377.529 164.514 378.783 165.825 380.341 166.699C381.899 167.535 383.609 167.953 385.471 167.953ZM423.277 140.194C427.077 140.194 430.155 141.353 432.511 143.671C434.867 145.951 436.045 149.257 436.045 153.589V172H430.915V154.33C430.915 151.214 430.136 148.839 428.578 147.205C427.02 145.533 424.892 144.697 422.194 144.697C419.458 144.697 417.273 145.552 415.639 147.262C414.043 148.972 413.245 151.461 413.245 154.729V172H408.058V140.764H413.245V145.21C414.271 143.614 415.658 142.379 417.406 141.505C419.192 140.631 421.149 140.194 423.277 140.194Z" fill="#282828"/>
<path d="M565.857 271.999C566.55 273.196 567.092 274.49 567.457 275.857L566.976 275.986C567.318 277.266 567.5 278.611 567.5 280V285.025H568V290.052H567.5V300.103H568V305.128H567.5V315.18H568V320.205H567.5V330.257H568V335.282H567.5V345.333H568V350.359H567.5V360.41H568V365.436H567.5V375.487H568V380.513H567.5V390.564H568V395.59H567.5V405.641H568V410.667H567.5V420.718H568V425.743H567.5V435.795H568V440.82H567.5V450.872H568V455.897H567.5V465.948H568V470.975H567.5V481.025H568V486.052H567.5V496.103H568V501.128H567.5V511.18H568V516.205H567.5V526.257H568V531.282H567.5V541.333H568V546.359H567.5V556.41H568V561.436H567.5V571.487H568V576.513H567.5V586.564H568V591.59H567.5V601.641H568V606.667H567.5V616.718H568V621.743H567.5V631.795H568V636.82H567.5V646.872H568V651.897H567.5V661.948H568V666.975H567.5V672C567.5 673.389 567.318 674.734 566.976 676.014L567.457 676.142C567.092 677.509 566.55 678.803 565.857 680L565.426 679.751C564.065 682.103 562.103 684.065 559.751 685.426L560 685.857C558.803 686.55 557.509 687.092 556.142 687.457L556.014 686.976C554.734 687.318 553.389 687.5 552 687.5H547.048V688H542.096V687.5H532.19V688H527.238V687.5H517.333V688H512.381V687.5H502.477V688H497.523V687.5H487.619V688H482.667V687.5H472.762V688H467.81V687.5H457.905V688H452.952V687.5H443.048V688H438.096V687.5H428.19V688H423.238V687.5H413.333V688H408.381V687.5H398.477V688H393.523V687.5H383.619V688H378.667V687.5H368.762V688H363.81V687.5H353.905V688H348.952V687.5H339.048V688H334.096V687.5H324.19V688H319.238V687.5H309.333V688H304.381V687.5H294.477V688H289.523V687.5H279.619V688H274.667V687.5H264.762V688H259.81V687.5H249.904V688H244.952V687.5H235.048V688H230.096V687.5H220.19V688H215.238V687.5H205.333V688H200.381V687.5H190.477V688H185.523V687.5H175.619V688H170.667V687.5H160.762V688H155.81V687.5H145.904V688H140.952V687.5H136C134.611 687.5 133.266 687.318 131.986 686.976L131.857 687.457C130.49 687.092 129.196 686.55 127.999 685.857L128.249 685.426C125.897 684.065 123.935 682.103 122.574 679.751L122.142 680C121.449 678.803 120.907 677.509 120.542 676.142L121.024 676.014C120.682 674.734 120.5 673.389 120.5 672V666.975H120V661.948H120.5V651.897H120V646.872H120.5V636.82H120V631.795H120.5V621.743H120V616.718H120.5V606.667H120V601.641H120.5V591.59H120V586.564H120.5V576.513H120V571.487H120.5V561.436H120V556.41H120.5V546.359H120V541.333H120.5V531.282H120V526.257H120.5V516.205H120V511.18H120.5V501.128H120V496.103H120.5V486.052H120V481.025H120.5V470.975H120V465.948H120.5V455.897H120V450.872H120.5V440.82H120V435.795H120.5V425.743H120V420.718H120.5V410.667H120V405.641H120.5V395.59H120V390.564H120.5V380.513H120V375.487H120.5V365.436H120V360.41H120.5V350.359H120V345.333H120.5V335.282H120V330.257H120.5V320.205H120V315.18H120.5V305.128H120V300.103H120.5V290.052H120V285.025H120.5V280C120.5 278.611 120.682 277.266 121.024 275.986L120.542 275.857C120.904 274.505 121.438 273.223 122.12 272.036L122.142 271.999L122.574 272.249C123.935 269.897 125.897 267.935 128.249 266.574L127.999 266.142C129.196 265.449 130.491 264.907 131.857 264.542L131.986 265.024C133.266 264.682 134.611 264.5 136 264.5H140.952V264H145.904V264.5H155.81V264H160.762V264.5H170.667V264H175.619V264.5H185.523V264H190.477V264.5H200.381V264H205.333V264.5H215.238V264H220.19V264.5H230.095V264H235.048V264.5H244.952V264H249.904V264.5H259.81V264H264.762V264.5H274.667V264H279.619V264.5H289.523V264H294.477V264.5H304.381V264H309.333V264.5H319.238V264H324.19V264.5H334.095V264H339.048V264.5H348.952V264H353.904V264.5H363.81V264H368.762V264.5H378.667V264H383.619V264.5H393.523V264H398.477V264.5H408.381V264H413.333V264.5H423.238V264H428.19V264.5H438.096V264H443.048V264.5H452.952V264H457.904V264.5H467.81V264H472.762V264.5H482.667V264H487.619V264.5H497.523V264H502.477V264.5H512.381V264H517.333V264.5H527.238V264H532.19V264.5H542.096V264H547.048V264.5H552C553.389 264.5 554.734 264.682 556.014 265.024L556.142 264.542C557.509 264.907 558.803 265.449 560 266.142L559.751 266.574C562.103 267.935 564.065 269.897 565.426 272.249L565.857 271.999Z" stroke="#FF7043" stroke-dasharray="10 5"/>
<path d="M160.331 298.328C162.101 296.956 164.871 296.887 166.71 298.175L172.47 302.205H172.471C173.142 302.675 173.706 303.387 174.103 304.146C174.499 304.905 174.76 305.776 174.76 306.6V313.38C174.76 316.344 172.355 318.75 169.391 318.75H158.61C155.644 318.75 153.24 316.332 153.24 313.37V306.47C153.24 305.697 153.478 304.868 153.837 304.139C154.196 303.41 154.708 302.715 155.318 302.239L160.329 298.328L160.331 298.328Z" stroke="#434343" stroke-width="1.5"/>
<path d="M144 420C144 408.954 152.954 400 164 400C175.046 400 184 408.954 184 420C184 431.046 175.046 440 164 440C152.954 440 144 431.046 144 420Z" fill="#FF7043"/>
<path d="M160.331 410.328C162.101 408.956 164.871 408.887 166.71 410.175L172.47 414.205H172.471C173.142 414.675 173.706 415.387 174.103 416.146C174.499 416.905 174.76 417.776 174.76 418.6V425.38C174.76 428.344 172.355 430.75 169.391 430.75H158.61C155.644 430.75 153.24 428.332 153.24 425.37V418.47C153.24 417.697 153.478 416.868 153.837 416.139C154.196 415.41 154.708 414.715 155.318 414.239L160.329 410.328L160.331 410.328Z" stroke="white" stroke-width="1.5"/>
<rect x="144" y="512" width="40" height="40" rx="20" fill="#FFF3CA"/>
<path d="M160.331 522.327C162.101 520.956 164.871 520.887 166.71 522.175L172.47 526.205H172.471C173.142 526.675 173.706 527.387 174.103 528.146C174.499 528.905 174.76 529.776 174.76 530.6V537.38C174.76 540.344 172.355 542.75 169.391 542.75H158.61C155.644 542.75 153.24 540.332 153.24 537.37V530.47C153.24 529.697 153.478 528.868 153.837 528.139C154.196 527.41 154.708 526.715 155.318 526.239L160.329 522.328L160.331 522.327Z" stroke="#332B10" stroke-width="1.5"/>
<path d="M164 624.5C174.77 624.5 183.5 633.23 183.5 644C183.5 654.77 174.77 663.5 164 663.5C153.23 663.5 144.5 654.77 144.5 644C144.5 633.23 153.23 624.5 164 624.5Z" stroke="#797979"/>
<path d="M160.331 634.327C162.101 632.956 164.871 632.887 166.71 634.175L172.47 638.205H172.471C173.142 638.675 173.706 639.387 174.103 640.146C174.499 640.905 174.76 641.776 174.76 642.6V649.38C174.76 652.344 172.355 654.75 169.391 654.75H158.61C155.644 654.75 153.24 652.332 153.24 649.37V642.47C153.24 641.697 153.478 640.868 153.837 640.139C154.196 639.41 154.708 638.715 155.318 638.239L160.329 634.328L160.331 634.327Z" stroke="#434343" stroke-width="1.5"/>
<path d="M524 624.5C534.77 624.5 543.5 633.23 543.5 644C543.5 654.77 534.77 663.5 524 663.5C513.23 663.5 504.5 654.77 504.5 644C504.5 633.23 513.23 624.5 524 624.5Z" stroke="#282828" stroke-opacity="0.12"/>
<g opacity="0.38">
<path d="M520.331 634.327C522.101 632.956 524.871 632.887 526.71 634.175L532.47 638.205H532.471C533.142 638.675 533.706 639.387 534.103 640.146C534.499 640.905 534.76 641.776 534.76 642.6V649.38C534.76 652.344 532.355 654.75 529.391 654.75H518.61C515.644 654.75 513.24 652.332 513.24 649.37V642.47C513.24 641.697 513.478 640.868 513.837 640.139C514.196 639.41 514.708 638.715 515.318 638.239L520.329 634.328L520.331 634.327Z" stroke="#282828" stroke-width="1.5"/>
</g>
<path d="M254 624.5C264.77 624.5 273.5 633.23 273.5 644C273.5 654.77 264.77 663.5 254 663.5C243.23 663.5 234.5 654.77 234.5 644C234.5 633.23 243.23 624.5 254 624.5Z" stroke="#797979"/>
<rect x="234" y="624" width="40" height="40" rx="20" fill="#434343" fill-opacity="0.08"/>
<path d="M250.331 634.327C252.101 632.956 254.871 632.887 256.71 634.175L262.47 638.205H262.471C263.142 638.675 263.706 639.387 264.103 640.146C264.499 640.905 264.76 641.776 264.76 642.6V649.38C264.76 652.344 262.355 654.75 259.391 654.75H248.61C245.644 654.75 243.24 652.332 243.24 649.37V642.47C243.24 641.697 243.478 640.868 243.837 640.139C244.196 639.41 244.708 638.715 245.318 638.239L250.329 634.328L250.331 634.327Z" stroke="#434343" stroke-width="1.5"/>
<path d="M344 624.5C354.77 624.5 363.5 633.23 363.5 644C363.5 654.77 354.77 663.5 344 663.5C333.23 663.5 324.5 654.77 324.5 644C324.5 633.23 333.23 624.5 344 624.5Z" stroke="#797979"/>
<path d="M324 644C324 632.954 332.954 624 344 624C355.046 624 364 632.954 364 644C364 655.046 355.046 664 344 664C332.954 664 324 655.046 324 644Z" fill="#434343" fill-opacity="0.12"/>
<path d="M340.331 634.327C342.101 632.956 344.871 632.887 346.71 634.175L352.47 638.205H352.471C353.142 638.675 353.706 639.387 354.103 640.146C354.499 640.905 354.76 641.776 354.76 642.6V649.38C354.76 652.344 352.355 654.75 349.391 654.75H338.61C335.644 654.75 333.24 652.332 333.24 649.37V642.47C333.24 641.697 333.478 640.868 333.837 640.139C334.196 639.41 334.708 638.715 335.318 638.239L340.329 634.328L340.331 634.327Z" stroke="#434343" stroke-width="1.5"/>
<path d="M434 624.5C444.77 624.5 453.5 633.23 453.5 644C453.5 654.77 444.77 663.5 434 663.5C423.23 663.5 414.5 654.77 414.5 644C414.5 633.23 423.23 624.5 434 624.5Z" stroke="#797979"/>
<path d="M414 644C414 632.954 422.954 624 434 624C445.046 624 454 632.954 454 644C454 655.046 445.046 664 434 664C422.954 664 414 655.046 414 644Z" fill="#434343" fill-opacity="0.12"/>
<path d="M430.331 634.327C432.101 632.956 434.871 632.887 436.71 634.175L442.47 638.205H442.471C443.142 638.675 443.706 639.387 444.103 640.146C444.499 640.905 444.76 641.776 444.76 642.6V649.38C444.76 652.344 442.355 654.75 439.391 654.75H428.61C425.644 654.75 423.24 652.332 423.24 649.37V642.47C423.24 641.697 423.478 640.868 423.837 640.139C424.196 639.41 424.708 638.715 425.318 638.239L430.329 634.328L430.331 634.327Z" stroke="#434343" stroke-width="1.5"/>
<path d="M234 532C234 520.954 242.954 512 254 512C265.046 512 274 520.954 274 532C274 543.046 265.046 552 254 552C242.954 552 234 543.046 234 532Z" fill="#FFF3CA"/>
<path d="M234 532C234 520.954 242.954 512 254 512C265.046 512 274 520.954 274 532C274 543.046 265.046 552 254 552C242.954 552 234 543.046 234 532Z" fill="#332B10" fill-opacity="0.08"/>
<path d="M250.331 522.327C252.101 520.956 254.871 520.887 256.71 522.175L262.47 526.205H262.471C263.142 526.675 263.706 527.387 264.103 528.146C264.499 528.905 264.76 529.776 264.76 530.6V537.38C264.76 540.344 262.355 542.75 259.391 542.75H248.61C245.644 542.75 243.24 540.332 243.24 537.37V530.47C243.24 529.697 243.478 528.868 243.837 528.139C244.196 527.41 244.708 526.715 245.318 526.239L250.329 522.328L250.331 522.327Z" stroke="#332B10" stroke-width="1.5"/>
<path d="M324 532C324 520.954 332.954 512 344 512C355.046 512 364 520.954 364 532C364 543.046 355.046 552 344 552C332.954 552 324 543.046 324 532Z" fill="#FFF3CA"/>
<path d="M324 532C324 520.954 332.954 512 344 512C355.046 512 364 520.954 364 532C364 543.046 355.046 552 344 552C332.954 552 324 543.046 324 532Z" fill="#332B10" fill-opacity="0.12"/>
<path d="M340.331 522.327C342.101 520.956 344.871 520.887 346.71 522.175L352.47 526.205H352.471C353.142 526.675 353.706 527.387 354.103 528.146C354.499 528.905 354.76 529.776 354.76 530.6V537.38C354.76 540.344 352.355 542.75 349.391 542.75H338.61C335.644 542.75 333.24 540.332 333.24 537.37V530.47C333.24 529.697 333.478 528.868 333.837 528.139C334.196 527.41 334.708 526.715 335.318 526.239L340.329 522.328L340.331 522.327Z" stroke="#332B10" stroke-width="1.5"/>
<path d="M414 532C414 520.954 422.954 512 434 512C445.046 512 454 520.954 454 532C454 543.046 445.046 552 434 552C422.954 552 414 543.046 414 532Z" fill="#FFF3CA"/>
<path d="M414 532C414 520.954 422.954 512 434 512C445.046 512 454 520.954 454 532C454 543.046 445.046 552 434 552C422.954 552 414 543.046 414 532Z" fill="#332B10" fill-opacity="0.12"/>
<path d="M430.331 522.327C432.101 520.956 434.871 520.887 436.71 522.175L442.47 526.205H442.471C443.142 526.675 443.706 527.387 444.103 528.146C444.499 528.905 444.76 529.776 444.76 530.6V537.38C444.76 540.344 442.355 542.75 439.391 542.75H428.61C425.644 542.75 423.24 540.332 423.24 537.37V530.47C423.24 529.697 423.478 528.868 423.837 528.139C424.196 527.41 424.708 526.715 425.318 526.239L430.329 522.328L430.331 522.327Z" stroke="#332B10" stroke-width="1.5"/>
<g opacity="0.38">
<path d="M520.331 298.328C522.101 296.956 524.871 296.887 526.71 298.175L532.47 302.205H532.471C533.142 302.675 533.706 303.387 534.103 304.146C534.499 304.905 534.76 305.776 534.76 306.6V313.38C534.76 316.344 532.355 318.75 529.391 318.75H518.61C515.644 318.75 513.24 316.332 513.24 313.37V306.47C513.24 305.697 513.478 304.868 513.837 304.139C514.196 303.41 514.708 302.715 515.318 302.239L520.329 298.328L520.331 298.328Z" stroke="#434343" stroke-width="1.5"/>
</g>
<g opacity="0.38">
<path d="M504 420C504 408.954 512.954 400 524 400C535.046 400 544 408.954 544 420C544 431.046 535.046 440 524 440C512.954 440 504 431.046 504 420Z" fill="#282828" fill-opacity="0.12"/>
<path d="M520.331 410.328C522.101 408.956 524.871 408.887 526.71 410.175L532.47 414.205H532.471C533.142 414.675 533.706 415.387 534.103 416.146C534.499 416.905 534.76 417.776 534.76 418.6V425.38C534.76 428.344 532.355 430.75 529.391 430.75H518.61C515.644 430.75 513.24 428.332 513.24 425.37V418.47C513.24 417.697 513.478 416.868 513.837 416.139C514.196 415.41 514.708 414.715 515.318 414.239L520.329 410.328L520.331 410.328Z" stroke="#434343" stroke-width="1.5"/>
</g>
<g opacity="0.38">
<path d="M504 532C504 520.954 512.954 512 524 512C535.046 512 544 520.954 544 532C544 543.046 535.046 552 524 552C512.954 552 504 543.046 504 532Z" fill="#282828" fill-opacity="0.12"/>
<path d="M520.331 522.327C522.101 520.956 524.871 520.887 526.71 522.175L532.47 526.205H532.471C533.142 526.675 533.706 527.387 534.103 528.146C534.499 528.905 534.76 529.776 534.76 530.6V537.38C534.76 540.344 532.355 542.75 529.391 542.75H518.61C515.644 542.75 513.24 540.332 513.24 537.37V530.47C513.24 529.697 513.478 528.868 513.837 528.139C514.196 527.41 514.708 526.715 515.318 526.239L520.329 522.328L520.331 522.327Z" stroke="#434343" stroke-width="1.5"/>
</g>
<path d="M234 308C234 296.954 242.954 288 254 288C265.046 288 274 296.954 274 308C274 319.046 265.046 328 254 328C242.954 328 234 319.046 234 308Z" fill="#282828" fill-opacity="0.08"/>
<path d="M250.331 298.328C252.101 296.956 254.871 296.887 256.71 298.175L262.47 302.205H262.471C263.142 302.675 263.706 303.387 264.103 304.146C264.499 304.905 264.76 305.776 264.76 306.6V313.38C264.76 316.344 262.355 318.75 259.391 318.75H248.61C245.644 318.75 243.24 316.332 243.24 313.37V306.47C243.24 305.697 243.478 304.868 243.837 304.139C244.196 303.41 244.708 302.715 245.318 302.239L250.329 298.328L250.331 298.328Z" stroke="#434343" stroke-width="1.5"/>
<path d="M234 420C234 408.954 242.954 400 254 400C265.046 400 274 408.954 274 420C274 431.046 265.046 440 254 440C242.954 440 234 431.046 234 420Z" fill="#FF7043"/>
<path d="M234 420C234 408.954 242.954 400 254 400C265.046 400 274 408.954 274 420C274 431.046 265.046 440 254 440C242.954 440 234 431.046 234 420Z" fill="white" fill-opacity="0.08"/>
<path d="M250.331 410.328C252.101 408.956 254.871 408.887 256.71 410.175L262.47 414.205H262.471C263.142 414.675 263.706 415.387 264.103 416.146C264.499 416.905 264.76 417.776 264.76 418.6V425.38C264.76 428.344 262.355 430.75 259.391 430.75H248.61C245.644 430.75 243.24 428.332 243.24 425.37V418.47C243.24 417.697 243.478 416.868 243.837 416.139C244.196 415.41 244.708 414.715 245.318 414.239L250.329 410.328L250.331 410.328Z" stroke="white" stroke-width="1.5"/>
<path d="M324 420C324 408.954 332.954 400 344 400C355.046 400 364 408.954 364 420C364 431.046 355.046 440 344 440C332.954 440 324 431.046 324 420Z" fill="#FF7043"/>
<rect x="324" y="400" width="40" height="40" rx="20" fill="white" fill-opacity="0.12"/>
<path d="M340.331 410.328C342.101 408.956 344.871 408.887 346.71 410.175L352.47 414.205H352.471C353.142 414.675 353.706 415.387 354.103 416.146C354.499 416.905 354.76 417.776 354.76 418.6V425.38C354.76 428.344 352.355 430.75 349.391 430.75H338.61C335.644 430.75 333.24 428.332 333.24 425.37V418.47C333.24 417.697 333.478 416.868 333.837 416.139C334.196 415.41 334.708 414.715 335.318 414.239L340.329 410.328L340.331 410.328Z" stroke="white" stroke-width="1.5"/>
<path d="M414 420C414 408.954 422.954 400 434 400C445.046 400 454 408.954 454 420C454 431.046 445.046 440 434 440C422.954 440 414 431.046 414 420Z" fill="#FF7043"/>
<path d="M414 420C414 408.954 422.954 400 434 400C445.046 400 454 408.954 454 420C454 431.046 445.046 440 434 440C422.954 440 414 431.046 414 420Z" fill="white" fill-opacity="0.12"/>
<path d="M430.331 410.328C432.101 408.956 434.871 408.887 436.71 410.175L442.47 414.205H442.471C443.142 414.675 443.706 415.387 444.103 416.146C444.499 416.905 444.76 417.776 444.76 418.6V425.38C444.76 428.344 442.355 430.75 439.391 430.75H428.61C425.644 430.75 423.24 428.332 423.24 425.37V418.47C423.24 417.697 423.478 416.868 423.837 416.139C424.196 415.41 424.708 414.715 425.318 414.239L430.329 410.328L430.331 410.328Z" stroke="white" stroke-width="1.5"/>
<path d="M324 308C324 296.954 332.954 288 344 288C355.046 288 364 296.954 364 308C364 319.046 355.046 328 344 328C332.954 328 324 319.046 324 308Z" fill="#282828" fill-opacity="0.12"/>
<path d="M340.331 298.328C342.101 296.956 344.871 296.887 346.71 298.175L352.47 302.205H352.471C353.142 302.675 353.706 303.387 354.103 304.146C354.499 304.905 354.76 305.776 354.76 306.6V313.38C354.76 316.344 352.355 318.75 349.391 318.75H338.61C335.644 318.75 333.24 316.332 333.24 313.37V306.47C333.24 305.697 333.478 304.868 333.837 304.139C334.196 303.41 334.708 302.715 335.318 302.239L340.329 298.328L340.331 298.328Z" stroke="#434343" stroke-width="1.5"/>
<path d="M414 308C414 296.954 422.954 288 434 288C445.046 288 454 296.954 454 308C454 319.046 445.046 328 434 328C422.954 328 414 319.046 414 308Z" fill="#282828" fill-opacity="0.12"/>
<path d="M430.331 298.328C432.101 296.956 434.871 296.887 436.71 298.175L442.47 302.205H442.471C443.142 302.675 443.706 303.387 444.103 304.146C444.499 304.905 444.76 305.776 444.76 306.6V313.38C444.76 316.344 442.355 318.75 439.391 318.75H428.61C425.644 318.75 423.24 316.332 423.24 313.37V306.47C423.24 305.697 423.478 304.868 423.837 304.139C424.196 303.41 424.708 302.715 425.318 302.239L430.329 298.328L430.331 298.328Z" stroke="#434343" stroke-width="1.5"/>
<path d="M589.857 775.999C590.55 777.196 591.092 778.49 591.457 779.857L590.976 779.986C591.318 781.266 591.5 782.611 591.5 784V789.023H592V794.047H591.5V804.093H592V809.116H591.5V819.163H592V824.187H591.5V834.232H592V839.256H591.5V849.303H592V854.326H591.5V864.372H592V869.396H591.5V879.442H592V884.465H591.5V894.512H592V899.535H591.5V909.581H592V914.604H591.5V924.651H592V929.675H591.5V939.721H592V944.744H591.5V954.791H592V959.814H591.5V969.86H592V974.884H591.5V984.931H592V989.953H591.5V1000H592V1005.02H591.5V1015.07H592V1020.09H591.5V1030.14H592V1035.16H591.5V1045.21H592V1050.23H591.5V1060.28H592V1065.3H591.5V1075.35H592V1080.37H591.5V1090.42H592V1095.44H591.5V1105.49H592V1110.51H591.5V1120.56H592V1125.58H591.5V1135.63H592V1140.65H591.5V1150.7H592V1155.72H591.5V1165.77H592V1170.79H591.5V1180.84H592V1185.86H591.5V1195.91H592V1200.93H591.5V1210.98H592V1216H591.5V1226.05H592V1231.07H591.5V1241.12H592V1246.14H591.5V1256.19H592V1261.21H591.5V1271.26H592V1276.28H591.5V1286.33H592V1291.35H591.5V1301.4H592V1306.42H591.5V1316.46H592V1321.49H591.5V1331.54H592V1336.56H591.5V1346.6H592V1351.63H591.5V1361.67H592V1366.7H591.5V1376.74H592V1381.77H591.5V1391.81H592V1396.84H591.5V1406.88H592V1411.91H591.5V1421.95H592V1426.98H591.5V1432C591.5 1433.39 591.318 1434.73 590.976 1436.01L591.457 1436.14C591.092 1437.51 590.55 1438.8 589.857 1440L589.426 1439.75C588.065 1442.1 586.103 1444.06 583.751 1445.43L584 1445.86C582.803 1446.55 581.509 1447.09 580.142 1447.46L580.014 1446.98C578.734 1447.32 577.389 1447.5 576 1447.5H570.942V1448H565.885V1447.5H555.77V1448H550.713V1447.5H540.598V1448H535.54V1447.5H525.425V1448H520.367V1447.5H510.253V1448H505.195V1447.5H495.08V1448H490.022V1447.5H479.908V1448H474.851V1447.5H464.735V1448H459.678V1447.5H449.563V1448H444.506V1447.5H434.391V1448H429.333V1447.5H419.219V1448H414.161V1447.5H404.046V1448H398.988V1447.5H388.873V1448H383.816V1447.5H373.701V1448H368.644V1447.5H358.528V1448H353.472V1447.5H343.356V1448H338.299V1447.5H328.184V1448H323.126V1447.5H313.012V1448H307.954V1447.5H297.839V1448H292.781V1447.5H282.667V1448H277.609V1447.5H267.494V1448H262.437V1447.5H252.322V1448H247.265V1447.5H237.149V1448H232.092V1447.5H221.977V1448H216.92V1447.5H206.805V1448H201.747V1447.5H191.632V1448H186.575V1447.5H176.46V1448H171.402V1447.5H161.287V1448H156.229V1447.5H146.115V1448H141.058V1447.5H136C134.611 1447.5 133.266 1447.32 131.986 1446.98L131.857 1447.46C130.49 1447.09 129.196 1446.55 127.999 1445.86L128.249 1445.43C125.897 1444.06 123.935 1442.1 122.574 1439.75L122.142 1440C121.449 1438.8 120.907 1437.51 120.542 1436.14L121.024 1436.01C120.682 1434.73 120.5 1433.39 120.5 1432V1426.98H120V1421.95H120.5V1411.91H120V1406.88H120.5V1396.84H120V1391.81H120.5V1381.77H120V1376.74H120.5V1366.7H120V1361.67H120.5V1351.63H120V1346.6H120.5V1336.56H120V1331.54H120.5V1321.49H120V1316.46H120.5V1306.42H120V1301.4H120.5V1291.35H120V1286.33H120.5V1276.28H120V1271.26H120.5V1261.21H120V1256.19H120.5V1246.14H120V1241.12H120.5V1231.07H120V1226.05H120.5V1216H120V1210.98H120.5V1200.93H120V1195.91H120.5V1185.86H120V1180.84H120.5V1170.79H120V1165.77H120.5V1155.72H120V1150.7H120.5V1140.65H120V1135.63H120.5V1125.58H120V1120.56H120.5V1110.51H120V1105.49H120.5V1095.44H120V1090.42H120.5V1080.37H120V1075.35H120.5V1065.3H120V1060.28H120.5V1050.23H120V1045.21H120.5V1035.16H120V1030.14H120.5V1020.09H120V1015.07H120.5V1005.02H120V1000H120.5V989.953H120V984.931H120.5V974.884H120V969.86H120.5V959.813H120V954.791H120.5V944.744H120V939.721H120.5V929.675H120V924.651H120.5V914.604H120V909.581H120.5V899.535H120V894.512H120.5V884.465H120V879.441H120.5V869.396H120V864.372H120.5V854.325H120V849.303H120.5V839.256H120V834.232H120.5V824.187H120V819.163H120.5V809.116H120V804.093H120.5V794.047H120V789.023H120.5V784C120.5 782.611 120.682 781.266 121.024 779.986L120.542 779.857C120.904 778.505 121.438 777.223 122.12 776.036L122.142 775.999L122.574 776.249C123.935 773.897 125.897 771.935 128.249 770.574L127.999 770.142C129.196 769.449 130.491 768.907 131.857 768.542L131.986 769.024C133.266 768.682 134.611 768.5 136 768.5H141.058V768H146.115V768.5H156.23V768H161.287V768.5H171.402V768H176.46V768.5H186.575V768H191.633V768.5H201.747V768H206.805V768.5H216.92V768H221.978V768.5H232.092V768H237.149V768.5H247.265V768H252.322V768.5H262.437V768H267.494V768.5H277.609V768H282.667V768.5H292.781V768H297.839V768.5H307.954V768H313.012V768.5H323.127V768H328.184V768.5H338.299V768H343.356V768.5H353.472V768H358.528V768.5H368.644V768H373.701V768.5H383.816V768H388.874V768.5H398.988V768H404.046V768.5H414.161V768H419.219V768.5H429.333V768H434.391V768.5H444.506V768H449.563V768.5H459.678V768H464.735V768.5H474.851V768H479.908V768.5H490.023V768H495.08V768.5H505.195V768H510.253V768.5H520.368V768H525.425V768.5H535.54V768H540.598V768.5H550.713V768H555.771V768.5H565.885V768H570.942V768.5H576C577.389 768.5 578.734 768.682 580.014 769.024L580.142 768.542C581.509 768.907 582.803 769.449 584 770.142L583.751 770.574C586.103 771.935 588.065 773.897 589.426 776.249L589.857 775.999Z" stroke="#FF7043" stroke-dasharray="10 5"/>
<path d="M173.291 804.612C172.781 804.101 172.174 803.695 171.507 803.419C170.839 803.142 170.124 803 169.401 803C168.679 803 167.963 803.142 167.296 803.419C166.628 803.695 166.022 804.101 165.511 804.612L164.451 805.672L163.391 804.612C162.36 803.58 160.96 803.001 159.501 803.001C158.042 803.001 156.643 803.58 155.611 804.612C154.58 805.644 154 807.043 154 808.502C154 809.961 154.58 811.36 155.611 812.392L156.671 813.452L164.451 821.232L172.231 813.452L173.291 812.392C173.802 811.881 174.208 811.275 174.484 810.607C174.761 809.94 174.903 809.224 174.903 808.502C174.903 807.779 174.761 807.064 174.484 806.396C174.208 805.729 173.802 805.123 173.291 804.612Z" stroke="#434343" stroke-width="1.5" stroke-linecap="round" stroke-linejoin="round"/>
<path d="M164 1320.5C174.77 1320.5 183.5 1329.23 183.5 1340C183.5 1350.77 174.77 1359.5 164 1359.5C153.23 1359.5 144.5 1350.77 144.5 1340C144.5 1329.23 153.23 1320.5 164 1320.5Z" stroke="#797979"/>
<path d="M173.291 1332.61C172.781 1332.1 172.174 1331.7 171.507 1331.42C170.839 1331.14 170.124 1331 169.401 1331C168.679 1331 167.963 1331.14 167.296 1331.42C166.628 1331.7 166.022 1332.1 165.511 1332.61L164.451 1333.67L163.391 1332.61C162.36 1331.58 160.96 1331 159.501 1331C158.042 1331 156.643 1331.58 155.611 1332.61C154.58 1333.64 154 1335.04 154 1336.5C154 1337.96 154.58 1339.36 155.611 1340.39L156.671 1341.45L164.451 1349.23L172.231 1341.45L173.291 1340.39C173.802 1339.88 174.208 1339.27 174.484 1338.61C174.761 1337.94 174.903 1337.22 174.903 1336.5C174.903 1335.78 174.761 1335.06 174.484 1334.4C174.208 1333.73 173.802 1333.12 173.291 1332.61Z" stroke="#434343" stroke-width="1.5" stroke-linecap="round" stroke-linejoin="round"/>
<g clip-path="url(#clip0_159_1551)">
<path d="M144 988C144 976.954 152.954 968 164 968C175.046 968 184 976.954 184 988C184 999.046 175.046 1008 164 1008C152.954 1008 144 999.046 144 988Z" fill="#EAEAEA"/>
<path d="M173.291 980.612C172.781 980.101 172.174 979.695 171.507 979.419C170.839 979.142 170.124 979 169.401 979C168.679 979 167.963 979.142 167.296 979.419C166.628 979.695 166.022 980.101 165.511 980.612L164.451 981.672L163.391 980.612C162.36 979.58 160.96 979.001 159.501 979.001C158.042 979.001 156.643 979.58 155.611 980.612C154.58 981.644 154 983.043 154 984.502C154 985.961 154.58 987.36 155.611 988.392L156.671 989.452L164.451 997.232L172.231 989.452L173.291 988.392C173.802 987.881 174.208 987.275 174.484 986.607C174.761 985.94 174.903 985.224 174.903 984.502C174.903 983.779 174.761 983.064 174.484 982.396C174.208 981.729 173.802 981.123 173.291 980.612Z" stroke="#FF7043" stroke-width="1.5" stroke-linecap="round" stroke-linejoin="round"/>
</g>
<g clip-path="url(#clip1_159_1551)">
<path d="M144 1164C144 1152.95 152.954 1144 164 1144C175.046 1144 184 1152.95 184 1164C184 1175.05 175.046 1184 164 1184C152.954 1184 144 1175.05 144 1164Z" fill="#EAEAEA"/>
<path d="M173.291 1156.61C172.781 1156.1 172.174 1155.7 171.507 1155.42C170.839 1155.14 170.124 1155 169.401 1155C168.679 1155 167.963 1155.14 167.296 1155.42C166.628 1155.7 166.022 1156.1 165.511 1156.61L164.451 1157.67L163.391 1156.61C162.36 1155.58 160.96 1155 159.501 1155C158.042 1155 156.643 1155.58 155.611 1156.61C154.58 1157.64 154 1159.04 154 1160.5C154 1161.96 154.58 1163.36 155.611 1164.39L156.671 1165.45L164.451 1173.23L172.231 1165.45L173.291 1164.39C173.802 1163.88 174.208 1163.27 174.484 1162.61C174.761 1161.94 174.903 1161.22 174.903 1160.5C174.903 1159.78 174.761 1159.06 174.484 1158.4C174.208 1157.73 173.802 1157.12 173.291 1156.61Z" stroke="#434343" stroke-width="1.5" stroke-linecap="round" stroke-linejoin="round"/>
</g>
<g clip-path="url(#clip2_159_1551)">
<path d="M528 988C528 976.954 536.954 968 548 968C559.046 968 568 976.954 568 988C568 999.046 559.046 1008 548 1008C536.954 1008 528 999.046 528 988Z" fill="#282828" fill-opacity="0.12"/>
<g opacity="0.38">
<path d="M557.291 980.612C556.781 980.101 556.174 979.695 555.507 979.419C554.839 979.142 554.124 979 553.401 979C552.679 979 551.963 979.142 551.296 979.419C550.628 979.695 550.022 980.101 549.511 980.612L548.451 981.672L547.391 980.612C546.36 979.58 544.96 979.001 543.501 979.001C542.042 979.001 540.643 979.58 539.611 980.612C538.58 981.644 538 983.043 538 984.502C538 985.961 538.58 987.36 539.611 988.392L540.671 989.452L548.451 997.232L556.231 989.452L557.291 988.392C557.802 987.881 558.208 987.275 558.484 986.607C558.761 985.94 558.903 985.224 558.903 984.502C558.903 983.779 558.761 983.064 558.484 982.396C558.208 981.729 557.802 981.123 557.291 980.612Z" stroke="#282828" stroke-width="1.5" stroke-linecap="round" stroke-linejoin="round"/>
</g>
</g>
<g clip-path="url(#clip3_159_1551)">
<path d="M528 1164C528 1152.95 536.954 1144 548 1144C559.046 1144 568 1152.95 568 1164C568 1175.05 559.046 1184 548 1184C536.954 1184 528 1175.05 528 1164Z" fill="#282828" fill-opacity="0.12"/>
<g opacity="0.38">
<path d="M557.291 1156.61C556.781 1156.1 556.174 1155.7 555.507 1155.42C554.839 1155.14 554.124 1155 553.401 1155C552.679 1155 551.963 1155.14 551.296 1155.42C550.628 1155.7 550.022 1156.1 549.511 1156.61L548.451 1157.67L547.391 1156.61C546.36 1155.58 544.96 1155 543.501 1155C542.042 1155 540.643 1155.58 539.611 1156.61C538.58 1157.64 538 1159.04 538 1160.5C538 1161.96 538.58 1163.36 539.611 1164.39L540.671 1165.45L548.451 1173.23L556.231 1165.45L557.291 1164.39C557.802 1163.88 558.208 1163.27 558.484 1162.61C558.761 1161.94 558.903 1161.22 558.903 1160.5C558.903 1159.78 558.761 1159.06 558.484 1158.4C558.208 1157.73 557.802 1157.12 557.291 1156.61Z" stroke="#282828" stroke-width="1.5" stroke-linecap="round" stroke-linejoin="round"/>
</g>
</g>
<g clip-path="url(#clip4_159_1551)">
<path d="M240 988C240 976.954 248.954 968 260 968C271.046 968 280 976.954 280 988C280 999.046 271.046 1008 260 1008C248.954 1008 240 999.046 240 988Z" fill="#EAEAEA"/>
<path d="M240 988C240 976.954 248.954 968 260 968C271.046 968 280 976.954 280 988C280 999.046 271.046 1008 260 1008C248.954 1008 240 999.046 240 988Z" fill="#FF7043" fill-opacity="0.08"/>
<path d="M269.291 980.612C268.781 980.101 268.174 979.695 267.507 979.419C266.839 979.142 266.124 979 265.401 979C264.679 979 263.963 979.142 263.296 979.419C262.628 979.695 262.022 980.101 261.511 980.612L260.451 981.672L259.391 980.612C258.36 979.58 256.96 979.001 255.501 979.001C254.042 979.001 252.643 979.58 251.611 980.612C250.58 981.644 250 983.043 250 984.502C250 985.961 250.58 987.36 251.611 988.392L252.671 989.452L260.451 997.232L268.231 989.452L269.291 988.392C269.802 987.881 270.208 987.275 270.484 986.607C270.761 985.94 270.903 985.224 270.903 984.502C270.903 983.779 270.761 983.064 270.484 982.396C270.208 981.729 269.802 981.123 269.291 980.612Z" stroke="#FF7043" stroke-width="1.5" stroke-linecap="round" stroke-linejoin="round"/>
</g>
<g clip-path="url(#clip5_159_1551)">
<path d="M240 1164C240 1152.95 248.954 1144 260 1144C271.046 1144 280 1152.95 280 1164C280 1175.05 271.046 1184 260 1184C248.954 1184 240 1175.05 240 1164Z" fill="#EAEAEA"/>
<path d="M240 1164C240 1152.95 248.954 1144 260 1144C271.046 1144 280 1152.95 280 1164C280 1175.05 271.046 1184 260 1184C248.954 1184 240 1175.05 240 1164Z" fill="#434343" fill-opacity="0.08"/>
<path d="M269.291 1156.61C268.781 1156.1 268.174 1155.7 267.507 1155.42C266.839 1155.14 266.124 1155 265.401 1155C264.679 1155 263.963 1155.14 263.296 1155.42C262.628 1155.7 262.022 1156.1 261.511 1156.61L260.451 1157.67L259.391 1156.61C258.36 1155.58 256.96 1155 255.501 1155C254.042 1155 252.643 1155.58 251.611 1156.61C250.58 1157.64 250 1159.04 250 1160.5C250 1161.96 250.58 1163.36 251.611 1164.39L252.671 1165.45L260.451 1173.23L268.231 1165.45L269.291 1164.39C269.802 1163.88 270.208 1163.27 270.484 1162.61C270.761 1161.94 270.903 1161.22 270.903 1160.5C270.903 1159.78 270.761 1159.06 270.484 1158.4C270.208 1157.73 269.802 1157.12 269.291 1156.61Z" stroke="#434343" stroke-width="1.5" stroke-linecap="round" stroke-linejoin="round"/>
</g>
<g clip-path="url(#clip6_159_1551)">
<path d="M336 988C336 976.954 344.954 968 356 968C367.046 968 376 976.954 376 988C376 999.046 367.046 1008 356 1008C344.954 1008 336 999.046 336 988Z" fill="#EAEAEA"/>
<path d="M336 988C336 976.954 344.954 968 356 968C367.046 968 376 976.954 376 988C376 999.046 367.046 1008 356 1008C344.954 1008 336 999.046 336 988Z" fill="#FF7043" fill-opacity="0.12"/>
<path d="M365.291 980.612C364.781 980.101 364.174 979.695 363.507 979.419C362.839 979.142 362.124 979 361.401 979C360.679 979 359.963 979.142 359.296 979.419C358.628 979.695 358.022 980.101 357.511 980.612L356.451 981.672L355.391 980.612C354.36 979.58 352.96 979.001 351.501 979.001C350.042 979.001 348.643 979.58 347.611 980.612C346.58 981.644 346 983.043 346 984.502C346 985.961 346.58 987.36 347.611 988.392L348.671 989.452L356.451 997.232L364.231 989.452L365.291 988.392C365.802 987.881 366.208 987.275 366.484 986.607C366.761 985.94 366.903 985.224 366.903 984.502C366.903 983.779 366.761 983.064 366.484 982.396C366.208 981.729 365.802 981.123 365.291 980.612Z" stroke="#FF7043" stroke-width="1.5" stroke-linecap="round" stroke-linejoin="round"/>
</g>
<g clip-path="url(#clip7_159_1551)">
<path d="M336 1164C336 1152.95 344.954 1144 356 1144C367.046 1144 376 1152.95 376 1164C376 1175.05 367.046 1184 356 1184C344.954 1184 336 1175.05 336 1164Z" fill="#EAEAEA"/>
<path d="M336 1164C336 1152.95 344.954 1144 356 1144C367.046 1144 376 1152.95 376 1164C376 1175.05 367.046 1184 356 1184C344.954 1184 336 1175.05 336 1164Z" fill="#434343" fill-opacity="0.12"/>
<path d="M365.291 1156.61C364.781 1156.1 364.174 1155.7 363.507 1155.42C362.839 1155.14 362.124 1155 361.401 1155C360.679 1155 359.963 1155.14 359.296 1155.42C358.628 1155.7 358.022 1156.1 357.511 1156.61L356.451 1157.67L355.391 1156.61C354.36 1155.58 352.96 1155 351.501 1155C350.042 1155 348.643 1155.58 347.611 1156.61C346.58 1157.64 346 1159.04 346 1160.5C346 1161.96 346.58 1163.36 347.611 1164.39L348.671 1165.45L356.451 1173.23L364.231 1165.45L365.291 1164.39C365.802 1163.88 366.208 1163.27 366.484 1162.61C366.761 1161.94 366.903 1161.22 366.903 1160.5C366.903 1159.78 366.761 1159.06 366.484 1158.4C366.208 1157.73 365.802 1157.12 365.291 1156.61Z" stroke="#434343" stroke-width="1.5" stroke-linecap="round" stroke-linejoin="round"/>
</g>
<g clip-path="url(#clip8_159_1551)">
<path d="M432 1164C432 1152.95 440.954 1144 452 1144C463.046 1144 472 1152.95 472 1164C472 1175.05 463.046 1184 452 1184C440.954 1184 432 1175.05 432 1164Z" fill="#EAEAEA"/>
<path d="M432 1164C432 1152.95 440.954 1144 452 1144C463.046 1144 472 1152.95 472 1164C472 1175.05 463.046 1184 452 1184C440.954 1184 432 1175.05 432 1164Z" fill="#434343" fill-opacity="0.12"/>
<path d="M461.291 1156.61C460.781 1156.1 460.174 1155.7 459.507 1155.42C458.839 1155.14 458.124 1155 457.401 1155C456.679 1155 455.963 1155.14 455.296 1155.42C454.628 1155.7 454.022 1156.1 453.511 1156.61L452.451 1157.67L451.391 1156.61C450.36 1155.58 448.96 1155 447.501 1155C446.042 1155 444.643 1155.58 443.611 1156.61C442.58 1157.64 442 1159.04 442 1160.5C442 1161.96 442.58 1163.36 443.611 1164.39L444.671 1165.45L452.451 1173.23L460.231 1165.45L461.291 1164.39C461.802 1163.88 462.208 1163.27 462.484 1162.61C462.761 1161.94 462.903 1161.22 462.903 1160.5C462.903 1159.78 462.761 1159.06 462.484 1158.4C462.208 1157.73 461.802 1157.12 461.291 1156.61Z" stroke="#434343" stroke-width="1.5" stroke-linecap="round" stroke-linejoin="round"/>
</g>
<g clip-path="url(#clip9_159_1551)">
<path d="M432 988C432 976.954 440.954 968 452 968C463.046 968 472 976.954 472 988C472 999.046 463.046 1008 452 1008C440.954 1008 432 999.046 432 988Z" fill="#EAEAEA"/>
<path d="M432 988C432 976.954 440.954 968 452 968C463.046 968 472 976.954 472 988C472 999.046 463.046 1008 452 1008C440.954 1008 432 999.046 432 988Z" fill="#FF7043" fill-opacity="0.12"/>
<path d="M461.291 980.612C460.781 980.101 460.174 979.695 459.507 979.419C458.839 979.142 458.124 979 457.401 979C456.679 979 455.963 979.142 455.296 979.419C454.628 979.695 454.022 980.101 453.511 980.612L452.451 981.672L451.391 980.612C450.36 979.58 448.96 979.001 447.501 979.001C446.042 979.001 444.643 979.58 443.611 980.612C442.58 981.644 442 983.043 442 984.502C442 985.961 442.58 987.36 443.611 988.392L444.671 989.452L452.451 997.232L460.231 989.452L461.291 988.392C461.802 987.881 462.208 987.275 462.484 986.607C462.761 985.94 462.903 985.224 462.903 984.502C462.903 983.779 462.761 983.064 462.484 982.396C462.208 981.729 461.802 981.123 461.291 980.612Z" stroke="#FF7043" stroke-width="1.5" stroke-linecap="round" stroke-linejoin="round"/>
</g>
<g opacity="0.38">
<path d="M557.291 804.612C556.781 804.101 556.174 803.695 555.507 803.419C554.839 803.142 554.124 803 553.401 803C552.679 803 551.963 803.142 551.296 803.419C550.628 803.695 550.022 804.101 549.511 804.612L548.451 805.672L547.391 804.612C546.36 803.58 544.96 803.001 543.501 803.001C542.042 803.001 540.643 803.58 539.611 804.612C538.58 805.644 538 807.043 538 808.502C538 809.961 538.58 811.36 539.611 812.392L540.671 813.452L548.451 821.232L556.231 813.452L557.291 812.392C557.802 811.881 558.208 811.275 558.484 810.607C558.761 809.94 558.903 809.224 558.903 808.502C558.903 807.779 558.761 807.064 558.484 806.396C558.208 805.729 557.802 805.123 557.291 804.612Z" stroke="#282828" stroke-width="1.5" stroke-linecap="round" stroke-linejoin="round"/>
</g>
<path d="M548 1320.5C558.77 1320.5 567.5 1329.23 567.5 1340C567.5 1350.77 558.77 1359.5 548 1359.5C537.23 1359.5 528.5 1350.77 528.5 1340C528.5 1329.23 537.23 1320.5 548 1320.5Z" stroke="#282828" stroke-opacity="0.12"/>
<g opacity="0.38">
<path d="M557.291 1332.61C556.781 1332.1 556.174 1331.7 555.507 1331.42C554.839 1331.14 554.124 1331 553.401 1331C552.679 1331 551.963 1331.14 551.296 1331.42C550.628 1331.7 550.022 1332.1 549.511 1332.61L548.451 1333.67L547.391 1332.61C546.36 1331.58 544.96 1331 543.501 1331C542.042 1331 540.643 1331.58 539.611 1332.61C538.58 1333.64 538 1335.04 538 1336.5C538 1337.96 538.58 1339.36 539.611 1340.39L540.671 1341.45L548.451 1349.23L556.231 1341.45L557.291 1340.39C557.802 1339.88 558.208 1339.27 558.484 1338.61C558.761 1337.94 558.903 1337.22 558.903 1336.5C558.903 1335.78 558.761 1335.06 558.484 1334.4C558.208 1333.73 557.802 1333.12 557.291 1332.61Z" stroke="#282828" stroke-width="1.5" stroke-linecap="round" stroke-linejoin="round"/>
</g>
<g clip-path="url(#clip10_159_1551)">
<path d="M269.291 804.612C268.781 804.101 268.174 803.695 267.507 803.419C266.839 803.142 266.124 803 265.401 803C264.679 803 263.963 803.142 263.296 803.419C262.628 803.695 262.022 804.101 261.511 804.612L260.451 805.672L259.391 804.612C258.36 803.58 256.96 803.001 255.501 803.001C254.042 803.001 252.643 803.58 251.611 804.612C250.58 805.644 250 807.043 250 808.502C250 809.961 250.58 811.36 251.611 812.392L252.671 813.452L260.451 821.232L268.231 813.452L269.291 812.392C269.802 811.881 270.208 811.275 270.484 810.607C270.761 809.94 270.903 809.224 270.903 808.502C270.903 807.779 270.761 807.064 270.484 806.396C270.208 805.729 269.802 805.123 269.291 804.612Z" stroke="#434343" stroke-width="1.5" stroke-linecap="round" stroke-linejoin="round"/>
</g>
<g clip-path="url(#clip11_159_1551)">
<path d="M240 1340C240 1328.95 248.954 1320 260 1320C271.046 1320 280 1328.95 280 1340C280 1351.05 271.046 1360 260 1360C248.954 1360 240 1351.05 240 1340Z" fill="#434343" fill-opacity="0.08"/>
<path d="M269.291 1332.61C268.781 1332.1 268.174 1331.7 267.507 1331.42C266.839 1331.14 266.124 1331 265.401 1331C264.679 1331 263.963 1331.14 263.296 1331.42C262.628 1331.7 262.022 1332.1 261.511 1332.61L260.451 1333.67L259.391 1332.61C258.36 1331.58 256.96 1331 255.501 1331C254.042 1331 252.643 1331.58 251.611 1332.61C250.58 1333.64 250 1335.04 250 1336.5C250 1337.96 250.58 1339.36 251.611 1340.39L252.671 1341.45L260.451 1349.23L268.231 1341.45L269.291 1340.39C269.802 1339.88 270.208 1339.27 270.484 1338.61C270.761 1337.94 270.903 1337.22 270.903 1336.5C270.903 1335.78 270.761 1335.06 270.484 1334.4C270.208 1333.73 269.802 1333.12 269.291 1332.61Z" stroke="#434343" stroke-width="1.5" stroke-linecap="round" stroke-linejoin="round"/>
</g>
<path d="M260 1320.5C270.77 1320.5 279.5 1329.23 279.5 1340C279.5 1350.77 270.77 1359.5 260 1359.5C249.23 1359.5 240.5 1350.77 240.5 1340C240.5 1329.23 249.23 1320.5 260 1320.5Z" stroke="#797979"/>
<g clip-path="url(#clip12_159_1551)">
<path d="M336 1340C336 1328.95 344.954 1320 356 1320C367.046 1320 376 1328.95 376 1340C376 1351.05 367.046 1360 356 1360C344.954 1360 336 1351.05 336 1340Z" fill="#434343" fill-opacity="0.12"/>
<path d="M365.291 1332.61C364.781 1332.1 364.174 1331.7 363.507 1331.42C362.839 1331.14 362.124 1331 361.401 1331C360.679 1331 359.963 1331.14 359.296 1331.42C358.628 1331.7 358.022 1332.1 357.511 1332.61L356.451 1333.67L355.391 1332.61C354.36 1331.58 352.96 1331 351.501 1331C350.042 1331 348.643 1331.58 347.611 1332.61C346.58 1333.64 346 1335.04 346 1336.5C346 1337.96 346.58 1339.36 347.611 1340.39L348.671 1341.45L356.451 1349.23L364.231 1341.45L365.291 1340.39C365.802 1339.88 366.208 1339.27 366.484 1338.61C366.761 1337.94 366.903 1337.22 366.903 1336.5C366.903 1335.78 366.761 1335.06 366.484 1334.4C366.208 1333.73 365.802 1333.12 365.291 1332.61Z" stroke="#434343" stroke-width="1.5" stroke-linecap="round" stroke-linejoin="round"/>
</g>
<path d="M356 1320.5C366.77 1320.5 375.5 1329.23 375.5 1340C375.5 1350.77 366.77 1359.5 356 1359.5C345.23 1359.5 336.5 1350.77 336.5 1340C336.5 1329.23 345.23 1320.5 356 1320.5Z" stroke="#797979"/>
<g clip-path="url(#clip13_159_1551)">
<path d="M432 1340C432 1328.95 440.954 1320 452 1320C463.046 1320 472 1328.95 472 1340C472 1351.05 463.046 1360 452 1360C440.954 1360 432 1351.05 432 1340Z" fill="#434343" fill-opacity="0.12"/>
<path d="M461.291 1332.61C460.781 1332.1 460.174 1331.7 459.507 1331.42C458.839 1331.14 458.124 1331 457.401 1331C456.679 1331 455.963 1331.14 455.296 1331.42C454.628 1331.7 454.022 1332.1 453.511 1332.61L452.451 1333.67L451.391 1332.61C450.36 1331.58 448.96 1331 447.501 1331C446.042 1331 444.643 1331.58 443.611 1332.61C442.58 1333.64 442 1335.04 442 1336.5C442 1337.96 442.58 1339.36 443.611 1340.39L444.671 1341.45L452.451 1349.23L460.231 1341.45L461.291 1340.39C461.802 1339.88 462.208 1339.27 462.484 1338.61C462.761 1337.94 462.903 1337.22 462.903 1336.5C462.903 1335.78 462.761 1335.06 462.484 1334.4C462.208 1333.73 461.802 1333.12 461.291 1332.61Z" stroke="#434343" stroke-width="1.5" stroke-linecap="round" stroke-linejoin="round"/>
</g>
<path d="M452 1320.5C462.77 1320.5 471.5 1329.23 471.5 1340C471.5 1350.77 462.77 1359.5 452 1359.5C441.23 1359.5 432.5 1350.77 432.5 1340C432.5 1329.23 441.23 1320.5 452 1320.5Z" stroke="#797979"/>
<g clip-path="url(#clip14_159_1551)">
<path d="M336 812C336 800.954 344.954 792 356 792C367.046 792 376 800.954 376 812C376 823.046 367.046 832 356 832C344.954 832 336 823.046 336 812Z" fill="#434343" fill-opacity="0.12"/>
<path d="M365.291 804.612C364.781 804.101 364.174 803.695 363.507 803.419C362.839 803.142 362.124 803 361.401 803C360.679 803 359.963 803.142 359.296 803.419C358.628 803.695 358.022 804.101 357.511 804.612L356.451 805.672L355.391 804.612C354.36 803.58 352.96 803.001 351.501 803.001C350.042 803.001 348.643 803.58 347.611 804.612C346.58 805.644 346 807.043 346 808.502C346 809.961 346.58 811.36 347.611 812.392L348.671 813.452L356.451 821.232L364.231 813.452L365.291 812.392C365.802 811.881 366.208 811.275 366.484 810.607C366.761 809.94 366.903 809.224 366.903 808.502C366.903 807.779 366.761 807.064 366.484 806.396C366.208 805.729 365.802 805.123 365.291 804.612Z" stroke="#434343" stroke-width="1.5" stroke-linecap="round" stroke-linejoin="round"/>
</g>
<g clip-path="url(#clip15_159_1551)">
<path d="M432 812C432 800.954 440.954 792 452 792C463.046 792 472 800.954 472 812C472 823.046 463.046 832 452 832C440.954 832 432 823.046 432 812Z" fill="#434343" fill-opacity="0.12"/>
<path d="M461.291 804.612C460.781 804.101 460.174 803.695 459.507 803.419C458.839 803.142 458.124 803 457.401 803C456.679 803 455.963 803.142 455.296 803.419C454.628 803.695 454.022 804.101 453.511 804.612L452.451 805.672L451.391 804.612C450.36 803.58 448.96 803.001 447.501 803.001C446.042 803.001 444.643 803.58 443.611 804.612C442.58 805.644 442 807.043 442 808.502C442 809.961 442.58 811.36 443.611 812.392L444.671 813.452L452.451 821.232L460.231 813.452L461.291 812.392C461.802 811.881 462.208 811.275 462.484 810.607C462.761 809.94 462.903 809.224 462.903 808.502C462.903 807.779 462.761 807.064 462.484 806.396C462.208 805.729 461.802 805.123 461.291 804.612Z" stroke="#434343" stroke-width="1.5" stroke-linecap="round" stroke-linejoin="round"/>
</g>
<path d="M173.291 868.612C172.781 868.101 172.174 867.695 171.507 867.419C170.839 867.142 170.124 867 169.401 867C168.679 867 167.963 867.142 167.296 867.419C166.628 867.695 166.022 868.101 165.511 868.612L164.451 869.672L163.391 868.612C162.36 867.58 160.96 867.001 159.501 867.001C158.042 867.001 156.643 867.58 155.611 868.612C154.58 869.644 154 871.043 154 872.502C154 873.961 154.58 875.36 155.611 876.392L156.671 877.452L164.451 885.232L172.231 877.452L173.291 876.392C173.802 875.881 174.208 875.275 174.484 874.607C174.761 873.94 174.903 873.224 174.903 872.502C174.903 871.779 174.761 871.064 174.484 870.396C174.208 869.729 173.802 869.123 173.291 868.612Z" fill="#FF7043" stroke="#FF7043" stroke-width="1.5" stroke-linecap="round" stroke-linejoin="round"/>
<path d="M144 1404C144 1392.95 152.954 1384 164 1384C175.046 1384 184 1392.95 184 1404C184 1415.05 175.046 1424 164 1424C152.954 1424 144 1415.05 144 1404Z" fill="#2C2C2C"/>
<path d="M173.291 1396.61C172.781 1396.1 172.174 1395.7 171.507 1395.42C170.839 1395.14 170.124 1395 169.401 1395C168.679 1395 167.963 1395.14 167.296 1395.42C166.628 1395.7 166.022 1396.1 165.511 1396.61L164.451 1397.67L163.391 1396.61C162.36 1395.58 160.96 1395 159.501 1395C158.042 1395 156.643 1395.58 155.611 1396.61C154.58 1397.64 154 1399.04 154 1400.5C154 1401.96 154.58 1403.36 155.611 1404.39L156.671 1405.45L164.451 1413.23L172.231 1405.45L173.291 1404.39C173.802 1403.88 174.208 1403.27 174.484 1402.61C174.761 1401.94 174.903 1401.22 174.903 1400.5C174.903 1399.78 174.761 1399.06 174.484 1398.4C174.208 1397.73 173.802 1397.12 173.291 1396.61Z" fill="#FAFAFA" stroke="#FAFAFA" stroke-width="1.5" stroke-linecap="round" stroke-linejoin="round"/>
<path d="M240 1404C240 1392.95 248.954 1384 260 1384C271.046 1384 280 1392.95 280 1404C280 1415.05 271.046 1424 260 1424C248.954 1424 240 1415.05 240 1404Z" fill="#2C2C2C"/>
<path d="M240 1404C240 1392.95 248.954 1384 260 1384C271.046 1384 280 1392.95 280 1404C280 1415.05 271.046 1424 260 1424C248.954 1424 240 1415.05 240 1404Z" fill="#FAFAFA" fill-opacity="0.08"/>
<path d="M269.291 1396.61C268.781 1396.1 268.174 1395.7 267.507 1395.42C266.839 1395.14 266.124 1395 265.401 1395C264.679 1395 263.963 1395.14 263.296 1395.42C262.628 1395.7 262.022 1396.1 261.511 1396.61L260.451 1397.67L259.391 1396.61C258.36 1395.58 256.96 1395 255.501 1395C254.042 1395 252.643 1395.58 251.611 1396.61C250.58 1397.64 250 1399.04 250 1400.5C250 1401.96 250.58 1403.36 251.611 1404.39L252.671 1405.45L260.451 1413.23L268.231 1405.45L269.291 1404.39C269.802 1403.88 270.208 1403.27 270.484 1402.61C270.761 1401.94 270.903 1401.22 270.903 1400.5C270.903 1399.78 270.761 1399.06 270.484 1398.4C270.208 1397.73 269.802 1397.12 269.291 1396.61Z" fill="#FAFAFA" stroke="#FAFAFA" stroke-width="1.5" stroke-linecap="round" stroke-linejoin="round"/>
<path d="M336 1404C336 1392.95 344.954 1384 356 1384C367.046 1384 376 1392.95 376 1404C376 1415.05 367.046 1424 356 1424C344.954 1424 336 1415.05 336 1404Z" fill="#2C2C2C"/>
<path d="M336 1404C336 1392.95 344.954 1384 356 1384C367.046 1384 376 1392.95 376 1404C376 1415.05 367.046 1424 356 1424C344.954 1424 336 1415.05 336 1404Z" fill="#FAFAFA" fill-opacity="0.12"/>
<path d="M365.291 1396.61C364.781 1396.1 364.174 1395.7 363.507 1395.42C362.839 1395.14 362.124 1395 361.401 1395C360.679 1395 359.963 1395.14 359.296 1395.42C358.628 1395.7 358.022 1396.1 357.511 1396.61L356.451 1397.67L355.391 1396.61C354.36 1395.58 352.96 1395 351.501 1395C350.042 1395 348.643 1395.58 347.611 1396.61C346.58 1397.64 346 1399.04 346 1400.5C346 1401.96 346.58 1403.36 347.611 1404.39L348.671 1405.45L356.451 1413.23L364.231 1405.45L365.291 1404.39C365.802 1403.88 366.208 1403.27 366.484 1402.61C366.761 1401.94 366.903 1401.22 366.903 1400.5C366.903 1399.78 366.761 1399.06 366.484 1398.4C366.208 1397.73 365.802 1397.12 365.291 1396.61Z" fill="#FAFAFA" stroke="#FAFAFA" stroke-width="1.5" stroke-linecap="round" stroke-linejoin="round"/>
<path d="M432 1404C432 1392.95 440.954 1384 452 1384C463.046 1384 472 1392.95 472 1404C472 1415.05 463.046 1424 452 1424C440.954 1424 432 1415.05 432 1404Z" fill="#2C2C2C"/>
<path d="M432 1404C432 1392.95 440.954 1384 452 1384C463.046 1384 472 1392.95 472 1404C472 1415.05 463.046 1424 452 1424C440.954 1424 432 1415.05 432 1404Z" fill="#FAFAFA" fill-opacity="0.12"/>
<path d="M461.291 1396.61C460.781 1396.1 460.174 1395.7 459.507 1395.42C458.839 1395.14 458.124 1395 457.401 1395C456.679 1395 455.963 1395.14 455.296 1395.42C454.628 1395.7 454.022 1396.1 453.511 1396.61L452.451 1397.67L451.391 1396.61C450.36 1395.58 448.96 1395 447.501 1395C446.042 1395 444.643 1395.58 443.611 1396.61C442.58 1397.64 442 1399.04 442 1400.5C442 1401.96 442.58 1403.36 443.611 1404.39L444.671 1405.45L452.451 1413.23L460.231 1405.45L461.291 1404.39C461.802 1403.88 462.208 1403.27 462.484 1402.61C462.761 1401.94 462.903 1401.22 462.903 1400.5C462.903 1399.78 462.761 1399.06 462.484 1398.4C462.208 1397.73 461.802 1397.12 461.291 1396.61Z" fill="#FAFAFA" stroke="#FAFAFA" stroke-width="1.5" stroke-linecap="round" stroke-linejoin="round"/>
<path d="M144 1052C144 1040.95 152.954 1032 164 1032C175.046 1032 184 1040.95 184 1052C184 1063.05 175.046 1072 164 1072C152.954 1072 144 1063.05 144 1052Z" fill="#FF7043"/>
<path d="M173.291 1044.61C172.781 1044.1 172.174 1043.7 171.507 1043.42C170.839 1043.14 170.124 1043 169.401 1043C168.679 1043 167.963 1043.14 167.296 1043.42C166.628 1043.7 166.022 1044.1 165.511 1044.61L164.451 1045.67L163.391 1044.61C162.36 1043.58 160.96 1043 159.501 1043C158.042 1043 156.643 1043.58 155.611 1044.61C154.58 1045.64 154 1047.04 154 1048.5C154 1049.96 154.58 1051.36 155.611 1052.39L156.671 1053.45L164.451 1061.23L172.231 1053.45L173.291 1052.39C173.802 1051.88 174.208 1051.27 174.484 1050.61C174.761 1049.94 174.903 1049.22 174.903 1048.5C174.903 1047.78 174.761 1047.06 174.484 1046.4C174.208 1045.73 173.802 1045.12 173.291 1044.61Z" fill="white" stroke="white" stroke-width="1.5" stroke-linecap="round" stroke-linejoin="round"/>
<path d="M144 1228C144 1216.95 152.954 1208 164 1208C175.046 1208 184 1216.95 184 1228C184 1239.05 175.046 1248 164 1248C152.954 1248 144 1239.05 144 1228Z" fill="#FFF3CA"/>
<path d="M173.291 1220.61C172.781 1220.1 172.174 1219.7 171.507 1219.42C170.839 1219.14 170.124 1219 169.401 1219C168.679 1219 167.963 1219.14 167.296 1219.42C166.628 1219.7 166.022 1220.1 165.511 1220.61L164.451 1221.67L163.391 1220.61C162.36 1219.58 160.96 1219 159.501 1219C158.042 1219 156.643 1219.58 155.611 1220.61C154.58 1221.64 154 1223.04 154 1224.5C154 1225.96 154.58 1227.36 155.611 1228.39L156.671 1229.45L164.451 1237.23L172.231 1229.45L173.291 1228.39C173.802 1227.88 174.208 1227.27 174.484 1226.61C174.761 1225.94 174.903 1225.22 174.903 1224.5C174.903 1223.78 174.761 1223.06 174.484 1222.4C174.208 1221.73 173.802 1221.12 173.291 1220.61Z" fill="#332B10" stroke="#332B10" stroke-width="1.5" stroke-linecap="round" stroke-linejoin="round"/>
<path d="M528 1052C528 1040.95 536.954 1032 548 1032C559.046 1032 568 1040.95 568 1052C568 1063.05 559.046 1072 548 1072C536.954 1072 528 1063.05 528 1052Z" fill="#282828" fill-opacity="0.12"/>
<g opacity="0.38">
<path d="M557.291 1044.61C556.781 1044.1 556.174 1043.7 555.507 1043.42C554.839 1043.14 554.124 1043 553.401 1043C552.679 1043 551.963 1043.14 551.296 1043.42C550.628 1043.7 550.022 1044.1 549.511 1044.61L548.451 1045.67L547.391 1044.61C546.36 1043.58 544.96 1043 543.501 1043C542.042 1043 540.643 1043.58 539.611 1044.61C538.58 1045.64 538 1047.04 538 1048.5C538 1049.96 538.58 1051.36 539.611 1052.39L540.671 1053.45L548.451 1061.23L556.231 1053.45L557.291 1052.39C557.802 1051.88 558.208 1051.27 558.484 1050.61C558.761 1049.94 558.903 1049.22 558.903 1048.5C558.903 1047.78 558.761 1047.06 558.484 1046.4C558.208 1045.73 557.802 1045.12 557.291 1044.61Z" fill="#282828" stroke="#282828" stroke-width="1.5" stroke-linecap="round" stroke-linejoin="round"/>
</g>
<path d="M528 1228C528 1216.95 536.954 1208 548 1208C559.046 1208 568 1216.95 568 1228C568 1239.05 559.046 1248 548 1248C536.954 1248 528 1239.05 528 1228Z" fill="#282828" fill-opacity="0.12"/>
<g opacity="0.38">
<path d="M557.291 1220.61C556.781 1220.1 556.174 1219.7 555.507 1219.42C554.839 1219.14 554.124 1219 553.401 1219C552.679 1219 551.963 1219.14 551.296 1219.42C550.628 1219.7 550.022 1220.1 549.511 1220.61L548.451 1221.67L547.391 1220.61C546.36 1219.58 544.96 1219 543.501 1219C542.042 1219 540.643 1219.58 539.611 1220.61C538.58 1221.64 538 1223.04 538 1224.5C538 1225.96 538.58 1227.36 539.611 1228.39L540.671 1229.45L548.451 1237.23L556.231 1229.45L557.291 1228.39C557.802 1227.88 558.208 1227.27 558.484 1226.61C558.761 1225.94 558.903 1225.22 558.903 1224.5C558.903 1223.78 558.761 1223.06 558.484 1222.4C558.208 1221.73 557.802 1221.12 557.291 1220.61Z" fill="#282828" stroke="#282828" stroke-width="1.5" stroke-linecap="round" stroke-linejoin="round"/>
</g>
<path d="M528 1404C528 1392.95 536.954 1384 548 1384C559.046 1384 568 1392.95 568 1404C568 1415.05 559.046 1424 548 1424C536.954 1424 528 1415.05 528 1404Z" fill="#282828" fill-opacity="0.12"/>
<g opacity="0.38">
<path d="M557.291 1396.61C556.781 1396.1 556.174 1395.7 555.507 1395.42C554.839 1395.14 554.124 1395 553.401 1395C552.679 1395 551.963 1395.14 551.296 1395.42C550.628 1395.7 550.022 1396.1 549.511 1396.61L548.451 1397.67L547.391 1396.61C546.36 1395.58 544.96 1395 543.501 1395C542.042 1395 540.643 1395.58 539.611 1396.61C538.58 1397.64 538 1399.04 538 1400.5C538 1401.96 538.58 1403.36 539.611 1404.39L540.671 1405.45L548.451 1413.23L556.231 1405.45L557.291 1404.39C557.802 1403.88 558.208 1403.27 558.484 1402.61C558.761 1401.94 558.903 1401.22 558.903 1400.5C558.903 1399.78 558.761 1399.06 558.484 1398.4C558.208 1397.73 557.802 1397.12 557.291 1396.61Z" fill="#282828" stroke="#282828" stroke-width="1.5" stroke-linecap="round" stroke-linejoin="round"/>
</g>
<g opacity="0.38">
<path d="M557.291 868.612C556.781 868.101 556.174 867.695 555.507 867.419C554.839 867.142 554.124 867 553.401 867C552.679 867 551.963 867.142 551.296 867.419C550.628 867.695 550.022 868.101 549.511 868.612L548.451 869.672L547.391 868.612C546.36 867.58 544.96 867.001 543.501 867.001C542.042 867.001 540.643 867.58 539.611 868.612C538.58 869.644 538 871.043 538 872.502C538 873.961 538.58 875.36 539.611 876.392L540.671 877.452L548.451 885.232L556.231 877.452L557.291 876.392C557.802 875.881 558.208 875.275 558.484 874.607C558.761 873.94 558.903 873.224 558.903 872.502C558.903 871.779 558.761 871.064 558.484 870.396C558.208 869.729 557.802 869.123 557.291 868.612Z" fill="#282828" stroke="#282828" stroke-width="1.5" stroke-linecap="round" stroke-linejoin="round"/>
</g>
<g clip-path="url(#clip16_159_1551)">
<path d="M240 876C240 864.954 248.954 856 260 856C271.046 856 280 864.954 280 876C280 887.046 271.046 896 260 896C248.954 896 240 887.046 240 876Z" fill="#FF7043" fill-opacity="0.08"/>
<path d="M269.291 868.612C268.781 868.101 268.174 867.695 267.507 867.419C266.839 867.142 266.124 867 265.401 867C264.679 867 263.963 867.142 263.296 867.419C262.628 867.695 262.022 868.101 261.511 868.612L260.451 869.672L259.391 868.612C258.36 867.58 256.96 867.001 255.501 867.001C254.042 867.001 252.643 867.58 251.611 868.612C250.58 869.644 250 871.043 250 872.502C250 873.961 250.58 875.36 251.611 876.392L252.671 877.452L260.451 885.232L268.231 877.452L269.291 876.392C269.802 875.881 270.208 875.275 270.484 874.607C270.761 873.94 270.903 873.224 270.903 872.502C270.903 871.779 270.761 871.064 270.484 870.396C270.208 869.729 269.802 869.123 269.291 868.612Z" fill="#FF7043" stroke="#FF7043" stroke-width="1.5" stroke-linecap="round" stroke-linejoin="round"/>
</g>
<g clip-path="url(#clip17_159_1551)">
<path d="M240 1052C240 1040.95 248.954 1032 260 1032C271.046 1032 280 1040.95 280 1052C280 1063.05 271.046 1072 260 1072C248.954 1072 240 1063.05 240 1052Z" fill="#FF7043"/>
<path d="M240 1052C240 1040.95 248.954 1032 260 1032C271.046 1032 280 1040.95 280 1052C280 1063.05 271.046 1072 260 1072C248.954 1072 240 1063.05 240 1052Z" fill="white" fill-opacity="0.08"/>
<path d="M269.291 1044.61C268.781 1044.1 268.174 1043.7 267.507 1043.42C266.839 1043.14 266.124 1043 265.401 1043C264.679 1043 263.963 1043.14 263.296 1043.42C262.628 1043.7 262.022 1044.1 261.511 1044.61L260.451 1045.67L259.391 1044.61C258.36 1043.58 256.96 1043 255.501 1043C254.042 1043 252.643 1043.58 251.611 1044.61C250.58 1045.64 250 1047.04 250 1048.5C250 1049.96 250.58 1051.36 251.611 1052.39L252.671 1053.45L260.451 1061.23L268.231 1053.45L269.291 1052.39C269.802 1051.88 270.208 1051.27 270.484 1050.61C270.761 1049.94 270.903 1049.22 270.903 1048.5C270.903 1047.78 270.761 1047.06 270.484 1046.4C270.208 1045.73 269.802 1045.12 269.291 1044.61Z" fill="white" stroke="white" stroke-width="1.5" stroke-linecap="round" stroke-linejoin="round"/>
</g>
<g clip-path="url(#clip18_159_1551)">
<path d="M240 1228C240 1216.95 248.954 1208 260 1208C271.046 1208 280 1216.95 280 1228C280 1239.05 271.046 1248 260 1248C248.954 1248 240 1239.05 240 1228Z" fill="#FFF3CA"/>
<path d="M240 1228C240 1216.95 248.954 1208 260 1208C271.046 1208 280 1216.95 280 1228C280 1239.05 271.046 1248 260 1248C248.954 1248 240 1239.05 240 1228Z" fill="#332B10" fill-opacity="0.08"/>
<path d="M269.291 1220.61C268.781 1220.1 268.174 1219.7 267.507 1219.42C266.839 1219.14 266.124 1219 265.401 1219C264.679 1219 263.963 1219.14 263.296 1219.42C262.628 1219.7 262.022 1220.1 261.511 1220.61L260.451 1221.67L259.391 1220.61C258.36 1219.58 256.96 1219 255.501 1219C254.042 1219 252.643 1219.58 251.611 1220.61C250.58 1221.64 250 1223.04 250 1224.5C250 1225.96 250.58 1227.36 251.611 1228.39L252.671 1229.45L260.451 1237.23L268.231 1229.45L269.291 1228.39C269.802 1227.88 270.208 1227.27 270.484 1226.61C270.761 1225.94 270.903 1225.22 270.903 1224.5C270.903 1223.78 270.761 1223.06 270.484 1222.4C270.208 1221.73 269.802 1221.12 269.291 1220.61Z" fill="#141414" stroke="#141414" stroke-width="1.5" stroke-linecap="round" stroke-linejoin="round"/>
</g>
<g clip-path="url(#clip19_159_1551)">
<path d="M336 1228C336 1216.95 344.954 1208 356 1208C367.046 1208 376 1216.95 376 1228C376 1239.05 367.046 1248 356 1248C344.954 1248 336 1239.05 336 1228Z" fill="#FFF3CA"/>
<path d="M336 1228C336 1216.95 344.954 1208 356 1208C367.046 1208 376 1216.95 376 1228C376 1239.05 367.046 1248 356 1248C344.954 1248 336 1239.05 336 1228Z" fill="#332B10" fill-opacity="0.12"/>
<path d="M365.291 1220.61C364.781 1220.1 364.174 1219.7 363.507 1219.42C362.839 1219.14 362.124 1219 361.401 1219C360.679 1219 359.963 1219.14 359.296 1219.42C358.628 1219.7 358.022 1220.1 357.511 1220.61L356.451 1221.67L355.391 1220.61C354.36 1219.58 352.96 1219 351.501 1219C350.042 1219 348.643 1219.58 347.611 1220.61C346.58 1221.64 346 1223.04 346 1224.5C346 1225.96 346.58 1227.36 347.611 1228.39L348.671 1229.45L356.451 1237.23L364.231 1229.45L365.291 1228.39C365.802 1227.88 366.208 1227.27 366.484 1226.61C366.761 1225.94 366.903 1225.22 366.903 1224.5C366.903 1223.78 366.761 1223.06 366.484 1222.4C366.208 1221.73 365.802 1221.12 365.291 1220.61Z" fill="#141414" stroke="#141414" stroke-width="1.5" stroke-linecap="round" stroke-linejoin="round"/>
</g>
<g clip-path="url(#clip20_159_1551)">
<path d="M432 1228C432 1216.95 440.954 1208 452 1208C463.046 1208 472 1216.95 472 1228C472 1239.05 463.046 1248 452 1248C440.954 1248 432 1239.05 432 1228Z" fill="#FFF3CA"/>
<path d="M432 1228C432 1216.95 440.954 1208 452 1208C463.046 1208 472 1216.95 472 1228C472 1239.05 463.046 1248 452 1248C440.954 1248 432 1239.05 432 1228Z" fill="#332B10" fill-opacity="0.12"/>
<path d="M461.291 1220.61C460.781 1220.1 460.174 1219.7 459.507 1219.42C458.839 1219.14 458.124 1219 457.401 1219C456.679 1219 455.963 1219.14 455.296 1219.42C454.628 1219.7 454.022 1220.1 453.511 1220.61L452.451 1221.67L451.391 1220.61C450.36 1219.58 448.96 1219 447.501 1219C446.042 1219 444.643 1219.58 443.611 1220.61C442.58 1221.64 442 1223.04 442 1224.5C442 1225.96 442.58 1227.36 443.611 1228.39L444.671 1229.45L452.451 1237.23L460.231 1229.45L461.291 1228.39C461.802 1227.88 462.208 1227.27 462.484 1226.61C462.761 1225.94 462.903 1225.22 462.903 1224.5C462.903 1223.78 462.761 1223.06 462.484 1222.4C462.208 1221.73 461.802 1221.12 461.291 1220.61Z" fill="#141414" stroke="#141414" stroke-width="1.5" stroke-linecap="round" stroke-linejoin="round"/>
</g>
<g clip-path="url(#clip21_159_1551)">
<path d="M336 1052C336 1040.95 344.954 1032 356 1032C367.046 1032 376 1040.95 376 1052C376 1063.05 367.046 1072 356 1072C344.954 1072 336 1063.05 336 1052Z" fill="#FF7043"/>
<path d="M336 1052C336 1040.95 344.954 1032 356 1032C367.046 1032 376 1040.95 376 1052C376 1063.05 367.046 1072 356 1072C344.954 1072 336 1063.05 336 1052Z" fill="white" fill-opacity="0.12"/>
<path d="M365.291 1044.61C364.781 1044.1 364.174 1043.7 363.507 1043.42C362.839 1043.14 362.124 1043 361.401 1043C360.679 1043 359.963 1043.14 359.296 1043.42C358.628 1043.7 358.022 1044.1 357.511 1044.61L356.451 1045.67L355.391 1044.61C354.36 1043.58 352.96 1043 351.501 1043C350.042 1043 348.643 1043.58 347.611 1044.61C346.58 1045.64 346 1047.04 346 1048.5C346 1049.96 346.58 1051.36 347.611 1052.39L348.671 1053.45L356.451 1061.23L364.231 1053.45L365.291 1052.39C365.802 1051.88 366.208 1051.27 366.484 1050.61C366.761 1049.94 366.903 1049.22 366.903 1048.5C366.903 1047.78 366.761 1047.06 366.484 1046.4C366.208 1045.73 365.802 1045.12 365.291 1044.61Z" fill="white" stroke="white" stroke-width="1.5" stroke-linecap="round" stroke-linejoin="round"/>
</g>
<g clip-path="url(#clip22_159_1551)">
<path d="M432 1052C432 1040.95 440.954 1032 452 1032C463.046 1032 472 1040.95 472 1052C472 1063.05 463.046 1072 452 1072C440.954 1072 432 1063.05 432 1052Z" fill="#FF7043"/>
<path d="M432 1052C432 1040.95 440.954 1032 452 1032C463.046 1032 472 1040.95 472 1052C472 1063.05 463.046 1072 452 1072C440.954 1072 432 1063.05 432 1052Z" fill="white" fill-opacity="0.12"/>
<path d="M461.291 1044.61C460.781 1044.1 460.174 1043.7 459.507 1043.42C458.839 1043.14 458.124 1043 457.401 1043C456.679 1043 455.963 1043.14 455.296 1043.42C454.628 1043.7 454.022 1044.1 453.511 1044.61L452.451 1045.67L451.391 1044.61C450.36 1043.58 448.96 1043 447.501 1043C446.042 1043 444.643 1043.58 443.611 1044.61C442.58 1045.64 442 1047.04 442 1048.5C442 1049.96 442.58 1051.36 443.611 1052.39L444.671 1053.45L452.451 1061.23L460.231 1053.45L461.291 1052.39C461.802 1051.88 462.208 1051.27 462.484 1050.61C462.761 1049.94 462.903 1049.22 462.903 1048.5C462.903 1047.78 462.761 1047.06 462.484 1046.4C462.208 1045.73 461.802 1045.12 461.291 1044.61Z" fill="white" stroke="white" stroke-width="1.5" stroke-linecap="round" stroke-linejoin="round"/>
</g>
<g clip-path="url(#clip23_159_1551)">
<path d="M336 876C336 864.954 344.954 856 356 856C367.046 856 376 864.954 376 876C376 887.046 367.046 896 356 896C344.954 896 336 887.046 336 876Z" fill="#FF7043" fill-opacity="0.12"/>
<path d="M365.291 868.612C364.781 868.101 364.174 867.695 363.507 867.419C362.839 867.142 362.124 867 361.401 867C360.679 867 359.963 867.142 359.296 867.419C358.628 867.695 358.022 868.101 357.511 868.612L356.451 869.672L355.391 868.612C354.36 867.58 352.96 867.001 351.501 867.001C350.042 867.001 348.643 867.58 347.611 868.612C346.58 869.644 346 871.043 346 872.502C346 873.961 346.58 875.36 347.611 876.392L348.671 877.452L356.451 885.232L364.231 877.452L365.291 876.392C365.802 875.881 366.208 875.275 366.484 874.607C366.761 873.94 366.903 873.224 366.903 872.502C366.903 871.779 366.761 871.064 366.484 870.396C366.208 869.729 365.802 869.123 365.291 868.612Z" fill="#FF7043" stroke="#FF7043" stroke-width="1.5" stroke-linecap="round" stroke-linejoin="round"/>
</g>
<g clip-path="url(#clip24_159_1551)">
<path d="M432 876C432 864.954 440.954 856 452 856C463.046 856 472 864.954 472 876C472 887.046 463.046 896 452 896C440.954 896 432 887.046 432 876Z" fill="#FF7043" fill-opacity="0.12"/>
<path d="M461.291 868.612C460.781 868.101 460.174 867.695 459.507 867.419C458.839 867.142 458.124 867 457.401 867C456.679 867 455.963 867.142 455.296 867.419C454.628 867.695 454.022 868.101 453.511 868.612L452.451 869.672L451.391 868.612C450.36 867.58 448.96 867.001 447.501 867.001C446.042 867.001 444.643 867.58 443.611 868.612C442.58 869.644 442 871.043 442 872.502C442 873.961 442.58 875.36 443.611 876.392L444.671 877.452L452.451 885.232L460.231 877.452L461.291 876.392C461.802 875.881 462.208 875.275 462.484 874.607C462.761 873.94 462.903 873.224 462.903 872.502C462.903 871.779 462.761 871.064 462.484 870.396C462.208 869.729 461.802 869.123 461.291 868.612Z" fill="#FF7043" stroke="#FF7043" stroke-width="1.5" stroke-linecap="round" stroke-linejoin="round"/>
</g>
<defs>
<clipPath id="clip0_159_1551">
<path d="M144 988C144 976.954 152.954 968 164 968C175.046 968 184 976.954 184 988C184 999.046 175.046 1008 164 1008C152.954 1008 144 999.046 144 988Z" fill="white"/>
</clipPath>
<clipPath id="clip1_159_1551">
<path d="M144 1164C144 1152.95 152.954 1144 164 1144C175.046 1144 184 1152.95 184 1164C184 1175.05 175.046 1184 164 1184C152.954 1184 144 1175.05 144 1164Z" fill="white"/>
</clipPath>
<clipPath id="clip2_159_1551">
<path d="M528 988C528 976.954 536.954 968 548 968C559.046 968 568 976.954 568 988C568 999.046 559.046 1008 548 1008C536.954 1008 528 999.046 528 988Z" fill="white"/>
</clipPath>
<clipPath id="clip3_159_1551">
<path d="M528 1164C528 1152.95 536.954 1144 548 1144C559.046 1144 568 1152.95 568 1164C568 1175.05 559.046 1184 548 1184C536.954 1184 528 1175.05 528 1164Z" fill="white"/>
</clipPath>
<clipPath id="clip4_159_1551">
<path d="M240 988C240 976.954 248.954 968 260 968C271.046 968 280 976.954 280 988C280 999.046 271.046 1008 260 1008C248.954 1008 240 999.046 240 988Z" fill="white"/>
</clipPath>
<clipPath id="clip5_159_1551">
<path d="M240 1164C240 1152.95 248.954 1144 260 1144C271.046 1144 280 1152.95 280 1164C280 1175.05 271.046 1184 260 1184C248.954 1184 240 1175.05 240 1164Z" fill="white"/>
</clipPath>
<clipPath id="clip6_159_1551">
<path d="M336 988C336 976.954 344.954 968 356 968C367.046 968 376 976.954 376 988C376 999.046 367.046 1008 356 1008C344.954 1008 336 999.046 336 988Z" fill="white"/>
</clipPath>
<clipPath id="clip7_159_1551">
<path d="M336 1164C336 1152.95 344.954 1144 356 1144C367.046 1144 376 1152.95 376 1164C376 1175.05 367.046 1184 356 1184C344.954 1184 336 1175.05 336 1164Z" fill="white"/>
</clipPath>
<clipPath id="clip8_159_1551">
<path d="M432 1164C432 1152.95 440.954 1144 452 1144C463.046 1144 472 1152.95 472 1164C472 1175.05 463.046 1184 452 1184C440.954 1184 432 1175.05 432 1164Z" fill="white"/>
</clipPath>
<clipPath id="clip9_159_1551">
<path d="M432 988C432 976.954 440.954 968 452 968C463.046 968 472 976.954 472 988C472 999.046 463.046 1008 452 1008C440.954 1008 432 999.046 432 988Z" fill="white"/>
</clipPath>
<clipPath id="clip10_159_1551">
<rect width="40" height="40" fill="white" transform="translate(240 792)"/>
</clipPath>
<clipPath id="clip11_159_1551">
<path d="M240 1340C240 1328.95 248.954 1320 260 1320C271.046 1320 280 1328.95 280 1340C280 1351.05 271.046 1360 260 1360C248.954 1360 240 1351.05 240 1340Z" fill="white"/>
</clipPath>
<clipPath id="clip12_159_1551">
<path d="M336 1340C336 1328.95 344.954 1320 356 1320C367.046 1320 376 1328.95 376 1340C376 1351.05 367.046 1360 356 1360C344.954 1360 336 1351.05 336 1340Z" fill="white"/>
</clipPath>
<clipPath id="clip13_159_1551">
<path d="M432 1340C432 1328.95 440.954 1320 452 1320C463.046 1320 472 1328.95 472 1340C472 1351.05 463.046 1360 452 1360C440.954 1360 432 1351.05 432 1340Z" fill="white"/>
</clipPath>
<clipPath id="clip14_159_1551">
<rect width="40" height="40" fill="white" transform="translate(336 792)"/>
</clipPath>
<clipPath id="clip15_159_1551">
<rect width="40" height="40" fill="white" transform="translate(432 792)"/>
</clipPath>
<clipPath id="clip16_159_1551">
<path d="M240 876C240 864.954 248.954 856 260 856C271.046 856 280 864.954 280 876C280 887.046 271.046 896 260 896C248.954 896 240 887.046 240 876Z" fill="white"/>
</clipPath>
<clipPath id="clip17_159_1551">
<path d="M240 1052C240 1040.95 248.954 1032 260 1032C271.046 1032 280 1040.95 280 1052C280 1063.05 271.046 1072 260 1072C248.954 1072 240 1063.05 240 1052Z" fill="white"/>
</clipPath>
<clipPath id="clip18_159_1551">
<path d="M240 1228C240 1216.95 248.954 1208 260 1208C271.046 1208 280 1216.95 280 1228C280 1239.05 271.046 1248 260 1248C248.954 1248 240 1239.05 240 1228Z" fill="white"/>
</clipPath>
<clipPath id="clip19_159_1551">
<path d="M336 1228C336 1216.95 344.954 1208 356 1208C367.046 1208 376 1216.95 376 1228C376 1239.05 367.046 1248 356 1248C344.954 1248 336 1239.05 336 1228Z" fill="white"/>
</clipPath>
<clipPath id="clip20_159_1551">
<path d="M432 1228C432 1216.95 440.954 1208 452 1208C463.046 1208 472 1216.95 472 1228C472 1239.05 463.046 1248 452 1248C440.954 1248 432 1239.05 432 1228Z" fill="white"/>
</clipPath>
<clipPath id="clip21_159_1551">
<path d="M336 1052C336 1040.95 344.954 1032 356 1032C367.046 1032 376 1040.95 376 1052C376 1063.05 367.046 1072 356 1072C344.954 1072 336 1063.05 336 1052Z" fill="white"/>
</clipPath>
<clipPath id="clip22_159_1551">
<path d="M432 1052C432 1040.95 440.954 1032 452 1032C463.046 1032 472 1040.95 472 1052C472 1063.05 463.046 1072 452 1072C440.954 1072 432 1063.05 432 1052Z" fill="white"/>
</clipPath>
<clipPath id="clip23_159_1551">
<path d="M336 876C336 864.954 344.954 856 356 856C367.046 856 376 864.954 376 876C376 887.046 367.046 896 356 896C344.954 896 336 887.046 336 876Z" fill="white"/>
</clipPath>
<clipPath id="clip24_159_1551">
<path d="M432 876C432 864.954 440.954 856 452 856C463.046 856 472 864.954 472 876C472 887.046 463.046 896 452 896C440.954 896 432 887.046 432 876Z" fill="white"/>
</clipPath>
</defs>
</svg>
