<svg width="576" height="816" viewBox="0 0 576 816" fill="none" xmlns="http://www.w3.org/2000/svg">
<rect width="576" height="816" rx="32" fill="white"/>
<path d="M130.951 123.899C130.951 127.205 129.811 129.96 127.531 132.164C125.289 134.33 121.85 135.413 117.214 135.413H109.576V152H104.389V112.271H117.214C121.698 112.271 125.099 113.354 127.417 115.52C129.773 117.686 130.951 120.479 130.951 123.899ZM117.214 131.138C120.102 131.138 122.23 130.511 123.598 129.257C124.966 128.003 125.65 126.217 125.65 123.899C125.65 118.997 122.838 116.546 117.214 116.546H109.576V131.138H117.214ZM142.335 125.837C143.247 124.051 144.539 122.664 146.211 121.676C147.921 120.688 149.992 120.194 152.424 120.194V125.552H151.056C145.242 125.552 142.335 128.706 142.335 135.014V152H137.148V120.764H142.335V125.837ZM171.784 152.513C168.858 152.513 166.198 151.848 163.804 150.518C161.448 149.188 159.586 147.307 158.218 144.875C156.888 142.405 156.223 139.555 156.223 136.325C156.223 133.133 156.907 130.321 158.275 127.889C159.681 125.419 161.581 123.538 163.975 122.246C166.369 120.916 169.048 120.251 172.012 120.251C174.976 120.251 177.655 120.916 180.049 122.246C182.443 123.538 184.324 125.4 185.692 127.832C187.098 130.264 187.801 133.095 187.801 136.325C187.801 139.555 187.079 142.405 185.635 144.875C184.229 147.307 182.31 149.188 179.878 150.518C177.446 151.848 174.748 152.513 171.784 152.513ZM171.784 147.953C173.646 147.953 175.394 147.516 177.028 146.642C178.662 145.768 179.973 144.457 180.961 142.709C181.987 140.961 182.5 138.833 182.5 136.325C182.5 133.817 182.006 131.689 181.018 129.941C180.03 128.193 178.738 126.901 177.142 126.065C175.546 125.191 173.817 124.754 171.955 124.754C170.055 124.754 168.307 125.191 166.711 126.065C165.153 126.901 163.899 128.193 162.949 129.941C161.999 131.689 161.524 133.817 161.524 136.325C161.524 138.871 161.98 141.018 162.892 142.766C163.842 144.514 165.096 145.825 166.654 146.699C168.212 147.535 169.922 147.953 171.784 147.953ZM207.253 120.251C209.951 120.251 212.307 120.84 214.321 122.018C216.373 123.196 217.893 124.678 218.881 126.464V120.764H224.125V152.684C224.125 155.534 223.517 158.061 222.301 160.265C221.085 162.507 219.337 164.255 217.057 165.509C214.815 166.763 212.193 167.39 209.191 167.39C205.087 167.39 201.667 166.421 198.931 164.483C196.195 162.545 194.58 159.904 194.086 156.56H199.216C199.786 158.46 200.964 159.98 202.75 161.12C204.536 162.298 206.683 162.887 209.191 162.887C212.041 162.887 214.359 161.994 216.145 160.208C217.969 158.422 218.881 155.914 218.881 152.684V146.129C217.855 147.953 216.335 149.473 214.321 150.689C212.307 151.905 209.951 152.513 207.253 152.513C204.479 152.513 201.952 151.829 199.672 150.461C197.43 149.093 195.663 147.174 194.371 144.704C193.079 142.234 192.433 139.422 192.433 136.268C192.433 133.076 193.079 130.283 194.371 127.889C195.663 125.457 197.43 123.576 199.672 122.246C201.952 120.916 204.479 120.251 207.253 120.251ZM218.881 136.325C218.881 133.969 218.406 131.917 217.456 130.169C216.506 128.421 215.214 127.091 213.58 126.179C211.984 125.229 210.217 124.754 208.279 124.754C206.341 124.754 204.574 125.21 202.978 126.122C201.382 127.034 200.109 128.364 199.159 130.112C198.209 131.86 197.734 133.912 197.734 136.268C197.734 138.662 198.209 140.752 199.159 142.538C200.109 144.286 201.382 145.635 202.978 146.585C204.574 147.497 206.341 147.953 208.279 147.953C210.217 147.953 211.984 147.497 213.58 146.585C215.214 145.635 216.506 144.286 217.456 142.538C218.406 140.752 218.881 138.681 218.881 136.325ZM237.828 125.837C238.74 124.051 240.032 122.664 241.704 121.676C243.414 120.688 245.485 120.194 247.917 120.194V125.552H246.549C240.735 125.552 237.828 128.706 237.828 135.014V152H232.641V120.764H237.828V125.837ZM282.155 135.185C282.155 136.173 282.098 137.218 281.984 138.32H257.018C257.208 141.398 258.253 143.811 260.153 145.559C262.091 147.269 264.428 148.124 267.164 148.124C269.406 148.124 271.268 147.611 272.75 146.585C274.27 145.521 275.334 144.115 275.942 142.367H281.528C280.692 145.369 279.02 147.82 276.512 149.72C274.004 151.582 270.888 152.513 267.164 152.513C264.2 152.513 261.54 151.848 259.184 150.518C256.866 149.188 255.042 147.307 253.712 144.875C252.382 142.405 251.717 139.555 251.717 136.325C251.717 133.095 252.363 130.264 253.655 127.832C254.947 125.4 256.752 123.538 259.07 122.246C261.426 120.916 264.124 120.251 267.164 120.251C270.128 120.251 272.75 120.897 275.03 122.189C277.31 123.481 279.058 125.267 280.274 127.547C281.528 129.789 282.155 132.335 282.155 135.185ZM276.797 134.102C276.797 132.126 276.36 130.435 275.486 129.029C274.612 127.585 273.415 126.502 271.895 125.78C270.413 125.02 268.76 124.64 266.936 124.64C264.314 124.64 262.072 125.476 260.21 127.148C258.386 128.82 257.341 131.138 257.075 134.102H276.797ZM299.809 152.513C297.415 152.513 295.268 152.114 293.368 151.316C291.468 150.48 289.967 149.34 288.865 147.896C287.763 146.414 287.155 144.723 287.041 142.823H292.399C292.551 144.381 293.273 145.654 294.565 146.642C295.895 147.63 297.624 148.124 299.752 148.124C301.728 148.124 303.286 147.687 304.426 146.813C305.566 145.939 306.136 144.837 306.136 143.507C306.136 142.139 305.528 141.132 304.312 140.486C303.096 139.802 301.215 139.137 298.669 138.491C296.351 137.883 294.451 137.275 292.969 136.667C291.525 136.021 290.271 135.09 289.207 133.874C288.181 132.62 287.668 130.986 287.668 128.972C287.668 127.376 288.143 125.913 289.093 124.583C290.043 123.253 291.392 122.208 293.14 121.448C294.888 120.65 296.883 120.251 299.125 120.251C302.583 120.251 305.376 121.125 307.504 122.873C309.632 124.621 310.772 127.015 310.924 130.055H305.737C305.623 128.421 304.958 127.11 303.742 126.122C302.564 125.134 300.968 124.64 298.954 124.64C297.092 124.64 295.61 125.039 294.508 125.837C293.406 126.635 292.855 127.68 292.855 128.972C292.855 129.998 293.178 130.853 293.824 131.537C294.508 132.183 295.344 132.715 296.332 133.133C297.358 133.513 298.764 133.95 300.55 134.444C302.792 135.052 304.616 135.66 306.022 136.268C307.428 136.838 308.625 137.712 309.613 138.89C310.639 140.068 311.171 141.607 311.209 143.507C311.209 145.217 310.734 146.756 309.784 148.124C308.834 149.492 307.485 150.575 305.737 151.373C304.027 152.133 302.051 152.513 299.809 152.513ZM329.34 152.513C326.946 152.513 324.799 152.114 322.899 151.316C320.999 150.48 319.498 149.34 318.396 147.896C317.294 146.414 316.686 144.723 316.572 142.823H321.93C322.082 144.381 322.804 145.654 324.096 146.642C325.426 147.63 327.155 148.124 329.283 148.124C331.259 148.124 332.817 147.687 333.957 146.813C335.097 145.939 335.667 144.837 335.667 143.507C335.667 142.139 335.059 141.132 333.843 140.486C332.627 139.802 330.746 139.137 328.2 138.491C325.882 137.883 323.982 137.275 322.5 136.667C321.056 136.021 319.802 135.09 318.738 133.874C317.712 132.62 317.199 130.986 317.199 128.972C317.199 127.376 317.674 125.913 318.624 124.583C319.574 123.253 320.923 122.208 322.671 121.448C324.419 120.65 326.414 120.251 328.656 120.251C332.114 120.251 334.907 121.125 337.035 122.873C339.163 124.621 340.303 127.015 340.455 130.055H335.268C335.154 128.421 334.489 127.11 333.273 126.122C332.095 125.134 330.499 124.64 328.485 124.64C326.623 124.64 325.141 125.039 324.039 125.837C322.937 126.635 322.386 127.68 322.386 128.972C322.386 129.998 322.709 130.853 323.355 131.537C324.039 132.183 324.875 132.715 325.863 133.133C326.889 133.513 328.295 133.95 330.081 134.444C332.323 135.052 334.147 135.66 335.553 136.268C336.959 136.838 338.156 137.712 339.144 138.89C340.17 140.068 340.702 141.607 340.74 143.507C340.74 145.217 340.265 146.756 339.315 148.124C338.365 149.492 337.016 150.575 335.268 151.373C333.558 152.133 331.582 152.513 329.34 152.513Z" fill="#282828"/>
<path d="M473.857 203.999C474.55 205.196 475.092 206.49 475.457 207.857L474.976 207.986C475.318 209.266 475.5 210.611 475.5 212V216.667H476V221.333H475.5V230.667H476V235.333H475.5V244.667H476V249.333H475.5V258.667H476V263.333H475.5V268C475.5 269.389 475.318 270.734 474.976 272.014L475.457 272.142C475.092 273.509 474.55 274.803 473.857 276L473.426 275.751C472.065 278.103 470.103 280.065 467.751 281.426L468 281.857C466.803 282.55 465.509 283.092 464.142 283.457L464.014 282.976C462.734 283.318 461.389 283.5 460 283.5H455.015V284H450.029V283.5H440.058V284H435.072V283.5H425.102V284H420.116V283.5H410.145V284H405.159V283.5H395.188V284H390.203V283.5H380.231V284H375.246V283.5H365.275V284H360.29V283.5H350.318V284H345.333V283.5H335.362V284H330.377V283.5H320.405V284H315.42V283.5H305.449V284H300.464V283.5H290.493V284H285.507V283.5H275.536V284H270.551V283.5H260.58V284H255.594V283.5H245.623V284H240.638V283.5H230.667V284H225.682V283.5H215.71V284H210.725V283.5H200.754V284H195.769V283.5H185.797V284H180.812V283.5H170.841V284H165.855V283.5H155.884V284H150.898V283.5H140.928V284H135.942V283.5H125.971V284H120.985V283.5H116C114.611 283.5 113.266 283.318 111.986 282.976L111.857 283.457C110.49 283.092 109.196 282.55 107.999 281.857L108.249 281.426C105.897 280.065 103.935 278.103 102.574 275.751L102.142 276C101.449 274.803 100.907 273.509 100.542 272.142L101.024 272.014C100.682 270.734 100.5 269.389 100.5 268V263.333H100V258.667H100.5V249.333H100V244.667H100.5V235.333H100V230.667H100.5V221.333H100V216.667H100.5V212C100.5 210.611 100.682 209.266 101.024 207.986L100.542 207.857C100.904 206.505 101.438 205.223 102.12 204.036L102.142 203.999L102.574 204.249C103.935 201.897 105.897 199.935 108.249 198.574L107.999 198.142C109.196 197.449 110.491 196.907 111.857 196.542L111.986 197.024C113.266 196.682 114.611 196.5 116 196.5H120.985V196H125.971V196.5H135.942V196H140.928V196.5H150.898V196H155.884V196.5H165.855V196H170.841V196.5H180.812V196H185.797V196.5H195.769V196H200.754V196.5H210.725V196H215.71V196.5H225.682V196H230.667V196.5H240.638V196H245.623V196.5H255.595V196H260.58V196.5H270.551V196H275.536V196.5H285.507V196H290.493V196.5H300.464V196H305.449V196.5H315.42V196H320.406V196.5H330.377V196H335.362V196.5H345.333V196H350.318V196.5H360.29V196H365.275V196.5H375.246V196H380.231V196.5H390.203V196H395.188V196.5H405.159V196H410.145V196.5H420.116V196H425.102V196.5H435.072V196H440.058V196.5H450.029V196H455.015V196.5H460C461.389 196.5 462.734 196.682 464.014 197.024L464.142 196.542C465.509 196.907 466.803 197.449 468 198.142L467.751 198.574C470.103 199.935 472.065 201.897 473.426 204.249L473.857 203.999Z" stroke="#FF7043" stroke-dasharray="10 5"/>
<path d="M144 222C146.364 222 148.704 222.466 150.888 223.37C153.072 224.275 155.056 225.601 156.728 227.272C158.399 228.944 159.725 230.928 160.63 233.112C161.534 235.296 162 237.636 162 240L158.04 240C158.04 238.156 157.677 236.331 156.971 234.627C156.266 232.924 155.232 231.376 153.928 230.072C152.624 228.768 151.076 227.734 149.373 227.029C147.669 226.323 145.844 225.96 144 225.96V222Z" fill="#FF7043"/>
<path d="M216 222C218.364 222 220.704 222.466 222.888 223.37C225.072 224.275 227.056 225.601 228.728 227.272C230.399 228.944 231.725 230.928 232.63 233.112C233.534 235.296 234 237.636 234 240C234 242.364 233.534 244.704 232.63 246.888C231.725 249.072 230.399 251.056 228.728 252.728C227.056 254.399 225.072 255.725 222.888 256.63C220.704 257.534 218.364 258 216 258L216 254.04C217.844 254.04 219.669 253.677 221.373 252.971C223.076 252.266 224.624 251.232 225.928 249.928C227.232 248.624 228.266 247.076 228.971 245.373C229.677 243.669 230.04 241.844 230.04 240C230.04 238.156 229.677 236.331 228.971 234.627C228.266 232.924 227.232 231.376 225.928 230.072C224.624 228.768 223.076 227.734 221.373 227.029C219.669 226.323 217.844 225.96 216 225.96V222Z" fill="#FF7043"/>
<path d="M288 222C291.56 222 295.04 223.056 298 225.034C300.96 227.011 303.267 229.823 304.63 233.112C305.992 236.401 306.349 240.02 305.654 243.512C304.96 247.003 303.245 250.211 300.728 252.728C298.211 255.245 295.003 256.96 291.512 257.654C288.02 258.349 284.401 257.992 281.112 256.63C277.823 255.267 275.011 252.96 273.034 250C271.056 247.04 270 243.56 270 240H273.96C273.96 242.777 274.783 245.491 276.326 247.8C277.869 250.109 280.062 251.909 282.627 252.971C285.193 254.034 288.016 254.312 290.739 253.77C293.463 253.228 295.964 251.891 297.928 249.928C299.891 247.964 301.228 245.463 301.77 242.739C302.312 240.016 302.034 237.193 300.971 234.627C299.909 232.062 298.109 229.869 295.8 228.326C293.491 226.783 290.777 225.96 288 225.96V222Z" fill="#FF7043"/>
<path d="M378 240C378 249.941 369.941 258 360 258C350.059 258 342 249.941 342 240C342 230.059 350.059 222 360 222C369.941 222 378 230.059 378 240ZM345.96 240C345.96 247.754 352.246 254.04 360 254.04C367.754 254.04 374.04 247.754 374.04 240C374.04 232.246 367.754 225.96 360 225.96C352.246 225.96 345.96 232.246 345.96 240Z" fill="#FF7043"/>
<path d="M432 222C435.08 222 438.108 222.79 440.795 224.295C443.482 225.8 445.738 227.969 447.348 230.595C448.957 233.221 449.865 236.216 449.986 239.293C450.107 242.371 449.436 245.428 448.038 248.172C446.64 250.916 444.561 253.255 442 254.966C439.44 256.677 436.483 257.703 433.412 257.945C430.342 258.186 427.261 257.636 424.464 256.347C421.667 255.057 419.248 253.072 417.438 250.58L420.641 248.253C422.053 250.196 423.94 251.745 426.122 252.75C428.304 253.756 430.707 254.185 433.102 253.997C435.496 253.808 437.803 253.008 439.8 251.674C441.798 250.339 443.419 248.514 444.51 246.374C445.6 244.234 446.123 241.849 446.029 239.449C445.935 237.048 445.226 234.712 443.971 232.664C442.716 230.616 440.956 228.924 438.86 227.75C436.764 226.576 434.402 225.96 432 225.96V222Z" fill="#FF7043"/>
<path d="M437.857 323.999C438.55 325.196 439.092 326.49 439.457 327.857L438.976 327.986C439.318 329.266 439.5 330.611 439.5 332V336.923H440V341.846H439.5V351.692H440V356.615H439.5V366.462H440V371.385H439.5V381.23H440V386.154H439.5V396H440V400.923H439.5V410.77H440V415.692H439.5V425.538H440V430.462H439.5V440.308H440V445.23H439.5V455.077H440V460H439.5V469.846H440V474.77H439.5V484.615H440V489.538H439.5V499.385H440V504.308H439.5V514.154H440V519.077H439.5V524C439.5 525.389 439.318 526.734 438.976 528.014L439.457 528.142C439.092 529.509 438.55 530.803 437.857 532L437.426 531.751C436.065 534.103 434.103 536.065 431.751 537.426L432 537.857C430.803 538.55 429.509 539.092 428.142 539.457L428.014 538.976C426.734 539.318 425.389 539.5 424 539.5H419.111V540H414.222V539.5H404.444V540H399.556V539.5H389.777V540H384.889V539.5H375.111V540H370.222V539.5H360.444V540H355.556V539.5H345.777V540H340.889V539.5H331.111V540H326.222V539.5H316.444V540H311.556V539.5H301.777V540H296.889V539.5H287.111V540H282.223V539.5H272.444V540H267.556V539.5H257.777V540H252.889V539.5H243.111V540H238.223V539.5H228.444V540H223.556V539.5H213.777V540H208.889V539.5H199.111V540H194.223V539.5H184.444V540H179.556V539.5H169.777V540H164.889V539.5H155.111V540H150.223V539.5H140.444V540H135.556V539.5H125.777V540H120.889V539.5H116C114.611 539.5 113.266 539.318 111.986 538.976L111.857 539.457C110.49 539.092 109.196 538.55 107.999 537.857L108.249 537.426C105.897 536.065 103.935 534.103 102.574 531.751L102.142 532C101.449 530.803 100.907 529.509 100.542 528.142L101.024 528.014C100.682 526.734 100.5 525.389 100.5 524V519.077H100V514.154H100.5V504.308H100V499.385H100.5V489.538H100V484.615H100.5V474.77H100V469.846H100.5V460H100V455.077H100.5V445.23H100V440.308H100.5V430.462H100V425.538H100.5V415.692H100V410.77H100.5V400.923H100V396H100.5V386.154H100V381.23H100.5V371.385H100V366.462H100.5V356.615H100V351.692H100.5V341.846H100V336.923H100.5V332C100.5 330.611 100.682 329.266 101.024 327.986L100.542 327.857C100.904 326.505 101.438 325.223 102.12 324.036L102.142 323.999L102.574 324.249C103.935 321.897 105.897 319.935 108.249 318.574L107.999 318.142C109.196 317.449 110.491 316.907 111.857 316.542L111.986 317.024C113.266 316.682 114.611 316.5 116 316.5H120.889V316H125.778V316.5H135.556V316H140.444V316.5H150.223V316H155.111V316.5H164.889V316H169.778V316.5H179.556V316H184.444V316.5H194.223V316H199.111V316.5H208.889V316H213.778V316.5H223.556V316H228.444V316.5H238.223V316H243.111V316.5H252.889V316H257.777V316.5H267.556V316H272.444V316.5H282.223V316H287.111V316.5H296.889V316H301.777V316.5H311.556V316H316.444V316.5H326.223V316H331.111V316.5H340.889V316H345.777V316.5H355.556V316H360.444V316.5H370.223V316H375.111V316.5H384.889V316H389.777V316.5H399.556V316H404.444V316.5H414.223V316H419.111V316.5H424C425.389 316.5 426.734 316.682 428.014 317.024L428.142 316.542C429.509 316.907 430.803 317.449 432 318.142L431.751 318.574C434.103 319.935 436.065 321.897 437.426 324.249L437.857 323.999Z" stroke="#FF7043" stroke-dasharray="10 5"/>
<path d="M120 338C120 336.895 120.895 336 122 336H398C399.105 336 400 336.895 400 338C400 339.105 399.105 340 398 340H122C120.895 340 120 339.105 120 338Z" fill="#EAEAEA"/>
<path d="M120 338C120 336.895 120.895 336 122 336H188C189.105 336 190 336.895 190 338C190 339.105 189.105 340 188 340H122C120.895 340 120 339.105 120 338Z" fill="#FF7043"/>
<path d="M120 368C120 366.895 120.895 366 122 366H398C399.105 366 400 366.895 400 368C400 369.105 399.105 370 398 370H122C120.895 370 120 369.105 120 368Z" fill="#EAEAEA"/>
<path d="M120 368C120 366.895 120.895 366 122 366H208C209.105 366 210 366.895 210 368C210 369.105 209.105 370 208 370H122C120.895 370 120 369.105 120 368Z" fill="#FF7043"/>
<path d="M120 398C120 396.895 120.895 396 122 396H398C399.105 396 400 396.895 400 398C400 399.105 399.105 400 398 400H122C120.895 400 120 399.105 120 398Z" fill="#EAEAEA"/>
<path d="M120 398C120 396.895 120.895 396 122 396H258C259.105 396 260 396.895 260 398C260 399.105 259.105 400 258 400H122C120.895 400 120 399.105 120 398Z" fill="#FF7043"/>
<path d="M120 428C120 426.895 120.895 426 122 426H398C399.105 426 400 426.895 400 428C400 429.105 399.105 430 398 430H122C120.895 430 120 429.105 120 428Z" fill="#EAEAEA"/>
<path d="M120 428C120 426.895 120.895 426 122 426H288C289.105 426 290 426.895 290 428C290 429.105 289.105 430 288 430H122C120.895 430 120 429.105 120 428Z" fill="#FF7043"/>
<path d="M120 458C120 456.895 120.895 456 122 456H398C399.105 456 400 456.895 400 458C400 459.105 399.105 460 398 460H122C120.895 460 120 459.105 120 458Z" fill="#EAEAEA"/>
<path d="M120 458C120 456.895 120.895 456 122 456H328C329.105 456 330 456.895 330 458C330 459.105 329.105 460 328 460H122C120.895 460 120 459.105 120 458Z" fill="#FF7043"/>
<path d="M120 488C120 486.895 120.895 486 122 486H398C399.105 486 400 486.895 400 488C400 489.105 399.105 490 398 490H122C120.895 490 120 489.105 120 488Z" fill="#EAEAEA"/>
<path d="M120 488C120 486.895 120.895 486 122 486H398C399.105 486 400 486.895 400 488C400 489.105 399.105 490 398 490H122C120.895 490 120 489.105 120 488Z" fill="#FF7043"/>
<path d="M120 518C120 516.895 120.895 516 122 516H398C399.105 516 400 516.895 400 518C400 519.105 399.105 520 398 520H122C120.895 520 120 519.105 120 518Z" fill="#EAEAEA"/>
<path d="M120 518C120 516.895 120.895 516 122 516H258C259.105 516 260 516.895 260 518C260 519.105 259.105 520 258 520H122C120.895 520 120 519.105 120 518Z" fill="#FF7043"/>
<path d="M213.857 579.999C214.55 581.196 215.092 582.49 215.457 583.857L214.976 583.986C215.318 585.266 215.5 586.611 215.5 588V593.333H216V598.667H215.5V609.333H216V614.667H215.5V625.333H216V630.667H215.5V641.333H216V646.667H215.5V657.333H216V662.667H215.5V673.333H216V678.667H215.5V689.333H216V694.667H215.5V700C215.5 701.389 215.318 702.734 214.976 704.014L215.457 704.142C215.092 705.509 214.55 706.803 213.857 708L213.426 707.751C212.065 710.103 210.103 712.065 207.751 713.426L208 713.857C206.803 714.55 205.509 715.092 204.142 715.457L204.014 714.976C202.734 715.318 201.389 715.5 200 715.5H195.333V716H190.667V715.5H181.333V716H176.667V715.5H167.333V716H162.667V715.5H153.333V716H148.667V715.5H139.333V716H134.667V715.5H125.333V716H120.667V715.5H116C114.611 715.5 113.266 715.318 111.986 714.976L111.857 715.457C110.49 715.092 109.196 714.55 107.999 713.857L108.249 713.426C105.897 712.065 103.935 710.103 102.574 707.751L102.142 708C101.449 706.803 100.907 705.509 100.542 704.142L101.024 704.014C100.682 702.734 100.5 701.389 100.5 700V694.667H100V689.333H100.5V678.667H100V673.333H100.5V662.667H100V657.333H100.5V646.667H100V641.333H100.5V630.667H100V625.333H100.5V614.667H100V609.333H100.5V598.667H100V593.333H100.5V588C100.5 586.611 100.682 585.266 101.024 583.986L100.542 583.857C100.904 582.505 101.438 581.223 102.12 580.036L102.142 579.999L102.574 580.249C103.935 577.897 105.897 575.935 108.249 574.574L107.999 574.142C109.196 573.449 110.491 572.907 111.857 572.542L111.986 573.024C113.266 572.682 114.611 572.5 116 572.5H120.667V572H125.333V572.5H134.667V572H139.333V572.5H148.667V572H153.333V572.5H162.667V572H167.333V572.5H176.667V572H181.333V572.5H190.667V572H195.333V572.5H200C201.389 572.5 202.734 572.682 204.014 573.024L204.142 572.542C205.509 572.907 206.803 573.449 208 574.142L207.751 574.574C210.103 575.935 212.065 577.897 213.426 580.249L213.857 579.999Z" stroke="#FF7043" stroke-dasharray="10 5"/>
<path fill-rule="evenodd" clip-rule="evenodd" d="M124.828 600C122.161 600 120 598.209 120 596C120 593.791 122.161 592 124.828 592H155.172C157.839 592 160 593.791 160 596C160 598.209 157.839 600 155.172 600H124.828Z" fill="#FFC5B4"/>
<circle cx="172" cy="596" r="4" fill="#FFE2D9"/>
<circle cx="188" cy="596" r="4" fill="#FFE2D9"/>
<circle cx="128" cy="644" r="4" fill="#FFE2D9"/>
<path fill-rule="evenodd" clip-rule="evenodd" d="M144.828 648C142.161 648 140 646.209 140 644C140 641.791 142.161 640 144.828 640H175.172C177.839 640 180 641.791 180 644C180 646.209 177.839 648 175.172 648H144.828Z" fill="#FFC5B4"/>
<circle cx="192" cy="644" r="4" fill="#FFE2D9"/>
<circle cx="128" cy="692" r="4" fill="#FFE2D9"/>
<circle cx="144" cy="692" r="4" fill="#FFE2D9"/>
<path fill-rule="evenodd" clip-rule="evenodd" d="M160.828 696C158.161 696 156 694.209 156 692C156 689.791 158.161 688 160.828 688H191.172C193.839 688 196 689.791 196 692C196 694.209 193.839 696 191.172 696H160.828Z" fill="#FFC5B4"/>
</svg>
