<svg width="712" height="536" viewBox="0 0 712 536" fill="none" xmlns="http://www.w3.org/2000/svg">
<rect width="712" height="536" rx="32" fill="white"/>
<path d="M145.308 172L135.846 155.755H129.576V172H124.389V132.271H137.214C140.216 132.271 142.743 132.784 144.795 133.81C146.885 134.836 148.443 136.223 149.469 137.971C150.495 139.719 151.008 141.714 151.008 143.956C151.008 146.692 150.21 149.105 148.614 151.195C147.056 153.285 144.7 154.672 141.546 155.356L151.521 172H145.308ZM129.576 151.594H137.214C140.026 151.594 142.135 150.91 143.541 149.542C144.947 148.136 145.65 146.274 145.65 143.956C145.65 141.6 144.947 139.776 143.541 138.484C142.173 137.192 140.064 136.546 137.214 136.546H129.576V151.594ZM156.88 156.268C156.88 153.076 157.526 150.283 158.818 147.889C160.11 145.457 161.877 143.576 164.119 142.246C166.399 140.916 168.926 140.251 171.7 140.251C174.436 140.251 176.811 140.84 178.825 142.018C180.839 143.196 182.34 144.678 183.328 146.464V140.764H188.572V172H183.328V166.186C182.302 168.01 180.763 169.53 178.711 170.746C176.697 171.924 174.341 172.513 171.643 172.513C168.869 172.513 166.361 171.829 164.119 170.461C161.877 169.093 160.11 167.174 158.818 164.704C157.526 162.234 156.88 159.422 156.88 156.268ZM183.328 156.325C183.328 153.969 182.853 151.917 181.903 150.169C180.953 148.421 179.661 147.091 178.027 146.179C176.431 145.229 174.664 144.754 172.726 144.754C170.788 144.754 169.021 145.21 167.425 146.122C165.829 147.034 164.556 148.364 163.606 150.112C162.656 151.86 162.181 153.912 162.181 156.268C162.181 158.662 162.656 160.752 163.606 162.538C164.556 164.286 165.829 165.635 167.425 166.585C169.021 167.497 170.788 167.953 172.726 167.953C174.664 167.953 176.431 167.497 178.027 166.585C179.661 165.635 180.953 164.286 181.903 162.538C182.853 160.752 183.328 158.681 183.328 156.325ZM195.149 156.268C195.149 153.076 195.795 150.283 197.087 147.889C198.379 145.457 200.146 143.576 202.388 142.246C204.668 140.916 207.214 140.251 210.026 140.251C212.458 140.251 214.719 140.821 216.809 141.961C218.899 143.063 220.495 144.526 221.597 146.35V129.82H226.841V172H221.597V166.129C220.571 167.991 219.051 169.53 217.037 170.746C215.023 171.924 212.667 172.513 209.969 172.513C207.195 172.513 204.668 171.829 202.388 170.461C200.146 169.093 198.379 167.174 197.087 164.704C195.795 162.234 195.149 159.422 195.149 156.268ZM221.597 156.325C221.597 153.969 221.122 151.917 220.172 150.169C219.222 148.421 217.93 147.091 216.296 146.179C214.7 145.229 212.933 144.754 210.995 144.754C209.057 144.754 207.29 145.21 205.694 146.122C204.098 147.034 202.825 148.364 201.875 150.112C200.925 151.86 200.45 153.912 200.45 156.268C200.45 158.662 200.925 160.752 201.875 162.538C202.825 164.286 204.098 165.635 205.694 166.585C207.29 167.497 209.057 167.953 210.995 167.953C212.933 167.953 214.7 167.497 216.296 166.585C217.93 165.635 219.222 164.286 220.172 162.538C221.122 160.752 221.597 158.681 221.597 156.325ZM238.036 135.691C237.048 135.691 236.212 135.349 235.528 134.665C234.844 133.981 234.502 133.145 234.502 132.157C234.502 131.169 234.844 130.333 235.528 129.649C236.212 128.965 237.048 128.623 238.036 128.623C238.986 128.623 239.784 128.965 240.43 129.649C241.114 130.333 241.456 131.169 241.456 132.157C241.456 133.145 241.114 133.981 240.43 134.665C239.784 135.349 238.986 135.691 238.036 135.691ZM240.544 140.764V172H235.357V140.764H240.544ZM262.757 172.513C259.831 172.513 257.171 171.848 254.777 170.518C252.421 169.188 250.559 167.307 249.191 164.875C247.861 162.405 247.196 159.555 247.196 156.325C247.196 153.133 247.88 150.321 249.248 147.889C250.654 145.419 252.554 143.538 254.948 142.246C257.342 140.916 260.021 140.251 262.985 140.251C265.949 140.251 268.628 140.916 271.022 142.246C273.416 143.538 275.297 145.4 276.665 147.832C278.071 150.264 278.774 153.095 278.774 156.325C278.774 159.555 278.052 162.405 276.608 164.875C275.202 167.307 273.283 169.188 270.851 170.518C268.419 171.848 265.721 172.513 262.757 172.513ZM262.757 167.953C264.619 167.953 266.367 167.516 268.001 166.642C269.635 165.768 270.946 164.457 271.934 162.709C272.96 160.961 273.473 158.833 273.473 156.325C273.473 153.817 272.979 151.689 271.991 149.941C271.003 148.193 269.711 146.901 268.115 146.065C266.519 145.191 264.79 144.754 262.928 144.754C261.028 144.754 259.28 145.191 257.684 146.065C256.126 146.901 254.872 148.193 253.922 149.941C252.972 151.689 252.497 153.817 252.497 156.325C252.497 158.871 252.953 161.018 253.865 162.766C254.815 164.514 256.069 165.825 257.627 166.699C259.185 167.535 260.895 167.953 262.757 167.953ZM320.183 151.537C321.627 151.765 322.938 152.354 324.116 153.304C325.332 154.254 326.282 155.432 326.966 156.838C327.688 158.244 328.049 159.745 328.049 161.341C328.049 163.355 327.536 165.179 326.51 166.813C325.484 168.409 323.983 169.682 322.007 170.632C320.069 171.544 317.77 172 315.11 172H300.29V132.271H314.54C317.238 132.271 319.537 132.727 321.437 133.639C323.337 134.513 324.762 135.71 325.712 137.23C326.662 138.75 327.137 140.46 327.137 142.36C327.137 144.716 326.491 146.673 325.199 148.231C323.945 149.751 322.273 150.853 320.183 151.537ZM305.477 149.428H314.198C316.63 149.428 318.511 148.858 319.841 147.718C321.171 146.578 321.836 145.001 321.836 142.987C321.836 140.973 321.171 139.396 319.841 138.256C318.511 137.116 316.592 136.546 314.084 136.546H305.477V149.428ZM314.654 167.725C317.238 167.725 319.252 167.117 320.696 165.901C322.14 164.685 322.862 162.994 322.862 160.828C322.862 158.624 322.102 156.895 320.582 155.641C319.062 154.349 317.029 153.703 314.483 153.703H305.477V167.725H314.654ZM362.699 140.764V172H357.512V167.383C356.524 168.979 355.137 170.233 353.351 171.145C351.603 172.019 349.665 172.456 347.537 172.456C345.105 172.456 342.92 171.962 340.982 170.974C339.044 169.948 337.505 168.428 336.365 166.414C335.263 164.4 334.712 161.949 334.712 159.061V140.764H339.842V158.377C339.842 161.455 340.621 163.83 342.179 165.502C343.737 167.136 345.865 167.953 348.563 167.953C351.337 167.953 353.522 167.098 355.118 165.388C356.714 163.678 357.512 161.189 357.512 157.921V140.764H362.699ZM377.534 145.039V163.45C377.534 164.97 377.857 166.053 378.503 166.699C379.149 167.307 380.27 167.611 381.866 167.611H385.685V172H381.011C378.123 172 375.957 171.335 374.513 170.005C373.069 168.675 372.347 166.49 372.347 163.45V145.039H368.3V140.764H372.347V132.898H377.534V140.764H385.685V145.039H377.534ZM398.047 145.039V163.45C398.047 164.97 398.37 166.053 399.016 166.699C399.662 167.307 400.783 167.611 402.379 167.611H406.198V172H401.524C398.636 172 396.47 171.335 395.026 170.005C393.582 168.675 392.86 166.49 392.86 163.45V145.039H388.813V140.764H392.86V132.898H398.047V140.764H406.198V145.039H398.047ZM425.856 172.513C422.93 172.513 420.27 171.848 417.876 170.518C415.52 169.188 413.658 167.307 412.29 164.875C410.96 162.405 410.295 159.555 410.295 156.325C410.295 153.133 410.979 150.321 412.347 147.889C413.753 145.419 415.653 143.538 418.047 142.246C420.441 140.916 423.12 140.251 426.084 140.251C429.048 140.251 431.727 140.916 434.121 142.246C436.515 143.538 438.396 145.4 439.764 147.832C441.17 150.264 441.873 153.095 441.873 156.325C441.873 159.555 441.151 162.405 439.707 164.875C438.301 167.307 436.382 169.188 433.95 170.518C431.518 171.848 428.82 172.513 425.856 172.513ZM425.856 167.953C427.718 167.953 429.466 167.516 431.1 166.642C432.734 165.768 434.045 164.457 435.033 162.709C436.059 160.961 436.572 158.833 436.572 156.325C436.572 153.817 436.078 151.689 435.09 149.941C434.102 148.193 432.81 146.901 431.214 146.065C429.618 145.191 427.889 144.754 426.027 144.754C424.127 144.754 422.379 145.191 420.783 146.065C419.225 146.901 417.971 148.193 417.021 149.941C416.071 151.689 415.596 153.817 415.596 156.325C415.596 158.871 416.052 161.018 416.964 162.766C417.914 164.514 419.168 165.825 420.726 166.699C422.284 167.535 423.994 167.953 425.856 167.953ZM463.662 140.194C467.462 140.194 470.54 141.353 472.896 143.671C475.252 145.951 476.43 149.257 476.43 153.589V172H471.3V154.33C471.3 151.214 470.521 148.839 468.963 147.205C467.405 145.533 465.277 144.697 462.579 144.697C459.843 144.697 457.658 145.552 456.024 147.262C454.428 148.972 453.63 151.461 453.63 154.729V172H448.443V140.764H453.63V145.21C454.656 143.614 456.043 142.379 457.791 141.505C459.577 140.631 461.534 140.194 463.662 140.194ZM495.711 172.513C493.317 172.513 491.17 172.114 489.27 171.316C487.37 170.48 485.869 169.34 484.767 167.896C483.665 166.414 483.057 164.723 482.943 162.823H488.301C488.453 164.381 489.175 165.654 490.467 166.642C491.797 167.63 493.526 168.124 495.654 168.124C497.63 168.124 499.188 167.687 500.328 166.813C501.468 165.939 502.038 164.837 502.038 163.507C502.038 162.139 501.43 161.132 500.214 160.486C498.998 159.802 497.117 159.137 494.571 158.491C492.253 157.883 490.353 157.275 488.871 156.667C487.427 156.021 486.173 155.09 485.109 153.874C484.083 152.62 483.57 150.986 483.57 148.972C483.57 147.376 484.045 145.913 484.995 144.583C485.945 143.253 487.294 142.208 489.042 141.448C490.79 140.65 492.785 140.251 495.027 140.251C498.485 140.251 501.278 141.125 503.406 142.873C505.534 144.621 506.674 147.015 506.826 150.055H501.639C501.525 148.421 500.86 147.11 499.644 146.122C498.466 145.134 496.87 144.64 494.856 144.64C492.994 144.64 491.512 145.039 490.41 145.837C489.308 146.635 488.757 147.68 488.757 148.972C488.757 149.998 489.08 150.853 489.726 151.537C490.41 152.183 491.246 152.715 492.234 153.133C493.26 153.513 494.666 153.95 496.452 154.444C498.694 155.052 500.518 155.66 501.924 156.268C503.33 156.838 504.527 157.712 505.515 158.89C506.541 160.068 507.073 161.607 507.111 163.507C507.111 165.217 506.636 166.756 505.686 168.124C504.736 169.492 503.387 170.575 501.639 171.373C499.929 172.133 497.953 172.513 495.711 172.513Z" fill="#282828"/>
<path d="M589.857 271.999C590.55 273.196 591.092 274.49 591.457 275.857L590.976 275.986C591.318 277.266 591.5 278.611 591.5 280V285H592V290H591.5V300H592V305H591.5V315H592V320H591.5V330H592V335H591.5V345H592V350H591.5V360H592V365H591.5V375H592V380H591.5V390H592V395H591.5V400C591.5 401.389 591.318 402.734 590.976 404.014L591.457 404.142C591.092 405.509 590.55 406.803 589.857 408L589.426 407.751C588.065 410.103 586.103 412.065 583.751 413.426L584 413.857C582.803 414.55 581.509 415.092 580.142 415.457L580.014 414.976C578.734 415.318 577.389 415.5 576 415.5H570.942V416H565.885V415.5H555.77V416H550.713V415.5H540.598V416H535.54V415.5H525.425V416H520.367V415.5H510.253V416H505.195V415.5H495.08V416H490.022V415.5H479.908V416H474.851V415.5H464.735V416H459.678V415.5H449.563V416H444.506V415.5H434.391V416H429.333V415.5H419.219V416H414.161V415.5H404.046V416H398.988V415.5H388.873V416H383.816V415.5H373.701V416H368.644V415.5H358.528V416H353.472V415.5H343.356V416H338.299V415.5H328.184V416H323.126V415.5H313.012V416H307.954V415.5H297.839V416H292.781V415.5H282.667V416H277.609V415.5H267.494V416H262.437V415.5H252.322V416H247.265V415.5H237.149V416H232.092V415.5H221.977V416H216.92V415.5H206.805V416H201.747V415.5H191.632V416H186.575V415.5H176.46V416H171.402V415.5H161.287V416H156.229V415.5H146.115V416H141.058V415.5H136C134.611 415.5 133.266 415.318 131.986 414.976L131.857 415.457C130.49 415.092 129.196 414.55 127.999 413.857L128.249 413.426C125.897 412.065 123.935 410.103 122.574 407.751L122.142 408C121.449 406.803 120.907 405.509 120.542 404.142L121.024 404.014C120.682 402.734 120.5 401.389 120.5 400V395H120V390H120.5V380H120V375H120.5V365H120V360H120.5V350H120V345H120.5V335H120V330H120.5V320H120V315H120.5V305H120V300H120.5V290H120V285H120.5V280C120.5 278.611 120.682 277.266 121.024 275.986L120.542 275.857C120.904 274.505 121.438 273.223 122.12 272.036L122.142 271.999L122.574 272.249C123.935 269.897 125.897 267.935 128.249 266.574L127.999 266.142C129.196 265.449 130.491 264.907 131.857 264.542L131.986 265.024C133.266 264.682 134.611 264.5 136 264.5H141.058V264H146.115V264.5H156.23V264H161.287V264.5H171.402V264H176.46V264.5H186.575V264H191.633V264.5H201.747V264H206.805V264.5H216.92V264H221.978V264.5H232.092V264H237.149V264.5H247.265V264H252.322V264.5H262.437V264H267.494V264.5H277.609V264H282.667V264.5H292.781V264H297.839V264.5H307.954V264H313.012V264.5H323.127V264H328.184V264.5H338.299V264H343.356V264.5H353.472V264H358.528V264.5H368.644V264H373.701V264.5H383.816V264H388.874V264.5H398.988V264H404.046V264.5H414.161V264H419.219V264.5H429.333V264H434.391V264.5H444.506V264H449.563V264.5H459.678V264H464.735V264.5H474.851V264H479.908V264.5H490.023V264H495.08V264.5H505.195V264H510.253V264.5H520.368V264H525.425V264.5H535.54V264H540.598V264.5H550.713V264H555.771V264.5H565.885V264H570.942V264.5H576C577.389 264.5 578.734 264.682 580.014 265.024L580.142 264.542C581.509 264.907 582.803 265.449 584 266.142L583.751 266.574C586.103 267.935 588.065 269.897 589.426 272.249L589.857 271.999Z" stroke="#FF7043" stroke-dasharray="10 5"/>
<g clip-path="url(#clip0_667_3297)">
<g opacity="0.38">
<path d="M548 362C542.48 362 538 366.48 538 372C538 377.52 542.48 382 548 382C553.52 382 558 377.52 558 372C558 366.48 553.52 362 548 362ZM548 380C543.58 380 540 376.42 540 372C540 367.58 543.58 364 548 364C552.42 364 556 367.58 556 372C556 376.42 552.42 380 548 380Z" fill="#434343"/>
</g>
</g>
<g clip-path="url(#clip1_667_3297)">
<rect width="40" height="40" transform="translate(432 352)" fill="#FF7043" fill-opacity="0.12"/>
<path d="M452 362C446.48 362 442 366.48 442 372C442 377.52 446.48 382 452 382C457.52 382 462 377.52 462 372C462 366.48 457.52 362 452 362ZM452 380C447.58 380 444 376.42 444 372C444 367.58 447.58 364 452 364C456.42 364 460 367.58 460 372C460 376.42 456.42 380 452 380Z" fill="#434343"/>
</g>
<g clip-path="url(#clip2_667_3297)">
<rect x="336" y="352" width="40" height="40" fill="#282828" fill-opacity="0.12"/>
<path d="M356 362C350.48 362 346 366.48 346 372C346 377.52 350.48 382 356 382C361.52 382 366 377.52 366 372C366 366.48 361.52 362 356 362ZM356 380C351.58 380 348 376.42 348 372C348 367.58 351.58 364 356 364C360.42 364 364 367.58 364 372C364 376.42 360.42 380 356 380Z" fill="#434343"/>
</g>
<g clip-path="url(#clip3_667_3297)">
<rect x="240" y="352" width="40" height="40" fill="#282828" fill-opacity="0.08"/>
<path d="M260 362C254.48 362 250 366.48 250 372C250 377.52 254.48 382 260 382C265.52 382 270 377.52 270 372C270 366.48 265.52 362 260 362ZM260 380C255.58 380 252 376.42 252 372C252 367.58 255.58 364 260 364C264.42 364 268 367.58 268 372C268 376.42 264.42 380 260 380Z" fill="#434343"/>
</g>
<g clip-path="url(#clip4_667_3297)">
<path d="M164 362C158.48 362 154 366.48 154 372C154 377.52 158.48 382 164 382C169.52 382 174 377.52 174 372C174 366.48 169.52 362 164 362ZM164 380C159.58 380 156 376.42 156 372C156 367.58 159.58 364 164 364C168.42 364 172 367.58 172 372C172 376.42 168.42 380 164 380Z" fill="#434343"/>
</g>
<g clip-path="url(#clip5_667_3297)">
<g opacity="0.38">
<path d="M548 303C545.24 303 543 305.24 543 308C543 310.76 545.24 313 548 313C550.76 313 553 310.76 553 308C553 305.24 550.76 303 548 303ZM548 298C542.48 298 538 302.48 538 308C538 313.52 542.48 318 548 318C553.52 318 558 313.52 558 308C558 302.48 553.52 298 548 298ZM548 316C543.58 316 540 312.42 540 308C540 303.58 543.58 300 548 300C552.42 300 556 303.58 556 308C556 312.42 552.42 316 548 316Z" fill="#282828"/>
</g>
</g>
<g clip-path="url(#clip6_667_3297)">
<rect width="40" height="40" transform="translate(432 288)" fill="#282828" fill-opacity="0.12"/>
<path d="M452 303C449.24 303 447 305.24 447 308C447 310.76 449.24 313 452 313C454.76 313 457 310.76 457 308C457 305.24 454.76 303 452 303ZM452 298C446.48 298 442 302.48 442 308C442 313.52 446.48 318 452 318C457.52 318 462 313.52 462 308C462 302.48 457.52 298 452 298ZM452 316C447.58 316 444 312.42 444 308C444 303.58 447.58 300 452 300C456.42 300 460 303.58 460 308C460 312.42 456.42 316 452 316Z" fill="#FF7043"/>
</g>
<g clip-path="url(#clip7_667_3297)">
<rect width="40" height="40" transform="translate(336 288)" fill="#FF7043" fill-opacity="0.12"/>
<path d="M356 303C353.24 303 351 305.24 351 308C351 310.76 353.24 313 356 313C358.76 313 361 310.76 361 308C361 305.24 358.76 303 356 303ZM356 298C350.48 298 346 302.48 346 308C346 313.52 350.48 318 356 318C361.52 318 366 313.52 366 308C366 302.48 361.52 298 356 298ZM356 316C351.58 316 348 312.42 348 308C348 303.58 351.58 300 356 300C360.42 300 364 303.58 364 308C364 312.42 360.42 316 356 316Z" fill="#FF7043"/>
</g>
<g clip-path="url(#clip8_667_3297)">
<rect width="40" height="40" transform="translate(240 288)" fill="#FF7043" fill-opacity="0.08"/>
<path d="M260 303C257.24 303 255 305.24 255 308C255 310.76 257.24 313 260 313C262.76 313 265 310.76 265 308C265 305.24 262.76 303 260 303ZM260 298C254.48 298 250 302.48 250 308C250 313.52 254.48 318 260 318C265.52 318 270 313.52 270 308C270 302.48 265.52 298 260 298ZM260 316C255.58 316 252 312.42 252 308C252 303.58 255.58 300 260 300C264.42 300 268 303.58 268 308C268 312.42 264.42 316 260 316Z" fill="#FF7043"/>
</g>
<g clip-path="url(#clip9_667_3297)">
<path d="M164 303C161.24 303 159 305.24 159 308C159 310.76 161.24 313 164 313C166.76 313 169 310.76 169 308C169 305.24 166.76 303 164 303ZM164 298C158.48 298 154 302.48 154 308C154 313.52 158.48 318 164 318C169.52 318 174 313.52 174 308C174 302.48 169.52 298 164 298ZM164 316C159.58 316 156 312.42 156 308C156 303.58 159.58 300 164 300C168.42 300 172 303.58 172 308C172 312.42 168.42 316 164 316Z" fill="#FF7043"/>
</g>
<defs>
<clipPath id="clip0_667_3297">
<path d="M528 372C528 360.954 536.954 352 548 352C559.046 352 568 360.954 568 372C568 383.046 559.046 392 548 392C536.954 392 528 383.046 528 372Z" fill="white"/>
</clipPath>
<clipPath id="clip1_667_3297">
<path d="M432 372C432 360.954 440.954 352 452 352C463.046 352 472 360.954 472 372C472 383.046 463.046 392 452 392C440.954 392 432 383.046 432 372Z" fill="white"/>
</clipPath>
<clipPath id="clip2_667_3297">
<path d="M336 372C336 360.954 344.954 352 356 352C367.046 352 376 360.954 376 372C376 383.046 367.046 392 356 392C344.954 392 336 383.046 336 372Z" fill="white"/>
</clipPath>
<clipPath id="clip3_667_3297">
<path d="M240 372C240 360.954 248.954 352 260 352C271.046 352 280 360.954 280 372C280 383.046 271.046 392 260 392C248.954 392 240 383.046 240 372Z" fill="white"/>
</clipPath>
<clipPath id="clip4_667_3297">
<path d="M144 372C144 360.954 152.954 352 164 352C175.046 352 184 360.954 184 372C184 383.046 175.046 392 164 392C152.954 392 144 383.046 144 372Z" fill="white"/>
</clipPath>
<clipPath id="clip5_667_3297">
<path d="M528 308C528 296.954 536.954 288 548 288C559.046 288 568 296.954 568 308C568 319.046 559.046 328 548 328C536.954 328 528 319.046 528 308Z" fill="white"/>
</clipPath>
<clipPath id="clip6_667_3297">
<path d="M432 308C432 296.954 440.954 288 452 288C463.046 288 472 296.954 472 308C472 319.046 463.046 328 452 328C440.954 328 432 319.046 432 308Z" fill="white"/>
</clipPath>
<clipPath id="clip7_667_3297">
<path d="M336 308C336 296.954 344.954 288 356 288C367.046 288 376 296.954 376 308C376 319.046 367.046 328 356 328C344.954 328 336 319.046 336 308Z" fill="white"/>
</clipPath>
<clipPath id="clip8_667_3297">
<path d="M240 308C240 296.954 248.954 288 260 288C271.046 288 280 296.954 280 308C280 319.046 271.046 328 260 328C248.954 328 240 319.046 240 308Z" fill="white"/>
</clipPath>
<clipPath id="clip9_667_3297">
<path d="M144 308C144 296.954 152.954 288 164 288C175.046 288 184 296.954 184 308C184 319.046 175.046 328 164 328C152.954 328 144 319.046 144 308Z" fill="white"/>
</clipPath>
</defs>
</svg>
