<svg width="40" height="40" viewBox="0 0 40 40" fill="none" xmlns="http://www.w3.org/2000/svg">
<path d="M0 20C0 8.95431 8.95431 0 20 0C31.0457 0 40 8.95431 40 20C40 31.0457 31.0457 40 20 40C8.95431 40 0 31.0457 0 20Z" fill="#FFD4C6"/>
<path fill-rule="evenodd" clip-rule="evenodd" d="M26.0002 16C26.0002 19.3137 23.314 22 20.0002 22C16.6865 22 14.0002 19.3137 14.0002 16C14.0002 12.6863 16.6865 10 20.0002 10C23.314 10 26.0002 12.6863 26.0002 16ZM24.0002 16C24.0002 18.2091 22.2094 20 20.0002 20C17.7911 20 16.0002 18.2091 16.0002 16C16.0002 13.7909 17.7911 12 20.0002 12C22.2094 12 24.0002 13.7909 24.0002 16Z" fill="#FF7043"/>
<path d="M20.0002 25C13.5259 25 8.00952 28.8284 5.9082 34.192C6.4201 34.7004 6.95934 35.1812 7.52353 35.6321C9.08827 30.7077 13.997 27 20.0002 27C26.0035 27 30.9122 30.7077 32.477 35.6321C33.0412 35.1812 33.5804 34.7004 34.0923 34.1921C31.991 28.8284 26.4746 25 20.0002 25Z" fill="#FF7043"/>
</svg>
