<svg width="700" height="531" viewBox="0 0 700 531" fill="none" xmlns="http://www.w3.org/2000/svg">
<rect width="700" height="531" rx="32" fill="white"/>
<path d="M136.986 172.399C134.364 172.399 132.008 171.943 129.918 171.031C127.866 170.081 126.251 168.789 125.073 167.155C123.895 165.483 123.287 163.564 123.249 161.398H128.778C128.968 163.26 129.728 164.837 131.058 166.129C132.426 167.383 134.402 168.01 136.986 168.01C139.456 168.01 141.394 167.402 142.8 166.186C144.244 164.932 144.966 163.336 144.966 161.398C144.966 159.878 144.548 158.643 143.712 157.693C142.876 156.743 141.831 156.021 140.577 155.527C139.323 155.033 137.632 154.501 135.504 153.931C132.882 153.247 130.773 152.563 129.177 151.879C127.619 151.195 126.27 150.131 125.13 148.687C124.028 147.205 123.477 145.229 123.477 142.759C123.477 140.593 124.028 138.674 125.13 137.002C126.232 135.33 127.771 134.038 129.747 133.126C131.761 132.214 134.06 131.758 136.644 131.758C140.368 131.758 143.408 132.689 145.764 134.551C148.158 136.413 149.507 138.883 149.811 141.961H144.111C143.921 140.441 143.123 139.111 141.717 137.971C140.311 136.793 138.449 136.204 136.131 136.204C133.965 136.204 132.198 136.774 130.83 137.914C129.462 139.016 128.778 140.574 128.778 142.588C128.778 144.032 129.177 145.21 129.975 146.122C130.811 147.034 131.818 147.737 132.996 148.231C134.212 148.687 135.903 149.219 138.069 149.827C140.691 150.549 142.8 151.271 144.396 151.993C145.992 152.677 147.36 153.76 148.5 155.242C149.64 156.686 150.21 158.662 150.21 161.17C150.21 163.108 149.697 164.932 148.671 166.642C147.645 168.352 146.125 169.739 144.111 170.803C142.097 171.867 139.722 172.399 136.986 172.399ZM199.203 140.764L189.456 172H184.098L176.574 147.205L169.05 172H163.692L153.888 140.764H159.189L166.371 166.984L174.123 140.764H179.424L187.005 167.041L194.073 140.764H199.203ZM206.78 135.691C205.792 135.691 204.956 135.349 204.272 134.665C203.588 133.981 203.246 133.145 203.246 132.157C203.246 131.169 203.588 130.333 204.272 129.649C204.956 128.965 205.792 128.623 206.78 128.623C207.73 128.623 208.528 128.965 209.174 129.649C209.858 130.333 210.2 131.169 210.2 132.157C210.2 133.145 209.858 133.981 209.174 134.665C208.528 135.349 207.73 135.691 206.78 135.691ZM209.288 140.764V172H204.101V140.764H209.288ZM224.205 145.039V163.45C224.205 164.97 224.528 166.053 225.174 166.699C225.82 167.307 226.941 167.611 228.537 167.611H232.356V172H227.682C224.794 172 222.628 171.335 221.184 170.005C219.74 168.675 219.018 166.49 219.018 163.45V145.039H214.971V140.764H219.018V132.898H224.205V140.764H232.356V145.039H224.205ZM236.453 156.325C236.453 153.095 237.099 150.283 238.391 147.889C239.683 145.457 241.469 143.576 243.749 142.246C246.067 140.916 248.708 140.251 251.672 140.251C255.51 140.251 258.664 141.182 261.134 143.044C263.642 144.906 265.295 147.49 266.093 150.796H260.507C259.975 148.896 258.93 147.395 257.372 146.293C255.852 145.191 253.952 144.64 251.672 144.64C248.708 144.64 246.314 145.666 244.49 147.718C242.666 149.732 241.754 152.601 241.754 156.325C241.754 160.087 242.666 162.994 244.49 165.046C246.314 167.098 248.708 168.124 251.672 168.124C253.952 168.124 255.852 167.592 257.372 166.528C258.892 165.464 259.937 163.944 260.507 161.968H266.093C265.257 165.16 263.585 167.725 261.077 169.663C258.569 171.563 255.434 172.513 251.672 172.513C248.708 172.513 246.067 171.848 243.749 170.518C241.469 169.188 239.683 167.307 238.391 164.875C237.099 162.443 236.453 159.593 236.453 156.325ZM288.268 140.194C290.624 140.194 292.752 140.707 294.652 141.733C296.552 142.721 298.034 144.222 299.098 146.236C300.2 148.25 300.751 150.701 300.751 153.589V172H295.621V154.33C295.621 151.214 294.842 148.839 293.284 147.205C291.726 145.533 289.598 144.697 286.9 144.697C284.164 144.697 281.979 145.552 280.345 147.262C278.749 148.972 277.951 151.461 277.951 154.729V172H272.764V129.82H277.951V145.21C278.977 143.614 280.383 142.379 282.169 141.505C283.993 140.631 286.026 140.194 288.268 140.194Z" fill="#282828"/>
<path d="M577.857 271.999C578.55 273.196 579.092 274.49 579.457 275.857L578.976 275.986C579.318 277.266 579.5 278.611 579.5 280V284.792H580V289.583H579.5V299.167H580V303.958H579.5V313.542H580V318.333H579.5V327.917H580V332.708H579.5V342.292H580V347.083H579.5V356.667H580V361.458H579.5V371.042H580V375.833H579.5V385.417H580V390.208H579.5V395C579.5 396.389 579.318 397.734 578.976 399.014L579.457 399.142C579.092 400.509 578.55 401.803 577.857 403L577.426 402.751C576.065 405.103 574.103 407.065 571.751 408.426L572 408.857C570.803 409.55 569.509 410.092 568.142 410.457L568.014 409.976C566.734 410.318 565.389 410.5 564 410.5H559.08V411H554.161V410.5H544.321V411H539.402V410.5H529.563V411H524.644V410.5H514.805V411H509.885V410.5H500.046V411H495.126V410.5H485.287V411H480.368V410.5H470.528V411H465.609V410.5H455.771V411H450.851V410.5H441.012V411H436.092V410.5H426.253V411H421.333V410.5H411.494V411H406.575V410.5H396.735V411H391.816V410.5H381.977V411H377.058V410.5H367.219V411H362.299V410.5H352.46V411H347.54V410.5H337.701V411H332.781V410.5H322.942V411H318.023V410.5H308.184V411H303.265V410.5H293.425V411H288.506V410.5H278.667V411H273.747V410.5H263.908V411H258.988V410.5H249.149V411H244.229V410.5H234.391V411H229.472V410.5H219.632V411H214.713V410.5H204.874V411H199.954V410.5H190.115V411H185.195V410.5H175.356V411H170.437V410.5H160.598V411H155.678V410.5H145.839V411H140.92V410.5H136C134.611 410.5 133.266 410.318 131.986 409.976L131.857 410.457C130.49 410.092 129.196 409.55 127.999 408.857L128.249 408.426C125.897 407.065 123.935 405.103 122.574 402.751L122.142 403C121.449 401.803 120.907 400.509 120.542 399.142L121.024 399.014C120.682 397.734 120.5 396.389 120.5 395V390.208H120V385.417H120.5V375.833H120V371.042H120.5V361.458H120V356.667H120.5V347.083H120V342.292H120.5V332.708H120V327.917H120.5V318.333H120V313.542H120.5V303.958H120V299.167H120.5V289.583H120V284.792H120.5V280C120.5 278.611 120.682 277.266 121.024 275.986L120.542 275.857C120.904 274.505 121.438 273.223 122.12 272.036L122.142 271.999L122.574 272.249C123.935 269.897 125.897 267.935 128.249 266.574L127.999 266.142C129.196 265.449 130.491 264.907 131.857 264.542L131.986 265.024C133.266 264.682 134.611 264.5 136 264.5H140.92V264H145.839V264.5H155.679V264H160.598V264.5H170.437V264H175.356V264.5H185.195V264H190.115V264.5H199.954V264H204.874V264.5H214.713V264H219.632V264.5H229.472V264H234.391V264.5H244.229V264H249.149V264.5H258.988V264H263.908V264.5H273.747V264H278.667V264.5H288.506V264H293.425V264.5H303.265V264H308.184V264.5H318.023V264H322.942V264.5H332.781V264H337.701V264.5H347.54V264H352.46V264.5H362.299V264H367.219V264.5H377.058V264H381.977V264.5H391.816V264H396.735V264.5H406.575V264H411.494V264.5H421.333V264H426.253V264.5H436.092V264H441.012V264.5H450.851V264H455.771V264.5H465.609V264H470.528V264.5H480.368V264H485.287V264.5H495.126V264H500.046V264.5H509.885V264H514.805V264.5H524.644V264H529.563V264.5H539.402V264H544.322V264.5H554.161V264H559.08V264.5H564C565.389 264.5 566.734 264.682 568.014 265.024L568.142 264.542C569.509 264.907 570.803 265.449 572 266.142L571.751 266.574C574.103 267.935 576.065 269.897 577.426 272.249L577.857 271.999Z" stroke="#FF7043" stroke-dasharray="10 5"/>
<path d="M140 300C140 291.163 147.163 284 156 284H176C184.837 284 192 291.163 192 300C192 308.837 184.837 316 176 316H156C147.163 316 140 308.837 140 300Z" fill="#FF7043"/>
<rect x="164" y="288" width="24" height="24" rx="12" fill="white"/>
<path d="M156 365H176C184.284 365 191 371.716 191 380C191 388.284 184.284 395 176 395H156C147.716 395 141 388.284 141 380C141 371.716 147.716 365 156 365Z" fill="#EAEAEA"/>
<path d="M156 365H176C184.284 365 191 371.716 191 380C191 388.284 184.284 395 176 395H156C147.716 395 141 388.284 141 380C141 371.716 147.716 365 156 365Z" stroke="#797979" stroke-width="2"/>
<rect x="146" y="372" width="16" height="16" rx="8" fill="#797979"/>
<path d="M524 365H544C552.284 365 559 371.716 559 380C559 388.284 552.284 395 544 395H524C515.716 395 509 388.284 509 380C509 371.716 515.716 365 524 365Z" fill="#EAEAEA"/>
<path d="M524 365H544C552.284 365 559 371.716 559 380C559 388.284 552.284 395 544 395H524C515.716 395 509 388.284 509 380C509 371.716 515.716 365 524 365Z" stroke="#797979" stroke-width="2"/>
<g opacity="0.38">
<rect x="514" y="372" width="16" height="16" rx="8" fill="#282828"/>
</g>
<path d="M248 365H268C276.284 365 283 371.716 283 380C283 388.284 276.284 395 268 395H248C239.716 395 233 388.284 233 380C233 371.716 239.716 365 248 365Z" fill="#EAEAEA"/>
<path d="M248 365H268C276.284 365 283 371.716 283 380C283 388.284 276.284 395 268 395H248C239.716 395 233 388.284 233 380C233 371.716 239.716 365 248 365Z" stroke="#797979" stroke-width="2"/>
<rect x="226" y="360" width="40" height="40" rx="20" fill="#282828" fill-opacity="0.08"/>
<rect x="238" y="372" width="16" height="16" rx="8" fill="#434343"/>
<path d="M340 365H360C368.284 365 375 371.716 375 380C375 388.284 368.284 395 360 395H340C331.716 395 325 388.284 325 380C325 371.716 331.716 365 340 365Z" fill="#EAEAEA"/>
<path d="M340 365H360C368.284 365 375 371.716 375 380C375 388.284 368.284 395 360 395H340C331.716 395 325 388.284 325 380C325 371.716 331.716 365 340 365Z" stroke="#797979" stroke-width="2"/>
<rect x="318" y="360" width="40" height="40" rx="20" fill="#282828" fill-opacity="0.12"/>
<rect x="330" y="372" width="16" height="16" rx="8" fill="#434343"/>
<path d="M432 365H452C460.284 365 467 371.716 467 380C467 388.284 460.284 395 452 395H432C423.716 395 417 388.284 417 380C417 371.716 423.716 365 432 365Z" fill="#EAEAEA"/>
<path d="M432 365H452C460.284 365 467 371.716 467 380C467 388.284 460.284 395 452 395H432C423.716 395 417 388.284 417 380C417 371.716 423.716 365 432 365Z" stroke="#797979" stroke-width="2"/>
<rect x="412" y="360" width="40" height="40" rx="20" fill="#282828" fill-opacity="0.12"/>
<rect x="418" y="366" width="28" height="28" rx="14" fill="#434343"/>
<path d="M508 300C508 291.163 515.163 284 524 284H544C552.837 284 560 291.163 560 300C560 308.837 552.837 316 544 316H524C515.163 316 508 308.837 508 300Z" fill="#282828" fill-opacity="0.12"/>
<rect x="532" y="288" width="24" height="24" rx="12" fill="#FAFAFA"/>
<path d="M232 300C232 291.163 239.163 284 248 284H268C276.837 284 284 291.163 284 300C284 308.837 276.837 316 268 316H248C239.163 316 232 308.837 232 300Z" fill="#FF7043"/>
<rect x="248" y="280" width="40" height="40" rx="20" fill="#FF7043" fill-opacity="0.08"/>
<rect x="256" y="288" width="24" height="24" rx="12" fill="#FFD4C6"/>
<path d="M324 300C324 291.163 331.163 284 340 284H360C368.837 284 376 291.163 376 300C376 308.837 368.837 316 360 316H340C331.163 316 324 308.837 324 300Z" fill="#FF7043"/>
<rect x="340" y="280" width="40" height="40" rx="20" fill="#FF7043" fill-opacity="0.12"/>
<rect x="348" y="288" width="24" height="24" rx="12" fill="#FFD4C6"/>
<path d="M416 300C416 291.163 423.163 284 432 284H452C460.837 284 468 291.163 468 300C468 308.837 460.837 316 452 316H432C423.163 316 416 308.837 416 300Z" fill="#FF7043"/>
<rect x="432" y="280" width="40" height="40" rx="20" fill="#FF7043" fill-opacity="0.12"/>
<rect x="438" y="286" width="28" height="28" rx="14" fill="#FFD4C6"/>
</svg>
