<svg width="673" height="1765" viewBox="0 0 673 1765" fill="none" xmlns="http://www.w3.org/2000/svg">
<rect width="673" height="1765" rx="32" fill="white"/>
<path d="M148.842 132.271V136.489H138.012V172H132.825V136.489H121.938V132.271H148.842ZM168.6 172.513C165.674 172.513 163.014 171.848 160.62 170.518C158.264 169.188 156.402 167.307 155.034 164.875C153.704 162.405 153.039 159.555 153.039 156.325C153.039 153.133 153.723 150.321 155.091 147.889C156.497 145.419 158.397 143.538 160.791 142.246C163.185 140.916 165.864 140.251 168.828 140.251C171.792 140.251 174.471 140.916 176.865 142.246C179.259 143.538 181.14 145.4 182.508 147.832C183.914 150.264 184.617 153.095 184.617 156.325C184.617 159.555 183.895 162.405 182.451 164.875C181.045 167.307 179.126 169.188 176.694 170.518C174.262 171.848 171.564 172.513 168.6 172.513ZM168.6 167.953C170.462 167.953 172.21 167.516 173.844 166.642C175.478 165.768 176.789 164.457 177.777 162.709C178.803 160.961 179.316 158.833 179.316 156.325C179.316 153.817 178.822 151.689 177.834 149.941C176.846 148.193 175.554 146.901 173.958 146.065C172.362 145.191 170.633 144.754 168.771 144.754C166.871 144.754 165.123 145.191 163.527 146.065C161.969 146.901 160.715 148.193 159.765 149.941C158.815 151.689 158.34 153.817 158.34 156.325C158.34 158.871 158.796 161.018 159.708 162.766C160.658 164.514 161.912 165.825 163.47 166.699C165.028 167.535 166.738 167.953 168.6 167.953ZM196.374 146.521C197.4 144.735 198.92 143.253 200.934 142.075C202.986 140.859 205.361 140.251 208.059 140.251C210.833 140.251 213.341 140.916 215.583 142.246C217.863 143.576 219.649 145.457 220.941 147.889C222.233 150.283 222.879 153.076 222.879 156.268C222.879 159.422 222.233 162.234 220.941 164.704C219.649 167.174 217.863 169.093 215.583 170.461C213.341 171.829 210.833 172.513 208.059 172.513C205.399 172.513 203.043 171.924 200.991 170.746C198.977 169.53 197.438 168.029 196.374 166.243V186.82H191.187V140.764H196.374V146.521ZM217.578 156.268C217.578 153.912 217.103 151.86 216.153 150.112C215.203 148.364 213.911 147.034 212.277 146.122C210.681 145.21 208.914 144.754 206.976 144.754C205.076 144.754 203.309 145.229 201.675 146.179C200.079 147.091 198.787 148.44 197.799 150.226C196.849 151.974 196.374 154.007 196.374 156.325C196.374 158.681 196.849 160.752 197.799 162.538C198.787 164.286 200.079 165.635 201.675 166.585C203.309 167.497 205.076 167.953 206.976 167.953C208.914 167.953 210.681 167.497 212.277 166.585C213.911 165.635 215.203 164.286 216.153 162.538C217.103 160.752 217.578 158.662 217.578 156.268ZM267.887 163.165H250.559L247.367 172H241.895L256.259 132.499H262.244L276.551 172H271.079L267.887 163.165ZM266.405 158.947L259.223 138.883L252.041 158.947H266.405ZM287.748 146.521C288.774 144.735 290.294 143.253 292.308 142.075C294.36 140.859 296.735 140.251 299.433 140.251C302.207 140.251 304.715 140.916 306.957 142.246C309.237 143.576 311.023 145.457 312.315 147.889C313.607 150.283 314.253 153.076 314.253 156.268C314.253 159.422 313.607 162.234 312.315 164.704C311.023 167.174 309.237 169.093 306.957 170.461C304.715 171.829 302.207 172.513 299.433 172.513C296.773 172.513 294.417 171.924 292.365 170.746C290.351 169.53 288.812 168.029 287.748 166.243V186.82H282.561V140.764H287.748V146.521ZM308.952 156.268C308.952 153.912 308.477 151.86 307.527 150.112C306.577 148.364 305.285 147.034 303.651 146.122C302.055 145.21 300.288 144.754 298.35 144.754C296.45 144.754 294.683 145.229 293.049 146.179C291.453 147.091 290.161 148.44 289.173 150.226C288.223 151.974 287.748 154.007 287.748 156.325C287.748 158.681 288.223 160.752 289.173 162.538C290.161 164.286 291.453 165.635 293.049 166.585C294.683 167.497 296.45 167.953 298.35 167.953C300.288 167.953 302.055 167.497 303.651 166.585C305.285 165.635 306.577 164.286 307.527 162.538C308.477 160.752 308.952 158.662 308.952 156.268ZM326.017 146.521C327.043 144.735 328.563 143.253 330.577 142.075C332.629 140.859 335.004 140.251 337.702 140.251C340.476 140.251 342.984 140.916 345.226 142.246C347.506 143.576 349.292 145.457 350.584 147.889C351.876 150.283 352.522 153.076 352.522 156.268C352.522 159.422 351.876 162.234 350.584 164.704C349.292 167.174 347.506 169.093 345.226 170.461C342.984 171.829 340.476 172.513 337.702 172.513C335.042 172.513 332.686 171.924 330.634 170.746C328.62 169.53 327.081 168.029 326.017 166.243V186.82H320.83V140.764H326.017V146.521ZM347.221 156.268C347.221 153.912 346.746 151.86 345.796 150.112C344.846 148.364 343.554 147.034 341.92 146.122C340.324 145.21 338.557 144.754 336.619 144.754C334.719 144.754 332.952 145.229 331.318 146.179C329.722 147.091 328.43 148.44 327.442 150.226C326.492 151.974 326.017 154.007 326.017 156.325C326.017 158.681 326.492 160.752 327.442 162.538C328.43 164.286 329.722 165.635 331.318 166.585C332.952 167.497 334.719 167.953 336.619 167.953C338.557 167.953 340.324 167.497 341.92 166.585C343.554 165.635 344.846 164.286 345.796 162.538C346.746 160.752 347.221 158.662 347.221 156.268ZM393.939 151.537C395.383 151.765 396.694 152.354 397.872 153.304C399.088 154.254 400.038 155.432 400.722 156.838C401.444 158.244 401.805 159.745 401.805 161.341C401.805 163.355 401.292 165.179 400.266 166.813C399.24 168.409 397.739 169.682 395.763 170.632C393.825 171.544 391.526 172 388.866 172H374.046V132.271H388.296C390.994 132.271 393.293 132.727 395.193 133.639C397.093 134.513 398.518 135.71 399.468 137.23C400.418 138.75 400.893 140.46 400.893 142.36C400.893 144.716 400.247 146.673 398.955 148.231C397.701 149.751 396.029 150.853 393.939 151.537ZM379.233 149.428H387.954C390.386 149.428 392.267 148.858 393.597 147.718C394.927 146.578 395.592 145.001 395.592 142.987C395.592 140.973 394.927 139.396 393.597 138.256C392.267 137.116 390.348 136.546 387.84 136.546H379.233V149.428ZM388.41 167.725C390.994 167.725 393.008 167.117 394.452 165.901C395.896 164.685 396.618 162.994 396.618 160.828C396.618 158.624 395.858 156.895 394.338 155.641C392.818 154.349 390.785 153.703 388.239 153.703H379.233V167.725H388.41ZM406.815 156.268C406.815 153.076 407.461 150.283 408.753 147.889C410.045 145.457 411.812 143.576 414.054 142.246C416.334 140.916 418.861 140.251 421.635 140.251C424.371 140.251 426.746 140.84 428.76 142.018C430.774 143.196 432.275 144.678 433.263 146.464V140.764H438.507V172H433.263V166.186C432.237 168.01 430.698 169.53 428.646 170.746C426.632 171.924 424.276 172.513 421.578 172.513C418.804 172.513 416.296 171.829 414.054 170.461C411.812 169.093 410.045 167.174 408.753 164.704C407.461 162.234 406.815 159.422 406.815 156.268ZM433.263 156.325C433.263 153.969 432.788 151.917 431.838 150.169C430.888 148.421 429.596 147.091 427.962 146.179C426.366 145.229 424.599 144.754 422.661 144.754C420.723 144.754 418.956 145.21 417.36 146.122C415.764 147.034 414.491 148.364 413.541 150.112C412.591 151.86 412.116 153.912 412.116 156.268C412.116 158.662 412.591 160.752 413.541 162.538C414.491 164.286 415.764 165.635 417.36 166.585C418.956 167.497 420.723 167.953 422.661 167.953C424.599 167.953 426.366 167.497 427.962 166.585C429.596 165.635 430.888 164.286 431.838 162.538C432.788 160.752 433.263 158.681 433.263 156.325ZM452.21 145.837C453.122 144.051 454.414 142.664 456.086 141.676C457.796 140.688 459.867 140.194 462.299 140.194V145.552H460.931C455.117 145.552 452.21 148.706 452.21 155.014V172H447.023V140.764H452.21V145.837Z" fill="#282828"/>
<rect x="120.5" y="224.5" width="432" height="1156" rx="15.5" stroke="#FF7043" stroke-dasharray="10 5"/>
<rect width="393" height="112" transform="translate(140 446)" fill="white"/>
<path d="M167.5 487C172.747 487 177 482.747 177 477.5C177 472.253 172.747 468 167.5 468C162.253 468 158 472.253 158 477.5C158 482.747 162.253 487 167.5 487Z" stroke="#434343" stroke-width="1.5" stroke-linecap="round" stroke-linejoin="round"/>
<path d="M178 488L176 486" stroke="#434343" stroke-width="1.5" stroke-linecap="round" stroke-linejoin="round"/>
<path d="M501.331 468.327C503.101 466.956 505.871 466.887 507.71 468.175L513.47 472.205H513.471C514.142 472.675 514.706 473.387 515.103 474.146C515.499 474.905 515.76 475.776 515.76 476.6V483.38C515.76 486.344 513.355 488.75 510.391 488.75H499.61C496.644 488.75 494.24 486.332 494.24 483.37V476.47C494.24 475.697 494.478 474.868 494.837 474.139C495.196 473.41 495.708 472.715 496.318 472.239L501.329 468.328L501.331 468.327Z" stroke="#434343" stroke-width="1.5"/>
<path d="M159.696 527.372H165.064V529H157.694V513.666H159.696V527.372ZM166.442 522.928C166.442 521.696 166.691 520.618 167.19 519.694C167.689 518.755 168.371 518.029 169.236 517.516C170.116 517.003 171.091 516.746 172.162 516.746C173.218 516.746 174.135 516.973 174.912 517.428C175.689 517.883 176.269 518.455 176.65 519.144V516.944H178.674V529H176.65V526.756C176.254 527.46 175.66 528.047 174.868 528.516C174.091 528.971 173.181 529.198 172.14 529.198C171.069 529.198 170.101 528.934 169.236 528.406C168.371 527.878 167.689 527.137 167.19 526.184C166.691 525.231 166.442 524.145 166.442 522.928ZM176.65 522.95C176.65 522.041 176.467 521.249 176.1 520.574C175.733 519.899 175.235 519.386 174.604 519.034C173.988 518.667 173.306 518.484 172.558 518.484C171.81 518.484 171.128 518.66 170.512 519.012C169.896 519.364 169.405 519.877 169.038 520.552C168.671 521.227 168.488 522.019 168.488 522.928C168.488 523.852 168.671 524.659 169.038 525.348C169.405 526.023 169.896 526.543 170.512 526.91C171.128 527.262 171.81 527.438 172.558 527.438C173.306 527.438 173.988 527.262 174.604 526.91C175.235 526.543 175.733 526.023 176.1 525.348C176.467 524.659 176.65 523.859 176.65 522.95ZM184.059 519.188C184.47 518.469 185.071 517.883 185.863 517.428C186.655 516.973 187.557 516.746 188.569 516.746C189.655 516.746 190.63 517.003 191.495 517.516C192.361 518.029 193.043 518.755 193.541 519.694C194.04 520.618 194.289 521.696 194.289 522.928C194.289 524.145 194.04 525.231 193.541 526.184C193.043 527.137 192.353 527.878 191.473 528.406C190.608 528.934 189.64 529.198 188.569 529.198C187.528 529.198 186.611 528.971 185.819 528.516C185.042 528.061 184.455 527.482 184.059 526.778V529H182.057V512.72H184.059V519.188ZM192.243 522.928C192.243 522.019 192.06 521.227 191.693 520.552C191.327 519.877 190.828 519.364 190.197 519.012C189.581 518.66 188.899 518.484 188.151 518.484C187.418 518.484 186.736 518.667 186.105 519.034C185.489 519.386 184.991 519.907 184.609 520.596C184.243 521.271 184.059 522.055 184.059 522.95C184.059 523.859 184.243 524.659 184.609 525.348C184.991 526.023 185.489 526.543 186.105 526.91C186.736 527.262 187.418 527.438 188.151 527.438C188.899 527.438 189.581 527.262 190.197 526.91C190.828 526.543 191.327 526.023 191.693 525.348C192.06 524.659 192.243 523.852 192.243 522.928ZM207.924 522.51C207.924 522.891 207.902 523.295 207.858 523.72H198.222C198.296 524.908 198.699 525.839 199.432 526.514C200.18 527.174 201.082 527.504 202.138 527.504C203.004 527.504 203.722 527.306 204.294 526.91C204.881 526.499 205.292 525.957 205.526 525.282H207.682C207.36 526.441 206.714 527.387 205.746 528.12C204.778 528.839 203.576 529.198 202.138 529.198C200.994 529.198 199.968 528.941 199.058 528.428C198.164 527.915 197.46 527.189 196.946 526.25C196.433 525.297 196.176 524.197 196.176 522.95C196.176 521.703 196.426 520.611 196.924 519.672C197.423 518.733 198.12 518.015 199.014 517.516C199.924 517.003 200.965 516.746 202.138 516.746C203.282 516.746 204.294 516.995 205.174 517.494C206.054 517.993 206.729 518.682 207.198 519.562C207.682 520.427 207.924 521.41 207.924 522.51ZM205.856 522.092C205.856 521.329 205.688 520.677 205.35 520.134C205.013 519.577 204.551 519.159 203.964 518.88C203.392 518.587 202.754 518.44 202.05 518.44C201.038 518.44 200.173 518.763 199.454 519.408C198.75 520.053 198.347 520.948 198.244 522.092H205.856ZM212.569 512.72V529H210.567V512.72H212.569Z" fill="#282828"/>
<rect width="393" height="112" transform="translate(140 595)" fill="#EFEFEF"/>
<path d="M167.5 636C172.747 636 177 631.747 177 626.5C177 621.253 172.747 617 167.5 617C162.253 617 158 621.253 158 626.5C158 631.747 162.253 636 167.5 636Z" stroke="#434343" stroke-width="1.5" stroke-linecap="round" stroke-linejoin="round"/>
<path d="M178 637L176 635" stroke="#434343" stroke-width="1.5" stroke-linecap="round" stroke-linejoin="round"/>
<path d="M501.331 617.327C503.101 615.956 505.871 615.887 507.71 617.175L513.47 621.205H513.471C514.142 621.675 514.706 622.387 515.103 623.146C515.499 623.905 515.76 624.776 515.76 625.6V632.38C515.76 635.344 513.355 637.75 510.391 637.75H499.61C496.644 637.75 494.24 635.332 494.24 632.37V625.47C494.24 624.697 494.478 623.868 494.837 623.139C495.196 622.41 495.708 621.715 496.318 621.239L501.329 617.328L501.331 617.327Z" stroke="#434343" stroke-width="1.5"/>
<path d="M159.696 676.372H165.064V678H157.694V662.666H159.696V676.372ZM166.442 671.928C166.442 670.696 166.691 669.618 167.19 668.694C167.689 667.755 168.371 667.029 169.236 666.516C170.116 666.003 171.091 665.746 172.162 665.746C173.218 665.746 174.135 665.973 174.912 666.428C175.689 666.883 176.269 667.455 176.65 668.144V665.944H178.674V678H176.65V675.756C176.254 676.46 175.66 677.047 174.868 677.516C174.091 677.971 173.181 678.198 172.14 678.198C171.069 678.198 170.101 677.934 169.236 677.406C168.371 676.878 167.689 676.137 167.19 675.184C166.691 674.231 166.442 673.145 166.442 671.928ZM176.65 671.95C176.65 671.041 176.467 670.249 176.1 669.574C175.733 668.899 175.235 668.386 174.604 668.034C173.988 667.667 173.306 667.484 172.558 667.484C171.81 667.484 171.128 667.66 170.512 668.012C169.896 668.364 169.405 668.877 169.038 669.552C168.671 670.227 168.488 671.019 168.488 671.928C168.488 672.852 168.671 673.659 169.038 674.348C169.405 675.023 169.896 675.543 170.512 675.91C171.128 676.262 171.81 676.438 172.558 676.438C173.306 676.438 173.988 676.262 174.604 675.91C175.235 675.543 175.733 675.023 176.1 674.348C176.467 673.659 176.65 672.859 176.65 671.95ZM184.059 668.188C184.47 667.469 185.071 666.883 185.863 666.428C186.655 665.973 187.557 665.746 188.569 665.746C189.655 665.746 190.63 666.003 191.495 666.516C192.361 667.029 193.043 667.755 193.541 668.694C194.04 669.618 194.289 670.696 194.289 671.928C194.289 673.145 194.04 674.231 193.541 675.184C193.043 676.137 192.353 676.878 191.473 677.406C190.608 677.934 189.64 678.198 188.569 678.198C187.528 678.198 186.611 677.971 185.819 677.516C185.042 677.061 184.455 676.482 184.059 675.778V678H182.057V661.72H184.059V668.188ZM192.243 671.928C192.243 671.019 192.06 670.227 191.693 669.552C191.327 668.877 190.828 668.364 190.197 668.012C189.581 667.66 188.899 667.484 188.151 667.484C187.418 667.484 186.736 667.667 186.105 668.034C185.489 668.386 184.991 668.907 184.609 669.596C184.243 670.271 184.059 671.055 184.059 671.95C184.059 672.859 184.243 673.659 184.609 674.348C184.991 675.023 185.489 675.543 186.105 675.91C186.736 676.262 187.418 676.438 188.151 676.438C188.899 676.438 189.581 676.262 190.197 675.91C190.828 675.543 191.327 675.023 191.693 674.348C192.06 673.659 192.243 672.852 192.243 671.928ZM207.924 671.51C207.924 671.891 207.902 672.295 207.858 672.72H198.222C198.296 673.908 198.699 674.839 199.432 675.514C200.18 676.174 201.082 676.504 202.138 676.504C203.004 676.504 203.722 676.306 204.294 675.91C204.881 675.499 205.292 674.957 205.526 674.282H207.682C207.36 675.441 206.714 676.387 205.746 677.12C204.778 677.839 203.576 678.198 202.138 678.198C200.994 678.198 199.968 677.941 199.058 677.428C198.164 676.915 197.46 676.189 196.946 675.25C196.433 674.297 196.176 673.197 196.176 671.95C196.176 670.703 196.426 669.611 196.924 668.672C197.423 667.733 198.12 667.015 199.014 666.516C199.924 666.003 200.965 665.746 202.138 665.746C203.282 665.746 204.294 665.995 205.174 666.494C206.054 666.993 206.729 667.682 207.198 668.562C207.682 669.427 207.924 670.41 207.924 671.51ZM205.856 671.092C205.856 670.329 205.688 669.677 205.35 669.134C205.013 668.577 204.551 668.159 203.964 667.88C203.392 667.587 202.754 667.44 202.05 667.44C201.038 667.44 200.173 667.763 199.454 668.408C198.75 669.053 198.347 669.948 198.244 671.092H205.856ZM212.569 661.72V678H210.567V661.72H212.569Z" fill="#282828"/>
<rect width="393" height="152" transform="translate(140 756)" fill="white"/>
<path d="M167.5 797C172.747 797 177 792.747 177 787.5C177 782.253 172.747 778 167.5 778C162.253 778 158 782.253 158 787.5C158 792.747 162.253 797 167.5 797Z" stroke="#434343" stroke-width="1.5" stroke-linecap="round" stroke-linejoin="round"/>
<path d="M178 798L176 796" stroke="#434343" stroke-width="1.5" stroke-linecap="round" stroke-linejoin="round"/>
<path d="M501.331 778.327C503.101 776.956 505.871 776.887 507.71 778.175L513.47 782.205H513.471C514.142 782.675 514.706 783.387 515.103 784.146C515.499 784.905 515.76 785.776 515.76 786.6V793.38C515.76 796.344 513.355 798.75 510.391 798.75H499.61C496.644 798.75 494.24 796.332 494.24 793.37V786.47C494.24 785.697 494.478 784.868 494.837 784.139C495.196 783.41 495.708 782.715 496.318 782.239L501.329 778.328L501.331 778.327Z" stroke="#434343" stroke-width="1.5"/>
<path d="M159.696 873.372H165.064V875H157.694V859.666H159.696V873.372ZM166.442 868.928C166.442 867.696 166.691 866.618 167.19 865.694C167.689 864.755 168.371 864.029 169.236 863.516C170.116 863.003 171.091 862.746 172.162 862.746C173.218 862.746 174.135 862.973 174.912 863.428C175.689 863.883 176.269 864.455 176.65 865.144V862.944H178.674V875H176.65V872.756C176.254 873.46 175.66 874.047 174.868 874.516C174.091 874.971 173.181 875.198 172.14 875.198C171.069 875.198 170.101 874.934 169.236 874.406C168.371 873.878 167.689 873.137 167.19 872.184C166.691 871.231 166.442 870.145 166.442 868.928ZM176.65 868.95C176.65 868.041 176.467 867.249 176.1 866.574C175.733 865.899 175.235 865.386 174.604 865.034C173.988 864.667 173.306 864.484 172.558 864.484C171.81 864.484 171.128 864.66 170.512 865.012C169.896 865.364 169.405 865.877 169.038 866.552C168.671 867.227 168.488 868.019 168.488 868.928C168.488 869.852 168.671 870.659 169.038 871.348C169.405 872.023 169.896 872.543 170.512 872.91C171.128 873.262 171.81 873.438 172.558 873.438C173.306 873.438 173.988 873.262 174.604 872.91C175.235 872.543 175.733 872.023 176.1 871.348C176.467 870.659 176.65 869.859 176.65 868.95ZM184.059 865.188C184.47 864.469 185.071 863.883 185.863 863.428C186.655 862.973 187.557 862.746 188.569 862.746C189.655 862.746 190.63 863.003 191.495 863.516C192.361 864.029 193.043 864.755 193.541 865.694C194.04 866.618 194.289 867.696 194.289 868.928C194.289 870.145 194.04 871.231 193.541 872.184C193.043 873.137 192.353 873.878 191.473 874.406C190.608 874.934 189.64 875.198 188.569 875.198C187.528 875.198 186.611 874.971 185.819 874.516C185.042 874.061 184.455 873.482 184.059 872.778V875H182.057V858.72H184.059V865.188ZM192.243 868.928C192.243 868.019 192.06 867.227 191.693 866.552C191.327 865.877 190.828 865.364 190.197 865.012C189.581 864.66 188.899 864.484 188.151 864.484C187.418 864.484 186.736 864.667 186.105 865.034C185.489 865.386 184.991 865.907 184.609 866.596C184.243 867.271 184.059 868.055 184.059 868.95C184.059 869.859 184.243 870.659 184.609 871.348C184.991 872.023 185.489 872.543 186.105 872.91C186.736 873.262 187.418 873.438 188.151 873.438C188.899 873.438 189.581 873.262 190.197 872.91C190.828 872.543 191.327 872.023 191.693 871.348C192.06 870.659 192.243 869.852 192.243 868.928ZM207.924 868.51C207.924 868.891 207.902 869.295 207.858 869.72H198.222C198.296 870.908 198.699 871.839 199.432 872.514C200.18 873.174 201.082 873.504 202.138 873.504C203.004 873.504 203.722 873.306 204.294 872.91C204.881 872.499 205.292 871.957 205.526 871.282H207.682C207.36 872.441 206.714 873.387 205.746 874.12C204.778 874.839 203.576 875.198 202.138 875.198C200.994 875.198 199.968 874.941 199.058 874.428C198.164 873.915 197.46 873.189 196.946 872.25C196.433 871.297 196.176 870.197 196.176 868.95C196.176 867.703 196.426 866.611 196.924 865.672C197.423 864.733 198.12 864.015 199.014 863.516C199.924 863.003 200.965 862.746 202.138 862.746C203.282 862.746 204.294 862.995 205.174 863.494C206.054 863.993 206.729 864.682 207.198 865.562C207.682 866.427 207.924 867.41 207.924 868.51ZM205.856 868.092C205.856 867.329 205.688 866.677 205.35 866.134C205.013 865.577 204.551 865.159 203.964 864.88C203.392 864.587 202.754 864.44 202.05 864.44C201.038 864.44 200.173 864.763 199.454 865.408C198.75 866.053 198.347 866.948 198.244 868.092H205.856ZM212.569 858.72V875H210.567V858.72H212.569Z" fill="#282828"/>
<rect width="393" height="152" transform="translate(140 957)" fill="#EFEFEF"/>
<path d="M167.5 998C172.747 998 177 993.747 177 988.5C177 983.253 172.747 979 167.5 979C162.253 979 158 983.253 158 988.5C158 993.747 162.253 998 167.5 998Z" stroke="#434343" stroke-width="1.5" stroke-linecap="round" stroke-linejoin="round"/>
<path d="M178 999L176 997" stroke="#434343" stroke-width="1.5" stroke-linecap="round" stroke-linejoin="round"/>
<path d="M501.331 979.327C503.101 977.956 505.871 977.887 507.71 979.175L513.47 983.205H513.471C514.142 983.675 514.706 984.387 515.103 985.146C515.499 985.905 515.76 986.776 515.76 987.6V994.38C515.76 997.344 513.355 999.75 510.391 999.75H499.61C496.644 999.75 494.24 997.332 494.24 994.37V987.47C494.24 986.697 494.478 985.868 494.837 985.139C495.196 984.41 495.708 983.715 496.318 983.239L501.329 979.328L501.331 979.327Z" stroke="#434343" stroke-width="1.5"/>
<path d="M159.696 1074.37H165.064V1076H157.694V1060.67H159.696V1074.37ZM166.442 1069.93C166.442 1068.7 166.691 1067.62 167.19 1066.69C167.689 1065.76 168.371 1065.03 169.236 1064.52C170.116 1064 171.091 1063.75 172.162 1063.75C173.218 1063.75 174.135 1063.97 174.912 1064.43C175.689 1064.88 176.269 1065.45 176.65 1066.14V1063.94H178.674V1076H176.65V1073.76C176.254 1074.46 175.66 1075.05 174.868 1075.52C174.091 1075.97 173.181 1076.2 172.14 1076.2C171.069 1076.2 170.101 1075.93 169.236 1075.41C168.371 1074.88 167.689 1074.14 167.19 1073.18C166.691 1072.23 166.442 1071.15 166.442 1069.93ZM176.65 1069.95C176.65 1069.04 176.467 1068.25 176.1 1067.57C175.733 1066.9 175.235 1066.39 174.604 1066.03C173.988 1065.67 173.306 1065.48 172.558 1065.48C171.81 1065.48 171.128 1065.66 170.512 1066.01C169.896 1066.36 169.405 1066.88 169.038 1067.55C168.671 1068.23 168.488 1069.02 168.488 1069.93C168.488 1070.85 168.671 1071.66 169.038 1072.35C169.405 1073.02 169.896 1073.54 170.512 1073.91C171.128 1074.26 171.81 1074.44 172.558 1074.44C173.306 1074.44 173.988 1074.26 174.604 1073.91C175.235 1073.54 175.733 1073.02 176.1 1072.35C176.467 1071.66 176.65 1070.86 176.65 1069.95ZM184.059 1066.19C184.47 1065.47 185.071 1064.88 185.863 1064.43C186.655 1063.97 187.557 1063.75 188.569 1063.75C189.655 1063.75 190.63 1064 191.495 1064.52C192.361 1065.03 193.043 1065.76 193.541 1066.69C194.04 1067.62 194.289 1068.7 194.289 1069.93C194.289 1071.15 194.04 1072.23 193.541 1073.18C193.043 1074.14 192.353 1074.88 191.473 1075.41C190.608 1075.93 189.64 1076.2 188.569 1076.2C187.528 1076.2 186.611 1075.97 185.819 1075.52C185.042 1075.06 184.455 1074.48 184.059 1073.78V1076H182.057V1059.72H184.059V1066.19ZM192.243 1069.93C192.243 1069.02 192.06 1068.23 191.693 1067.55C191.327 1066.88 190.828 1066.36 190.197 1066.01C189.581 1065.66 188.899 1065.48 188.151 1065.48C187.418 1065.48 186.736 1065.67 186.105 1066.03C185.489 1066.39 184.991 1066.91 184.609 1067.6C184.243 1068.27 184.059 1069.06 184.059 1069.95C184.059 1070.86 184.243 1071.66 184.609 1072.35C184.991 1073.02 185.489 1073.54 186.105 1073.91C186.736 1074.26 187.418 1074.44 188.151 1074.44C188.899 1074.44 189.581 1074.26 190.197 1073.91C190.828 1073.54 191.327 1073.02 191.693 1072.35C192.06 1071.66 192.243 1070.85 192.243 1069.93ZM207.924 1069.51C207.924 1069.89 207.902 1070.29 207.858 1070.72H198.222C198.296 1071.91 198.699 1072.84 199.432 1073.51C200.18 1074.17 201.082 1074.5 202.138 1074.5C203.004 1074.5 203.722 1074.31 204.294 1073.91C204.881 1073.5 205.292 1072.96 205.526 1072.28H207.682C207.36 1073.44 206.714 1074.39 205.746 1075.12C204.778 1075.84 203.576 1076.2 202.138 1076.2C200.994 1076.2 199.968 1075.94 199.058 1075.43C198.164 1074.91 197.46 1074.19 196.946 1073.25C196.433 1072.3 196.176 1071.2 196.176 1069.95C196.176 1068.7 196.426 1067.61 196.924 1066.67C197.423 1065.73 198.12 1065.01 199.014 1064.52C199.924 1064 200.965 1063.75 202.138 1063.75C203.282 1063.75 204.294 1064 205.174 1064.49C206.054 1064.99 206.729 1065.68 207.198 1066.56C207.682 1067.43 207.924 1068.41 207.924 1069.51ZM205.856 1069.09C205.856 1068.33 205.688 1067.68 205.35 1067.13C205.013 1066.58 204.551 1066.16 203.964 1065.88C203.392 1065.59 202.754 1065.44 202.05 1065.44C201.038 1065.44 200.173 1065.76 199.454 1066.41C198.75 1067.05 198.347 1067.95 198.244 1069.09H205.856ZM212.569 1059.72V1076H210.567V1059.72H212.569Z" fill="#282828"/>
<rect width="393" height="64" transform="translate(140 345)" fill="#EFEFEF"/>
<path d="M167.5 386C172.747 386 177 381.747 177 376.5C177 371.253 172.747 367 167.5 367C162.253 367 158 371.253 158 376.5C158 381.747 162.253 386 167.5 386Z" stroke="#434343" stroke-width="1.5" stroke-linecap="round" stroke-linejoin="round"/>
<path d="M178 387L176 385" stroke="#434343" stroke-width="1.5" stroke-linecap="round" stroke-linejoin="round"/>
<path d="M310.696 384.372H316.064V386H308.694V370.666H310.696V384.372ZM317.442 379.928C317.442 378.696 317.691 377.618 318.19 376.694C318.689 375.755 319.371 375.029 320.236 374.516C321.116 374.003 322.091 373.746 323.162 373.746C324.218 373.746 325.135 373.973 325.912 374.428C326.689 374.883 327.269 375.455 327.65 376.144V373.944H329.674V386H327.65V383.756C327.254 384.46 326.66 385.047 325.868 385.516C325.091 385.971 324.181 386.198 323.14 386.198C322.069 386.198 321.101 385.934 320.236 385.406C319.371 384.878 318.689 384.137 318.19 383.184C317.691 382.231 317.442 381.145 317.442 379.928ZM327.65 379.95C327.65 379.041 327.467 378.249 327.1 377.574C326.733 376.899 326.235 376.386 325.604 376.034C324.988 375.667 324.306 375.484 323.558 375.484C322.81 375.484 322.128 375.66 321.512 376.012C320.896 376.364 320.405 376.877 320.038 377.552C319.671 378.227 319.488 379.019 319.488 379.928C319.488 380.852 319.671 381.659 320.038 382.348C320.405 383.023 320.896 383.543 321.512 383.91C322.128 384.262 322.81 384.438 323.558 384.438C324.306 384.438 324.988 384.262 325.604 383.91C326.235 383.543 326.733 383.023 327.1 382.348C327.467 381.659 327.65 380.859 327.65 379.95ZM335.059 376.188C335.47 375.469 336.071 374.883 336.863 374.428C337.655 373.973 338.557 373.746 339.569 373.746C340.655 373.746 341.63 374.003 342.495 374.516C343.361 375.029 344.043 375.755 344.541 376.694C345.04 377.618 345.289 378.696 345.289 379.928C345.289 381.145 345.04 382.231 344.541 383.184C344.043 384.137 343.353 384.878 342.473 385.406C341.608 385.934 340.64 386.198 339.569 386.198C338.528 386.198 337.611 385.971 336.819 385.516C336.042 385.061 335.455 384.482 335.059 383.778V386H333.057V369.72H335.059V376.188ZM343.243 379.928C343.243 379.019 343.06 378.227 342.693 377.552C342.327 376.877 341.828 376.364 341.197 376.012C340.581 375.66 339.899 375.484 339.151 375.484C338.418 375.484 337.736 375.667 337.105 376.034C336.489 376.386 335.991 376.907 335.609 377.596C335.243 378.271 335.059 379.055 335.059 379.95C335.059 380.859 335.243 381.659 335.609 382.348C335.991 383.023 336.489 383.543 337.105 383.91C337.736 384.262 338.418 384.438 339.151 384.438C339.899 384.438 340.581 384.262 341.197 383.91C341.828 383.543 342.327 383.023 342.693 382.348C343.06 381.659 343.243 380.852 343.243 379.928ZM358.924 379.51C358.924 379.891 358.902 380.295 358.858 380.72H349.222C349.296 381.908 349.699 382.839 350.432 383.514C351.18 384.174 352.082 384.504 353.138 384.504C354.004 384.504 354.722 384.306 355.294 383.91C355.881 383.499 356.292 382.957 356.526 382.282H358.682C358.36 383.441 357.714 384.387 356.746 385.12C355.778 385.839 354.576 386.198 353.138 386.198C351.994 386.198 350.968 385.941 350.058 385.428C349.164 384.915 348.46 384.189 347.946 383.25C347.433 382.297 347.176 381.197 347.176 379.95C347.176 378.703 347.426 377.611 347.924 376.672C348.423 375.733 349.12 375.015 350.014 374.516C350.924 374.003 351.965 373.746 353.138 373.746C354.282 373.746 355.294 373.995 356.174 374.494C357.054 374.993 357.729 375.682 358.198 376.562C358.682 377.427 358.924 378.41 358.924 379.51ZM356.856 379.092C356.856 378.329 356.688 377.677 356.35 377.134C356.013 376.577 355.551 376.159 354.964 375.88C354.392 375.587 353.754 375.44 353.05 375.44C352.038 375.44 351.173 375.763 350.454 376.408C349.75 377.053 349.347 377.948 349.244 379.092H356.856ZM363.569 369.72V386H361.567V369.72H363.569Z" fill="#282828"/>
<path d="M501.331 367.328C503.101 365.956 505.871 365.887 507.71 367.175L513.47 371.205H513.471C514.142 371.675 514.706 372.387 515.103 373.146C515.499 373.905 515.76 374.776 515.76 375.6V382.38C515.76 385.344 513.355 387.75 510.391 387.75H499.61C496.644 387.75 494.24 385.332 494.24 382.37V375.47C494.24 374.697 494.478 373.868 494.837 373.139C495.196 372.41 495.708 371.715 496.318 371.239L501.329 367.328L501.331 367.328Z" stroke="#434343" stroke-width="1.5"/>
<rect width="393" height="64" transform="translate(140 244)" fill="white"/>
<path d="M167.5 285C172.747 285 177 280.747 177 275.5C177 270.253 172.747 266 167.5 266C162.253 266 158 270.253 158 275.5C158 280.747 162.253 285 167.5 285Z" stroke="#434343" stroke-width="1.5" stroke-linecap="round" stroke-linejoin="round"/>
<path d="M178 286L176 284" stroke="#434343" stroke-width="1.5" stroke-linecap="round" stroke-linejoin="round"/>
<path d="M310.696 283.372H316.064V285H308.694V269.666H310.696V283.372ZM317.442 278.928C317.442 277.696 317.691 276.618 318.19 275.694C318.689 274.755 319.371 274.029 320.236 273.516C321.116 273.003 322.091 272.746 323.162 272.746C324.218 272.746 325.135 272.973 325.912 273.428C326.689 273.883 327.269 274.455 327.65 275.144V272.944H329.674V285H327.65V282.756C327.254 283.46 326.66 284.047 325.868 284.516C325.091 284.971 324.181 285.198 323.14 285.198C322.069 285.198 321.101 284.934 320.236 284.406C319.371 283.878 318.689 283.137 318.19 282.184C317.691 281.231 317.442 280.145 317.442 278.928ZM327.65 278.95C327.65 278.041 327.467 277.249 327.1 276.574C326.733 275.899 326.235 275.386 325.604 275.034C324.988 274.667 324.306 274.484 323.558 274.484C322.81 274.484 322.128 274.66 321.512 275.012C320.896 275.364 320.405 275.877 320.038 276.552C319.671 277.227 319.488 278.019 319.488 278.928C319.488 279.852 319.671 280.659 320.038 281.348C320.405 282.023 320.896 282.543 321.512 282.91C322.128 283.262 322.81 283.438 323.558 283.438C324.306 283.438 324.988 283.262 325.604 282.91C326.235 282.543 326.733 282.023 327.1 281.348C327.467 280.659 327.65 279.859 327.65 278.95ZM335.059 275.188C335.47 274.469 336.071 273.883 336.863 273.428C337.655 272.973 338.557 272.746 339.569 272.746C340.655 272.746 341.63 273.003 342.495 273.516C343.361 274.029 344.043 274.755 344.541 275.694C345.04 276.618 345.289 277.696 345.289 278.928C345.289 280.145 345.04 281.231 344.541 282.184C344.043 283.137 343.353 283.878 342.473 284.406C341.608 284.934 340.64 285.198 339.569 285.198C338.528 285.198 337.611 284.971 336.819 284.516C336.042 284.061 335.455 283.482 335.059 282.778V285H333.057V268.72H335.059V275.188ZM343.243 278.928C343.243 278.019 343.06 277.227 342.693 276.552C342.327 275.877 341.828 275.364 341.197 275.012C340.581 274.66 339.899 274.484 339.151 274.484C338.418 274.484 337.736 274.667 337.105 275.034C336.489 275.386 335.991 275.907 335.609 276.596C335.243 277.271 335.059 278.055 335.059 278.95C335.059 279.859 335.243 280.659 335.609 281.348C335.991 282.023 336.489 282.543 337.105 282.91C337.736 283.262 338.418 283.438 339.151 283.438C339.899 283.438 340.581 283.262 341.197 282.91C341.828 282.543 342.327 282.023 342.693 281.348C343.06 280.659 343.243 279.852 343.243 278.928ZM358.924 278.51C358.924 278.891 358.902 279.295 358.858 279.72H349.222C349.296 280.908 349.699 281.839 350.432 282.514C351.18 283.174 352.082 283.504 353.138 283.504C354.004 283.504 354.722 283.306 355.294 282.91C355.881 282.499 356.292 281.957 356.526 281.282H358.682C358.36 282.441 357.714 283.387 356.746 284.12C355.778 284.839 354.576 285.198 353.138 285.198C351.994 285.198 350.968 284.941 350.058 284.428C349.164 283.915 348.46 283.189 347.946 282.25C347.433 281.297 347.176 280.197 347.176 278.95C347.176 277.703 347.426 276.611 347.924 275.672C348.423 274.733 349.12 274.015 350.014 273.516C350.924 273.003 351.965 272.746 353.138 272.746C354.282 272.746 355.294 272.995 356.174 273.494C357.054 273.993 357.729 274.682 358.198 275.562C358.682 276.427 358.924 277.41 358.924 278.51ZM356.856 278.092C356.856 277.329 356.688 276.677 356.35 276.134C356.013 275.577 355.551 275.159 354.964 274.88C354.392 274.587 353.754 274.44 353.05 274.44C352.038 274.44 351.173 274.763 350.454 275.408C349.75 276.053 349.347 276.948 349.244 278.092H356.856ZM363.569 268.72V285H361.567V268.72H363.569Z" fill="#282828"/>
<path d="M501.331 266.328C503.101 264.956 505.871 264.887 507.71 266.175L513.47 270.205H513.471C514.142 270.675 514.706 271.387 515.103 272.146C515.499 272.905 515.76 273.776 515.76 274.6V281.38C515.76 284.344 513.355 286.75 510.391 286.75H499.61C496.644 286.75 494.24 284.332 494.24 281.37V274.47C494.24 273.697 494.478 272.868 494.837 272.139C495.196 271.41 495.708 270.715 496.318 270.239L501.329 266.328L501.331 266.328Z" stroke="#434343" stroke-width="1.5"/>
<rect width="393" height="64" transform="translate(140 1169)" fill="white"/>
<path d="M165.57 1194.93L159.5 1201L165.57 1207.07" stroke="#434343" stroke-width="1.5" stroke-miterlimit="10" stroke-linecap="round" stroke-linejoin="round"/>
<path d="M176.5 1201H159.67" stroke="#434343" stroke-width="1.5" stroke-miterlimit="10" stroke-linecap="round" stroke-linejoin="round"/>
<g clip-path="url(#clip0_226_2638)">
<path d="M490.416 1206.1C489.762 1206.1 489.174 1205.99 488.652 1205.76C488.129 1205.53 487.718 1205.2 487.42 1204.78C487.121 1204.36 486.972 1203.87 486.972 1203.31H488.68C488.717 1203.73 488.88 1204.08 489.17 1204.35C489.468 1204.62 489.884 1204.75 490.416 1204.75C490.966 1204.75 491.396 1204.62 491.704 1204.36C492.012 1204.09 492.166 1203.75 492.166 1203.33C492.166 1203 492.068 1202.73 491.872 1202.53C491.685 1202.32 491.447 1202.16 491.158 1202.05C490.878 1201.94 490.486 1201.82 489.982 1201.69C489.347 1201.52 488.829 1201.35 488.428 1201.18C488.036 1201.01 487.7 1200.74 487.42 1200.37C487.14 1200.01 487 1199.52 487 1198.92C487 1198.36 487.14 1197.87 487.42 1197.45C487.7 1197.03 488.092 1196.7 488.596 1196.48C489.1 1196.26 489.683 1196.14 490.346 1196.14C491.288 1196.14 492.058 1196.38 492.656 1196.86C493.262 1197.32 493.598 1197.97 493.664 1198.79H491.9C491.872 1198.44 491.704 1198.13 491.396 1197.88C491.088 1197.63 490.682 1197.5 490.178 1197.5C489.72 1197.5 489.347 1197.62 489.058 1197.85C488.768 1198.09 488.624 1198.42 488.624 1198.86C488.624 1199.16 488.712 1199.41 488.89 1199.6C489.076 1199.79 489.31 1199.94 489.59 1200.05C489.87 1200.16 490.252 1200.28 490.738 1200.41C491.382 1200.59 491.904 1200.77 492.306 1200.95C492.716 1201.12 493.062 1201.4 493.342 1201.77C493.631 1202.14 493.776 1202.63 493.776 1203.24C493.776 1203.74 493.64 1204.2 493.37 1204.64C493.108 1205.08 492.721 1205.44 492.208 1205.71C491.704 1205.97 491.106 1206.1 490.416 1206.1ZM498.811 1202.15L502.367 1206H500.211L497.355 1202.68V1206H495.759V1195.64H497.355V1201.66L500.155 1198.29H502.367L498.811 1202.15ZM504.423 1197.26C504.133 1197.26 503.891 1197.17 503.695 1196.97C503.499 1196.77 503.401 1196.53 503.401 1196.24C503.401 1195.95 503.499 1195.71 503.695 1195.51C503.891 1195.32 504.133 1195.22 504.423 1195.22C504.703 1195.22 504.941 1195.32 505.137 1195.51C505.333 1195.71 505.431 1195.95 505.431 1196.24C505.431 1196.53 505.333 1196.77 505.137 1196.97C504.941 1197.17 504.703 1197.26 504.423 1197.26ZM505.207 1198.29V1206H503.611V1198.29H505.207ZM508.998 1199.42C509.269 1199.07 509.637 1198.77 510.104 1198.52C510.571 1198.28 511.098 1198.16 511.686 1198.16C512.358 1198.16 512.969 1198.33 513.52 1198.66C514.08 1198.99 514.519 1199.45 514.836 1200.05C515.153 1200.65 515.312 1201.33 515.312 1202.11C515.312 1202.88 515.153 1203.58 514.836 1204.19C514.519 1204.8 514.08 1205.28 513.52 1205.62C512.969 1205.96 512.358 1206.13 511.686 1206.13C511.098 1206.13 510.575 1206.01 510.118 1205.78C509.661 1205.53 509.287 1205.23 508.998 1204.88V1209.67H507.402V1198.29H508.998V1199.42ZM513.688 1202.11C513.688 1201.58 513.576 1201.12 513.352 1200.74C513.137 1200.34 512.848 1200.05 512.484 1199.85C512.129 1199.65 511.747 1199.55 511.336 1199.55C510.935 1199.55 510.552 1199.65 510.188 1199.85C509.833 1200.06 509.544 1200.36 509.32 1200.75C509.105 1201.14 508.998 1201.6 508.998 1202.14C508.998 1202.67 509.105 1203.13 509.32 1203.54C509.544 1203.93 509.833 1204.23 510.188 1204.43C510.552 1204.64 510.935 1204.74 511.336 1204.74C511.747 1204.74 512.129 1204.64 512.484 1204.43C512.848 1204.22 513.137 1203.91 513.352 1203.51C513.576 1203.11 513.688 1202.64 513.688 1202.11Z" fill="#FF7043"/>
</g>
<path d="M193 1201C193 1199.9 193.895 1199 195 1199H471C472.105 1199 473 1199.9 473 1201C473 1202.1 472.105 1203 471 1203H195C193.895 1203 193 1202.1 193 1201Z" fill="#EAEAEA"/>
<path d="M193 1201C193 1199.9 193.895 1199 195 1199H261C262.105 1199 263 1199.9 263 1201C263 1202.1 262.105 1203 261 1203H195C193.895 1203 193 1202.1 193 1201Z" fill="#FF7043"/>
<rect width="393" height="64" transform="translate(140 1263)" fill="#EFEFEF"/>
<path d="M165.57 1288.93L159.5 1295L165.57 1301.07" stroke="#434343" stroke-width="1.5" stroke-miterlimit="10" stroke-linecap="round" stroke-linejoin="round"/>
<path d="M176.5 1295H159.67" stroke="#434343" stroke-width="1.5" stroke-miterlimit="10" stroke-linecap="round" stroke-linejoin="round"/>
<path d="M193 1295C193 1293.9 193.895 1293 195 1293H471C472.105 1293 473 1293.9 473 1295C473 1296.1 472.105 1297 471 1297H195C193.895 1297 193 1296.1 193 1295Z" fill="#EAEAEA"/>
<path d="M193 1295C193 1293.9 193.895 1293 195 1293H261C262.105 1293 263 1293.9 263 1295C263 1296.1 262.105 1297 261 1297H195C193.895 1297 193 1296.1 193 1295Z" fill="#FF7043"/>
<g clip-path="url(#clip1_226_2638)">
<path d="M490.416 1300.1C489.762 1300.1 489.174 1299.99 488.652 1299.76C488.129 1299.53 487.718 1299.2 487.42 1298.78C487.121 1298.36 486.972 1297.87 486.972 1297.31H488.68C488.717 1297.73 488.88 1298.08 489.17 1298.35C489.468 1298.62 489.884 1298.75 490.416 1298.75C490.966 1298.75 491.396 1298.62 491.704 1298.36C492.012 1298.09 492.166 1297.75 492.166 1297.33C492.166 1297 492.068 1296.73 491.872 1296.53C491.685 1296.32 491.447 1296.16 491.158 1296.05C490.878 1295.94 490.486 1295.82 489.982 1295.69C489.347 1295.52 488.829 1295.35 488.428 1295.18C488.036 1295.01 487.7 1294.74 487.42 1294.37C487.14 1294.01 487 1293.52 487 1292.92C487 1292.36 487.14 1291.87 487.42 1291.45C487.7 1291.03 488.092 1290.7 488.596 1290.48C489.1 1290.26 489.683 1290.14 490.346 1290.14C491.288 1290.14 492.058 1290.38 492.656 1290.86C493.262 1291.32 493.598 1291.97 493.664 1292.79H491.9C491.872 1292.44 491.704 1292.13 491.396 1291.88C491.088 1291.63 490.682 1291.5 490.178 1291.5C489.72 1291.5 489.347 1291.62 489.058 1291.85C488.768 1292.09 488.624 1292.42 488.624 1292.86C488.624 1293.16 488.712 1293.41 488.89 1293.6C489.076 1293.79 489.31 1293.94 489.59 1294.05C489.87 1294.16 490.252 1294.28 490.738 1294.41C491.382 1294.59 491.904 1294.77 492.306 1294.95C492.716 1295.12 493.062 1295.4 493.342 1295.77C493.631 1296.14 493.776 1296.63 493.776 1297.24C493.776 1297.74 493.64 1298.2 493.37 1298.64C493.108 1299.08 492.721 1299.44 492.208 1299.71C491.704 1299.97 491.106 1300.1 490.416 1300.1ZM498.811 1296.15L502.367 1300H500.211L497.355 1296.68V1300H495.759V1289.64H497.355V1295.66L500.155 1292.29H502.367L498.811 1296.15ZM504.423 1291.26C504.133 1291.26 503.891 1291.17 503.695 1290.97C503.499 1290.77 503.401 1290.53 503.401 1290.24C503.401 1289.95 503.499 1289.71 503.695 1289.51C503.891 1289.32 504.133 1289.22 504.423 1289.22C504.703 1289.22 504.941 1289.32 505.137 1289.51C505.333 1289.71 505.431 1289.95 505.431 1290.24C505.431 1290.53 505.333 1290.77 505.137 1290.97C504.941 1291.17 504.703 1291.26 504.423 1291.26ZM505.207 1292.29V1300H503.611V1292.29H505.207ZM508.998 1293.42C509.269 1293.07 509.637 1292.77 510.104 1292.52C510.571 1292.28 511.098 1292.16 511.686 1292.16C512.358 1292.16 512.969 1292.33 513.52 1292.66C514.08 1292.99 514.519 1293.45 514.836 1294.05C515.153 1294.65 515.312 1295.33 515.312 1296.11C515.312 1296.88 515.153 1297.58 514.836 1298.19C514.519 1298.8 514.08 1299.28 513.52 1299.62C512.969 1299.96 512.358 1300.13 511.686 1300.13C511.098 1300.13 510.575 1300.01 510.118 1299.78C509.661 1299.53 509.287 1299.23 508.998 1298.88V1303.67H507.402V1292.29H508.998V1293.42ZM513.688 1296.11C513.688 1295.58 513.576 1295.12 513.352 1294.74C513.137 1294.34 512.848 1294.05 512.484 1293.85C512.129 1293.65 511.747 1293.55 511.336 1293.55C510.935 1293.55 510.552 1293.65 510.188 1293.85C509.833 1294.06 509.544 1294.36 509.32 1294.75C509.105 1295.14 508.998 1295.6 508.998 1296.14C508.998 1296.67 509.105 1297.13 509.32 1297.54C509.544 1297.93 509.833 1298.23 510.188 1298.43C510.552 1298.64 510.935 1298.74 511.336 1298.74C511.747 1298.74 512.129 1298.64 512.484 1298.43C512.848 1298.22 513.137 1297.91 513.352 1297.51C513.576 1297.11 513.688 1296.64 513.688 1296.11Z" fill="#FF7043"/>
</g>
<path d="M321.857 1429C322.55 1430.2 323.092 1431.49 323.457 1432.86L322.976 1432.99C323.318 1434.27 323.5 1435.61 323.5 1437V1441.92H324V1446.85H323.5V1456.69H324V1461.62H323.5V1471.46H324V1476.38H323.5V1486.23H324V1491.15H323.5V1501H324V1505.92H323.5V1515.77H324V1520.69H323.5V1530.54H324V1535.46H323.5V1545.31H324V1550.23H323.5V1560.08H324V1565H323.5V1574.85H324V1579.77H323.5V1589.62H324V1594.54H323.5V1604.38H324V1609.31H323.5V1619.15H324V1624.08H323.5V1629C323.5 1630.39 323.318 1631.73 322.976 1633.01L323.457 1633.14C323.092 1634.51 322.55 1635.8 321.857 1637L321.426 1636.75C320.065 1639.1 318.103 1641.06 315.751 1642.43L316 1642.86C314.803 1643.55 313.509 1644.09 312.142 1644.46L312.014 1643.98C310.734 1644.32 309.389 1644.5 308 1644.5H302.788V1645H297.576V1644.5H287.151V1645H281.939V1644.5H271.515V1645H266.303V1644.5H255.879V1645H250.667V1644.5H240.242V1645H235.03V1644.5H224.606V1645H219.394V1644.5H208.97V1645H203.758V1644.5H193.333V1645H188.121V1644.5H177.697V1645H172.484V1644.5H162.061V1645H156.849V1644.5H146.424V1645H141.212V1644.5H136C134.611 1644.5 133.266 1644.32 131.986 1643.98L131.857 1644.46C130.49 1644.09 129.196 1643.55 127.999 1642.86L128.249 1642.43C125.897 1641.06 123.935 1639.1 122.574 1636.75L122.142 1637C121.449 1635.8 120.907 1634.51 120.542 1633.14L121.024 1633.01C120.682 1631.73 120.5 1630.39 120.5 1629V1624.08H120V1619.15H120.5V1609.31H120V1604.38H120.5V1594.54H120V1589.62H120.5V1579.77H120V1574.85H120.5V1565H120V1560.08H120.5V1550.23H120V1545.31H120.5V1535.46H120V1530.54H120.5V1520.69H120V1515.77H120.5V1505.92H120V1501H120.5V1491.15H120V1486.23H120.5V1476.38H120V1471.46H120.5V1461.62H120V1456.69H120.5V1446.85H120V1441.92H120.5V1437C120.5 1435.61 120.682 1434.27 121.024 1432.99L120.542 1432.86C120.904 1431.5 121.438 1430.22 122.12 1429.04L122.142 1429L122.574 1429.25C123.935 1426.9 125.897 1424.94 128.249 1423.57L127.999 1423.14C129.196 1422.45 130.491 1421.91 131.857 1421.54L131.986 1422.02C133.266 1421.68 134.611 1421.5 136 1421.5H141.212V1421H146.424V1421.5H156.849V1421H162.061V1421.5H172.485V1421H177.697V1421.5H188.121V1421H193.333V1421.5H203.758V1421H208.97V1421.5H219.394V1421H224.606V1421.5H235.03V1421H240.242V1421.5H250.667V1421H255.879V1421.5H266.303V1421H271.516V1421.5H281.939V1421H287.151V1421.5H297.576V1421H302.788V1421.5H308C309.389 1421.5 310.734 1421.68 312.014 1422.02L312.142 1421.54C313.509 1421.91 314.803 1422.45 316 1423.14L315.751 1423.57C318.103 1424.94 320.065 1426.9 321.426 1429.25L321.857 1429Z" stroke="#FF7043" stroke-dasharray="10 5"/>
<path d="M160.331 1521.33C162.101 1519.96 164.871 1519.89 166.71 1521.18L172.47 1525.21H172.471C173.142 1525.68 173.706 1526.39 174.103 1527.15C174.499 1527.9 174.76 1528.78 174.76 1529.6V1536.38C174.76 1539.34 172.355 1541.75 169.391 1541.75H158.61C155.644 1541.75 153.24 1539.33 153.24 1536.37V1529.47C153.24 1528.7 153.478 1527.87 153.837 1527.14C154.196 1526.41 154.708 1525.71 155.318 1525.24L160.329 1521.33L160.331 1521.33Z" stroke="#434343" stroke-width="1.5"/>
<path d="M218.331 1521.33C220.101 1519.96 222.871 1519.89 224.71 1521.18L230.47 1525.21H230.471C231.142 1525.68 231.706 1526.39 232.103 1527.15C232.499 1527.9 232.76 1528.78 232.76 1529.6V1536.38C232.76 1539.34 230.355 1541.75 227.391 1541.75H216.61C213.644 1541.75 211.24 1539.33 211.24 1536.37V1529.47C211.24 1528.7 211.478 1527.87 211.837 1527.14C212.196 1526.41 212.708 1525.71 213.318 1525.24L218.329 1521.33L218.331 1521.33Z" stroke="#434343" stroke-width="1.5"/>
<path d="M160.331 1455.33C162.101 1453.96 164.871 1453.89 166.71 1455.18L172.47 1459.21H172.471C173.142 1459.68 173.706 1460.39 174.103 1461.15C174.499 1461.9 174.76 1462.78 174.76 1463.6V1470.38C174.76 1473.34 172.355 1475.75 169.391 1475.75H158.61C155.644 1475.75 153.24 1473.33 153.24 1470.37V1463.47C153.24 1462.7 153.478 1461.87 153.837 1461.14C154.196 1460.41 154.708 1459.71 155.318 1459.24L160.329 1455.33L160.331 1455.33Z" stroke="#434343" stroke-width="1.5"/>
<path d="M160.331 1591.33C162.101 1589.96 164.871 1589.89 166.71 1591.18L172.47 1595.21H172.471C173.142 1595.68 173.706 1596.39 174.103 1597.15C174.499 1597.9 174.76 1598.78 174.76 1599.6V1606.38C174.76 1609.34 172.355 1611.75 169.391 1611.75H158.61C155.644 1611.75 153.24 1609.33 153.24 1606.37V1599.47C153.24 1598.7 153.478 1597.87 153.837 1597.14C154.196 1596.41 154.708 1595.71 155.318 1595.24L160.329 1591.33L160.331 1591.33Z" stroke="#434343" stroke-width="1.5"/>
<path d="M218.331 1591.33C220.101 1589.96 222.871 1589.89 224.71 1591.18L230.47 1595.21H230.471C231.142 1595.68 231.706 1596.39 232.103 1597.15C232.499 1597.9 232.76 1598.78 232.76 1599.6V1606.38C232.76 1609.34 230.355 1611.75 227.391 1611.75H216.61C213.644 1611.75 211.24 1609.33 211.24 1606.37V1599.47C211.24 1598.7 211.478 1597.87 211.837 1597.14C212.196 1596.41 212.708 1595.71 213.318 1595.24L218.329 1591.33L218.331 1591.33Z" stroke="#434343" stroke-width="1.5"/>
<path d="M276.331 1591.33C278.101 1589.96 280.871 1589.89 282.71 1591.18L288.47 1595.21H288.471C289.142 1595.68 289.706 1596.39 290.103 1597.15C290.499 1597.9 290.76 1598.78 290.76 1599.6V1606.38C290.76 1609.34 288.355 1611.75 285.391 1611.75H274.61C271.644 1611.75 269.24 1609.33 269.24 1606.37V1599.47C269.24 1598.7 269.478 1597.87 269.837 1597.14C270.196 1596.41 270.708 1595.71 271.318 1595.24L276.329 1591.33L276.331 1591.33Z" stroke="#434343" stroke-width="1.5"/>
<defs>
<clipPath id="clip0_226_2638">
<path d="M474 1201C474 1189.95 482.954 1181 494 1181H508C519.046 1181 528 1189.95 528 1201C528 1212.05 519.046 1221 508 1221H494C482.954 1221 474 1212.05 474 1201Z" fill="white"/>
</clipPath>
<clipPath id="clip1_226_2638">
<path d="M474 1295C474 1283.95 482.954 1275 494 1275H508C519.046 1275 528 1283.95 528 1295C528 1306.05 519.046 1315 508 1315H494C482.954 1315 474 1306.05 474 1295Z" fill="white"/>
</clipPath>
</defs>
</svg>
