<svg width="236" height="80" viewBox="0 0 236 80" fill="none" xmlns="http://www.w3.org/2000/svg">
<path d="M233.857 7.99902C234.55 9.19586 235.092 10.4904 235.457 11.8574L234.976 11.9863C235.318 13.2659 235.5 14.6113 235.5 16V21.333H236V26.667H235.5V37.333H236V42.667H235.5V53.333H236V58.667H235.5V64C235.5 65.3887 235.318 66.7341 234.976 68.0137L235.457 68.1416C235.092 69.5086 234.55 70.8031 233.857 72L233.426 71.751C232.065 74.1032 230.103 76.0648 227.751 77.4258L228 77.8574C226.803 78.5499 225.509 79.0917 224.142 79.457L224.014 78.9756C222.734 79.3176 221.389 79.5 220 79.5H215.143V80H210.286V79.5H200.571V80H195.714V79.5H186V80H181.143V79.5H171.429V80H166.571V79.5H156.857V80H152V79.5H142.286V80H137.429V79.5H127.714V80H122.857V79.5H113.143V80H108.286V79.5H98.5713V80H93.7139V79.5H84V80H79.1426V79.5H69.4287V80H64.5713V79.5H54.8574V80H50V79.5H40.2861V80H35.4287V79.5H25.7139V80H20.8574V79.5H16C14.6113 79.5 13.2659 79.3176 11.9863 78.9756L11.8574 79.457C10.4904 79.0916 9.19586 78.5499 7.99902 77.8574L8.24902 77.4258C5.89681 76.0648 3.93523 74.1032 2.57422 71.751L2.1416 72C1.44921 70.8032 0.907312 69.5086 0.541992 68.1416L1.02441 68.0137C0.682382 66.7341 0.5 65.3887 0.5 64V58.667H0V53.333H0.5V42.667H0V37.333H0.5V26.667H0V21.333H0.5V16C0.5 14.6113 0.682383 13.2659 1.02441 11.9863L0.541992 11.8574C0.903607 10.5046 1.43792 9.22255 2.12012 8.03613L2.1416 7.99902L2.57422 8.24902C3.93523 5.89681 5.89681 3.93523 8.24902 2.57422L7.99902 2.1416C9.19581 1.44916 10.4905 0.907384 11.8574 0.541992L11.9863 1.02441C13.2659 0.682382 14.6113 0.5 16 0.5H20.8574V0H25.7139V0.5H35.4287V0H40.2861V0.5H50V0H54.8574V0.5H64.5713V0H69.4287V0.5H79.1426V0H84V0.5H93.7139V0H98.5713V0.5H108.286V0H113.143V0.5H122.857V0H127.714V0.5H137.429V0H142.286V0.5H152V0H156.857V0.5H166.571V0H171.429V0.5H181.143V0H186V0.5H195.714V0H200.571V0.5H210.286V0H215.143V0.5H220C221.389 0.5 222.734 0.682383 224.014 1.02441L224.142 0.541992C225.509 0.907312 226.803 1.44921 228 2.1416L227.751 2.57422C230.103 3.93523 232.065 5.89681 233.426 8.24902L233.857 7.99902Z" stroke="#FF7043" stroke-dasharray="10 5"/>
<path fill-rule="evenodd" clip-rule="evenodd" d="M40 60C51.0457 60 60 51.0457 60 40C60 28.9543 51.0457 20 40 20C28.9543 20 20 28.9543 20 40C20 51.0457 28.9543 60 40 60Z" fill="#FFD4C6"/>
<path d="M34 40L37.9953 45L46 35" stroke="#FF7043" stroke-width="1.5" stroke-linecap="round" stroke-linejoin="round"/>
<path fill-rule="evenodd" clip-rule="evenodd" d="M195 52.2756C201.627 52.2756 207 46.9031 207 40.2756C207 33.6482 201.627 28.2756 195 28.2756C188.373 28.2756 183 33.6482 183 40.2756C183 46.9031 188.373 52.2756 195 52.2756Z" fill="#FFD4C6"/>
<path d="M189 40.2756L192.995 45.2756L201 35.2756" stroke="#FF7043" stroke-width="1.5" stroke-linecap="round" stroke-linejoin="round"/>
<g clip-path="url(#clip0_623_8318)">
<circle cx="92" cy="40" r="20" fill="#FFD4C6"/>
<path d="M94.3934 42.52H89.5294L88.6334 45H87.0974L91.1294 33.912H92.8094L96.8254 45H95.2894L94.3934 42.52ZM93.9774 41.336L91.9614 35.704L89.9454 41.336H93.9774Z" fill="#FF7043"/>
</g>
<path d="M124 40C124 28.9543 132.954 20 144 20C155.046 20 164 28.9543 164 40C164 51.0457 155.046 60 144 60C132.954 60 124 51.0457 124 40Z" fill="#FFD4C6"/>
<path fill-rule="evenodd" clip-rule="evenodd" d="M150 36C150 39.3137 147.314 42 144 42C140.687 42 138 39.3137 138 36C138 32.6863 140.687 30 144 30C147.314 30 150 32.6863 150 36ZM148 36C148 38.2091 146.209 40 144 40C141.791 40 140 38.2091 140 36C140 33.7909 141.791 32 144 32C146.209 32 148 33.7909 148 36Z" fill="#FF7043"/>
<path d="M144 45C137.526 45 132.01 48.8284 129.908 54.192C130.42 54.7004 130.959 55.1812 131.524 55.6321C133.088 50.7077 137.997 47 144 47C150.004 47 154.912 50.7077 156.477 55.6321C157.041 55.1812 157.58 54.7004 158.092 54.1921C155.991 48.8284 150.475 45 144 45Z" fill="#FF7043"/>
<defs>
<clipPath id="clip0_623_8318">
<rect width="40" height="40" fill="white" transform="translate(72 20)"/>
</clipPath>
</defs>
</svg>
