<svg width="156" height="191" viewBox="0 0 156 191" fill="none" xmlns="http://www.w3.org/2000/svg">
<path d="M41.1637 15.814C8.40378 38.4401 -16.7525 81.8337 16.1466 112.084C22.8733 118.269 31.3737 122.34 37.7334 128.906C46.176 137.621 49.9609 149.741 56.1677 160.182C64.7971 174.698 78.9407 186.321 95.4269 189.726C111.913 193.13 130.489 187.371 140.585 173.843C149.419 162.007 150.972 146.259 150.422 131.477C149.872 116.695 147.556 101.8 149.919 87.1987C151.421 77.9141 154.802 68.8792 154.86 59.473C155.112 18.5995 110.487 -3.95372 74.9644 1.30941C64.1226 2.91585 52.2109 8.18416 41.1637 15.814Z" fill="#FFC6D9"/>
<path d="M44.3731 148.948C44.7122 150.527 44.8943 152.117 44.8032 153.703C44.5592 157.955 42.0986 165.132 38.1622 167.76C32.9844 171.216 25.1948 170.256 19.2296 167.409C4.46129 160.359 -5.8405 138.067 10.9642 129.19C16.4479 126.293 23.809 126.141 29.7388 128.801C38.233 132.612 42.7218 141.258 44.3731 148.948Z" fill="#FFC6D9"/>
</svg>
