<svg width="156" height="186" viewBox="0 0 156 186" fill="none" xmlns="http://www.w3.org/2000/svg">
<path d="M3.86976 119.796C-2.36242 98.5843 -0.157367 73.6612 14.0183 57.39C19.9558 50.5747 27.6249 45.5955 33.5827 38.7995C41.1154 30.2069 45.6791 18.978 53.9519 11.1596C68.8764 -2.94534 93.1321 -2.20014 110.648 8.64483C128.164 19.4898 139.813 38.3977 147.666 57.9692C150.635 65.3688 153.189 73.1318 153.258 81.1189C153.423 100.38 139.66 115.976 130.066 132.317C124.221 142.272 119.696 153.155 112.598 162.174C97.7949 180.985 68.4999 190.998 45.9643 181.518C37.063 177.774 31.7426 168.574 25.9504 160.946C16.543 148.556 8.32686 134.966 3.86976 119.796Z" fill="#FFC6D9"/>
<path d="M36.8532 18.3754C37.3658 15.0462 36.4896 11.3291 33.8569 9.17208C32.467 8.03332 30.7096 7.41186 28.9428 7.02628C22.6859 5.66071 15.5193 7.34433 11.4609 12.2161C5.24247 19.681 4.73619 35.5698 16.6354 37.7247C26.9736 39.5969 35.5104 27.0975 36.8532 18.3754Z" fill="#FFC6D9"/>
<path d="M147.726 127.921C141.488 125.533 134.484 131.16 132.043 136.498C130.613 139.624 130.361 143.3 131.58 146.511C132.643 149.309 134.117 151.712 137.243 152.341C139.868 152.868 142.685 152.243 145.061 151.113C149.577 148.966 153.319 144.896 154.153 140.036C154.988 135.177 152.401 129.711 147.726 127.921Z" fill="#FFC6D9"/>
</svg>
