<svg width="393" height="297" viewBox="0 0 393 297" fill="none" xmlns="http://www.w3.org/2000/svg">
<g opacity="0.05">
<path d="M-8.43234 257.565C2.43232 353.502 67.0359 458.285 170.666 425.285C191.855 418.538 210.534 405.534 232.118 400.013C260.772 392.683 291.376 399.218 321.164 398.653C362.577 397.868 404.141 382.029 430.656 351.436C457.17 320.843 466.298 274.9 448.776 237.494C433.446 204.767 401.199 182.67 368.597 166.149C335.995 149.629 301.097 136.688 272.27 114.26C253.939 99.9988 238.331 82.0858 218.06 70.7158C129.972 21.3096 29.3615 88.1695 -0.526748 169.152C-9.64882 193.869 -12.0959 225.214 -8.43234 257.565Z" fill="#FF4081"/>
</g>
</svg>
