<svg width="156" height="175" viewBox="0 0 156 175" fill="none" xmlns="http://www.w3.org/2000/svg">
<path d="M149.777 97.2608C145.939 82.2178 133.768 71.7496 126.231 58.7624C118.475 45.398 121.882 26.8814 111.493 15.3193C106.559 9.82926 99.8284 6.31695 92.8956 3.97314C78.9821 -0.730784 63.3418 -0.996647 49.904 4.97963C38.1852 10.1914 28.769 19.7714 21.4584 30.4646C12.8613 43.0394 6.70746 57.533 3.78403 72.5798C1.84339 82.5679 1.85374 98.9222 7.87096 107.42C12.0068 113.26 19.0553 116.35 23.3728 122.052C27.813 127.917 28.7724 135.681 31.3491 142.608C38.8623 162.806 61.0686 175.025 82.2356 173.954C103.403 172.884 122.913 160.309 136.265 143.529C146.587 130.555 153.901 113.424 149.777 97.2608Z" fill="#FFC6D9"/>
<path d="M153.547 54.9378C156.79 46.8877 153.566 36.555 147.275 30.8669C144.022 27.9257 138.333 28.3023 134.546 30.1085C128.304 33.0855 124.945 40.8352 126.179 47.7453C127.439 54.7985 133.6 62.066 140.679 63.503C146.126 64.6088 151.437 60.176 153.547 54.9378Z" fill="#FFC6D9"/>
<path d="M20.5392 137.098C20.3322 138.594 19.8288 140.043 18.9233 141.228C15.3552 145.9 8.06255 145.313 4.28868 141.237C1.49547 138.22 0.0993335 133.974 0.300886 129.854C0.55195 124.722 4.3246 121.039 9.42669 121.474C12.8306 121.764 15.8626 123.695 17.9316 126.416C19.9107 129.019 20.6436 132.095 20.6525 135.374C20.6539 135.948 20.6181 136.526 20.5392 137.098Z" fill="#FFC6D9"/>
</svg>
