<svg width="24" height="24" viewBox="0 0 24 24" fill="none" xmlns="http://www.w3.org/2000/svg">
<path fill-rule="evenodd" clip-rule="evenodd" d="M7.95892 2.02799C9.03836 1.80708 10.369 1.75 11.9704 1.75C13.5717 1.75 14.9024 1.80708 15.9818 2.02799C17.0748 2.25168 17.9756 2.65608 18.6524 3.39749C19.3212 4.13015 19.6933 5.10742 19.9066 6.31915C20.1195 7.52872 20.1864 9.04736 20.1864 10.929C20.1864 11.6552 20.1876 12.337 20.1888 12.9766C20.1942 16.0013 20.198 18.0807 20.0616 19.4369C19.9802 20.2461 19.8399 20.9329 19.5314 21.4262C19.3655 21.6915 19.1451 21.9113 18.859 22.0577C18.578 22.2015 18.2813 22.25 17.9974 22.25C17.3486 22.25 16.7195 21.8931 16.2117 21.5403C15.716 21.1959 15.1942 20.7499 14.7007 20.3282C14.6616 20.2948 14.6227 20.2615 14.584 20.2284C14.039 19.7633 13.5272 19.3339 13.0469 19.0186C12.5487 18.6915 12.1985 18.566 11.9704 18.566C11.7422 18.566 11.392 18.6915 10.8938 19.0186C10.4135 19.3339 9.9017 19.7633 9.35679 20.2284C9.31805 20.2615 9.27911 20.2948 9.23999 20.3282C8.74653 20.7499 8.22473 21.1959 7.72902 21.5403C7.22123 21.8931 6.59215 22.25 5.94337 22.25C5.65939 22.25 5.36272 22.2015 5.08172 22.0577C4.7956 21.9113 4.57525 21.6915 4.40933 21.4262C4.10081 20.9329 3.9605 20.2461 3.87913 19.4369C3.74276 18.0807 3.74652 16.0013 3.75198 12.9766C3.75314 12.337 3.75437 11.6552 3.75437 10.929C3.75437 9.04736 3.82121 7.52872 4.03412 6.31915C4.24741 5.10742 4.61952 4.13015 5.28832 3.39749C5.9651 2.65608 6.86591 2.25168 7.95892 2.02799Z" fill="#363636"/>
</svg>
