<svg width="24" height="24" viewBox="0 0 24 24" fill="none" xmlns="http://www.w3.org/2000/svg">
<path d="M14.265 1.62701C14.265 5.17201 16.134 6.95401 17.744 8.64801C19.284 10.268 20.75 11.811 20.75 14.75C20.75 19.562 16.997 23 12.185 23C7.372 23 3.25 19.579 3.25 14.75C3.25 12.711 4.212 10.739 5.759 9.85101C6.064 9.67601 6.431 9.85801 6.562 10.185C7.563 12.684 8.797 12.64 9.437 12C9.825 11.613 9.907 10.884 9.433 9.93801C7.028 5.12601 11.296 1.65901 13.633 1.08401C13.969 1.00201 14.248 1.28201 14.265 1.62701ZM12.185 21.5C16.244 21.5 19.25 18.66 19.25 14.75C19.25 12.413 18.157 11.261 16.572 9.59201L16.551 9.56901C15.111 8.05201 13.412 6.21801 12.902 3.01201C12.1469 3.45585 11.4954 4.05591 10.991 4.77201C10.204 5.91601 9.844 7.40501 10.775 9.26701C11.378 10.472 11.552 12.007 10.498 13.061C9.841 13.718 8.736 14.161 7.542 13.647C6.79 13.323 6.189 12.692 5.704 11.857C5.137 12.563 4.75 13.597 4.75 14.75C4.75 18.597 8.038 21.5 12.185 21.5Z" fill="#363636"/>
</svg>
