<svg width="593" height="1269" viewBox="0 0 593 1269" fill="none" xmlns="http://www.w3.org/2000/svg">
<rect width="593" height="1269" rx="32" fill="white"/>
<path d="M109.576 112.271V152H104.389V112.271H109.576ZM116.228 136.325C116.228 133.095 116.874 130.283 118.166 127.889C119.458 125.457 121.244 123.576 123.524 122.246C125.842 120.916 128.483 120.251 131.447 120.251C135.285 120.251 138.439 121.182 140.909 123.044C143.417 124.906 145.07 127.49 145.868 130.796H140.282C139.75 128.896 138.705 127.395 137.147 126.293C135.627 125.191 133.727 124.64 131.447 124.64C128.483 124.64 126.089 125.666 124.265 127.718C122.441 129.732 121.529 132.601 121.529 136.325C121.529 140.087 122.441 142.994 124.265 145.046C126.089 147.098 128.483 148.124 131.447 148.124C133.727 148.124 135.627 147.592 137.147 146.528C138.667 145.464 139.712 143.944 140.282 141.968H145.868C145.032 145.16 143.36 147.725 140.852 149.663C138.344 151.563 135.209 152.513 131.447 152.513C128.483 152.513 125.842 151.848 123.524 150.518C121.244 149.188 119.458 147.307 118.166 144.875C116.874 142.443 116.228 139.593 116.228 136.325ZM166.162 152.513C163.236 152.513 160.576 151.848 158.182 150.518C155.826 149.188 153.964 147.307 152.596 144.875C151.266 142.405 150.601 139.555 150.601 136.325C150.601 133.133 151.285 130.321 152.653 127.889C154.059 125.419 155.959 123.538 158.353 122.246C160.747 120.916 163.426 120.251 166.39 120.251C169.354 120.251 172.033 120.916 174.427 122.246C176.821 123.538 178.702 125.4 180.07 127.832C181.476 130.264 182.179 133.095 182.179 136.325C182.179 139.555 181.457 142.405 180.013 144.875C178.607 147.307 176.688 149.188 174.256 150.518C171.824 151.848 169.126 152.513 166.162 152.513ZM166.162 147.953C168.024 147.953 169.772 147.516 171.406 146.642C173.04 145.768 174.351 144.457 175.339 142.709C176.365 140.961 176.878 138.833 176.878 136.325C176.878 133.817 176.384 131.689 175.396 129.941C174.408 128.193 173.116 126.901 171.52 126.065C169.924 125.191 168.195 124.754 166.333 124.754C164.433 124.754 162.685 125.191 161.089 126.065C159.531 126.901 158.277 128.193 157.327 129.941C156.377 131.689 155.902 133.817 155.902 136.325C155.902 138.871 156.358 141.018 157.27 142.766C158.22 144.514 159.474 145.825 161.032 146.699C162.59 147.535 164.3 147.953 166.162 147.953ZM203.968 120.194C207.768 120.194 210.846 121.353 213.202 123.671C215.558 125.951 216.736 129.257 216.736 133.589V152H211.606V134.33C211.606 131.214 210.827 128.839 209.269 127.205C207.711 125.533 205.583 124.697 202.885 124.697C200.149 124.697 197.964 125.552 196.33 127.262C194.734 128.972 193.936 131.461 193.936 134.729V152H188.749V120.764H193.936V125.21C194.962 123.614 196.349 122.379 198.097 121.505C199.883 120.631 201.84 120.194 203.968 120.194ZM236.017 152.513C233.623 152.513 231.476 152.114 229.576 151.316C227.676 150.48 226.175 149.34 225.073 147.896C223.971 146.414 223.363 144.723 223.249 142.823H228.607C228.759 144.381 229.481 145.654 230.773 146.642C232.103 147.63 233.832 148.124 235.96 148.124C237.936 148.124 239.494 147.687 240.634 146.813C241.774 145.939 242.344 144.837 242.344 143.507C242.344 142.139 241.736 141.132 240.52 140.486C239.304 139.802 237.423 139.137 234.877 138.491C232.559 137.883 230.659 137.275 229.177 136.667C227.733 136.021 226.479 135.09 225.415 133.874C224.389 132.62 223.876 130.986 223.876 128.972C223.876 127.376 224.351 125.913 225.301 124.583C226.251 123.253 227.6 122.208 229.348 121.448C231.096 120.65 233.091 120.251 235.333 120.251C238.791 120.251 241.584 121.125 243.712 122.873C245.84 124.621 246.98 127.015 247.132 130.055H241.945C241.831 128.421 241.166 127.11 239.95 126.122C238.772 125.134 237.176 124.64 235.162 124.64C233.3 124.64 231.818 125.039 230.716 125.837C229.614 126.635 229.063 127.68 229.063 128.972C229.063 129.998 229.386 130.853 230.032 131.537C230.716 132.183 231.552 132.715 232.54 133.133C233.566 133.513 234.972 133.95 236.758 134.444C239 135.052 240.824 135.66 242.23 136.268C243.636 136.838 244.833 137.712 245.821 138.89C246.847 140.068 247.379 141.607 247.417 143.507C247.417 145.217 246.942 146.756 245.992 148.124C245.042 149.492 243.693 150.575 241.945 151.373C240.235 152.133 238.259 152.513 236.017 152.513Z" fill="#282828"/>
<rect width="393" height="59" transform="translate(100 196)" fill="white"/>
<path d="M148.18 229.332C148.287 229.865 148.516 230.271 148.868 230.548C149.22 230.825 149.695 230.964 150.292 230.964C151.05 230.964 151.604 230.665 151.956 230.068C152.308 229.471 152.484 228.452 152.484 227.012C152.228 227.375 151.866 227.657 151.396 227.86C150.938 228.052 150.436 228.148 149.892 228.148C149.199 228.148 148.57 228.009 148.004 227.732C147.439 227.444 146.991 227.023 146.66 226.468C146.34 225.903 146.18 225.22 146.18 224.42C146.18 223.247 146.522 222.313 147.204 221.62C147.898 220.916 148.847 220.564 150.052 220.564C151.503 220.564 152.532 221.049 153.14 222.02C153.759 222.98 154.068 224.457 154.068 226.452C154.068 227.828 153.951 228.953 153.716 229.828C153.492 230.703 153.098 231.364 152.532 231.812C151.967 232.26 151.183 232.484 150.18 232.484C149.039 232.484 148.159 232.185 147.54 231.588C146.922 230.991 146.575 230.239 146.5 229.332H148.18ZM150.212 226.612C150.852 226.612 151.354 226.415 151.716 226.02C152.09 225.615 152.276 225.081 152.276 224.42C152.276 223.684 152.079 223.113 151.684 222.708C151.3 222.292 150.772 222.084 150.1 222.084C149.428 222.084 148.895 222.297 148.5 222.724C148.116 223.14 147.924 223.689 147.924 224.372C147.924 225.023 148.111 225.561 148.484 225.988C148.868 226.404 149.444 226.612 150.212 226.612ZM157.065 232.612C156.734 232.612 156.457 232.5 156.233 232.276C156.009 232.052 155.897 231.775 155.897 231.444C155.897 231.113 156.009 230.836 156.233 230.612C156.457 230.388 156.734 230.276 157.065 230.276C157.385 230.276 157.657 230.388 157.881 230.612C158.105 230.836 158.217 231.113 158.217 231.444C158.217 231.775 158.105 232.052 157.881 232.276C157.657 232.5 157.385 232.612 157.065 232.612ZM157.065 225.892C156.734 225.892 156.457 225.78 156.233 225.556C156.009 225.332 155.897 225.055 155.897 224.724C155.897 224.393 156.009 224.116 156.233 223.892C156.457 223.668 156.734 223.556 157.065 223.556C157.385 223.556 157.657 223.668 157.881 223.892C158.105 224.116 158.217 224.393 158.217 224.724C158.217 225.055 158.105 225.332 157.881 225.556C157.657 225.78 157.385 225.892 157.065 225.892ZM159.811 230.068V228.692L165.187 220.98H167.395V228.484H168.883V230.068H167.395V232.5H165.603V230.068H159.811ZM165.683 222.836L161.907 228.484H165.683V222.836ZM170.178 222.5V220.836H173.506V232.5H171.666V222.5H170.178Z" fill="#282828"/>
<rect x="234" y="207" width="125" height="37" rx="18.5" fill="#282828"/>
<rect x="234" y="207" width="80" height="37" rx="18.5" fill="#282828"/>
<rect x="322" y="207" width="37" height="37" rx="18.5" fill="#282828"/>
<path d="M391.299 222C391.299 221.448 391.747 221 392.299 221H393.299C393.851 221 394.299 221.448 394.299 222V230C394.299 230.552 393.851 231 393.299 231H392.299C391.747 231 391.299 230.552 391.299 230V222Z" fill="#282828"/>
<path d="M396.299 220C396.299 219.448 396.747 219 397.299 219H398.299C398.851 219 399.299 219.448 399.299 220V230C399.299 230.552 398.851 231 398.299 231H397.299C396.747 231 396.299 230.552 396.299 230V220Z" fill="#282828"/>
<path d="M386.299 225.5C386.299 224.948 386.747 224.5 387.299 224.5H388.299C388.851 224.5 389.299 224.948 389.299 225.5V230C389.299 230.552 388.851 231 388.299 231H387.299C386.747 231 386.299 230.552 386.299 230V225.5Z" fill="#282828"/>
<path d="M381.299 228C381.299 227.448 381.747 227 382.299 227H383.299C383.851 227 384.299 227.448 384.299 228V230C384.299 230.552 383.851 231 383.299 231H382.299C381.747 231 381.299 230.552 381.299 230V228Z" fill="#282828"/>
<path fill-rule="evenodd" clip-rule="evenodd" d="M415.799 221.588C418.266 221.588 420.638 222.555 422.426 224.29C422.56 224.424 422.775 224.422 422.908 224.286L424.195 222.96C424.262 222.891 424.299 222.798 424.299 222.701C424.298 222.604 424.26 222.511 424.192 222.442C419.5 217.853 412.098 217.853 407.406 222.442C407.338 222.51 407.299 222.603 407.299 222.701C407.298 222.798 407.336 222.891 407.403 222.96L408.69 224.286C408.822 224.422 409.038 224.424 409.172 224.29C410.96 222.555 413.332 221.588 415.799 221.588ZM415.835 225.589C417.19 225.589 418.497 226.103 419.501 227.032C419.637 227.164 419.851 227.161 419.984 227.026L421.269 225.7C421.337 225.63 421.374 225.536 421.373 225.438C421.372 225.34 421.333 225.247 421.264 225.178C418.205 222.274 413.467 222.274 410.408 225.178C410.339 225.247 410.3 225.34 410.299 225.438C410.298 225.536 410.336 225.631 410.403 225.7L411.688 227.026C411.821 227.161 412.035 227.164 412.171 227.032C413.175 226.104 414.48 225.59 415.835 225.589ZM418.448 228.177C418.45 228.275 418.412 228.37 418.344 228.439L416.12 230.729C416.055 230.796 415.966 230.834 415.874 230.834C415.781 230.834 415.692 230.796 415.627 230.729L413.403 228.439C413.335 228.37 413.297 228.275 413.299 228.177C413.301 228.078 413.343 227.985 413.414 227.919C414.834 226.694 416.913 226.694 418.333 227.919C418.405 227.985 418.446 228.078 418.448 228.177Z" fill="#282828"/>
<path opacity="0.35" d="M436.299 219.5H453.299C455.232 219.5 456.799 221.067 456.799 223V228C456.799 229.933 455.232 231.5 453.299 231.5H436.299C434.366 231.5 432.799 229.933 432.799 228V223C432.799 221.067 434.366 219.5 436.299 219.5Z" stroke="#282828"/>
<path opacity="0.4" d="M458.299 224V228.22C459.148 227.863 459.7 227.031 459.7 226.11C459.7 225.189 459.148 224.357 458.299 224Z" fill="#282828"/>
<path d="M434.299 223C434.299 221.895 435.194 221 436.299 221H453.299C454.403 221 455.299 221.895 455.299 223V228C455.299 229.105 454.403 230 453.299 230H436.299C435.194 230 434.299 229.105 434.299 228V223Z" fill="#282828"/>
<rect x="228" y="308" width="134" height="5" rx="2.5" fill="#282828"/>
<path fill-rule="evenodd" clip-rule="evenodd" d="M123.97 366.75C122.369 366.75 121.038 366.807 119.959 367.028C118.866 367.252 117.965 367.656 117.288 368.397C116.62 369.13 116.247 370.107 116.034 371.319C115.821 372.529 115.754 374.047 115.754 375.929C115.754 376.655 115.753 377.337 115.752 377.977L115.752 377.977C115.747 381.001 115.743 383.081 115.879 384.437C115.961 385.246 116.101 385.933 116.409 386.426C116.575 386.692 116.796 386.911 117.082 387.058C117.363 387.201 117.659 387.25 117.943 387.25C118.592 387.25 119.221 386.893 119.729 386.54C120.225 386.196 120.747 385.75 121.24 385.328L121.357 385.228C121.902 384.763 122.414 384.334 122.894 384.019C123.392 383.691 123.742 383.566 123.97 383.566C124.199 383.566 124.549 383.691 125.047 384.019C125.527 384.334 126.039 384.763 126.584 385.228L126.701 385.328C127.194 385.75 127.716 386.196 128.212 386.54C128.72 386.893 129.349 387.25 129.997 387.25C130.281 387.25 130.578 387.201 130.859 387.058C131.145 386.911 131.365 386.692 131.531 386.426C131.84 385.933 131.98 385.246 132.062 384.437C132.198 383.081 132.194 381.001 132.189 377.977C132.188 377.337 132.186 376.655 132.186 375.929C132.186 374.047 132.12 372.529 131.907 371.319C131.693 370.107 131.321 369.13 130.652 368.397C129.976 367.656 129.075 367.252 127.982 367.028C126.902 366.807 125.572 366.75 123.97 366.75ZM117.254 375.929C117.254 374.062 117.322 372.653 117.511 371.579C117.7 370.508 117.997 369.846 118.396 369.409C118.788 368.98 119.354 368.683 120.26 368.498C121.179 368.309 122.378 368.25 123.97 368.25C125.563 368.25 126.762 368.309 127.681 368.498C128.587 368.683 129.153 368.98 129.545 369.409C129.944 369.846 130.241 370.508 130.429 371.579C130.618 372.653 130.686 374.062 130.686 375.929C130.686 376.673 130.688 377.366 130.689 378.011C130.694 381.037 130.697 383.014 130.569 384.287C130.49 385.071 130.371 385.454 130.26 385.631C130.216 385.701 130.187 385.717 130.176 385.722C130.16 385.73 130.112 385.75 129.997 385.75C129.849 385.75 129.554 385.646 129.068 385.308C128.636 385.009 128.17 384.611 127.658 384.173L127.558 384.088C127.024 383.632 126.442 383.14 125.87 382.765C125.316 382.401 124.656 382.066 123.97 382.066C123.285 382.066 122.624 382.401 122.071 382.765C121.499 383.14 120.917 383.632 120.383 384.088L120.283 384.173L120.283 384.173C119.771 384.611 119.304 385.009 118.873 385.308C118.387 385.646 118.092 385.75 117.943 385.75C117.828 385.75 117.781 385.73 117.765 385.722C117.754 385.717 117.725 385.701 117.681 385.631C117.57 385.454 117.45 385.071 117.372 384.287C117.244 383.014 117.247 381.037 117.252 378.011C117.253 377.366 117.254 376.673 117.254 375.929ZM120.543 373.468C120.128 373.468 119.793 373.803 119.793 374.218C119.793 374.632 120.128 374.968 120.543 374.968H127.398C127.812 374.968 128.148 374.632 128.148 374.218C128.148 373.803 127.812 373.468 127.398 373.468H120.543Z" fill="#363636"/>
<path fill-rule="evenodd" clip-rule="evenodd" d="M167.959 367.028C169.038 366.807 170.369 366.75 171.97 366.75C173.572 366.75 174.902 366.807 175.982 367.028C177.075 367.252 177.976 367.656 178.652 368.397C179.321 369.13 179.693 370.107 179.907 371.319C180.12 372.529 180.186 374.047 180.186 375.929C180.186 376.655 180.188 377.337 180.189 377.977C180.194 381.001 180.198 383.081 180.062 384.437C179.98 385.246 179.84 385.933 179.531 386.426C179.365 386.692 179.145 386.911 178.859 387.058C178.578 387.201 178.281 387.25 177.997 387.25C177.349 387.25 176.72 386.893 176.212 386.54C175.716 386.196 175.194 385.75 174.701 385.328C174.662 385.295 174.623 385.262 174.584 385.228C174.039 384.763 173.527 384.334 173.047 384.019C172.549 383.691 172.199 383.566 171.97 383.566C171.742 383.566 171.392 383.691 170.894 384.019C170.414 384.334 169.902 384.763 169.357 385.228C169.318 385.262 169.279 385.295 169.24 385.328C168.747 385.75 168.225 386.196 167.729 386.54C167.221 386.893 166.592 387.25 165.943 387.25C165.659 387.25 165.363 387.201 165.082 387.058C164.796 386.911 164.575 386.692 164.409 386.426C164.101 385.933 163.961 385.246 163.879 384.437C163.743 383.081 163.747 381.001 163.752 377.977C163.753 377.337 163.754 376.655 163.754 375.929C163.754 374.047 163.821 372.529 164.034 371.319C164.247 370.107 164.62 369.13 165.288 368.397C165.965 367.656 166.866 367.252 167.959 367.028Z" fill="#363636"/>
<path d="M216.331 367.328C218.101 365.956 220.871 365.887 222.71 367.175L228.47 371.205H228.471C229.142 371.675 229.706 372.387 230.103 373.146C230.499 373.905 230.76 374.776 230.76 375.6V382.38C230.76 385.344 228.355 387.75 225.391 387.75H214.61C211.644 387.75 209.24 385.332 209.24 382.37V375.47C209.24 374.697 209.478 373.868 209.837 373.139C210.196 372.41 210.708 371.715 211.318 371.239L216.329 367.328L216.331 367.328Z" stroke="#363636" stroke-width="1.5"/>
<path d="M261 375H263C265 375 266 374 266 372V370C266 368 265 367 263 367H261C259 367 258 368 258 370V372C258 374 259 375 261 375Z" stroke="#363636" stroke-width="1.5" stroke-miterlimit="10" stroke-linecap="round" stroke-linejoin="round"/>
<path d="M273 375H275C277 375 278 374 278 372V370C278 368 277 367 275 367H273C271 367 270 368 270 370V372C270 374 271 375 273 375Z" stroke="#363636" stroke-width="1.5" stroke-miterlimit="10" stroke-linecap="round" stroke-linejoin="round"/>
<path d="M273 387H275C277 387 278 386 278 384V382C278 380 277 379 275 379H273C271 379 270 380 270 382V384C270 386 271 387 273 387Z" stroke="#363636" stroke-width="1.5" stroke-miterlimit="10" stroke-linecap="round" stroke-linejoin="round"/>
<path d="M261 387H263C265 387 266 386 266 384V382C266 380 265 379 263 379H261C259 379 258 380 258 382V384C258 386 259 387 261 387Z" stroke="#363636" stroke-width="1.5" stroke-miterlimit="10" stroke-linecap="round" stroke-linejoin="round"/>
<path d="M316 380.75C313.93 380.75 312.25 379.07 312.25 377C312.25 374.93 313.93 373.25 316 373.25C318.07 373.25 319.75 374.93 319.75 377C319.75 379.07 318.07 380.75 316 380.75ZM316 374.75C314.76 374.75 313.75 375.76 313.75 377C313.75 378.24 314.76 379.25 316 379.25C317.24 379.25 318.25 378.24 318.25 377C318.25 375.76 317.24 374.75 316 374.75Z" fill="#363636"/>
<path d="M319.21 387.19C319 387.19 318.79 387.16 318.58 387.11C317.96 386.94 317.44 386.55 317.11 386L316.99 385.8C316.4 384.78 315.59 384.78 315 385.8L314.89 385.99C314.56 386.55 314.04 386.95 313.42 387.11C312.79 387.28 312.14 387.19 311.59 386.86L309.87 385.87C309.26 385.52 308.82 384.95 308.63 384.26C308.45 383.57 308.54 382.86 308.89 382.25C309.18 381.74 309.26 381.28 309.09 380.99C308.92 380.7 308.49 380.53 307.9 380.53C306.44 380.53 305.25 379.34 305.25 377.88V376.12C305.25 374.66 306.44 373.47 307.9 373.47C308.49 373.47 308.92 373.3 309.09 373.01C309.26 372.72 309.19 372.26 308.89 371.75C308.54 371.14 308.45 370.42 308.63 369.74C308.81 369.05 309.25 368.48 309.87 368.13L311.6 367.14C312.73 366.47 314.22 366.86 314.9 368.01L315.02 368.21C315.61 369.23 316.42 369.23 317.01 368.21L317.12 368.02C317.8 366.86 319.29 366.47 320.43 367.15L322.15 368.14C322.76 368.49 323.2 369.06 323.39 369.75C323.57 370.44 323.48 371.15 323.13 371.76C322.84 372.27 322.76 372.73 322.93 373.02C323.1 373.31 323.53 373.48 324.12 373.48C325.58 373.48 326.77 374.67 326.77 376.13V377.89C326.77 379.35 325.58 380.54 324.12 380.54C323.53 380.54 323.1 380.71 322.93 381C322.76 381.29 322.83 381.75 323.13 382.26C323.48 382.87 323.58 383.59 323.39 384.27C323.21 384.96 322.77 385.53 322.15 385.88L320.42 386.87C320.04 387.08 319.63 387.19 319.21 387.19ZM316 383.49C316.89 383.49 317.72 384.05 318.29 385.04L318.4 385.23C318.52 385.44 318.72 385.59 318.96 385.65C319.2 385.71 319.44 385.68 319.64 385.56L321.37 384.56C321.63 384.41 321.83 384.16 321.91 383.86C321.99 383.56 321.95 383.25 321.8 382.99C321.23 382.01 321.16 381 321.6 380.23C322.04 379.46 322.95 379.02 324.09 379.02C324.73 379.02 325.24 378.51 325.24 377.87V376.11C325.24 375.48 324.73 374.96 324.09 374.96C322.95 374.96 322.04 374.52 321.6 373.75C321.16 372.98 321.23 371.97 321.8 370.99C321.95 370.73 321.99 370.42 321.91 370.12C321.83 369.82 321.64 369.58 321.38 369.42L319.65 368.43C319.22 368.17 318.65 368.32 318.39 368.76L318.28 368.95C317.71 369.94 316.88 370.5 315.99 370.5C315.1 370.5 314.27 369.94 313.7 368.95L313.59 368.75C313.34 368.33 312.78 368.18 312.35 368.43L310.62 369.43C310.36 369.58 310.16 369.83 310.08 370.13C310 370.43 310.04 370.74 310.19 371C310.76 371.98 310.83 372.99 310.39 373.76C309.95 374.53 309.04 374.97 307.9 374.97C307.26 374.97 306.75 375.48 306.75 376.12V377.88C306.75 378.51 307.26 379.03 307.9 379.03C309.04 379.03 309.95 379.47 310.39 380.24C310.83 381.01 310.76 382.02 310.19 383C310.04 383.26 310 383.57 310.08 383.87C310.16 384.17 310.35 384.41 310.61 384.57L312.34 385.56C312.55 385.69 312.8 385.72 313.03 385.66C313.27 385.6 313.47 385.44 313.6 385.23L313.71 385.04C314.28 384.06 315.11 383.49 316 383.49Z" fill="#363636"/>
<path d="M365.731 368.51L367.491 372.03C367.731 372.52 368.371 372.99 368.911 373.08L372.101 373.61C374.141 373.95 374.621 375.43 373.151 376.89L370.671 379.37C370.251 379.79 370.021 380.6 370.151 381.18L370.861 384.25C371.421 386.68 370.131 387.62 367.981 386.35L364.991 384.58C364.451 384.26 363.561 384.26 363.011 384.58L360.021 386.35C357.881 387.62 356.581 386.67 357.141 384.25L357.851 381.18C357.981 380.6 357.751 379.79 357.331 379.37L354.851 376.89C353.391 375.43 353.861 373.95 355.901 373.61L359.091 373.08C359.621 372.99 360.261 372.52 360.501 372.03L362.261 368.51C363.221 366.6 364.781 366.6 365.731 368.51Z" stroke="#363636" stroke-width="1.5" stroke-linecap="round" stroke-linejoin="round"/>
<path d="M413.731 368.51L415.491 372.03C415.731 372.52 416.371 372.99 416.911 373.08L420.101 373.61C422.141 373.95 422.621 375.43 421.151 376.89L418.671 379.37C418.251 379.79 418.021 380.6 418.151 381.18L418.861 384.25C419.421 386.68 418.131 387.62 415.981 386.35L412.991 384.58C412.451 384.26 411.561 384.26 411.011 384.58L408.021 386.35C405.881 387.62 404.581 386.67 405.141 384.25L405.851 381.18C405.981 380.6 405.751 379.79 405.331 379.37L402.851 376.89C401.391 375.43 401.861 373.95 403.901 373.61L407.091 373.08C407.621 372.99 408.261 372.52 408.501 372.03L410.261 368.51C411.221 366.6 412.781 366.6 413.731 368.51Z" fill="#363636" stroke="#363636" stroke-width="1.5" stroke-linecap="round" stroke-linejoin="round"/>
<path d="M134 420.25H128C127.59 420.25 127.25 419.91 127.25 419.5C127.25 419.09 127.59 418.75 128 418.75H134C134.41 418.75 134.75 419.09 134.75 419.5C134.75 419.91 134.41 420.25 134 420.25Z" fill="#363636"/>
<path d="M118 420.25H114C113.59 420.25 113.25 419.91 113.25 419.5C113.25 419.09 113.59 418.75 114 418.75H118C118.41 418.75 118.75 419.09 118.75 419.5C118.75 419.91 118.41 420.25 118 420.25Z" fill="#363636"/>
<path d="M122 423.75C119.66 423.75 117.75 421.84 117.75 419.5C117.75 417.16 119.66 415.25 122 415.25C124.34 415.25 126.25 417.16 126.25 419.5C126.25 421.84 124.34 423.75 122 423.75ZM122 416.75C120.48 416.75 119.25 417.98 119.25 419.5C119.25 421.02 120.48 422.25 122 422.25C123.52 422.25 124.75 421.02 124.75 419.5C124.75 417.98 123.52 416.75 122 416.75Z" fill="#363636"/>
<path d="M134 431.25H130C129.59 431.25 129.25 430.91 129.25 430.5C129.25 430.09 129.59 429.75 130 429.75H134C134.41 429.75 134.75 430.09 134.75 430.5C134.75 430.91 134.41 431.25 134 431.25Z" fill="#363636"/>
<path d="M120 431.25H114C113.59 431.25 113.25 430.91 113.25 430.5C113.25 430.09 113.59 429.75 114 429.75H120C120.41 429.75 120.75 430.09 120.75 430.5C120.75 430.91 120.41 431.25 120 431.25Z" fill="#363636"/>
<path d="M126 434.75C123.66 434.75 121.75 432.84 121.75 430.5C121.75 428.16 123.66 426.25 126 426.25C128.34 426.25 130.25 428.16 130.25 430.5C130.25 432.84 128.34 434.75 126 434.75ZM126 427.75C124.48 427.75 123.25 428.98 123.25 430.5C123.25 432.02 124.48 433.25 126 433.25C127.52 433.25 128.75 432.02 128.75 430.5C128.75 428.98 127.52 427.75 126 427.75Z" fill="#363636"/>
<path d="M172.16 423.87C172.06 423.86 171.94 423.86 171.83 423.87C169.45 423.79 167.56 421.84 167.56 419.44C167.56 416.99 169.54 415 172 415C174.45 415 176.44 416.99 176.44 419.44C176.43 421.84 174.54 423.79 172.16 423.87Z" stroke="#363636" stroke-width="1.5" stroke-linecap="round" stroke-linejoin="round"/>
<path d="M167.16 427.56C164.74 429.18 164.74 431.82 167.16 433.43C169.91 435.27 174.42 435.27 177.17 433.43C179.59 431.81 179.59 429.17 177.17 427.56C174.43 425.73 169.92 425.73 167.16 427.56Z" stroke="#363636" stroke-width="1.5" stroke-linecap="round" stroke-linejoin="round"/>
<path d="M219.5 434C224.747 434 229 429.747 229 424.5C229 419.253 224.747 415 219.5 415C214.253 415 210 419.253 210 424.5C210 429.747 214.253 434 219.5 434Z" stroke="#363636" stroke-width="1.5" stroke-linecap="round" stroke-linejoin="round"/>
<path d="M230 435L228 433" stroke="#363636" stroke-width="1.5" stroke-linecap="round" stroke-linejoin="round"/>
<path d="M268 426.43C269.723 426.43 271.12 425.033 271.12 423.31C271.12 421.587 269.723 420.19 268 420.19C266.277 420.19 264.88 421.587 264.88 423.31C264.88 425.033 266.277 426.43 268 426.43Z" stroke="#363636" stroke-width="1.5"/>
<path d="M259.62 421.49C261.59 412.83 274.42 412.84 276.38 421.5C277.53 426.58 274.37 430.88 271.6 433.54C269.59 435.48 266.41 435.48 264.39 433.54C261.63 430.88 258.47 426.57 259.62 421.49Z" stroke="#363636" stroke-width="1.5"/>
<g clip-path="url(#clip0_15_3008)">
<path fill-rule="evenodd" clip-rule="evenodd" d="M309 423C307.895 423 307 423.895 307 425C307 426.105 307.895 427 309 427C310.105 427 311 426.105 311 425C311 423.895 310.105 423 309 423ZM314 425C314 423.895 314.895 423 316 423C317.105 423 318 423.895 318 425C318 426.105 317.105 427 316 427C314.895 427 314 426.105 314 425ZM321 425C321 423.895 321.895 423 323 423C324.105 423 325 423.895 325 425C325 426.105 324.105 427 323 427C321.895 427 321 426.105 321 425Z" fill="#363636"/>
</g>
<g clip-path="url(#clip1_15_3008)">
<path fill-rule="evenodd" clip-rule="evenodd" d="M362 432C362 433.105 362.895 434 364 434C365.105 434 366 433.105 366 432C366 430.895 365.105 430 364 430C362.895 430 362 430.895 362 432ZM364 427C362.895 427 362 426.105 362 425C362 423.895 362.895 423 364 423C365.105 423 366 423.895 366 425C366 426.105 365.105 427 364 427ZM364 420C362.895 420 362 419.105 362 418C362 416.895 362.895 416 364 416C365.105 416 366 416.895 366 418C366 419.105 365.105 420 364 420Z" fill="#363636"/>
</g>
<path d="M422 423V428C422 433 420 435 415 435H409C404 435 402 433 402 428V422C402 417 404 415 409 415H414" stroke="#363636" stroke-width="1.5" stroke-linecap="round" stroke-linejoin="round"/>
<path d="M422 423H418C415 423 414 422 414 419V415L422 423Z" stroke="#363636" stroke-width="1.5" stroke-linecap="round" stroke-linejoin="round"/>
<path d="M407 426H413" stroke="#363636" stroke-width="1.5" stroke-linecap="round" stroke-linejoin="round"/>
<path d="M407 430H411" stroke="#363636" stroke-width="1.5" stroke-linecap="round" stroke-linejoin="round"/>
<path d="M134 471V476C134 481 132 483 127 483H121C116 483 114 481 114 476V470C114 465 116 463 121 463H126" stroke="#363636" stroke-width="1.5" stroke-linecap="round" stroke-linejoin="round"/>
<path d="M134 471H130C127 471 126 470 126 467V463L134 471Z" stroke="#363636" stroke-width="1.5" stroke-linecap="round" stroke-linejoin="round"/>
<path d="M172 483C177.523 483 182 478.523 182 473C182 467.477 177.523 463 172 463C166.477 463 162 467.477 162 473C162 478.523 166.477 483 172 483Z" stroke="#363636" stroke-width="1.5" stroke-linecap="round" stroke-linejoin="round"/>
<path d="M168 464H169C167.05 469.84 167.05 476.16 169 482H168" stroke="#363636" stroke-width="1.5" stroke-linecap="round" stroke-linejoin="round"/>
<path d="M175 464C176.95 469.84 176.95 476.16 175 482" stroke="#363636" stroke-width="1.5" stroke-linecap="round" stroke-linejoin="round"/>
<path d="M163 477V476C168.84 477.95 175.16 477.95 181 476V477" stroke="#363636" stroke-width="1.5" stroke-linecap="round" stroke-linejoin="round"/>
<path d="M163 470C168.84 468.05 175.16 468.05 181 470" stroke="#363636" stroke-width="1.5" stroke-linecap="round" stroke-linejoin="round"/>
<path d="M222.89 466.08C222.02 465.82 221.06 465.65 220 465.65C215.21 465.65 211.33 469.53 211.33 474.32C211.33 479.12 215.21 483 220 483C224.79 483 228.67 479.12 228.67 474.33C228.67 472.55 228.13 470.89 227.21 469.51" stroke="#363636" stroke-width="1.5" stroke-linecap="round" stroke-linejoin="round"/>
<path d="M224.13 466.32L221.24 463" stroke="#363636" stroke-width="1.5" stroke-linecap="round" stroke-linejoin="round"/>
<path d="M224.13 466.32L220.76 468.78" stroke="#363636" stroke-width="1.5" stroke-linecap="round" stroke-linejoin="round"/>
<path d="M265.11 466.08C265.98 465.82 266.94 465.65 268 465.65C272.79 465.65 276.67 469.53 276.67 474.32C276.67 479.11 272.79 482.99 268 482.99C263.21 482.99 259.33 479.11 259.33 474.32C259.33 472.54 259.87 470.88 260.79 469.5" stroke="#363636" stroke-width="1.5" stroke-linecap="round" stroke-linejoin="round"/>
<path d="M263.87 466.32L266.76 463" stroke="#363636" stroke-width="1.5" stroke-linecap="round" stroke-linejoin="round"/>
<path d="M263.87 466.32L267.24 468.78" stroke="#363636" stroke-width="1.5" stroke-linecap="round" stroke-linejoin="round"/>
<path d="M316 483.75C310.76 483.75 306.5 479.49 306.5 474.25C306.5 469.01 310.76 464.75 316 464.75C321.24 464.75 325.5 469.01 325.5 474.25C325.5 479.49 321.24 483.75 316 483.75ZM316 466.25C311.59 466.25 308 469.84 308 474.25C308 478.66 311.59 482.25 316 482.25C320.41 482.25 324 478.66 324 474.25C324 469.84 320.41 466.25 316 466.25Z" fill="#363636"/>
<path d="M316 474.75C315.59 474.75 315.25 474.41 315.25 474V469C315.25 468.59 315.59 468.25 316 468.25C316.41 468.25 316.75 468.59 316.75 469V474C316.75 474.41 316.41 474.75 316 474.75Z" fill="#363636"/>
<path d="M319 463.75H313C312.59 463.75 312.25 463.41 312.25 463C312.25 462.59 312.59 462.25 313 462.25H319C319.41 462.25 319.75 462.59 319.75 463C319.75 463.41 319.41 463.75 319 463.75Z" fill="#363636"/>
<path d="M374 473C374 478.52 369.52 483 364 483C358.48 483 354 478.52 354 473C354 467.48 358.48 463 364 463C369.52 463 374 467.48 374 473Z" stroke="#363636" stroke-width="1.5" stroke-linecap="round" stroke-linejoin="round"/>
<path d="M367.711 476.18L364.611 474.33C364.071 474.01 363.631 473.24 363.631 472.61V468.51" stroke="#363636" stroke-width="1.5" stroke-linecap="round" stroke-linejoin="round"/>
<path d="M412.021 463.91C408.711 463.91 406.021 466.6 406.021 469.91V472.8C406.021 473.41 405.761 474.34 405.451 474.86L404.301 476.77C403.591 477.95 404.081 479.26 405.381 479.7C409.691 481.14 414.341 481.14 418.651 479.7C419.861 479.3 420.391 477.87 419.731 476.77L418.581 474.86C418.281 474.34 418.021 473.41 418.021 472.8V469.91C418.021 466.61 415.321 463.91 412.021 463.91Z" stroke="#363636" stroke-width="1.5" stroke-miterlimit="10" stroke-linecap="round"/>
<path d="M413.87 464.2C413.56 464.11 413.24 464.04 412.91 464C411.95 463.88 411.03 463.95 410.17 464.2C410.46 463.46 411.18 462.94 412.02 462.94C412.86 462.94 413.58 463.46 413.87 464.2Z" stroke="#363636" stroke-width="1.5" stroke-miterlimit="10" stroke-linecap="round" stroke-linejoin="round"/>
<path d="M415.02 480.06C415.02 481.71 413.67 483.06 412.02 483.06C411.2 483.06 410.44 482.72 409.9 482.18C409.36 481.64 409.02 480.88 409.02 480.06" stroke="#363636" stroke-width="1.5" stroke-miterlimit="10"/>
<path d="M123 511H121C116 511 114 513 114 518V524C114 529 116 531 121 531H127C132 531 134 529 134 524V522" stroke="#363636" stroke-width="1.5" stroke-linecap="round" stroke-linejoin="round"/>
<path d="M128.04 512.02L120.16 519.9C119.86 520.2 119.56 520.79 119.5 521.22L119.07 524.23C118.91 525.32 119.68 526.08 120.77 525.93L123.78 525.5C124.2 525.44 124.79 525.14 125.1 524.84L132.98 516.96C134.34 515.6 134.98 514.02 132.98 512.02C130.98 510.02 129.4 510.66 128.04 512.02Z" stroke="#363636" stroke-width="1.5" stroke-miterlimit="10" stroke-linecap="round" stroke-linejoin="round"/>
<path d="M126.91 513.15C127.58 515.54 129.45 517.41 131.85 518.09" stroke="#363636" stroke-width="1.5" stroke-miterlimit="10" stroke-linecap="round" stroke-linejoin="round"/>
<path d="M173.26 512.6L165.05 521.29C164.74 521.62 164.44 522.27 164.38 522.72L164.01 525.96C163.88 527.13 164.72 527.93 165.88 527.73L169.1 527.18C169.55 527.1 170.18 526.77 170.49 526.43L178.7 517.74C180.12 516.24 180.76 514.53 178.55 512.44C176.35 510.37 174.68 511.1 173.26 512.6Z" stroke="#363636" stroke-width="1.5" stroke-miterlimit="10" stroke-linecap="round" stroke-linejoin="round"/>
<path d="M171.89 514.05C172.32 516.81 174.56 518.92 177.34 519.2" stroke="#363636" stroke-width="1.5" stroke-miterlimit="10" stroke-linecap="round" stroke-linejoin="round"/>
<path d="M163 531H181" stroke="#363636" stroke-width="1.5" stroke-miterlimit="10" stroke-linecap="round" stroke-linejoin="round"/>
<path d="M229 514.98C225.67 514.65 222.32 514.48 218.98 514.48C217 514.48 215.02 514.58 213.04 514.78L211 514.98" stroke="#363636" stroke-width="1.5" stroke-linecap="round" stroke-linejoin="round"/>
<path d="M216.5 513.97L216.72 512.66C216.88 511.71 217 511 218.69 511H221.31C223 511 223.13 511.75 223.28 512.67L223.5 513.97" stroke="#363636" stroke-width="1.5" stroke-linecap="round" stroke-linejoin="round"/>
<path d="M226.85 518.14L226.2 528.21C226.09 529.78 226 531 223.21 531H216.79C214 531 213.91 529.78 213.8 528.21L213.15 518.14" stroke="#363636" stroke-width="1.5" stroke-linecap="round" stroke-linejoin="round"/>
<path d="M275.5 519.22V528C275.5 530 275 531 272.5 531H263.5C261 531 260.5 530 260.5 528V519.22" stroke="#363636" stroke-width="1.5" stroke-linecap="round" stroke-linejoin="round"/>
<path d="M261 511H275C277 511 278 512 278 514V516C278 518 277 519 275 519H261C259 519 258 518 258 516V514C258 512 259 511 261 511Z" stroke="#363636" stroke-width="1.5" stroke-linecap="round" stroke-linejoin="round"/>
<path d="M266.18 523H269.82" stroke="#363636" stroke-width="1.5" stroke-linecap="round" stroke-linejoin="round"/>
<path d="M321.79 519.47V526.79C321.79 529.12 319.9 531 317.58 531H310.21C307.89 531 306 529.11 306 526.79V519.47C306 517.14 307.89 515.26 310.21 515.26H317.58C319.9 515.26 321.79 517.15 321.79 519.47Z" stroke="#363636" stroke-width="1.5" stroke-linecap="round" stroke-linejoin="round"/>
<path d="M309.5 513V511.25" stroke="#363636" stroke-width="1.5" stroke-linecap="round" stroke-linejoin="round"/>
<path d="M313.5 513V511.25" stroke="#363636" stroke-width="1.5" stroke-linecap="round" stroke-linejoin="round"/>
<path d="M317.5 513V511.25" stroke="#363636" stroke-width="1.5" stroke-linecap="round" stroke-linejoin="round"/>
<path d="M325.999 522.16C325.999 524.48 324.109 526.37 321.789 526.37V517.95C324.109 517.95 325.999 519.83 325.999 522.16Z" stroke="#363636" stroke-width="1.5" stroke-linecap="round" stroke-linejoin="round"/>
<path d="M306 521H321.51" stroke="#363636" stroke-width="1.5" stroke-linecap="round" stroke-linejoin="round"/>
<path d="M370.971 531H356.971C353.971 531 353.971 529.65 353.971 528V527C353.971 526.45 354.421 526 354.971 526H372.971C373.521 526 373.971 526.45 373.971 527V528C373.971 529.65 373.971 531 370.971 531Z" stroke="#363636" stroke-width="1.5" stroke-linecap="round" stroke-linejoin="round"/>
<path d="M372.72 522V526H355.27V522C355.27 518.16 357.98 514.95 361.59 514.18C362.13 514.06 362.69 514 363.27 514H364.72C365.3 514 365.87 514.06 366.41 514.18C370.02 514.96 372.72 518.16 372.72 522Z" stroke="#363636" stroke-width="1.5" stroke-linecap="round" stroke-linejoin="round"/>
<path d="M366.5 513.5C366.5 513.74 366.47 513.96 366.41 514.18C365.87 514.06 365.3 514 364.72 514H363.27C362.69 514 362.13 514.06 361.59 514.18C361.53 513.96 361.5 513.74 361.5 513.5C361.5 512.12 362.62 511 364 511C365.38 511 366.5 512.12 366.5 513.5Z" stroke="#363636" stroke-width="1.5" stroke-linecap="round" stroke-linejoin="round"/>
<path d="M367 520H361" stroke="#363636" stroke-width="1.5" stroke-linecap="round" stroke-linejoin="round"/>
<path d="M403 516H421" stroke="#363636" stroke-width="1.5" stroke-linecap="round"/>
<path d="M403 521H421" stroke="#363636" stroke-width="1.5" stroke-linecap="round"/>
<path d="M403 526H421" stroke="#363636" stroke-width="1.5" stroke-linecap="round"/>
<path d="M121.51 561.23L130.07 565.51C133.91 567.43 133.91 570.57 130.07 572.49L121.51 576.77C115.75 579.65 113.4 577.29 116.28 571.54L117.15 569.81C117.37 569.37 117.37 568.64 117.15 568.2L116.28 566.46C113.4 560.71 115.76 558.35 121.51 561.23Z" stroke="#363636" stroke-width="1.5" stroke-linecap="round" stroke-linejoin="round"/>
<path d="M117.44 569H122.84" stroke="#363636" stroke-width="1.5" stroke-linecap="round" stroke-linejoin="round"/>
<path d="M167.4 563.32L175.89 560.49C179.7 559.22 181.77 561.3 180.51 565.11L177.68 573.6C175.78 579.31 172.66 579.31 170.76 573.6L169.92 571.08L167.4 570.24C161.69 568.34 161.69 565.23 167.4 563.32Z" stroke="#363636" stroke-width="1.5" stroke-linecap="round" stroke-linejoin="round"/>
<path d="M170.11 570.65L173.69 567.06" stroke="#363636" stroke-width="1.5" stroke-linecap="round" stroke-linejoin="round"/>
<path d="M214 569H226" stroke="#363636" stroke-width="1.5" stroke-linecap="round" stroke-linejoin="round"/>
<path d="M220 575V563" stroke="#363636" stroke-width="1.5" stroke-linecap="round" stroke-linejoin="round"/>
<path d="M262 569H274" stroke="#363636" stroke-width="1.5" stroke-linecap="round" stroke-linejoin="round"/>
<path d="M312 569H320" stroke="#363636" stroke-width="1.5" stroke-linecap="round" stroke-linejoin="round"/>
<path d="M316 573V565" stroke="#363636" stroke-width="1.5" stroke-linecap="round" stroke-linejoin="round"/>
<path d="M313 579H319C324 579 326 577 326 572V566C326 561 324 559 319 559H313C308 559 306 561 306 566V572C306 577 308 579 313 579Z" stroke="#363636" stroke-width="1.5" stroke-linecap="round" stroke-linejoin="round"/>
<path d="M360 569H368" stroke="#363636" stroke-width="1.5" stroke-linecap="round" stroke-linejoin="round"/>
<path d="M361 579H367C372 579 374 577 374 572V566C374 561 372 559 367 559H361C356 559 354 561 354 566V572C354 577 356 579 361 579Z" stroke="#363636" stroke-width="1.5" stroke-linecap="round" stroke-linejoin="round"/>
<path d="M409.17 571.83L414.83 566.17" stroke="#363636" stroke-width="1.5" stroke-linecap="round" stroke-linejoin="round"/>
<path d="M414.83 571.83L409.17 566.17" stroke="#363636" stroke-width="1.5" stroke-linecap="round" stroke-linejoin="round"/>
<path d="M409 579H415C420 579 422 577 422 572V566C422 561 420 559 415 559H409C404 559 402 561 402 566V572C402 577 404 579 409 579Z" stroke="#363636" stroke-width="1.5" stroke-linecap="round" stroke-linejoin="round"/>
<path d="M121 627H127C132 627 134 625 134 620V614C134 609 132 607 127 607H121C116 607 114 609 114 614V620C114 625 116 627 121 627Z" stroke="#363636" stroke-width="1.5" stroke-linecap="round" stroke-linejoin="round"/>
<path d="M119.75 617L122.58 619.83L128.25 614.17" stroke="#363636" stroke-width="1.5" stroke-linecap="round" stroke-linejoin="round"/>
<path d="M167.75 617L170.58 619.83L176.25 614.17" stroke="#363636" stroke-width="1.5" stroke-linecap="round" stroke-linejoin="round"/>
<path d="M214 617L217.995 622L226 612" stroke="#363636" stroke-width="1.5" stroke-linecap="round" stroke-linejoin="round"/>
<path d="M274.14 626.62C273.26 626.88 272.22 627 271 627H265C263.78 627 262.74 626.88 261.86 626.62C262.08 624.02 264.75 621.97 268 621.97C271.25 621.97 273.92 624.02 274.14 626.62Z" stroke="#363636" stroke-width="1.5" stroke-linecap="round" stroke-linejoin="round"/>
<path d="M271 607H265C260 607 258 609 258 614V620C258 623.78 259.14 625.85 261.86 626.62C262.08 624.02 264.75 621.97 268 621.97C271.25 621.97 273.92 624.02 274.14 626.62C276.86 625.85 278 623.78 278 620V614C278 609 276 607 271 607ZM268 619.17C266.02 619.17 264.42 617.56 264.42 615.58C264.42 613.6 266.02 612 268 612C269.98 612 271.58 613.6 271.58 615.58C271.58 617.56 269.98 619.17 268 619.17Z" stroke="#363636" stroke-width="1.5" stroke-linecap="round" stroke-linejoin="round"/>
<path d="M271.58 615.58C271.58 617.56 269.98 619.17 268 619.17C266.02 619.17 264.42 617.56 264.42 615.58C264.42 613.6 266.02 612 268 612C269.98 612 271.58 613.6 271.58 615.58Z" stroke="#363636" stroke-width="1.5" stroke-linecap="round" stroke-linejoin="round"/>
<path d="M316.121 617.78C316.051 617.77 315.961 617.77 315.881 617.78C314.121 617.72 312.721 616.28 312.721 614.51C312.721 612.7 314.181 611.23 316.001 611.23C317.811 611.23 319.281 612.7 319.281 614.51C319.271 616.28 317.881 617.72 316.121 617.78Z" stroke="#363636" stroke-width="1.5" stroke-linecap="round" stroke-linejoin="round"/>
<path d="M322.74 624.38C320.96 626.01 318.6 627 316 627C313.4 627 311.04 626.01 309.26 624.38C309.36 623.44 309.96 622.52 311.03 621.8C313.77 619.98 318.25 619.98 320.97 621.8C322.04 622.52 322.64 623.44 322.74 624.38Z" stroke="#363636" stroke-width="1.5" stroke-linecap="round" stroke-linejoin="round"/>
<path d="M316 627C321.523 627 326 622.523 326 617C326 611.477 321.523 607 316 607C310.477 607 306 611.477 306 617C306 622.523 310.477 627 316 627Z" stroke="#363636" stroke-width="1.5" stroke-linecap="round" stroke-linejoin="round"/>
<path d="M364 627C369.5 627 374 622.5 374 617C374 611.5 369.5 607 364 607C358.5 607 354 611.5 354 617C354 622.5 358.5 627 364 627Z" stroke="#363636" stroke-width="1.5" stroke-linecap="round" stroke-linejoin="round"/>
<path d="M360 617H368" stroke="#363636" stroke-width="1.5" stroke-linecap="round" stroke-linejoin="round"/>
<path d="M364 621V613" stroke="#363636" stroke-width="1.5" stroke-linecap="round" stroke-linejoin="round"/>
<path d="M411.92 627C417.42 627 421.92 622.5 421.92 617C421.92 611.5 417.42 607 411.92 607C406.42 607 401.92 611.5 401.92 617C401.92 622.5 406.42 627 411.92 627Z" stroke="#363636" stroke-width="1.5" stroke-linecap="round" stroke-linejoin="round"/>
<path d="M407.92 617H415.92" stroke="#363636" stroke-width="1.5" stroke-linecap="round" stroke-linejoin="round"/>
<path d="M124 675C129.5 675 134 670.5 134 665C134 659.5 129.5 655 124 655C118.5 655 114 659.5 114 665C114 670.5 118.5 675 124 675Z" stroke="#363636" stroke-width="1.5" stroke-linecap="round" stroke-linejoin="round"/>
<path d="M121.17 667.83L126.83 662.17" stroke="#363636" stroke-width="1.5" stroke-linecap="round" stroke-linejoin="round"/>
<path d="M126.83 667.83L121.17 662.17" stroke="#363636" stroke-width="1.5" stroke-linecap="round" stroke-linejoin="round"/>
<path d="M172 675C177.5 675 182 670.5 182 665C182 659.5 177.5 655 172 655C166.5 655 162 659.5 162 665C162 670.5 166.5 675 172 675Z" stroke="#363636" stroke-width="1.5" stroke-linecap="round" stroke-linejoin="round"/>
<path d="M175.996 665H176.005" stroke="#363636" stroke-width="2" stroke-linecap="round" stroke-linejoin="round"/>
<path d="M171.995 665H172.004" stroke="#363636" stroke-width="2" stroke-linecap="round" stroke-linejoin="round"/>
<path d="M167.995 665H168.003" stroke="#363636" stroke-width="2" stroke-linecap="round" stroke-linejoin="round"/>
<path d="M220 675C225.523 675 230 670.523 230 665C230 659.477 225.523 655 220 655C214.477 655 210 659.477 210 665C210 670.523 214.477 675 220 675Z" stroke="#363636" stroke-width="1.5" stroke-linecap="round" stroke-linejoin="round"/>
<path d="M220.33 670.45C220.15 670.51 219.84 670.51 219.66 670.45C218.1 669.92 214.6 667.69 214.6 663.91C214.6 662.24 215.94 660.89 217.6 660.89C218.58 660.89 219.45 661.36 220 662.1C220.54 661.37 221.42 660.89 222.4 660.89C224.06 660.89 225.4 662.24 225.4 663.91C225.4 667.69 221.9 669.92 220.33 670.45Z" stroke="#363636" stroke-width="1.5" stroke-linecap="round" stroke-linejoin="round"/>
<path d="M268 675C273.5 675 278 670.5 278 665C278 659.5 273.5 655 268 655C262.5 655 258 659.5 258 665C258 670.5 262.5 675 268 675Z" stroke="#363636" stroke-width="1.5" stroke-linecap="round" stroke-linejoin="round"/>
<path d="M268 661V666" stroke="#363636" stroke-width="1.5" stroke-linecap="round" stroke-linejoin="round"/>
<path d="M267.994 669H268.003" stroke="#363636" stroke-width="2" stroke-linecap="round" stroke-linejoin="round"/>
<path d="M316 675C321.5 675 326 670.5 326 665C326 659.5 321.5 655 316 655C310.5 655 306 659.5 306 665C306 670.5 310.5 675 316 675Z" stroke="#363636" stroke-width="1.5" stroke-linecap="round" stroke-linejoin="round"/>
<path d="M311.75 665L314.58 667.83L320.25 662.17" stroke="#363636" stroke-width="1.5" stroke-linecap="round" stroke-linejoin="round"/>
<path d="M364.62 673.81C364.28 673.93 363.72 673.93 363.38 673.81C360.48 672.82 354 668.69 354 661.69C354 658.6 356.49 656.1 359.56 656.1C361.38 656.1 362.99 656.98 364 658.34C365.01 656.98 366.63 656.1 368.44 656.1C371.51 656.1 374 658.6 374 661.69C374 668.69 367.52 672.82 364.62 673.81Z" stroke="#363636" stroke-width="1.5" stroke-linecap="round" stroke-linejoin="round"/>
<path d="M412.62 673.81C412.28 673.93 411.72 673.93 411.38 673.81C408.48 672.82 402 668.69 402 661.69C402 658.6 404.49 656.1 407.56 656.1C409.38 656.1 410.99 656.98 412 658.34C413.01 656.98 414.63 656.1 416.44 656.1C419.51 656.1 422 658.6 422 661.69C422 668.69 415.52 672.82 412.62 673.81Z" fill="#363636" stroke="#363636" stroke-width="1.5" stroke-linecap="round" stroke-linejoin="round"/>
<path d="M119.48 719.35L122.58 721.75C122.98 722.15 123.88 722.35 124.48 722.35H128.28C129.48 722.35 130.78 721.45 131.08 720.25L133.48 712.95C133.98 711.55 133.08 710.35 131.58 710.35H127.58C126.98 710.35 126.48 709.85 126.58 709.15L127.08 705.95C127.28 705.05 126.68 704.05 125.78 703.75C124.98 703.45 123.98 703.85 123.58 704.45L119.48 710.55" stroke="#363636" stroke-width="1.5" stroke-miterlimit="10"/>
<path d="M114.38 719.35V709.55C114.38 708.15 114.98 707.65 116.38 707.65H117.38C118.78 707.65 119.38 708.15 119.38 709.55V719.35C119.38 720.75 118.78 721.25 117.38 721.25H116.38C114.98 721.25 114.38 720.75 114.38 719.35Z" stroke="#363636" stroke-width="1.5" stroke-linecap="round" stroke-linejoin="round"/>
<path d="M176.52 706.65L173.42 704.25C173.02 703.85 172.12 703.65 171.52 703.65H167.72C166.52 703.65 165.22 704.55 164.92 705.75L162.52 713.05C162.02 714.45 162.92 715.65 164.42 715.65H168.42C169.02 715.65 169.52 716.15 169.42 716.85L168.92 720.05C168.72 720.95 169.32 721.95 170.22 722.25C171.02 722.55 172.02 722.15 172.42 721.55L176.52 715.45" stroke="#363636" stroke-width="1.5" stroke-miterlimit="10"/>
<path d="M181.62 706.65V716.45C181.62 717.85 181.02 718.35 179.62 718.35H178.62C177.22 718.35 176.62 717.85 176.62 716.45V706.65C176.62 705.25 177.22 704.75 178.62 704.75H179.62C181.02 704.75 181.62 705.25 181.62 706.65Z" stroke="#363636" stroke-width="1.5" stroke-linecap="round" stroke-linejoin="round"/>
<path d="M220 716C223.728 716 226.75 713.09 226.75 709.5C226.75 705.91 223.728 703 220 703C216.272 703 213.25 705.91 213.25 709.5C213.25 713.09 216.272 716 220 716Z" stroke="#363636" stroke-width="1.5" stroke-linecap="round" stroke-linejoin="round"/>
<path d="M215.52 714.52L215.51 721.9C215.51 722.8 216.14 723.24 216.92 722.87L219.6 721.6C219.82 721.49 220.19 721.49 220.41 721.6L223.1 722.87C223.87 723.23 224.51 722.8 224.51 721.9V714.34" stroke="#363636" stroke-width="1.5" stroke-linecap="round" stroke-linejoin="round"/>
<path d="M275 710C275 711.45 274.57 712.78 273.83 713.89C272.75 715.49 271.04 716.62 269.05 716.91C268.71 716.97 268.36 717 268 717C267.64 717 267.29 716.97 266.95 716.91C264.96 716.62 263.25 715.49 262.17 713.89C261.43 712.78 261 711.45 261 710C261 706.13 264.13 703 268 703C271.87 703 275 706.13 275 710Z" stroke="#363636" stroke-width="1.5" stroke-linecap="round" stroke-linejoin="round"/>
<path d="M277.25 719.47L275.6 719.86C275.23 719.95 274.94 720.23 274.86 720.6L274.51 722.07C274.32 722.87 273.3 723.11 272.77 722.48L268 717L263.23 722.49C262.7 723.12 261.68 722.88 261.49 722.08L261.14 720.61C261.05 720.24 260.76 719.95 260.4 719.87L258.75 719.48C257.99 719.3 257.72 718.35 258.27 717.8L262.17 713.9C263.25 715.5 264.96 716.63 266.95 716.92C267.29 716.98 267.64 717.01 268 717.01C268.36 717.01 268.71 716.98 269.05 716.92C271.04 716.63 272.75 715.5 273.83 713.9L277.73 717.8C278.28 718.34 278.01 719.29 277.25 719.47Z" stroke="#363636" stroke-width="1.5" stroke-linecap="round" stroke-linejoin="round"/>
<path d="M268.58 706.98L269.17 708.16C269.25 708.32 269.46 708.48 269.65 708.51L270.72 708.69C271.4 708.8 271.56 709.3 271.07 709.79L270.24 710.62C270.1 710.76 270.02 711.03 270.07 711.23L270.31 712.26C270.5 713.07 270.07 713.39 269.35 712.96L268.35 712.37C268.17 712.26 267.87 712.26 267.69 712.37L266.69 712.96C265.97 713.38 265.54 713.07 265.73 712.26L265.97 711.23C266.01 711.04 265.94 710.76 265.8 710.62L264.97 709.79C264.48 709.3 264.64 708.81 265.32 708.69L266.39 708.51C266.57 708.48 266.78 708.32 266.86 708.16L267.45 706.98C267.74 706.34 268.26 706.34 268.58 706.98Z" stroke="#363636" stroke-width="1.5" stroke-linecap="round" stroke-linejoin="round"/>
<path d="M325 710V704H319" stroke="#363636" stroke-width="1.5" stroke-linecap="round" stroke-linejoin="round"/>
<path d="M307 716V722H313" stroke="#363636" stroke-width="1.5" stroke-linecap="round" stroke-linejoin="round"/>
<path d="M325 704L317.5 711.5" stroke="#363636" stroke-width="1.5" stroke-linecap="round" stroke-linejoin="round"/>
<path d="M314.5 714.5L307 722" stroke="#363636" stroke-width="1.5" stroke-linecap="round" stroke-linejoin="round"/>
<path d="M354 710V707.5C354 705.01 356.01 703 358.5 703H361" stroke="#363636" stroke-width="1.5" stroke-linecap="round" stroke-linejoin="round"/>
<path d="M367 703H369.5C371.99 703 374 705.01 374 707.5V710" stroke="#363636" stroke-width="1.5" stroke-linecap="round" stroke-linejoin="round"/>
<path d="M374 717V718.5C374 720.99 371.99 723 369.5 723H368" stroke="#363636" stroke-width="1.5" stroke-linecap="round" stroke-linejoin="round"/>
<path d="M361 723H358.5C356.01 723 354 720.99 354 718.5V716" stroke="#363636" stroke-width="1.5" stroke-linecap="round" stroke-linejoin="round"/>
<path d="M409 723H415C420 723 422 721 422 716V710C422 705 420 703 415 703H409C404 703 402 705 402 710V716C402 721 404 723 409 723Z" stroke="#363636" stroke-width="1.5" stroke-linecap="round" stroke-linejoin="round"/>
<path d="M418 707L406 719" stroke="#363636" stroke-width="1.5" stroke-linecap="round" stroke-linejoin="round"/>
<path d="M418 711V707H414" stroke="#363636" stroke-width="1.5" stroke-linecap="round" stroke-linejoin="round"/>
<path d="M406 715V719H410" stroke="#363636" stroke-width="1.5" stroke-linecap="round" stroke-linejoin="round"/>
<path d="M119.5 756.67V755.7C119.5 753.45 121.31 751.24 123.56 751.03C126.24 750.77 128.5 752.88 128.5 755.51V756.89" stroke="#363636" stroke-width="1.5" stroke-miterlimit="10" stroke-linecap="round" stroke-linejoin="round"/>
<path d="M121 771H127C131.02 771 131.74 769.39 131.95 767.43L132.7 761.43C132.97 758.99 132.27 757 128 757H120C115.73 757 115.03 758.99 115.3 761.43L116.05 767.43C116.26 769.39 116.98 771 121 771Z" stroke="#363636" stroke-width="1.5" stroke-miterlimit="10" stroke-linecap="round" stroke-linejoin="round"/>
<path d="M127.495 761H127.504" stroke="#363636" stroke-width="2" stroke-linecap="round" stroke-linejoin="round"/>
<path d="M120.495 761H120.503" stroke="#363636" stroke-width="2" stroke-linecap="round" stroke-linejoin="round"/>
<path d="M162 751H163.74C164.82 751 165.67 751.93 165.58 753L164.75 762.96C164.61 764.59 165.9 765.99 167.54 765.99H178.19C179.63 765.99 180.89 764.81 181 763.38L181.54 755.88C181.66 754.22 180.4 752.87 178.73 752.87H165.82" stroke="#363636" stroke-width="1.5" stroke-miterlimit="10" stroke-linecap="round" stroke-linejoin="round"/>
<path d="M176.25 771C176.94 771 177.5 770.44 177.5 769.75C177.5 769.06 176.94 768.5 176.25 768.5C175.56 768.5 175 769.06 175 769.75C175 770.44 175.56 771 176.25 771Z" stroke="#363636" stroke-width="1.5" stroke-miterlimit="10" stroke-linecap="round" stroke-linejoin="round"/>
<path d="M168.25 771C168.94 771 169.5 770.44 169.5 769.75C169.5 769.06 168.94 768.5 168.25 768.5C167.56 768.5 167 769.06 167 769.75C167 770.44 167.56 771 168.25 771Z" stroke="#363636" stroke-width="1.5" stroke-miterlimit="10" stroke-linecap="round" stroke-linejoin="round"/>
<path d="M169 757H181" stroke="#363636" stroke-width="1.5" stroke-miterlimit="10" stroke-linecap="round" stroke-linejoin="round"/>
<path d="M216.5 768H216C212 768 210 767 210 762V757C210 753 212 751 216 751H224C228 751 230 753 230 757V762C230 766 228 768 224 768H223.5C223.19 768 222.89 768.15 222.7 768.4L221.2 770.4C220.54 771.28 219.46 771.28 218.8 770.4L217.3 768.4C217.14 768.18 216.77 768 216.5 768Z" stroke="#363636" stroke-width="1.5" stroke-miterlimit="10" stroke-linecap="round" stroke-linejoin="round"/>
<path d="M223.996 760H224.005" stroke="#363636" stroke-width="2" stroke-linecap="round" stroke-linejoin="round"/>
<path d="M219.995 760H220.004" stroke="#363636" stroke-width="2" stroke-linecap="round" stroke-linejoin="round"/>
<path d="M215.995 760H216.003" stroke="#363636" stroke-width="2" stroke-linecap="round" stroke-linejoin="round"/>
<path d="M272 751H264C260 751 258 753 258 757V770C258 770.55 258.45 771 259 771H272C276 771 278 769 278 765V757C278 753 276 751 272 751Z" stroke="#363636" stroke-width="1.5" stroke-linecap="round" stroke-linejoin="round"/>
<path d="M263 758.5H273" stroke="#363636" stroke-width="1.5" stroke-miterlimit="10" stroke-linecap="round" stroke-linejoin="round"/>
<path d="M263 763.5H270" stroke="#363636" stroke-width="1.5" stroke-miterlimit="10" stroke-linecap="round" stroke-linejoin="round"/>
<path d="M312.5 768H312C308 768 306 767 306 762V757C306 753 308 751 312 751H320C324 751 326 753 326 757V762C326 766 324 768 320 768H319.5C319.19 768 318.89 768.15 318.7 768.4L317.2 770.4C316.54 771.28 315.46 771.28 314.8 770.4L313.3 768.4C313.14 768.18 312.77 768 312.5 768Z" stroke="#363636" stroke-width="1.5" stroke-miterlimit="10" stroke-linecap="round" stroke-linejoin="round"/>
<path d="M311 757H321" stroke="#363636" stroke-width="1.5" stroke-linecap="round" stroke-linejoin="round"/>
<path d="M311 762H317" stroke="#363636" stroke-width="1.5" stroke-linecap="round" stroke-linejoin="round"/>
<path d="M360.5 759.5H367.5" stroke="#363636" stroke-width="1.5" stroke-miterlimit="10" stroke-linecap="round" stroke-linejoin="round"/>
<path d="M359 767.43H363L367.45 770.39C368.11 770.83 369 770.36 369 769.56V767.43C372 767.43 374 765.43 374 762.43V756.43C374 753.43 372 751.43 369 751.43H359C356 751.43 354 753.43 354 756.43V762.43C354 765.43 356 767.43 359 767.43Z" stroke="#363636" stroke-width="1.5" stroke-miterlimit="10" stroke-linecap="round" stroke-linejoin="round"/>
<path d="M417.98 759.79V763.79C417.98 764.05 417.97 764.3 417.94 764.54C417.71 767.24 416.12 768.58 413.19 768.58H412.79C412.54 768.58 412.3 768.7 412.15 768.9L410.95 770.5C410.42 771.21 409.56 771.21 409.03 770.5L407.83 768.9C407.7 768.73 407.41 768.58 407.19 768.58H406.79C403.6 768.58 402 767.79 402 763.79V759.79C402 756.86 403.35 755.27 406.04 755.04C406.28 755.01 406.53 755 406.79 755H413.19C416.38 755 417.98 756.6 417.98 759.79Z" stroke="#363636" stroke-width="1.5" stroke-miterlimit="10" stroke-linecap="round" stroke-linejoin="round"/>
<path d="M421.979 755.79V759.79C421.979 762.73 420.629 764.31 417.939 764.54C417.969 764.3 417.979 764.05 417.979 763.79V759.79C417.979 756.6 416.379 755 413.189 755H406.789C406.529 755 406.279 755.01 406.039 755.04C406.269 752.35 407.859 751 410.789 751H417.189C420.379 751 421.979 752.6 421.979 755.79Z" stroke="#363636" stroke-width="1.5" stroke-miterlimit="10" stroke-linecap="round" stroke-linejoin="round"/>
<path d="M413.495 762.25H413.504" stroke="#363636" stroke-width="2" stroke-linecap="round" stroke-linejoin="round"/>
<path d="M409.995 762.25H410.004" stroke="#363636" stroke-width="2" stroke-linecap="round" stroke-linejoin="round"/>
<path d="M406.495 762.25H406.504" stroke="#363636" stroke-width="2" stroke-linecap="round" stroke-linejoin="round"/>
<path d="M118 807V805C118 801.69 119 799 124 799C129 799 130 801.69 130 805V807" stroke="#363636" stroke-width="1.5" stroke-linecap="round" stroke-linejoin="round"/>
<path d="M129 819H119C115 819 114 818 114 814V812C114 808 115 807 119 807H129C133 807 134 808 134 812V814C134 818 133 819 129 819Z" stroke="#363636" stroke-width="1.5" stroke-linecap="round" stroke-linejoin="round"/>
<path d="M127.996 813H128.005" stroke="#363636" stroke-width="2" stroke-linecap="round" stroke-linejoin="round"/>
<path d="M123.995 813H124.004" stroke="#363636" stroke-width="2" stroke-linecap="round" stroke-linejoin="round"/>
<path d="M119.995 813H120.003" stroke="#363636" stroke-width="2" stroke-linecap="round" stroke-linejoin="round"/>
<path d="M166 807V805C166 801.69 167 799 172 799C177 799 178 801.69 178 805V807" stroke="#363636" stroke-width="1.5" stroke-linecap="round" stroke-linejoin="round"/>
<path d="M172 815.5C173.381 815.5 174.5 814.381 174.5 813C174.5 811.619 173.381 810.5 172 810.5C170.619 810.5 169.5 811.619 169.5 813C169.5 814.381 170.619 815.5 172 815.5Z" stroke="#363636" stroke-width="1.5" stroke-linecap="round" stroke-linejoin="round"/>
<path d="M177 819H167C163 819 162 818 162 814V812C162 808 163 807 167 807H177C181 807 182 808 182 812V814C182 818 181 819 177 819Z" stroke="#363636" stroke-width="1.5" stroke-linecap="round" stroke-linejoin="round"/>
<path d="M225 819H215C211 819 210 818 210 814V812C210 808 211 807 215 807H225C229 807 230 808 230 812V814C230 818 229 819 225 819Z" stroke="#363636" stroke-width="1.5" stroke-linecap="round" stroke-linejoin="round"/>
<path d="M214 807V805C214 801.69 215 799 220 799C224.5 799 226 801 226 804" stroke="#363636" stroke-width="1.5" stroke-linecap="round" stroke-linejoin="round"/>
<path d="M220 815.5C221.381 815.5 222.5 814.381 222.5 813C222.5 811.619 221.381 810.5 220 810.5C218.619 810.5 217.5 811.619 217.5 813C217.5 814.381 218.619 815.5 220 815.5Z" stroke="#363636" stroke-width="1.5" stroke-linecap="round" stroke-linejoin="round"/>
<path d="M266.02 814.52C266.48 815.11 267.2 815.5 268 815.5C269.38 815.5 270.5 814.38 270.5 813C270.5 812.43 270.31 811.9 269.99 811.48" stroke="#363636" stroke-width="1.5" stroke-linecap="round" stroke-linejoin="round"/>
<path d="M258.82 817.8C258.21 817.04 258 815.83 258 814V812C258 808 259 807 263 807H273C273.36 807 273.69 807.01 274 807.03C277.17 807.21 278 808.36 278 812V814C278 818 277 819 273 819H263C262.64 819 262.31 818.99 262 818.97" stroke="#363636" stroke-width="1.5" stroke-linecap="round" stroke-linejoin="round"/>
<path d="M262 807V805C262 801.69 263 799 268 799C272.15 799 273.54 800.38 273.9 802.56" stroke="#363636" stroke-width="1.5" stroke-linecap="round" stroke-linejoin="round"/>
<path d="M278 799L258 819" stroke="#363636" stroke-width="1.5" stroke-linecap="round" stroke-linejoin="round"/>
<path d="M318.53 806.47L313.47 811.53C312.82 810.88 312.42 809.99 312.42 809C312.42 807.02 314.02 805.42 316 805.42C316.99 805.42 317.88 805.82 318.53 806.47Z" stroke="#363636" stroke-width="1.5" stroke-linecap="round" stroke-linejoin="round"/>
<path d="M321.82 802.77C320.07 801.45 318.07 800.73 316 800.73C312.47 800.73 309.18 802.81 306.89 806.41C305.99 807.82 305.99 810.19 306.89 811.6C307.68 812.84 308.6 813.91 309.6 814.77" stroke="#363636" stroke-width="1.5" stroke-linecap="round" stroke-linejoin="round"/>
<path d="M312.42 816.53C313.56 817.01 314.77 817.27 316 817.27C319.53 817.27 322.82 815.19 325.11 811.59C326.01 810.18 326.01 807.81 325.11 806.4C324.78 805.88 324.42 805.39 324.05 804.93" stroke="#363636" stroke-width="1.5" stroke-linecap="round" stroke-linejoin="round"/>
<path d="M319.509 809.7C319.249 811.11 318.099 812.26 316.689 812.52" stroke="#363636" stroke-width="1.5" stroke-linecap="round" stroke-linejoin="round"/>
<path d="M313.47 811.53L306 819" stroke="#363636" stroke-width="1.5" stroke-linecap="round" stroke-linejoin="round"/>
<path d="M325.999 799L318.529 806.47" stroke="#363636" stroke-width="1.5" stroke-linecap="round" stroke-linejoin="round"/>
<path d="M367.58 809C367.58 810.98 365.98 812.58 364 812.58C362.02 812.58 360.42 810.98 360.42 809C360.42 807.02 362.02 805.42 364 805.42C365.98 805.42 367.58 807.02 367.58 809Z" stroke="#363636" stroke-width="1.5" stroke-linecap="round" stroke-linejoin="round"/>
<path d="M364 817.27C367.53 817.27 370.82 815.19 373.11 811.59C374.01 810.18 374.01 807.81 373.11 806.4C370.82 802.8 367.53 800.72 364 800.72C360.47 800.72 357.18 802.8 354.89 806.4C353.99 807.81 353.99 810.18 354.89 811.59C357.18 815.19 360.47 817.27 364 817.27Z" stroke="#363636" stroke-width="1.5" stroke-linecap="round" stroke-linejoin="round"/>
<path d="M414.43 802.93L420.5 809L414.43 815.07" stroke="#363636" stroke-width="1.5" stroke-miterlimit="10" stroke-linecap="round" stroke-linejoin="round"/>
<path d="M403.5 809H420.33" stroke="#363636" stroke-width="1.5" stroke-miterlimit="10" stroke-linecap="round" stroke-linejoin="round"/>
<path d="M130.07 859.43L124 865.5L117.93 859.43" stroke="#363636" stroke-width="1.5" stroke-miterlimit="10" stroke-linecap="round" stroke-linejoin="round"/>
<path d="M124 848.5V865.33" stroke="#363636" stroke-width="1.5" stroke-miterlimit="10" stroke-linecap="round" stroke-linejoin="round"/>
<path d="M169.57 850.93L163.5 857L169.57 863.07" stroke="#363636" stroke-width="1.5" stroke-miterlimit="10" stroke-linecap="round" stroke-linejoin="round"/>
<path d="M180.5 857H163.67" stroke="#363636" stroke-width="1.5" stroke-miterlimit="10" stroke-linecap="round" stroke-linejoin="round"/>
<path d="M226.07 854.57L220 848.5L213.93 854.57" stroke="#363636" stroke-width="1.5" stroke-miterlimit="10" stroke-linecap="round" stroke-linejoin="round"/>
<path d="M220 865.5V848.67" stroke="#363636" stroke-width="1.5" stroke-miterlimit="10" stroke-linecap="round" stroke-linejoin="round"/>
<path d="M275.92 853.95L269.4 860.47C268.63 861.24 267.37 861.24 266.6 860.47L260.08 853.95" stroke="#363636" stroke-width="1.5" stroke-miterlimit="10" stroke-linecap="round" stroke-linejoin="round"/>
<path d="M308.08 860.05L314.6 853.53C315.37 852.76 316.63 852.76 317.4 853.53L323.92 860.05" stroke="#363636" stroke-width="1.5" stroke-miterlimit="10" stroke-linecap="round" stroke-linejoin="round"/>
<path d="M360.91 864.92L367.43 858.4C368.2 857.63 368.2 856.37 367.43 855.6L360.91 849.08" stroke="#363636" stroke-width="1.5" stroke-miterlimit="10" stroke-linecap="round" stroke-linejoin="round"/>
<path d="M415 864.92L408.48 858.4C407.71 857.63 407.71 856.37 408.48 855.6L415 849.08" stroke="#363636" stroke-width="1.5" stroke-miterlimit="10" stroke-linecap="round" stroke-linejoin="round"/>
<path d="M120.9 900.56C121.21 896.96 123.06 895.49 127.11 895.49H127.24C131.71 895.49 133.5 897.28 133.5 901.75V908.27C133.5 912.74 131.71 914.53 127.24 914.53H127.11C123.09 914.53 121.24 913.08 120.91 909.54" stroke="#363636" stroke-width="1.5" stroke-linecap="round" stroke-linejoin="round"/>
<path d="M114 905H126.88" stroke="#363636" stroke-width="1.5" stroke-linecap="round" stroke-linejoin="round"/>
<path d="M124.65 901.65L128 905L124.65 908.35" stroke="#363636" stroke-width="1.5" stroke-linecap="round" stroke-linejoin="round"/>
<path d="M168.9 900.56C169.21 896.96 171.06 895.49 175.11 895.49H175.24C179.71 895.49 181.5 897.28 181.5 901.75V908.27C181.5 912.74 179.71 914.53 175.24 914.53H175.11C171.09 914.53 169.24 913.08 168.91 909.54" stroke="#363636" stroke-width="1.5" stroke-linecap="round" stroke-linejoin="round"/>
<path d="M175 905H163.62" stroke="#363636" stroke-width="1.5" stroke-linecap="round" stroke-linejoin="round"/>
<path d="M165.85 901.65L162.5 905L165.85 908.35" stroke="#363636" stroke-width="1.5" stroke-linecap="round" stroke-linejoin="round"/>
<path d="M220.53 913.42H214.21C211.05 913.42 210 911.32 210 909.21V900.79C210 897.63 211.05 896.58 214.21 896.58H220.53C223.69 896.58 224.74 897.63 224.74 900.79V909.21C224.74 912.37 223.68 913.42 220.53 913.42Z" stroke="#363636" stroke-width="1.5" stroke-linecap="round" stroke-linejoin="round"/>
<path d="M227.52 910.1L224.74 908.15V901.84L227.52 899.89C228.88 898.94 230 899.52 230 901.19V908.81C230 910.48 228.88 911.06 227.52 910.1Z" stroke="#363636" stroke-width="1.5" stroke-linecap="round" stroke-linejoin="round"/>
<path d="M219.5 904C220.328 904 221 903.328 221 902.5C221 901.672 220.328 901 219.5 901C218.672 901 218 901.672 218 902.5C218 903.328 218.672 904 219.5 904Z" stroke="#363636" stroke-width="1.5" stroke-linecap="round" stroke-linejoin="round"/>
<path d="M272.63 900.58C272.63 900.58 272.66 899.63 272.63 899.32C272.46 897.28 271.13 896.58 268.52 896.58H262.21C259.05 896.58 258 897.63 258 900.79V909.21C258 910.47 258.38 911.74 259.37 912.55L260 913" stroke="#363636" stroke-width="1.5" stroke-linecap="round" stroke-linejoin="round"/>
<path d="M272.74 903.95V909.21C272.74 912.37 271.69 913.42 268.53 913.42H263.26" stroke="#363636" stroke-width="1.5" stroke-linecap="round" stroke-linejoin="round"/>
<path d="M278 899.74V908.81C278 910.48 276.88 911.06 275.52 910.1L272.74 908.15" stroke="#363636" stroke-width="1.5" stroke-linecap="round" stroke-linejoin="round"/>
<path d="M278.02 895.19L258.02 915.19" stroke="#363636" stroke-width="1.5" stroke-linecap="round" stroke-linejoin="round"/>
<path d="M313 915H319C324 915 326 913 326 908V902C326 897 324 895 319 895H313C308 895 306 897 306 902V908C306 913 308 915 313 915Z" stroke="#363636" stroke-width="1.5" stroke-linecap="round" stroke-linejoin="round"/>
<path d="M313 903C314.105 903 315 902.105 315 901C315 899.895 314.105 899 313 899C311.895 899 311 899.895 311 901C311 902.105 311.895 903 313 903Z" stroke="#363636" stroke-width="1.5" stroke-linecap="round" stroke-linejoin="round"/>
<path d="M306.67 911.95L311.6 908.64C312.39 908.11 313.53 908.17 314.24 908.78L314.57 909.07C315.35 909.74 316.61 909.74 317.39 909.07L321.55 905.5C322.33 904.83 323.59 904.83 324.37 905.5L326 906.9" stroke="#363636" stroke-width="1.5" stroke-linecap="round" stroke-linejoin="round"/>
<path d="M364 912C367.31 912 370 909.31 370 906V901C370 897.69 367.31 895 364 895C360.69 895 358 897.69 358 901V906C358 909.31 360.69 912 364 912Z" stroke="#363636" stroke-width="1.5" stroke-linecap="round" stroke-linejoin="round"/>
<path d="M355 904V906C355 910.97 359.03 915 364 915C368.97 915 373 910.97 373 906V904" stroke="#363636" stroke-width="1.5" stroke-linecap="round" stroke-linejoin="round"/>
<path d="M361.109 900.48C362.889 899.83 364.829 899.83 366.609 900.48" stroke="#363636" stroke-width="1.5" stroke-linecap="round" stroke-linejoin="round"/>
<path d="M362.029 903.48C363.229 903.15 364.499 903.15 365.699 903.48" stroke="#363636" stroke-width="1.5" stroke-linecap="round" stroke-linejoin="round"/>
<path d="M417.82 899.53C417.16 896.93 414.81 895 412 895C408.69 895 406 897.69 406 901V906C406 907.46 406.52 908.8 407.39 909.84" stroke="#363636" stroke-width="1.5" stroke-linecap="round" stroke-linejoin="round"/>
<path d="M418 902.98V906C418 909.31 415.31 912 412 912C411.27 912 410.56 911.87 409.92 911.63" stroke="#363636" stroke-width="1.5" stroke-linecap="round" stroke-linejoin="round"/>
<path d="M405.859 912.58C407.469 914.08 409.629 915 411.999 915C416.969 915 420.999 910.97 420.999 906V904" stroke="#363636" stroke-width="1.5" stroke-linecap="round" stroke-linejoin="round"/>
<path d="M421.5 895.99L402.5 914.99" stroke="#363636" stroke-width="1.5" stroke-linecap="round" stroke-linejoin="round"/>
<path d="M411.551 898.5V895.26" stroke="#363636" stroke-width="1.5" stroke-linecap="round" stroke-linejoin="round"/>
<path d="M408.5 896.5V900.5" stroke="#363636" stroke-width="1.5" stroke-linecap="round" stroke-linejoin="round"/>
<path d="M117.5 951V955C117.5 957 118.5 958 120.5 958H121.93C122.3 958 122.67 958.11 122.99 958.3L125.91 960.13C128.43 961.71 130.5 960.56 130.5 957.59V948.41C130.5 945.43 128.43 944.29 125.91 945.87L122.99 947.7C122.67 947.89 122.3 948 121.93 948H120.5C118.5 948 117.5 949 117.5 951Z" stroke="#363636" stroke-width="1.5"/>
<path d="M162 951.159V955.159C162 957.159 163 958.159 165 958.159H166.43C166.8 958.159 167.17 958.269 167.49 958.459L170.41 960.289C172.93 961.869 175 960.719 175 957.749V948.569C175 945.589 172.93 944.449 170.41 946.029L167.49 947.859C167.17 948.049 166.8 948.159 166.43 948.159H165C163 948.159 162 949.159 162 951.159Z" stroke="#363636" stroke-width="1.5"/>
<path d="M182 955.119L178.04 951.159" stroke="#363636" stroke-width="1.5" stroke-miterlimit="10" stroke-linecap="round" stroke-linejoin="round"/>
<path d="M181.96 951.199L178 955.159" stroke="#363636" stroke-width="1.5" stroke-miterlimit="10" stroke-linecap="round" stroke-linejoin="round"/>
<path d="M223 949.37V948.41C223 945.43 220.93 944.29 218.41 945.87L215.49 947.7C215.17 947.89 214.8 948 214.43 948H213C211 948 210 949 210 951V955C210 957 211 958 213 958H215" stroke="#363636" stroke-width="1.5" stroke-linecap="round" stroke-linejoin="round"/>
<path d="M218.41 960.13C220.93 961.71 223 960.56 223 957.59V953.95" stroke="#363636" stroke-width="1.5" stroke-linecap="round" stroke-linejoin="round"/>
<path d="M226.81 950.42C227.71 952.57 227.44 955.08 226 957" stroke="#363636" stroke-width="1.5" stroke-linecap="round" stroke-linejoin="round"/>
<path d="M229.15 948.8C230.62 952.29 230.18 956.37 227.83 959.5" stroke="#363636" stroke-width="1.5" stroke-linecap="round" stroke-linejoin="round"/>
<path d="M230 943L210 963" stroke="#363636" stroke-width="1.5" stroke-linecap="round" stroke-linejoin="round"/>
<path d="M258 950.96V955.04C258 957.08 259.02 958.1 261.06 958.1H262.52C262.9 958.1 263.28 958.21 263.6 958.41L266.58 960.27C269.16 961.88 271.26 960.71 271.26 957.67V948.32C271.26 945.28 269.15 944.11 266.58 945.72L263.6 947.59C263.27 947.79 262.9 947.9 262.52 947.9H261.06C259.02 947.9 258 948.92 258 950.96Z" stroke="#363636" stroke-width="1.5"/>
<path d="M274 953H278" stroke="#363636" stroke-width="1.5" stroke-linecap="round" stroke-linejoin="round"/>
<path d="M276 955V951" stroke="#363636" stroke-width="1.5" stroke-linecap="round" stroke-linejoin="round"/>
<path d="M306 950.96V955.04C306 957.08 307.02 958.1 309.06 958.1H310.52C310.9 958.1 311.28 958.21 311.6 958.41L314.58 960.27C317.16 961.88 319.26 960.71 319.26 957.67V948.32C319.26 945.28 317.15 944.11 314.58 945.72L311.6 947.59C311.27 947.79 310.9 947.9 310.52 947.9H309.06C307.02 947.9 306 948.92 306 950.96Z" stroke="#363636" stroke-width="1.5"/>
<path d="M322 953H326" stroke="#363636" stroke-width="1.5" stroke-linecap="round" stroke-linejoin="round"/>
<path d="M355.33 951V955C355.33 957 356.33 958 358.33 958H359.76C360.13 958 360.5 958.11 360.82 958.3L363.74 960.13C366.26 961.71 368.33 960.56 368.33 957.59V948.41C368.33 945.43 366.26 944.29 363.74 945.87L360.82 947.7C360.5 947.89 360.13 948 359.76 948H358.33C356.33 948 355.33 949 355.33 951Z" stroke="#363636" stroke-width="1.5"/>
<path d="M371.33 949C373.11 951.37 373.11 954.63 371.33 957" stroke="#363636" stroke-width="1.5" stroke-linecap="round" stroke-linejoin="round"/>
<path d="M402 951V955C402 957 403 958 405 958H406.43C406.8 958 407.17 958.11 407.49 958.3L410.41 960.13C412.93 961.71 415 960.56 415 957.59V948.41C415 945.43 412.93 944.29 410.41 945.87L407.49 947.7C407.17 947.89 406.8 948 406.43 948H405C403 948 402 949 402 951Z" stroke="#363636" stroke-width="1.5"/>
<path d="M418 949C419.78 951.37 419.78 954.63 418 957" stroke="#363636" stroke-width="1.5" stroke-linecap="round" stroke-linejoin="round"/>
<path d="M419.83 946.5C422.72 950.35 422.72 955.65 419.83 959.5" stroke="#363636" stroke-width="1.5" stroke-linecap="round" stroke-linejoin="round"/>
<path d="M126.99 1006.5H128.5C131.52 1006.5 134 1004.03 134 1001C134 997.98 131.53 995.5 128.5 995.5H126.99" stroke="#363636" stroke-width="1.5" stroke-linecap="round" stroke-linejoin="round"/>
<path d="M121 995.5H119.5C116.47 995.5 114 997.97 114 1001C114 1004.02 116.47 1006.5 119.5 1006.5H121" stroke="#363636" stroke-width="1.5" stroke-linecap="round" stroke-linejoin="round"/>
<path d="M120 1001H128" stroke="#363636" stroke-width="1.5" stroke-linecap="round" stroke-linejoin="round"/>
<path d="M181.805 999.041H181V999H172V1003H177.651C176.827 1005.33 174.611 1007 172 1007C168.686 1007 166 1004.31 166 1001C166 997.686 168.686 995 172 995C173.529 995 174.921 995.577 175.98 996.519L178.809 993.691C177.023 992.026 174.634 991 172 991C166.477 991 162 995.477 162 1001C162 1006.52 166.477 1011 172 1011C177.522 1011 182 1006.52 182 1001C182 1000.33 181.931 999.675 181.805 999.041Z" fill="#FFC107"/>
<path d="M163.153 996.346L166.439 998.755C167.328 996.554 169.481 995 172 995C173.53 995 174.921 995.577 175.981 996.52L178.809 993.691C177.023 992.027 174.634 991 172 991C168.159 991 164.828 993.169 163.153 996.346Z" fill="#FF3D00"/>
<path d="M172 1011C174.583 1011 176.93 1010.01 178.705 1008.4L175.61 1005.79C174.606 1006.55 173.358 1007 172 1007C169.399 1007 167.191 1005.34 166.359 1003.03L163.098 1005.54C164.753 1008.78 168.114 1011 172 1011Z" fill="#4CAF50"/>
<path d="M181.805 999.042H181V999H172V1003H177.651C177.255 1004.12 176.536 1005.08 175.608 1005.79C175.608 1005.79 175.609 1005.79 175.609 1005.78L178.704 1008.4C178.485 1008.6 182 1006 182 1001C182 1000.33 181.931 999.675 181.805 999.042Z" fill="#1976D2"/>
<path d="M230 1005.19C230 1008.83 227.83 1011 224.19 1011H223C222.45 1011 222 1010.55 222 1010V1004.23C222 1003.96 222.22 1003.73 222.49 1003.73L224.25 1003.7C224.39 1003.69 224.51 1003.59 224.54 1003.45L224.89 1001.54C224.92 1001.36 224.78 1001.19 224.59 1001.19L222.46 1001.22C222.18 1001.22 221.96 1001 221.95 1000.73L221.91 998.28C221.91 998.12 222.04 997.98 222.21 997.98L224.61 997.94C224.78 997.94 224.91 997.81 224.91 997.64L224.87 995.24C224.87 995.07 224.74 994.94 224.57 994.94L221.87 994.98C220.21 995.01 218.89 996.37 218.92 998.03L218.97 1000.78C218.98 1001.06 218.76 1001.28 218.48 1001.29L217.28 1001.31C217.11 1001.31 216.98 1001.44 216.98 1001.61L217.01 1003.51C217.01 1003.68 217.14 1003.81 217.31 1003.81L218.51 1003.79C218.79 1003.79 219.01 1004.01 219.02 1004.28L219.11 1009.98C219.12 1010.54 218.67 1011 218.11 1011H215.81C212.17 1011 210 1008.83 210 1005.18V996.81C210 993.17 212.17 991 215.81 991H224.19C227.83 991 230 993.17 230 996.81V1005.19Z" fill="#0C4AC1"/>
<path d="M261 1003.58H261.75C261.75 1003.44 261.707 1003.3 261.627 1003.17C261.547 1003.05 261.434 1002.96 261.3 1002.9L261 1003.58ZM275 1003.58L274.7 1002.9C274.566 1002.96 274.453 1003.05 274.373 1003.17C274.293 1003.3 274.25 1003.44 274.25 1003.58H275ZM271.75 996C271.75 996.199 271.829 996.39 271.97 996.53C272.11 996.671 272.301 996.75 272.5 996.75C272.699 996.75 272.89 996.671 273.03 996.53C273.171 996.39 273.25 996.199 273.25 996H271.75ZM262.75 996C262.75 996.199 262.829 996.39 262.97 996.53C263.11 996.671 263.301 996.75 263.5 996.75C263.699 996.75 263.89 996.671 264.03 996.53C264.171 996.39 264.25 996.199 264.25 996H262.75ZM263 993.25C261.475 993.25 260.012 993.856 258.934 994.934C257.856 996.012 257.25 997.475 257.25 999H258.75C258.75 997.873 259.198 996.792 259.995 995.995C260.792 995.198 261.873 994.75 263 994.75V993.25ZM273 994.75C274.127 994.75 275.208 995.198 276.005 995.995C276.802 996.792 277.25 997.873 277.25 999H278.75C278.75 997.475 278.144 996.012 277.066 994.934C275.988 993.856 274.525 993.25 273 993.25V994.75ZM271 1010.25H265V1011.75H271V1010.25ZM265 1010.25C264.036 1010.25 263.388 1010.25 262.905 1010.18C262.444 1010.12 262.246 1010.01 262.116 1009.88L261.056 1010.94C261.511 1011.4 262.078 1011.59 262.706 1011.67C263.312 1011.75 264.078 1011.75 265 1011.75V1010.25ZM260.25 1007C260.25 1007.92 260.248 1008.69 260.33 1009.29C260.414 1009.92 260.6 1010.49 261.055 1010.94L262.116 1009.88C261.986 1009.75 261.879 1009.56 261.816 1009.09C261.752 1008.61 261.75 1007.96 261.75 1007H260.25ZM274.25 1007C274.25 1007.96 274.248 1008.61 274.183 1009.09C274.121 1009.56 274.014 1009.75 273.883 1009.88L274.945 1010.94C275.4 1010.49 275.585 1009.92 275.67 1009.29C275.752 1008.69 275.75 1007.92 275.75 1007H274.25ZM271 1011.75C271.922 1011.75 272.688 1011.75 273.294 1011.67C273.922 1011.59 274.49 1011.4 274.945 1010.94L273.884 1009.88C273.754 1010.01 273.556 1010.12 273.094 1010.18C272.612 1010.25 271.964 1010.25 271 1010.25V1011.75ZM263 994.75C263.214 994.75 263.423 994.766 263.628 994.796L263.847 993.312C263.567 993.271 263.283 993.25 263 993.25V994.75ZM268 990.25C266.903 990.25 265.833 990.594 264.941 991.233C264.049 991.872 263.38 992.774 263.027 993.813L264.447 994.295C264.699 993.553 265.177 992.908 265.815 992.452C266.452 991.995 267.216 991.75 268 991.75V990.25ZM263.027 993.813C262.843 994.356 262.749 994.926 262.75 995.5H264.25C264.25 995.077 264.32 994.672 264.448 994.295L263.027 993.813ZM273 993.25C272.713 993.25 272.43 993.271 272.153 993.312L272.373 994.796C272.581 994.765 272.79 994.75 273 994.75V993.25ZM268 991.75C268.784 991.75 269.548 991.996 270.185 992.452C270.822 992.909 271.3 993.553 271.552 994.295L272.972 993.813C272.619 992.774 271.95 991.872 271.058 991.233C270.167 990.594 269.097 990.25 268 990.25V991.75ZM271.552 994.295C271.68 994.672 271.75 995.077 271.75 995.5H273.25C273.25 994.911 273.152 994.344 272.972 993.813L271.552 994.295ZM261.75 1007V1003.58H260.25V1007H261.75ZM261.3 1002.9C260.542 1002.57 259.897 1002.02 259.444 1001.33C258.991 1000.64 258.75 999.827 258.75 999H257.25C257.25 1000.12 257.576 1001.21 258.189 1002.15C258.802 1003.09 259.675 1003.82 260.7 1004.27L261.3 1002.9ZM274.25 1003.58V1007H275.75V1003.58H274.25ZM277.25 999C277.25 999.827 277.009 1000.64 276.556 1001.33C276.103 1002.02 275.458 1002.57 274.7 1002.9L275.3 1004.27C276.325 1003.82 277.198 1003.09 277.811 1002.15C278.424 1001.21 278.75 1000.12 278.75 999H277.25ZM271.75 995.5V996H273.25V995.5H271.75ZM262.75 995.5V996H264.25V995.5H262.75Z" fill="#363636"/>
<path d="M261 1007H275" stroke="#363636" stroke-width="1.5" stroke-linecap="round" stroke-linejoin="round"/>
<path d="M316 991V995" stroke="#363636" stroke-width="1.5" stroke-linecap="round" stroke-linejoin="round"/>
<path d="M316 1007V1011" stroke="#363636" stroke-width="1.5" stroke-linecap="round" stroke-linejoin="round"/>
<path d="M308.93 993.93L311.76 996.76" stroke="#363636" stroke-width="1.5" stroke-linecap="round" stroke-linejoin="round"/>
<path d="M320.24 1005.24L323.07 1008.07" stroke="#363636" stroke-width="1.5" stroke-linecap="round" stroke-linejoin="round"/>
<path d="M306 1001H310" stroke="#363636" stroke-width="1.5" stroke-linecap="round" stroke-linejoin="round"/>
<path d="M322 1001H326" stroke="#363636" stroke-width="1.5" stroke-linecap="round" stroke-linejoin="round"/>
<path d="M308.93 1008.07L311.76 1005.24" stroke="#363636" stroke-width="1.5" stroke-linecap="round" stroke-linejoin="round"/>
<path d="M320.24 996.76L323.07 993.93" stroke="#363636" stroke-width="1.5" stroke-linecap="round" stroke-linejoin="round"/>
<path d="M370 995L358 1007" stroke="#363636" stroke-width="1.5" stroke-linecap="round" stroke-linejoin="round"/>
<path d="M358 995L370 1007" stroke="#363636" stroke-width="1.5" stroke-linecap="round" stroke-linejoin="round"/>
<path d="M412 1007C415.314 1007 418 1004.31 418 1001C418 997.686 415.314 995 412 995C408.686 995 406 997.686 406 1001C406 1004.31 408.686 1007 412 1007Z" fill="#282828"/>
<g clip-path="url(#clip2_15_3008)">
<path d="M124 1039C118.48 1039 114 1043.48 114 1049C114 1054.52 118.48 1059 124 1059C129.52 1059 134 1054.52 134 1049C134 1043.48 129.52 1039 124 1039ZM124 1057C119.58 1057 116 1053.42 116 1049C116 1044.58 119.58 1041 124 1041C128.42 1041 132 1044.58 132 1049C132 1053.42 128.42 1057 124 1057Z" fill="#363636"/>
</g>
<g clip-path="url(#clip3_15_3008)">
<path d="M172 1044C169.24 1044 167 1046.24 167 1049C167 1051.76 169.24 1054 172 1054C174.76 1054 177 1051.76 177 1049C177 1046.24 174.76 1044 172 1044ZM172 1039C166.48 1039 162 1043.48 162 1049C162 1054.52 166.48 1059 172 1059C177.52 1059 182 1054.52 182 1049C182 1043.48 177.52 1039 172 1039ZM172 1057C167.58 1057 164 1053.42 164 1049C164 1044.58 167.58 1041 172 1041C176.42 1041 180 1044.58 180 1049C180 1053.42 176.42 1057 172 1057Z" fill="#363636"/>
</g>
<path d="M222.265 1038.63C222.265 1042.17 224.134 1043.95 225.744 1045.65C227.284 1047.27 228.75 1048.81 228.75 1051.75C228.75 1056.56 224.997 1060 220.185 1060C215.372 1060 211.25 1056.58 211.25 1051.75C211.25 1049.71 212.212 1047.74 213.759 1046.85C214.064 1046.68 214.431 1046.86 214.562 1047.19C215.563 1049.68 216.797 1049.64 217.437 1049C217.825 1048.61 217.907 1047.88 217.433 1046.94C215.028 1042.13 219.296 1038.66 221.633 1038.08C221.969 1038 222.248 1038.28 222.265 1038.63ZM220.185 1058.5C224.244 1058.5 227.25 1055.66 227.25 1051.75C227.25 1049.41 226.157 1048.26 224.572 1046.59L224.551 1046.57C223.111 1045.05 221.412 1043.22 220.902 1040.01C220.147 1040.46 219.495 1041.06 218.991 1041.77C218.204 1042.92 217.844 1044.41 218.775 1046.27C219.378 1047.47 219.552 1049.01 218.498 1050.06C217.841 1050.72 216.736 1051.16 215.542 1050.65C214.79 1050.32 214.189 1049.69 213.704 1048.86C213.137 1049.56 212.75 1050.6 212.75 1051.75C212.75 1055.6 216.038 1058.5 220.185 1058.5Z" fill="#363636"/>
<path d="M273 1057.5H263C260 1057.5 258 1056 258 1052.5V1045.5C258 1042 260 1040.5 263 1040.5H273C276 1040.5 278 1042 278 1045.5V1052.5C278 1056 276 1057.5 273 1057.5Z" stroke="#363636" stroke-width="1.5" stroke-miterlimit="10" stroke-linecap="round" stroke-linejoin="round"/>
<path d="M273 1046L269.87 1048.5C268.84 1049.32 267.15 1049.32 266.12 1048.5L263 1046" stroke="#363636" stroke-width="1.5" stroke-miterlimit="10" stroke-linecap="round" stroke-linejoin="round"/>
<path d="M310.76 1059H321.24C324 1059 325.1 1057.31 325.23 1055.25L325.75 1046.99C325.89 1044.83 324.17 1043 322 1043C321.39 1043 320.83 1042.65 320.55 1042.11L319.83 1040.66C319.37 1039.75 318.17 1039 317.15 1039H314.86C313.83 1039 312.63 1039.75 312.17 1040.66L311.45 1042.11C311.17 1042.65 310.61 1043 310 1043C307.83 1043 306.11 1044.83 306.25 1046.99L306.77 1055.25C306.89 1057.31 308 1059 310.76 1059Z" stroke="#363636" stroke-width="1.5" stroke-linecap="round" stroke-linejoin="round"/>
<path d="M314.5 1045H317.5" stroke="#363636" stroke-width="1.5" stroke-linecap="round" stroke-linejoin="round"/>
<path d="M316 1055C317.79 1055 319.25 1053.54 319.25 1051.75C319.25 1049.96 317.79 1048.5 316 1048.5C314.21 1048.5 312.75 1049.96 312.75 1051.75C312.75 1053.54 314.21 1055 316 1055Z" stroke="#363636" stroke-width="1.5" stroke-linecap="round" stroke-linejoin="round"/>
<path d="M358 1047H361" stroke="#363636" stroke-width="1.5" stroke-linecap="round" stroke-linejoin="round"/>
<path d="M358.76 1059H369.24C372 1059 373.1 1057.31 373.23 1055.25L373.75 1046.99C373.81 1046.06 373.52 1045.19 373.01 1044.51" stroke="#363636" stroke-width="1.5" stroke-linecap="round" stroke-linejoin="round"/>
<path d="M370 1043C369.39 1043 368.83 1042.65 368.55 1042.11L367.83 1040.66C367.37 1039.75 366.17 1039 365.15 1039H362.86C361.83 1039 360.63 1039.75 360.17 1040.66L359.45 1042.11C359.17 1042.65 358.61 1043 358 1043C355.83 1043 354.11 1044.83 354.25 1046.99L354.77 1055.25C354.82 1056.07 355.03 1056.84 355.44 1057.46" stroke="#363636" stroke-width="1.5" stroke-linecap="round" stroke-linejoin="round"/>
<path d="M362 1054.31C362.55 1054.74 363.25 1055 364 1055C365.79 1055 367.25 1053.54 367.25 1051.75C367.25 1051.11 367.07 1050.52 366.75 1050.02" stroke="#363636" stroke-width="1.5" stroke-linecap="round" stroke-linejoin="round"/>
<path d="M374 1039L354 1059" stroke="#363636" stroke-width="1.5" stroke-linecap="round" stroke-linejoin="round"/>
<path d="M409 1059H415C420 1059 422 1057 422 1052V1046C422 1041 420 1039 415 1039H409C404 1039 402 1041 402 1046V1052C402 1057 404 1059 409 1059Z" stroke="#363636" stroke-width="1.5" stroke-linecap="round" stroke-linejoin="round"/>
<path d="M409 1047C410.105 1047 411 1046.1 411 1045C411 1043.9 410.105 1043 409 1043C407.895 1043 407 1043.9 407 1045C407 1046.1 407.895 1047 409 1047Z" stroke="#363636" stroke-width="1.5" stroke-linecap="round" stroke-linejoin="round"/>
<path d="M402.67 1055.95L407.6 1052.64C408.39 1052.11 409.53 1052.17 410.24 1052.78L410.57 1053.07C411.35 1053.74 412.61 1053.74 413.39 1053.07L417.55 1049.5C418.33 1048.83 419.59 1048.83 420.37 1049.5L422 1050.9" stroke="#363636" stroke-width="1.5" stroke-linecap="round" stroke-linejoin="round"/>
<path d="M133.97 1103.33C133.97 1103.69 133.89 1104.06 133.72 1104.42C133.55 1104.78 133.33 1105.12 133.04 1105.44C132.55 1105.98 132.01 1106.37 131.4 1106.62C130.8 1106.87 130.15 1107 129.45 1107C128.43 1107 127.34 1106.76 126.19 1106.27C125.04 1105.78 123.89 1105.12 122.75 1104.29C121.6 1103.45 120.51 1102.52 119.47 1101.49C118.44 1100.45 117.51 1099.36 116.68 1098.22C115.86 1097.08 115.2 1095.94 114.72 1094.81C114.24 1093.67 114 1092.58 114 1091.54C114 1090.86 114.12 1090.21 114.36 1089.61C114.6 1089 114.98 1088.44 115.51 1087.94C116.15 1087.31 116.85 1087 117.59 1087C117.87 1087 118.15 1087.06 118.4 1087.18C118.66 1087.3 118.89 1087.48 119.07 1087.74L121.39 1091.01C121.57 1091.26 121.7 1091.49 121.79 1091.71C121.88 1091.92 121.93 1092.13 121.93 1092.32C121.93 1092.56 121.86 1092.8 121.72 1093.03C121.59 1093.26 121.4 1093.5 121.16 1093.74L120.4 1094.53C120.29 1094.64 120.24 1094.77 120.24 1094.93C120.24 1095.01 120.25 1095.08 120.27 1095.16C120.3 1095.24 120.33 1095.3 120.35 1095.36C120.53 1095.69 120.84 1096.12 121.28 1096.64C121.73 1097.16 122.21 1097.69 122.73 1098.22C123.27 1098.75 123.79 1099.24 124.32 1099.69C124.84 1100.13 125.27 1100.43 125.61 1100.61C125.66 1100.63 125.72 1100.66 125.79 1100.69C125.87 1100.72 125.95 1100.73 126.04 1100.73C126.21 1100.73 126.34 1100.67 126.45 1100.56L127.21 1099.81C127.46 1099.56 127.7 1099.37 127.93 1099.25C128.16 1099.11 128.39 1099.04 128.64 1099.04C128.83 1099.04 129.03 1099.08 129.25 1099.17C129.47 1099.26 129.7 1099.39 129.95 1099.56L133.26 1101.91C133.52 1102.09 133.7 1102.3 133.81 1102.55C133.91 1102.8 133.97 1103.05 133.97 1103.33Z" stroke="#363636" stroke-width="1.5" stroke-miterlimit="10"/>
<path d="M173.5 1097C173.5 1100.18 170.93 1102.75 167.75 1102.75C164.57 1102.75 162 1100.18 162 1097C162 1093.82 164.57 1091.25 167.75 1091.25" stroke="#363636" stroke-width="1.5" stroke-linecap="round" stroke-linejoin="round"/>
<path d="M170 1097C170 1093.69 172.69 1091 176 1091C179.31 1091 182 1093.69 182 1097C182 1100.31 179.31 1103 176 1103" stroke="#363636" stroke-width="1.5" stroke-linecap="round" stroke-linejoin="round"/>
<path d="M220 1094V1087L218 1089" stroke="#363636" stroke-width="1.5" stroke-linecap="round" stroke-linejoin="round"/>
<path d="M220 1087L222 1089" stroke="#363636" stroke-width="1.5" stroke-linecap="round" stroke-linejoin="round"/>
<path d="M209.98 1098H214.39C214.77 1098 215.11 1098.21 215.28 1098.55L216.45 1100.89C216.79 1101.57 217.48 1102 218.24 1102H221.77C222.53 1102 223.22 1101.57 223.56 1100.89L224.73 1098.55C224.9 1098.21 225.25 1098 225.62 1098H229.98" stroke="#363636" stroke-width="1.5" stroke-linecap="round" stroke-linejoin="round"/>
<path d="M215 1090.13C211.46 1090.65 210 1092.73 210 1097V1100C210 1105 212 1107 217 1107H223C228 1107 230 1105 230 1100V1097C230 1092.73 228.54 1090.65 225 1090.13" stroke="#363636" stroke-width="1.5" stroke-linecap="round" stroke-linejoin="round"/>
<path d="M259 1107H277" stroke="#363636" stroke-width="1.5" stroke-linecap="round" stroke-linejoin="round"/>
<path d="M261.6 1093.38H260C259.45 1093.38 259 1093.83 259 1094.38V1103C259 1103.55 259.45 1104 260 1104H261.6C262.15 1104 262.6 1103.55 262.6 1103V1094.38C262.6 1093.83 262.15 1093.38 261.6 1093.38Z" stroke="#363636" stroke-width="1.5" stroke-linecap="round" stroke-linejoin="round"/>
<path d="M268.8 1090.19H267.2C266.65 1090.19 266.2 1090.64 266.2 1091.19V1103C266.2 1103.55 266.65 1104 267.2 1104H268.8C269.35 1104 269.8 1103.55 269.8 1103V1091.19C269.8 1090.64 269.35 1090.19 268.8 1090.19Z" stroke="#363636" stroke-width="1.5" stroke-linecap="round" stroke-linejoin="round"/>
<path d="M276 1087H274.4C273.85 1087 273.4 1087.45 273.4 1088V1103C273.4 1103.55 273.85 1104 274.4 1104H276C276.55 1104 277 1103.55 277 1103V1088C277 1087.45 276.55 1087 276 1087Z" stroke="#363636" stroke-width="1.5" stroke-linecap="round" stroke-linejoin="round"/>
<path d="M313.161 1095.87C313.061 1095.86 312.941 1095.86 312.831 1095.87C310.451 1095.79 308.561 1093.84 308.561 1091.44C308.561 1088.99 310.541 1087 313.001 1087C315.451 1087 317.441 1088.99 317.441 1091.44C317.431 1093.84 315.541 1095.79 313.161 1095.87Z" stroke="#363636" stroke-width="1.5" stroke-linecap="round" stroke-linejoin="round"/>
<path d="M320.409 1089C322.349 1089 323.909 1090.57 323.909 1092.5C323.909 1094.39 322.409 1095.93 320.539 1096C320.459 1095.99 320.369 1095.99 320.279 1096" stroke="#363636" stroke-width="1.5" stroke-linecap="round" stroke-linejoin="round"/>
<path d="M308.161 1099.56C305.741 1101.18 305.741 1103.82 308.161 1105.43C310.911 1107.27 315.421 1107.27 318.171 1105.43C320.591 1103.81 320.591 1101.17 318.171 1099.56C315.431 1097.73 310.921 1097.73 308.161 1099.56Z" stroke="#363636" stroke-width="1.5" stroke-linecap="round" stroke-linejoin="round"/>
<path d="M322.34 1105C323.06 1104.85 323.74 1104.56 324.3 1104.13C325.86 1102.96 325.86 1101.03 324.3 1099.86C323.75 1099.44 323.08 1099.16 322.37 1099" stroke="#363636" stroke-width="1.5" stroke-linecap="round" stroke-linejoin="round"/>
<path d="M372.91 1096.12C372.91 1101.01 369.36 1105.59 364.51 1106.93C364.18 1107.02 363.82 1107.02 363.49 1106.93C358.64 1105.59 355.09 1101.01 355.09 1096.12V1091.73C355.09 1090.91 355.71 1089.98 356.48 1089.67L362.05 1087.39C363.3 1086.88 364.71 1086.88 365.96 1087.39L371.53 1089.67C372.29 1089.98 372.92 1090.91 372.92 1091.73L372.91 1096.12Z" stroke="#363636" stroke-width="1.5" stroke-linecap="round" stroke-linejoin="round"/>
<path d="M417 1103.43H413L408.55 1106.39C407.89 1106.83 407 1106.36 407 1105.56V1103.43C404 1103.43 402 1101.43 402 1098.43V1092.43C402 1089.43 404 1087.43 407 1087.43H417C420 1087.43 422 1089.43 422 1092.43V1098.43C422 1101.43 420 1103.43 417 1103.43Z" stroke="#363636" stroke-width="1.5" stroke-miterlimit="10" stroke-linecap="round" stroke-linejoin="round"/>
<path d="M412 1096.36V1096.15C412 1095.47 412.42 1095.11 412.84 1094.82C413.25 1094.54 413.66 1094.18 413.66 1093.52C413.66 1092.6 412.92 1091.86 412 1091.86C411.08 1091.86 410.34 1092.6 410.34 1093.52" stroke="#363636" stroke-width="1.5" stroke-linecap="round" stroke-linejoin="round"/>
<path d="M411.995 1098.75H412.004" stroke="#363636" stroke-width="1.5" stroke-linecap="round" stroke-linejoin="round"/>
<path d="M124 1155C129.523 1155 134 1150.52 134 1145C134 1139.48 129.523 1135 124 1135C118.477 1135 114 1139.48 114 1145C114 1150.52 118.477 1155 124 1155Z" stroke="#363636" stroke-width="1.5" stroke-linecap="round" stroke-linejoin="round"/>
<path d="M120 1136H121C119.05 1141.84 119.05 1148.16 121 1154H120" stroke="#363636" stroke-width="1.5" stroke-linecap="round" stroke-linejoin="round"/>
<path d="M127 1136C128.95 1141.84 128.95 1148.16 127 1154" stroke="#363636" stroke-width="1.5" stroke-linecap="round" stroke-linejoin="round"/>
<path d="M115 1149V1148C120.84 1149.95 127.16 1149.95 133 1148V1149" stroke="#363636" stroke-width="1.5" stroke-linecap="round" stroke-linejoin="round"/>
<path d="M115 1142C120.84 1140.05 127.16 1140.05 133 1142" stroke="#363636" stroke-width="1.5" stroke-linecap="round" stroke-linejoin="round"/>
<path d="M178.41 1151.09L175.59 1153.91" stroke="#363636" stroke-width="1.5" stroke-linecap="round" stroke-linejoin="round"/>
<path d="M178.41 1153.91L175.59 1151.09" stroke="#363636" stroke-width="1.5" stroke-linecap="round" stroke-linejoin="round"/>
<path d="M172.16 1143.87C172.06 1143.86 171.94 1143.86 171.83 1143.87C169.45 1143.79 167.56 1141.84 167.56 1139.44C167.56 1136.99 169.54 1135 172 1135C174.45 1135 176.44 1136.99 176.44 1139.44C176.43 1141.84 174.54 1143.79 172.16 1143.87Z" stroke="#363636" stroke-width="1.5" stroke-linecap="round" stroke-linejoin="round"/>
<path d="M172 1154.81C170.18 1154.81 168.37 1154.35 166.99 1153.43C164.57 1151.81 164.57 1149.17 166.99 1147.56C169.74 1145.72 174.25 1145.72 177 1147.56" stroke="#363636" stroke-width="1.5" stroke-linecap="round" stroke-linejoin="round"/>
<path d="M217 1155H223C228 1155 230 1153 230 1148V1142C230 1137 228 1135 223 1135H217C212 1135 210 1137 210 1142V1148C210 1153 212 1155 217 1155Z" stroke="#363636" stroke-width="1.5" stroke-linecap="round" stroke-linejoin="round"/>
<path d="M220 1148.5C221.933 1148.5 223.5 1146.93 223.5 1145C223.5 1143.07 221.933 1141.5 220 1141.5C218.067 1141.5 216.5 1143.07 216.5 1145C216.5 1146.93 218.067 1148.5 220 1148.5Z" stroke="#363636" stroke-width="1.5" stroke-linecap="round" stroke-linejoin="round"/>
<path d="M225.636 1140H225.648" stroke="#363636" stroke-width="2" stroke-linecap="round" stroke-linejoin="round"/>
<path d="M273 1153H263C260 1153 258 1151 258 1148V1142C258 1139 260 1137 263 1137H273C276 1137 278 1139 278 1142V1148C278 1151 276 1153 273 1153Z" stroke="#363636" stroke-width="1.5" stroke-miterlimit="10" stroke-linecap="round" stroke-linejoin="round"/>
<path d="M267.4 1142.5L269.9 1144C270.8 1144.6 270.8 1145.5 269.9 1146.1L267.4 1147.6C266.4 1148.2 265.6 1147.7 265.6 1146.6V1143.6C265.6 1142.3 266.4 1141.9 267.4 1142.5Z" stroke="#363636" stroke-width="1.5" stroke-miterlimit="10" stroke-linecap="round" stroke-linejoin="round"/>
<path d="M325.784 1138.27C323.265 1138.27 321.216 1136.22 321.216 1133.7C321.216 1133.31 320.901 1133 320.513 1133H316.747C316.359 1133 316.044 1133.31 316.044 1133.7V1149.14C316.044 1150.62 314.839 1151.83 313.358 1151.83C311.877 1151.83 310.672 1150.62 310.672 1149.14C310.672 1147.66 311.877 1146.46 313.358 1146.46C313.746 1146.46 314.061 1146.14 314.061 1145.75V1141.99C314.061 1141.6 313.746 1141.28 313.358 1141.28C309.025 1141.28 305.5 1144.81 305.5 1149.14C305.5 1153.48 309.025 1157 313.358 1157C317.691 1157 321.216 1153.48 321.216 1149.14V1142.31C322.615 1143.05 324.172 1143.44 325.784 1143.44C326.173 1143.44 326.488 1143.13 326.488 1142.74V1138.97C326.488 1138.59 326.173 1138.27 325.784 1138.27ZM325.081 1142.01C323.58 1141.88 322.155 1141.36 320.923 1140.47C320.709 1140.32 320.427 1140.3 320.192 1140.42C319.957 1140.54 319.81 1140.78 319.81 1141.04V1149.14C319.81 1152.7 316.915 1155.59 313.358 1155.59C309.8 1155.59 306.906 1152.7 306.906 1149.14C306.906 1145.82 309.427 1143.08 312.655 1142.73V1145.11C310.732 1145.44 309.266 1147.13 309.266 1149.14C309.266 1151.4 311.101 1153.23 313.358 1153.23C315.614 1153.23 317.45 1151.4 317.45 1149.14V1134.41H319.851C320.173 1137.14 322.348 1139.31 325.081 1139.64V1142.01Z" fill="#363636"/>
<defs>
<clipPath id="clip0_15_3008">
<rect width="24" height="24" fill="white" transform="translate(304 413)"/>
</clipPath>
<clipPath id="clip1_15_3008">
<rect width="24" height="24" fill="white" transform="translate(352 413)"/>
</clipPath>
<clipPath id="clip2_15_3008">
<rect width="24" height="24" fill="white" transform="translate(112 1037)"/>
</clipPath>
<clipPath id="clip3_15_3008">
<rect width="24" height="24" fill="white" transform="translate(160 1037)"/>
</clipPath>
</defs>
</svg>
