<svg width="24" height="24" viewBox="0 0 24 24" fill="none" xmlns="http://www.w3.org/2000/svg">
<path d="M21.7844 5.27179C19.2653 5.27179 17.2158 3.22229 17.2158 0.703125C17.2158 0.314758 16.9008 0 16.5126 0H12.7469C12.3585 0 12.0438 0.314758 12.0438 0.703125V16.1422C12.0438 17.6232 10.8389 18.828 9.35779 18.828C7.87683 18.828 6.672 17.6232 6.672 16.1422C6.672 14.6611 7.87683 13.4562 9.35779 13.4562C9.74615 13.4562 10.0609 13.1415 10.0609 12.7531V8.98737C10.0609 8.59918 9.74615 8.28424 9.35779 8.28424C5.02496 8.28424 1.5 11.8094 1.5 16.1422C1.5 20.475 5.02496 24 9.35779 24C13.6906 24 17.2158 20.475 17.2158 16.1422V9.30817C18.6152 10.0543 20.1724 10.4438 21.7844 10.4438C22.1728 10.4438 22.4875 10.129 22.4875 9.74066V5.97491C22.4875 5.58673 22.1728 5.27179 21.7844 5.27179ZM21.0813 9.00842C19.5802 8.88354 18.1547 8.35913 16.9232 7.47327C16.7091 7.31909 16.4268 7.29785 16.1918 7.41833C15.9571 7.53845 15.8095 7.78015 15.8095 8.04401V16.1422C15.8095 19.6996 12.9152 22.5938 9.35779 22.5938C5.80042 22.5938 2.90625 19.6996 2.90625 16.1422C2.90625 12.8223 5.42688 10.08 8.65466 9.72858V12.1104C6.73206 12.4448 5.26575 14.1253 5.26575 16.1422C5.26575 18.3986 7.10138 20.2344 9.35779 20.2344C11.6144 20.2344 13.45 18.3986 13.45 16.1422V1.40625H15.8505C16.1726 4.14001 18.3475 6.31494 21.0813 6.63702V9.00842Z" fill="#363636"/>
</svg>
